%TF.GenerationSoftware,KiCad,Pcbnew,9.0.5*%
%TF.CreationDate,2025-11-09T16:32:06+01:00*%
%TF.ProjectId,PTP,5054502e-6b69-4636-9164-5f7063625858,rev?*%
%TF.SameCoordinates,Original*%
%TF.FileFunction,Legend,Bot*%
%TF.FilePolarity,Positive*%
%FSLAX46Y46*%
G04 Gerber Fmt 4.6, Leading zero omitted, Abs format (unit mm)*
G04 Created by KiCad (PCBNEW 9.0.5) date 2025-11-09 16:32:06*
%MOMM*%
%LPD*%
G01*
G04 APERTURE LIST*
%ADD10C,0.160000*%
G04 APERTURE END LIST*
D10*
X206849498Y-116719299D02*
X206516165Y-117719299D01*
X206516165Y-117719299D02*
X206182832Y-116719299D01*
X205325689Y-117719299D02*
X205897117Y-117719299D01*
X205611403Y-117719299D02*
X205611403Y-116719299D01*
X205611403Y-116719299D02*
X205706641Y-116862156D01*
X205706641Y-116862156D02*
X205801879Y-116957394D01*
X205801879Y-116957394D02*
X205897117Y-117005013D01*
X203611403Y-117719299D02*
X204182831Y-117719299D01*
X203897117Y-117719299D02*
X203897117Y-116719299D01*
X203897117Y-116719299D02*
X203992355Y-116862156D01*
X203992355Y-116862156D02*
X204087593Y-116957394D01*
X204087593Y-116957394D02*
X204182831Y-117005013D01*
X202659022Y-117719299D02*
X203230450Y-117719299D01*
X202944736Y-117719299D02*
X202944736Y-116719299D01*
X202944736Y-116719299D02*
X203039974Y-116862156D01*
X203039974Y-116862156D02*
X203135212Y-116957394D01*
X203135212Y-116957394D02*
X203230450Y-117005013D01*
X201516165Y-116671680D02*
X202373307Y-117957394D01*
X201230450Y-116814537D02*
X201182831Y-116766918D01*
X201182831Y-116766918D02*
X201087593Y-116719299D01*
X201087593Y-116719299D02*
X200849498Y-116719299D01*
X200849498Y-116719299D02*
X200754260Y-116766918D01*
X200754260Y-116766918D02*
X200706641Y-116814537D01*
X200706641Y-116814537D02*
X200659022Y-116909775D01*
X200659022Y-116909775D02*
X200659022Y-117005013D01*
X200659022Y-117005013D02*
X200706641Y-117147870D01*
X200706641Y-117147870D02*
X201278069Y-117719299D01*
X201278069Y-117719299D02*
X200659022Y-117719299D01*
X200039974Y-116719299D02*
X199944736Y-116719299D01*
X199944736Y-116719299D02*
X199849498Y-116766918D01*
X199849498Y-116766918D02*
X199801879Y-116814537D01*
X199801879Y-116814537D02*
X199754260Y-116909775D01*
X199754260Y-116909775D02*
X199706641Y-117100251D01*
X199706641Y-117100251D02*
X199706641Y-117338346D01*
X199706641Y-117338346D02*
X199754260Y-117528822D01*
X199754260Y-117528822D02*
X199801879Y-117624060D01*
X199801879Y-117624060D02*
X199849498Y-117671680D01*
X199849498Y-117671680D02*
X199944736Y-117719299D01*
X199944736Y-117719299D02*
X200039974Y-117719299D01*
X200039974Y-117719299D02*
X200135212Y-117671680D01*
X200135212Y-117671680D02*
X200182831Y-117624060D01*
X200182831Y-117624060D02*
X200230450Y-117528822D01*
X200230450Y-117528822D02*
X200278069Y-117338346D01*
X200278069Y-117338346D02*
X200278069Y-117100251D01*
X200278069Y-117100251D02*
X200230450Y-116909775D01*
X200230450Y-116909775D02*
X200182831Y-116814537D01*
X200182831Y-116814537D02*
X200135212Y-116766918D01*
X200135212Y-116766918D02*
X200039974Y-116719299D01*
X199325688Y-116814537D02*
X199278069Y-116766918D01*
X199278069Y-116766918D02*
X199182831Y-116719299D01*
X199182831Y-116719299D02*
X198944736Y-116719299D01*
X198944736Y-116719299D02*
X198849498Y-116766918D01*
X198849498Y-116766918D02*
X198801879Y-116814537D01*
X198801879Y-116814537D02*
X198754260Y-116909775D01*
X198754260Y-116909775D02*
X198754260Y-117005013D01*
X198754260Y-117005013D02*
X198801879Y-117147870D01*
X198801879Y-117147870D02*
X199373307Y-117719299D01*
X199373307Y-117719299D02*
X198754260Y-117719299D01*
X197849498Y-116719299D02*
X198325688Y-116719299D01*
X198325688Y-116719299D02*
X198373307Y-117195489D01*
X198373307Y-117195489D02*
X198325688Y-117147870D01*
X198325688Y-117147870D02*
X198230450Y-117100251D01*
X198230450Y-117100251D02*
X197992355Y-117100251D01*
X197992355Y-117100251D02*
X197897117Y-117147870D01*
X197897117Y-117147870D02*
X197849498Y-117195489D01*
X197849498Y-117195489D02*
X197801879Y-117290727D01*
X197801879Y-117290727D02*
X197801879Y-117528822D01*
X197801879Y-117528822D02*
X197849498Y-117624060D01*
X197849498Y-117624060D02*
X197897117Y-117671680D01*
X197897117Y-117671680D02*
X197992355Y-117719299D01*
X197992355Y-117719299D02*
X198230450Y-117719299D01*
X198230450Y-117719299D02*
X198325688Y-117671680D01*
X198325688Y-117671680D02*
X198373307Y-117624060D01*
M02*
