M48
; DRILL file {KiCad 9.0.5} date 2025-11-09T16:33:00+0100
; FORMAT={-:-/ absolute / metric / decimal}
; #@! TF.CreationDate,2025-11-09T16:33:00+01:00
; #@! TF.GenerationSoftware,Kicad,Pcbnew,9.0.5
; #@! TF.FileFunction,Plated,1,2,PTH
FMAT,2
METRIC
; #@! TA.AperFunction,Plated,PTH,ViaDrill
T1C0.300
; #@! TA.AperFunction,Plated,PTH,ComponentDrill
T2C1.000
%
G90
G05
T1
X190.3Y-118.85
X192.0Y-113.6
X192.05Y-119.75
X192.05Y-124.0
X194.3Y-116.75
X194.33Y-114.52
X195.0Y-118.6
X195.5Y-106.9
X196.4Y-112.5
X201.0Y-123.5
X201.6Y-107.7
X204.5Y-120.0
X208.25Y-120.95
X208.45Y-107.2
X209.0Y-120.95
X209.2Y-115.2
X211.25Y-123.35
X214.55Y-126.9
X216.05Y-125.5
X217.0Y-125.5
X217.25Y-116.15
X218.4Y-114.1
T2
X208.46Y-104.9
X211.0Y-104.9
X213.54Y-104.9
X216.08Y-104.9
M30
