%TF.GenerationSoftware,KiCad,Pcbnew,9.0.5*%
%TF.CreationDate,2025-11-09T16:32:06+01:00*%
%TF.ProjectId,PTP,5054502e-6b69-4636-9164-5f7063625858,rev?*%
%TF.SameCoordinates,Original*%
%TF.FileFunction,Legend,Top*%
%TF.FilePolarity,Positive*%
%FSLAX46Y46*%
G04 Gerber Fmt 4.6, Leading zero omitted, Abs format (unit mm)*
G04 Created by KiCad (PCBNEW 9.0.5) date 2025-11-09 16:32:06*
%MOMM*%
%LPD*%
G01*
G04 APERTURE LIST*
%ADD10C,0.160000*%
%ADD11C,0.120000*%
%ADD12C,0.100000*%
G04 APERTURE END LIST*
D10*
X210580952Y-130254299D02*
X210771428Y-130254299D01*
X210771428Y-130254299D02*
X210866666Y-130301918D01*
X210866666Y-130301918D02*
X210961904Y-130397156D01*
X210961904Y-130397156D02*
X211009523Y-130587632D01*
X211009523Y-130587632D02*
X211009523Y-130920965D01*
X211009523Y-130920965D02*
X210961904Y-131111441D01*
X210961904Y-131111441D02*
X210866666Y-131206680D01*
X210866666Y-131206680D02*
X210771428Y-131254299D01*
X210771428Y-131254299D02*
X210580952Y-131254299D01*
X210580952Y-131254299D02*
X210485714Y-131206680D01*
X210485714Y-131206680D02*
X210390476Y-131111441D01*
X210390476Y-131111441D02*
X210342857Y-130920965D01*
X210342857Y-130920965D02*
X210342857Y-130587632D01*
X210342857Y-130587632D02*
X210390476Y-130397156D01*
X210390476Y-130397156D02*
X210485714Y-130301918D01*
X210485714Y-130301918D02*
X210580952Y-130254299D01*
X211438095Y-131254299D02*
X211438095Y-130254299D01*
X211438095Y-130254299D02*
X212009523Y-131254299D01*
X212009523Y-131254299D02*
X212009523Y-130254299D01*
X210195739Y-102971680D02*
X210338596Y-103019299D01*
X210338596Y-103019299D02*
X210576691Y-103019299D01*
X210576691Y-103019299D02*
X210671929Y-102971680D01*
X210671929Y-102971680D02*
X210719548Y-102924060D01*
X210719548Y-102924060D02*
X210767167Y-102828822D01*
X210767167Y-102828822D02*
X210767167Y-102733584D01*
X210767167Y-102733584D02*
X210719548Y-102638346D01*
X210719548Y-102638346D02*
X210671929Y-102590727D01*
X210671929Y-102590727D02*
X210576691Y-102543108D01*
X210576691Y-102543108D02*
X210386215Y-102495489D01*
X210386215Y-102495489D02*
X210290977Y-102447870D01*
X210290977Y-102447870D02*
X210243358Y-102400251D01*
X210243358Y-102400251D02*
X210195739Y-102305013D01*
X210195739Y-102305013D02*
X210195739Y-102209775D01*
X210195739Y-102209775D02*
X210243358Y-102114537D01*
X210243358Y-102114537D02*
X210290977Y-102066918D01*
X210290977Y-102066918D02*
X210386215Y-102019299D01*
X210386215Y-102019299D02*
X210624310Y-102019299D01*
X210624310Y-102019299D02*
X210767167Y-102066918D01*
X211100501Y-102019299D02*
X211338596Y-103019299D01*
X211338596Y-103019299D02*
X211529072Y-102305013D01*
X211529072Y-102305013D02*
X211719548Y-103019299D01*
X211719548Y-103019299D02*
X211957644Y-102019299D01*
X212338596Y-103019299D02*
X212338596Y-102019299D01*
X212338596Y-102019299D02*
X212576691Y-102019299D01*
X212576691Y-102019299D02*
X212719548Y-102066918D01*
X212719548Y-102066918D02*
X212814786Y-102162156D01*
X212814786Y-102162156D02*
X212862405Y-102257394D01*
X212862405Y-102257394D02*
X212910024Y-102447870D01*
X212910024Y-102447870D02*
X212910024Y-102590727D01*
X212910024Y-102590727D02*
X212862405Y-102781203D01*
X212862405Y-102781203D02*
X212814786Y-102876441D01*
X212814786Y-102876441D02*
X212719548Y-102971680D01*
X212719548Y-102971680D02*
X212576691Y-103019299D01*
X212576691Y-103019299D02*
X212338596Y-103019299D01*
X219343358Y-108869299D02*
X219343358Y-109678822D01*
X219343358Y-109678822D02*
X219390977Y-109774060D01*
X219390977Y-109774060D02*
X219438596Y-109821680D01*
X219438596Y-109821680D02*
X219533834Y-109869299D01*
X219533834Y-109869299D02*
X219724310Y-109869299D01*
X219724310Y-109869299D02*
X219819548Y-109821680D01*
X219819548Y-109821680D02*
X219867167Y-109774060D01*
X219867167Y-109774060D02*
X219914786Y-109678822D01*
X219914786Y-109678822D02*
X219914786Y-108869299D01*
X220343358Y-109821680D02*
X220486215Y-109869299D01*
X220486215Y-109869299D02*
X220724310Y-109869299D01*
X220724310Y-109869299D02*
X220819548Y-109821680D01*
X220819548Y-109821680D02*
X220867167Y-109774060D01*
X220867167Y-109774060D02*
X220914786Y-109678822D01*
X220914786Y-109678822D02*
X220914786Y-109583584D01*
X220914786Y-109583584D02*
X220867167Y-109488346D01*
X220867167Y-109488346D02*
X220819548Y-109440727D01*
X220819548Y-109440727D02*
X220724310Y-109393108D01*
X220724310Y-109393108D02*
X220533834Y-109345489D01*
X220533834Y-109345489D02*
X220438596Y-109297870D01*
X220438596Y-109297870D02*
X220390977Y-109250251D01*
X220390977Y-109250251D02*
X220343358Y-109155013D01*
X220343358Y-109155013D02*
X220343358Y-109059775D01*
X220343358Y-109059775D02*
X220390977Y-108964537D01*
X220390977Y-108964537D02*
X220438596Y-108916918D01*
X220438596Y-108916918D02*
X220533834Y-108869299D01*
X220533834Y-108869299D02*
X220771929Y-108869299D01*
X220771929Y-108869299D02*
X220914786Y-108916918D01*
X221676691Y-109345489D02*
X221819548Y-109393108D01*
X221819548Y-109393108D02*
X221867167Y-109440727D01*
X221867167Y-109440727D02*
X221914786Y-109535965D01*
X221914786Y-109535965D02*
X221914786Y-109678822D01*
X221914786Y-109678822D02*
X221867167Y-109774060D01*
X221867167Y-109774060D02*
X221819548Y-109821680D01*
X221819548Y-109821680D02*
X221724310Y-109869299D01*
X221724310Y-109869299D02*
X221343358Y-109869299D01*
X221343358Y-109869299D02*
X221343358Y-108869299D01*
X221343358Y-108869299D02*
X221676691Y-108869299D01*
X221676691Y-108869299D02*
X221771929Y-108916918D01*
X221771929Y-108916918D02*
X221819548Y-108964537D01*
X221819548Y-108964537D02*
X221867167Y-109059775D01*
X221867167Y-109059775D02*
X221867167Y-109155013D01*
X221867167Y-109155013D02*
X221819548Y-109250251D01*
X221819548Y-109250251D02*
X221771929Y-109297870D01*
X221771929Y-109297870D02*
X221676691Y-109345489D01*
X221676691Y-109345489D02*
X221343358Y-109345489D01*
X223105263Y-109869299D02*
X223105263Y-108869299D01*
X223105263Y-108869299D02*
X223438596Y-109583584D01*
X223438596Y-109583584D02*
X223771929Y-108869299D01*
X223771929Y-108869299D02*
X223771929Y-109869299D01*
X224248120Y-109869299D02*
X224248120Y-108869299D01*
X224724310Y-109869299D02*
X224724310Y-108869299D01*
X224724310Y-108869299D02*
X225295738Y-109869299D01*
X225295738Y-109869299D02*
X225295738Y-108869299D01*
X225771929Y-109869299D02*
X225771929Y-108869299D01*
X227343357Y-109345489D02*
X227486214Y-109393108D01*
X227486214Y-109393108D02*
X227533833Y-109440727D01*
X227533833Y-109440727D02*
X227581452Y-109535965D01*
X227581452Y-109535965D02*
X227581452Y-109678822D01*
X227581452Y-109678822D02*
X227533833Y-109774060D01*
X227533833Y-109774060D02*
X227486214Y-109821680D01*
X227486214Y-109821680D02*
X227390976Y-109869299D01*
X227390976Y-109869299D02*
X227010024Y-109869299D01*
X227010024Y-109869299D02*
X227010024Y-108869299D01*
X227010024Y-108869299D02*
X227343357Y-108869299D01*
X227343357Y-108869299D02*
X227438595Y-108916918D01*
X227438595Y-108916918D02*
X227486214Y-108964537D01*
X227486214Y-108964537D02*
X227533833Y-109059775D01*
X227533833Y-109059775D02*
X227533833Y-109155013D01*
X227533833Y-109155013D02*
X227486214Y-109250251D01*
X227486214Y-109250251D02*
X227438595Y-109297870D01*
X227438595Y-109297870D02*
X227343357Y-109345489D01*
X227343357Y-109345489D02*
X227010024Y-109345489D01*
X201176691Y-100735545D02*
X201319548Y-100783164D01*
X201319548Y-100783164D02*
X201367167Y-100830783D01*
X201367167Y-100830783D02*
X201414786Y-100926021D01*
X201414786Y-100926021D02*
X201414786Y-101068878D01*
X201414786Y-101068878D02*
X201367167Y-101164116D01*
X201367167Y-101164116D02*
X201319548Y-101211736D01*
X201319548Y-101211736D02*
X201224310Y-101259355D01*
X201224310Y-101259355D02*
X200843358Y-101259355D01*
X200843358Y-101259355D02*
X200843358Y-100259355D01*
X200843358Y-100259355D02*
X201176691Y-100259355D01*
X201176691Y-100259355D02*
X201271929Y-100306974D01*
X201271929Y-100306974D02*
X201319548Y-100354593D01*
X201319548Y-100354593D02*
X201367167Y-100449831D01*
X201367167Y-100449831D02*
X201367167Y-100545069D01*
X201367167Y-100545069D02*
X201319548Y-100640307D01*
X201319548Y-100640307D02*
X201271929Y-100687926D01*
X201271929Y-100687926D02*
X201176691Y-100735545D01*
X201176691Y-100735545D02*
X200843358Y-100735545D01*
X202033834Y-100259355D02*
X202224310Y-100259355D01*
X202224310Y-100259355D02*
X202319548Y-100306974D01*
X202319548Y-100306974D02*
X202414786Y-100402212D01*
X202414786Y-100402212D02*
X202462405Y-100592688D01*
X202462405Y-100592688D02*
X202462405Y-100926021D01*
X202462405Y-100926021D02*
X202414786Y-101116497D01*
X202414786Y-101116497D02*
X202319548Y-101211736D01*
X202319548Y-101211736D02*
X202224310Y-101259355D01*
X202224310Y-101259355D02*
X202033834Y-101259355D01*
X202033834Y-101259355D02*
X201938596Y-101211736D01*
X201938596Y-101211736D02*
X201843358Y-101116497D01*
X201843358Y-101116497D02*
X201795739Y-100926021D01*
X201795739Y-100926021D02*
X201795739Y-100592688D01*
X201795739Y-100592688D02*
X201843358Y-100402212D01*
X201843358Y-100402212D02*
X201938596Y-100306974D01*
X201938596Y-100306974D02*
X202033834Y-100259355D01*
X203081453Y-100259355D02*
X203271929Y-100259355D01*
X203271929Y-100259355D02*
X203367167Y-100306974D01*
X203367167Y-100306974D02*
X203462405Y-100402212D01*
X203462405Y-100402212D02*
X203510024Y-100592688D01*
X203510024Y-100592688D02*
X203510024Y-100926021D01*
X203510024Y-100926021D02*
X203462405Y-101116497D01*
X203462405Y-101116497D02*
X203367167Y-101211736D01*
X203367167Y-101211736D02*
X203271929Y-101259355D01*
X203271929Y-101259355D02*
X203081453Y-101259355D01*
X203081453Y-101259355D02*
X202986215Y-101211736D01*
X202986215Y-101211736D02*
X202890977Y-101116497D01*
X202890977Y-101116497D02*
X202843358Y-100926021D01*
X202843358Y-100926021D02*
X202843358Y-100592688D01*
X202843358Y-100592688D02*
X202890977Y-100402212D01*
X202890977Y-100402212D02*
X202986215Y-100306974D01*
X202986215Y-100306974D02*
X203081453Y-100259355D01*
X203795739Y-100259355D02*
X204367167Y-100259355D01*
X204081453Y-101259355D02*
X204081453Y-100259355D01*
X195935714Y-102749327D02*
X195364286Y-102749327D01*
X195650000Y-102749327D02*
X195650000Y-101749327D01*
X195650000Y-101749327D02*
X195554762Y-101892184D01*
X195554762Y-101892184D02*
X195459524Y-101987422D01*
X195459524Y-101987422D02*
X195364286Y-102035041D01*
X195650000Y-104359271D02*
X195650000Y-103597366D01*
X195459524Y-103787842D02*
X195650000Y-103597366D01*
X195650000Y-103597366D02*
X195840476Y-103787842D01*
X192357142Y-119209060D02*
X192309523Y-119256680D01*
X192309523Y-119256680D02*
X192166666Y-119304299D01*
X192166666Y-119304299D02*
X192071428Y-119304299D01*
X192071428Y-119304299D02*
X191928571Y-119256680D01*
X191928571Y-119256680D02*
X191833333Y-119161441D01*
X191833333Y-119161441D02*
X191785714Y-119066203D01*
X191785714Y-119066203D02*
X191738095Y-118875727D01*
X191738095Y-118875727D02*
X191738095Y-118732870D01*
X191738095Y-118732870D02*
X191785714Y-118542394D01*
X191785714Y-118542394D02*
X191833333Y-118447156D01*
X191833333Y-118447156D02*
X191928571Y-118351918D01*
X191928571Y-118351918D02*
X192071428Y-118304299D01*
X192071428Y-118304299D02*
X192166666Y-118304299D01*
X192166666Y-118304299D02*
X192309523Y-118351918D01*
X192309523Y-118351918D02*
X192357142Y-118399537D01*
X193309523Y-119304299D02*
X192738095Y-119304299D01*
X193023809Y-119304299D02*
X193023809Y-118304299D01*
X193023809Y-118304299D02*
X192928571Y-118447156D01*
X192928571Y-118447156D02*
X192833333Y-118542394D01*
X192833333Y-118542394D02*
X192738095Y-118590013D01*
X194261904Y-119304299D02*
X193690476Y-119304299D01*
X193976190Y-119304299D02*
X193976190Y-118304299D01*
X193976190Y-118304299D02*
X193880952Y-118447156D01*
X193880952Y-118447156D02*
X193785714Y-118542394D01*
X193785714Y-118542394D02*
X193690476Y-118590013D01*
X208133333Y-113459060D02*
X208085714Y-113506680D01*
X208085714Y-113506680D02*
X207942857Y-113554299D01*
X207942857Y-113554299D02*
X207847619Y-113554299D01*
X207847619Y-113554299D02*
X207704762Y-113506680D01*
X207704762Y-113506680D02*
X207609524Y-113411441D01*
X207609524Y-113411441D02*
X207561905Y-113316203D01*
X207561905Y-113316203D02*
X207514286Y-113125727D01*
X207514286Y-113125727D02*
X207514286Y-112982870D01*
X207514286Y-112982870D02*
X207561905Y-112792394D01*
X207561905Y-112792394D02*
X207609524Y-112697156D01*
X207609524Y-112697156D02*
X207704762Y-112601918D01*
X207704762Y-112601918D02*
X207847619Y-112554299D01*
X207847619Y-112554299D02*
X207942857Y-112554299D01*
X207942857Y-112554299D02*
X208085714Y-112601918D01*
X208085714Y-112601918D02*
X208133333Y-112649537D01*
X208990476Y-112887632D02*
X208990476Y-113554299D01*
X208752381Y-112506680D02*
X208514286Y-113220965D01*
X208514286Y-113220965D02*
X209133333Y-113220965D01*
X210309060Y-119992857D02*
X210356680Y-120040476D01*
X210356680Y-120040476D02*
X210404299Y-120183333D01*
X210404299Y-120183333D02*
X210404299Y-120278571D01*
X210404299Y-120278571D02*
X210356680Y-120421428D01*
X210356680Y-120421428D02*
X210261441Y-120516666D01*
X210261441Y-120516666D02*
X210166203Y-120564285D01*
X210166203Y-120564285D02*
X209975727Y-120611904D01*
X209975727Y-120611904D02*
X209832870Y-120611904D01*
X209832870Y-120611904D02*
X209642394Y-120564285D01*
X209642394Y-120564285D02*
X209547156Y-120516666D01*
X209547156Y-120516666D02*
X209451918Y-120421428D01*
X209451918Y-120421428D02*
X209404299Y-120278571D01*
X209404299Y-120278571D02*
X209404299Y-120183333D01*
X209404299Y-120183333D02*
X209451918Y-120040476D01*
X209451918Y-120040476D02*
X209499537Y-119992857D01*
X210404299Y-119040476D02*
X210404299Y-119611904D01*
X210404299Y-119326190D02*
X209404299Y-119326190D01*
X209404299Y-119326190D02*
X209547156Y-119421428D01*
X209547156Y-119421428D02*
X209642394Y-119516666D01*
X209642394Y-119516666D02*
X209690013Y-119611904D01*
X209404299Y-118135714D02*
X209404299Y-118611904D01*
X209404299Y-118611904D02*
X209880489Y-118659523D01*
X209880489Y-118659523D02*
X209832870Y-118611904D01*
X209832870Y-118611904D02*
X209785251Y-118516666D01*
X209785251Y-118516666D02*
X209785251Y-118278571D01*
X209785251Y-118278571D02*
X209832870Y-118183333D01*
X209832870Y-118183333D02*
X209880489Y-118135714D01*
X209880489Y-118135714D02*
X209975727Y-118088095D01*
X209975727Y-118088095D02*
X210213822Y-118088095D01*
X210213822Y-118088095D02*
X210309060Y-118135714D01*
X210309060Y-118135714D02*
X210356680Y-118183333D01*
X210356680Y-118183333D02*
X210404299Y-118278571D01*
X210404299Y-118278571D02*
X210404299Y-118516666D01*
X210404299Y-118516666D02*
X210356680Y-118611904D01*
X210356680Y-118611904D02*
X210309060Y-118659523D01*
X199433333Y-125059060D02*
X199385714Y-125106680D01*
X199385714Y-125106680D02*
X199242857Y-125154299D01*
X199242857Y-125154299D02*
X199147619Y-125154299D01*
X199147619Y-125154299D02*
X199004762Y-125106680D01*
X199004762Y-125106680D02*
X198909524Y-125011441D01*
X198909524Y-125011441D02*
X198861905Y-124916203D01*
X198861905Y-124916203D02*
X198814286Y-124725727D01*
X198814286Y-124725727D02*
X198814286Y-124582870D01*
X198814286Y-124582870D02*
X198861905Y-124392394D01*
X198861905Y-124392394D02*
X198909524Y-124297156D01*
X198909524Y-124297156D02*
X199004762Y-124201918D01*
X199004762Y-124201918D02*
X199147619Y-124154299D01*
X199147619Y-124154299D02*
X199242857Y-124154299D01*
X199242857Y-124154299D02*
X199385714Y-124201918D01*
X199385714Y-124201918D02*
X199433333Y-124249537D01*
X199909524Y-125154299D02*
X200100000Y-125154299D01*
X200100000Y-125154299D02*
X200195238Y-125106680D01*
X200195238Y-125106680D02*
X200242857Y-125059060D01*
X200242857Y-125059060D02*
X200338095Y-124916203D01*
X200338095Y-124916203D02*
X200385714Y-124725727D01*
X200385714Y-124725727D02*
X200385714Y-124344775D01*
X200385714Y-124344775D02*
X200338095Y-124249537D01*
X200338095Y-124249537D02*
X200290476Y-124201918D01*
X200290476Y-124201918D02*
X200195238Y-124154299D01*
X200195238Y-124154299D02*
X200004762Y-124154299D01*
X200004762Y-124154299D02*
X199909524Y-124201918D01*
X199909524Y-124201918D02*
X199861905Y-124249537D01*
X199861905Y-124249537D02*
X199814286Y-124344775D01*
X199814286Y-124344775D02*
X199814286Y-124582870D01*
X199814286Y-124582870D02*
X199861905Y-124678108D01*
X199861905Y-124678108D02*
X199909524Y-124725727D01*
X199909524Y-124725727D02*
X200004762Y-124773346D01*
X200004762Y-124773346D02*
X200195238Y-124773346D01*
X200195238Y-124773346D02*
X200290476Y-124725727D01*
X200290476Y-124725727D02*
X200338095Y-124678108D01*
X200338095Y-124678108D02*
X200385714Y-124582870D01*
X214338095Y-113054299D02*
X214338095Y-113863822D01*
X214338095Y-113863822D02*
X214385714Y-113959060D01*
X214385714Y-113959060D02*
X214433333Y-114006680D01*
X214433333Y-114006680D02*
X214528571Y-114054299D01*
X214528571Y-114054299D02*
X214719047Y-114054299D01*
X214719047Y-114054299D02*
X214814285Y-114006680D01*
X214814285Y-114006680D02*
X214861904Y-113959060D01*
X214861904Y-113959060D02*
X214909523Y-113863822D01*
X214909523Y-113863822D02*
X214909523Y-113054299D01*
X215338095Y-113149537D02*
X215385714Y-113101918D01*
X215385714Y-113101918D02*
X215480952Y-113054299D01*
X215480952Y-113054299D02*
X215719047Y-113054299D01*
X215719047Y-113054299D02*
X215814285Y-113101918D01*
X215814285Y-113101918D02*
X215861904Y-113149537D01*
X215861904Y-113149537D02*
X215909523Y-113244775D01*
X215909523Y-113244775D02*
X215909523Y-113340013D01*
X215909523Y-113340013D02*
X215861904Y-113482870D01*
X215861904Y-113482870D02*
X215290476Y-114054299D01*
X215290476Y-114054299D02*
X215909523Y-114054299D01*
X206809060Y-123192857D02*
X206856680Y-123240476D01*
X206856680Y-123240476D02*
X206904299Y-123383333D01*
X206904299Y-123383333D02*
X206904299Y-123478571D01*
X206904299Y-123478571D02*
X206856680Y-123621428D01*
X206856680Y-123621428D02*
X206761441Y-123716666D01*
X206761441Y-123716666D02*
X206666203Y-123764285D01*
X206666203Y-123764285D02*
X206475727Y-123811904D01*
X206475727Y-123811904D02*
X206332870Y-123811904D01*
X206332870Y-123811904D02*
X206142394Y-123764285D01*
X206142394Y-123764285D02*
X206047156Y-123716666D01*
X206047156Y-123716666D02*
X205951918Y-123621428D01*
X205951918Y-123621428D02*
X205904299Y-123478571D01*
X205904299Y-123478571D02*
X205904299Y-123383333D01*
X205904299Y-123383333D02*
X205951918Y-123240476D01*
X205951918Y-123240476D02*
X205999537Y-123192857D01*
X206904299Y-122240476D02*
X206904299Y-122811904D01*
X206904299Y-122526190D02*
X205904299Y-122526190D01*
X205904299Y-122526190D02*
X206047156Y-122621428D01*
X206047156Y-122621428D02*
X206142394Y-122716666D01*
X206142394Y-122716666D02*
X206190013Y-122811904D01*
X205904299Y-121383333D02*
X205904299Y-121573809D01*
X205904299Y-121573809D02*
X205951918Y-121669047D01*
X205951918Y-121669047D02*
X205999537Y-121716666D01*
X205999537Y-121716666D02*
X206142394Y-121811904D01*
X206142394Y-121811904D02*
X206332870Y-121859523D01*
X206332870Y-121859523D02*
X206713822Y-121859523D01*
X206713822Y-121859523D02*
X206809060Y-121811904D01*
X206809060Y-121811904D02*
X206856680Y-121764285D01*
X206856680Y-121764285D02*
X206904299Y-121669047D01*
X206904299Y-121669047D02*
X206904299Y-121478571D01*
X206904299Y-121478571D02*
X206856680Y-121383333D01*
X206856680Y-121383333D02*
X206809060Y-121335714D01*
X206809060Y-121335714D02*
X206713822Y-121288095D01*
X206713822Y-121288095D02*
X206475727Y-121288095D01*
X206475727Y-121288095D02*
X206380489Y-121335714D01*
X206380489Y-121335714D02*
X206332870Y-121383333D01*
X206332870Y-121383333D02*
X206285251Y-121478571D01*
X206285251Y-121478571D02*
X206285251Y-121669047D01*
X206285251Y-121669047D02*
X206332870Y-121764285D01*
X206332870Y-121764285D02*
X206380489Y-121811904D01*
X206380489Y-121811904D02*
X206475727Y-121859523D01*
X218733333Y-127904299D02*
X218400000Y-127428108D01*
X218161905Y-127904299D02*
X218161905Y-126904299D01*
X218161905Y-126904299D02*
X218542857Y-126904299D01*
X218542857Y-126904299D02*
X218638095Y-126951918D01*
X218638095Y-126951918D02*
X218685714Y-126999537D01*
X218685714Y-126999537D02*
X218733333Y-127094775D01*
X218733333Y-127094775D02*
X218733333Y-127237632D01*
X218733333Y-127237632D02*
X218685714Y-127332870D01*
X218685714Y-127332870D02*
X218638095Y-127380489D01*
X218638095Y-127380489D02*
X218542857Y-127428108D01*
X218542857Y-127428108D02*
X218161905Y-127428108D01*
X219590476Y-127237632D02*
X219590476Y-127904299D01*
X219352381Y-126856680D02*
X219114286Y-127570965D01*
X219114286Y-127570965D02*
X219733333Y-127570965D01*
X190183333Y-123046560D02*
X190135714Y-123094180D01*
X190135714Y-123094180D02*
X189992857Y-123141799D01*
X189992857Y-123141799D02*
X189897619Y-123141799D01*
X189897619Y-123141799D02*
X189754762Y-123094180D01*
X189754762Y-123094180D02*
X189659524Y-122998941D01*
X189659524Y-122998941D02*
X189611905Y-122903703D01*
X189611905Y-122903703D02*
X189564286Y-122713227D01*
X189564286Y-122713227D02*
X189564286Y-122570370D01*
X189564286Y-122570370D02*
X189611905Y-122379894D01*
X189611905Y-122379894D02*
X189659524Y-122284656D01*
X189659524Y-122284656D02*
X189754762Y-122189418D01*
X189754762Y-122189418D02*
X189897619Y-122141799D01*
X189897619Y-122141799D02*
X189992857Y-122141799D01*
X189992857Y-122141799D02*
X190135714Y-122189418D01*
X190135714Y-122189418D02*
X190183333Y-122237037D01*
X190754762Y-122570370D02*
X190659524Y-122522751D01*
X190659524Y-122522751D02*
X190611905Y-122475132D01*
X190611905Y-122475132D02*
X190564286Y-122379894D01*
X190564286Y-122379894D02*
X190564286Y-122332275D01*
X190564286Y-122332275D02*
X190611905Y-122237037D01*
X190611905Y-122237037D02*
X190659524Y-122189418D01*
X190659524Y-122189418D02*
X190754762Y-122141799D01*
X190754762Y-122141799D02*
X190945238Y-122141799D01*
X190945238Y-122141799D02*
X191040476Y-122189418D01*
X191040476Y-122189418D02*
X191088095Y-122237037D01*
X191088095Y-122237037D02*
X191135714Y-122332275D01*
X191135714Y-122332275D02*
X191135714Y-122379894D01*
X191135714Y-122379894D02*
X191088095Y-122475132D01*
X191088095Y-122475132D02*
X191040476Y-122522751D01*
X191040476Y-122522751D02*
X190945238Y-122570370D01*
X190945238Y-122570370D02*
X190754762Y-122570370D01*
X190754762Y-122570370D02*
X190659524Y-122617989D01*
X190659524Y-122617989D02*
X190611905Y-122665608D01*
X190611905Y-122665608D02*
X190564286Y-122760846D01*
X190564286Y-122760846D02*
X190564286Y-122951322D01*
X190564286Y-122951322D02*
X190611905Y-123046560D01*
X190611905Y-123046560D02*
X190659524Y-123094180D01*
X190659524Y-123094180D02*
X190754762Y-123141799D01*
X190754762Y-123141799D02*
X190945238Y-123141799D01*
X190945238Y-123141799D02*
X191040476Y-123094180D01*
X191040476Y-123094180D02*
X191088095Y-123046560D01*
X191088095Y-123046560D02*
X191135714Y-122951322D01*
X191135714Y-122951322D02*
X191135714Y-122760846D01*
X191135714Y-122760846D02*
X191088095Y-122665608D01*
X191088095Y-122665608D02*
X191040476Y-122617989D01*
X191040476Y-122617989D02*
X190945238Y-122570370D01*
X193157142Y-113709060D02*
X193109523Y-113756680D01*
X193109523Y-113756680D02*
X192966666Y-113804299D01*
X192966666Y-113804299D02*
X192871428Y-113804299D01*
X192871428Y-113804299D02*
X192728571Y-113756680D01*
X192728571Y-113756680D02*
X192633333Y-113661441D01*
X192633333Y-113661441D02*
X192585714Y-113566203D01*
X192585714Y-113566203D02*
X192538095Y-113375727D01*
X192538095Y-113375727D02*
X192538095Y-113232870D01*
X192538095Y-113232870D02*
X192585714Y-113042394D01*
X192585714Y-113042394D02*
X192633333Y-112947156D01*
X192633333Y-112947156D02*
X192728571Y-112851918D01*
X192728571Y-112851918D02*
X192871428Y-112804299D01*
X192871428Y-112804299D02*
X192966666Y-112804299D01*
X192966666Y-112804299D02*
X193109523Y-112851918D01*
X193109523Y-112851918D02*
X193157142Y-112899537D01*
X194109523Y-113804299D02*
X193538095Y-113804299D01*
X193823809Y-113804299D02*
X193823809Y-112804299D01*
X193823809Y-112804299D02*
X193728571Y-112947156D01*
X193728571Y-112947156D02*
X193633333Y-113042394D01*
X193633333Y-113042394D02*
X193538095Y-113090013D01*
X194728571Y-112804299D02*
X194823809Y-112804299D01*
X194823809Y-112804299D02*
X194919047Y-112851918D01*
X194919047Y-112851918D02*
X194966666Y-112899537D01*
X194966666Y-112899537D02*
X195014285Y-112994775D01*
X195014285Y-112994775D02*
X195061904Y-113185251D01*
X195061904Y-113185251D02*
X195061904Y-113423346D01*
X195061904Y-113423346D02*
X195014285Y-113613822D01*
X195014285Y-113613822D02*
X194966666Y-113709060D01*
X194966666Y-113709060D02*
X194919047Y-113756680D01*
X194919047Y-113756680D02*
X194823809Y-113804299D01*
X194823809Y-113804299D02*
X194728571Y-113804299D01*
X194728571Y-113804299D02*
X194633333Y-113756680D01*
X194633333Y-113756680D02*
X194585714Y-113709060D01*
X194585714Y-113709060D02*
X194538095Y-113613822D01*
X194538095Y-113613822D02*
X194490476Y-113423346D01*
X194490476Y-113423346D02*
X194490476Y-113185251D01*
X194490476Y-113185251D02*
X194538095Y-112994775D01*
X194538095Y-112994775D02*
X194585714Y-112899537D01*
X194585714Y-112899537D02*
X194633333Y-112851918D01*
X194633333Y-112851918D02*
X194728571Y-112804299D01*
X197333333Y-111609060D02*
X197285714Y-111656680D01*
X197285714Y-111656680D02*
X197142857Y-111704299D01*
X197142857Y-111704299D02*
X197047619Y-111704299D01*
X197047619Y-111704299D02*
X196904762Y-111656680D01*
X196904762Y-111656680D02*
X196809524Y-111561441D01*
X196809524Y-111561441D02*
X196761905Y-111466203D01*
X196761905Y-111466203D02*
X196714286Y-111275727D01*
X196714286Y-111275727D02*
X196714286Y-111132870D01*
X196714286Y-111132870D02*
X196761905Y-110942394D01*
X196761905Y-110942394D02*
X196809524Y-110847156D01*
X196809524Y-110847156D02*
X196904762Y-110751918D01*
X196904762Y-110751918D02*
X197047619Y-110704299D01*
X197047619Y-110704299D02*
X197142857Y-110704299D01*
X197142857Y-110704299D02*
X197285714Y-110751918D01*
X197285714Y-110751918D02*
X197333333Y-110799537D01*
X197714286Y-110799537D02*
X197761905Y-110751918D01*
X197761905Y-110751918D02*
X197857143Y-110704299D01*
X197857143Y-110704299D02*
X198095238Y-110704299D01*
X198095238Y-110704299D02*
X198190476Y-110751918D01*
X198190476Y-110751918D02*
X198238095Y-110799537D01*
X198238095Y-110799537D02*
X198285714Y-110894775D01*
X198285714Y-110894775D02*
X198285714Y-110990013D01*
X198285714Y-110990013D02*
X198238095Y-111132870D01*
X198238095Y-111132870D02*
X197666667Y-111704299D01*
X197666667Y-111704299D02*
X198285714Y-111704299D01*
X190133333Y-121409060D02*
X190085714Y-121456680D01*
X190085714Y-121456680D02*
X189942857Y-121504299D01*
X189942857Y-121504299D02*
X189847619Y-121504299D01*
X189847619Y-121504299D02*
X189704762Y-121456680D01*
X189704762Y-121456680D02*
X189609524Y-121361441D01*
X189609524Y-121361441D02*
X189561905Y-121266203D01*
X189561905Y-121266203D02*
X189514286Y-121075727D01*
X189514286Y-121075727D02*
X189514286Y-120932870D01*
X189514286Y-120932870D02*
X189561905Y-120742394D01*
X189561905Y-120742394D02*
X189609524Y-120647156D01*
X189609524Y-120647156D02*
X189704762Y-120551918D01*
X189704762Y-120551918D02*
X189847619Y-120504299D01*
X189847619Y-120504299D02*
X189942857Y-120504299D01*
X189942857Y-120504299D02*
X190085714Y-120551918D01*
X190085714Y-120551918D02*
X190133333Y-120599537D01*
X190466667Y-120504299D02*
X191133333Y-120504299D01*
X191133333Y-120504299D02*
X190704762Y-121504299D01*
X204553333Y-124719060D02*
X204505714Y-124766680D01*
X204505714Y-124766680D02*
X204362857Y-124814299D01*
X204362857Y-124814299D02*
X204267619Y-124814299D01*
X204267619Y-124814299D02*
X204124762Y-124766680D01*
X204124762Y-124766680D02*
X204029524Y-124671441D01*
X204029524Y-124671441D02*
X203981905Y-124576203D01*
X203981905Y-124576203D02*
X203934286Y-124385727D01*
X203934286Y-124385727D02*
X203934286Y-124242870D01*
X203934286Y-124242870D02*
X203981905Y-124052394D01*
X203981905Y-124052394D02*
X204029524Y-123957156D01*
X204029524Y-123957156D02*
X204124762Y-123861918D01*
X204124762Y-123861918D02*
X204267619Y-123814299D01*
X204267619Y-123814299D02*
X204362857Y-123814299D01*
X204362857Y-123814299D02*
X204505714Y-123861918D01*
X204505714Y-123861918D02*
X204553333Y-123909537D01*
X205458095Y-123814299D02*
X204981905Y-123814299D01*
X204981905Y-123814299D02*
X204934286Y-124290489D01*
X204934286Y-124290489D02*
X204981905Y-124242870D01*
X204981905Y-124242870D02*
X205077143Y-124195251D01*
X205077143Y-124195251D02*
X205315238Y-124195251D01*
X205315238Y-124195251D02*
X205410476Y-124242870D01*
X205410476Y-124242870D02*
X205458095Y-124290489D01*
X205458095Y-124290489D02*
X205505714Y-124385727D01*
X205505714Y-124385727D02*
X205505714Y-124623822D01*
X205505714Y-124623822D02*
X205458095Y-124719060D01*
X205458095Y-124719060D02*
X205410476Y-124766680D01*
X205410476Y-124766680D02*
X205315238Y-124814299D01*
X205315238Y-124814299D02*
X205077143Y-124814299D01*
X205077143Y-124814299D02*
X204981905Y-124766680D01*
X204981905Y-124766680D02*
X204934286Y-124719060D01*
X189873809Y-113178108D02*
X189873809Y-113654299D01*
X189540476Y-112654299D02*
X189873809Y-113178108D01*
X189873809Y-113178108D02*
X190207142Y-112654299D01*
X191064285Y-113654299D02*
X190492857Y-113654299D01*
X190778571Y-113654299D02*
X190778571Y-112654299D01*
X190778571Y-112654299D02*
X190683333Y-112797156D01*
X190683333Y-112797156D02*
X190588095Y-112892394D01*
X190588095Y-112892394D02*
X190492857Y-112940013D01*
X210633333Y-112904299D02*
X210300000Y-112428108D01*
X210061905Y-112904299D02*
X210061905Y-111904299D01*
X210061905Y-111904299D02*
X210442857Y-111904299D01*
X210442857Y-111904299D02*
X210538095Y-111951918D01*
X210538095Y-111951918D02*
X210585714Y-111999537D01*
X210585714Y-111999537D02*
X210633333Y-112094775D01*
X210633333Y-112094775D02*
X210633333Y-112237632D01*
X210633333Y-112237632D02*
X210585714Y-112332870D01*
X210585714Y-112332870D02*
X210538095Y-112380489D01*
X210538095Y-112380489D02*
X210442857Y-112428108D01*
X210442857Y-112428108D02*
X210061905Y-112428108D01*
X211014286Y-111999537D02*
X211061905Y-111951918D01*
X211061905Y-111951918D02*
X211157143Y-111904299D01*
X211157143Y-111904299D02*
X211395238Y-111904299D01*
X211395238Y-111904299D02*
X211490476Y-111951918D01*
X211490476Y-111951918D02*
X211538095Y-111999537D01*
X211538095Y-111999537D02*
X211585714Y-112094775D01*
X211585714Y-112094775D02*
X211585714Y-112190013D01*
X211585714Y-112190013D02*
X211538095Y-112332870D01*
X211538095Y-112332870D02*
X210966667Y-112904299D01*
X210966667Y-112904299D02*
X211585714Y-112904299D01*
X197045833Y-109859060D02*
X196998214Y-109906680D01*
X196998214Y-109906680D02*
X196855357Y-109954299D01*
X196855357Y-109954299D02*
X196760119Y-109954299D01*
X196760119Y-109954299D02*
X196617262Y-109906680D01*
X196617262Y-109906680D02*
X196522024Y-109811441D01*
X196522024Y-109811441D02*
X196474405Y-109716203D01*
X196474405Y-109716203D02*
X196426786Y-109525727D01*
X196426786Y-109525727D02*
X196426786Y-109382870D01*
X196426786Y-109382870D02*
X196474405Y-109192394D01*
X196474405Y-109192394D02*
X196522024Y-109097156D01*
X196522024Y-109097156D02*
X196617262Y-109001918D01*
X196617262Y-109001918D02*
X196760119Y-108954299D01*
X196760119Y-108954299D02*
X196855357Y-108954299D01*
X196855357Y-108954299D02*
X196998214Y-109001918D01*
X196998214Y-109001918D02*
X197045833Y-109049537D01*
X197998214Y-109954299D02*
X197426786Y-109954299D01*
X197712500Y-109954299D02*
X197712500Y-108954299D01*
X197712500Y-108954299D02*
X197617262Y-109097156D01*
X197617262Y-109097156D02*
X197522024Y-109192394D01*
X197522024Y-109192394D02*
X197426786Y-109240013D01*
X203238095Y-110754299D02*
X203238095Y-111563822D01*
X203238095Y-111563822D02*
X203285714Y-111659060D01*
X203285714Y-111659060D02*
X203333333Y-111706680D01*
X203333333Y-111706680D02*
X203428571Y-111754299D01*
X203428571Y-111754299D02*
X203619047Y-111754299D01*
X203619047Y-111754299D02*
X203714285Y-111706680D01*
X203714285Y-111706680D02*
X203761904Y-111659060D01*
X203761904Y-111659060D02*
X203809523Y-111563822D01*
X203809523Y-111563822D02*
X203809523Y-110754299D01*
X204809523Y-111754299D02*
X204238095Y-111754299D01*
X204523809Y-111754299D02*
X204523809Y-110754299D01*
X204523809Y-110754299D02*
X204428571Y-110897156D01*
X204428571Y-110897156D02*
X204333333Y-110992394D01*
X204333333Y-110992394D02*
X204238095Y-111040013D01*
X195933333Y-117259060D02*
X195885714Y-117306680D01*
X195885714Y-117306680D02*
X195742857Y-117354299D01*
X195742857Y-117354299D02*
X195647619Y-117354299D01*
X195647619Y-117354299D02*
X195504762Y-117306680D01*
X195504762Y-117306680D02*
X195409524Y-117211441D01*
X195409524Y-117211441D02*
X195361905Y-117116203D01*
X195361905Y-117116203D02*
X195314286Y-116925727D01*
X195314286Y-116925727D02*
X195314286Y-116782870D01*
X195314286Y-116782870D02*
X195361905Y-116592394D01*
X195361905Y-116592394D02*
X195409524Y-116497156D01*
X195409524Y-116497156D02*
X195504762Y-116401918D01*
X195504762Y-116401918D02*
X195647619Y-116354299D01*
X195647619Y-116354299D02*
X195742857Y-116354299D01*
X195742857Y-116354299D02*
X195885714Y-116401918D01*
X195885714Y-116401918D02*
X195933333Y-116449537D01*
X196790476Y-116354299D02*
X196600000Y-116354299D01*
X196600000Y-116354299D02*
X196504762Y-116401918D01*
X196504762Y-116401918D02*
X196457143Y-116449537D01*
X196457143Y-116449537D02*
X196361905Y-116592394D01*
X196361905Y-116592394D02*
X196314286Y-116782870D01*
X196314286Y-116782870D02*
X196314286Y-117163822D01*
X196314286Y-117163822D02*
X196361905Y-117259060D01*
X196361905Y-117259060D02*
X196409524Y-117306680D01*
X196409524Y-117306680D02*
X196504762Y-117354299D01*
X196504762Y-117354299D02*
X196695238Y-117354299D01*
X196695238Y-117354299D02*
X196790476Y-117306680D01*
X196790476Y-117306680D02*
X196838095Y-117259060D01*
X196838095Y-117259060D02*
X196885714Y-117163822D01*
X196885714Y-117163822D02*
X196885714Y-116925727D01*
X196885714Y-116925727D02*
X196838095Y-116830489D01*
X196838095Y-116830489D02*
X196790476Y-116782870D01*
X196790476Y-116782870D02*
X196695238Y-116735251D01*
X196695238Y-116735251D02*
X196504762Y-116735251D01*
X196504762Y-116735251D02*
X196409524Y-116782870D01*
X196409524Y-116782870D02*
X196361905Y-116830489D01*
X196361905Y-116830489D02*
X196314286Y-116925727D01*
X214959060Y-129442857D02*
X215006680Y-129490476D01*
X215006680Y-129490476D02*
X215054299Y-129633333D01*
X215054299Y-129633333D02*
X215054299Y-129728571D01*
X215054299Y-129728571D02*
X215006680Y-129871428D01*
X215006680Y-129871428D02*
X214911441Y-129966666D01*
X214911441Y-129966666D02*
X214816203Y-130014285D01*
X214816203Y-130014285D02*
X214625727Y-130061904D01*
X214625727Y-130061904D02*
X214482870Y-130061904D01*
X214482870Y-130061904D02*
X214292394Y-130014285D01*
X214292394Y-130014285D02*
X214197156Y-129966666D01*
X214197156Y-129966666D02*
X214101918Y-129871428D01*
X214101918Y-129871428D02*
X214054299Y-129728571D01*
X214054299Y-129728571D02*
X214054299Y-129633333D01*
X214054299Y-129633333D02*
X214101918Y-129490476D01*
X214101918Y-129490476D02*
X214149537Y-129442857D01*
X215054299Y-128490476D02*
X215054299Y-129061904D01*
X215054299Y-128776190D02*
X214054299Y-128776190D01*
X214054299Y-128776190D02*
X214197156Y-128871428D01*
X214197156Y-128871428D02*
X214292394Y-128966666D01*
X214292394Y-128966666D02*
X214340013Y-129061904D01*
X214387632Y-127633333D02*
X215054299Y-127633333D01*
X214006680Y-127871428D02*
X214720965Y-128109523D01*
X214720965Y-128109523D02*
X214720965Y-127490476D01*
X207111905Y-129854299D02*
X207111905Y-128854299D01*
X207111905Y-128854299D02*
X207350000Y-128854299D01*
X207350000Y-128854299D02*
X207492857Y-128901918D01*
X207492857Y-128901918D02*
X207588095Y-128997156D01*
X207588095Y-128997156D02*
X207635714Y-129092394D01*
X207635714Y-129092394D02*
X207683333Y-129282870D01*
X207683333Y-129282870D02*
X207683333Y-129425727D01*
X207683333Y-129425727D02*
X207635714Y-129616203D01*
X207635714Y-129616203D02*
X207588095Y-129711441D01*
X207588095Y-129711441D02*
X207492857Y-129806680D01*
X207492857Y-129806680D02*
X207350000Y-129854299D01*
X207350000Y-129854299D02*
X207111905Y-129854299D01*
X208635714Y-129854299D02*
X208064286Y-129854299D01*
X208350000Y-129854299D02*
X208350000Y-128854299D01*
X208350000Y-128854299D02*
X208254762Y-128997156D01*
X208254762Y-128997156D02*
X208159524Y-129092394D01*
X208159524Y-129092394D02*
X208064286Y-129140013D01*
X195933333Y-115909060D02*
X195885714Y-115956680D01*
X195885714Y-115956680D02*
X195742857Y-116004299D01*
X195742857Y-116004299D02*
X195647619Y-116004299D01*
X195647619Y-116004299D02*
X195504762Y-115956680D01*
X195504762Y-115956680D02*
X195409524Y-115861441D01*
X195409524Y-115861441D02*
X195361905Y-115766203D01*
X195361905Y-115766203D02*
X195314286Y-115575727D01*
X195314286Y-115575727D02*
X195314286Y-115432870D01*
X195314286Y-115432870D02*
X195361905Y-115242394D01*
X195361905Y-115242394D02*
X195409524Y-115147156D01*
X195409524Y-115147156D02*
X195504762Y-115051918D01*
X195504762Y-115051918D02*
X195647619Y-115004299D01*
X195647619Y-115004299D02*
X195742857Y-115004299D01*
X195742857Y-115004299D02*
X195885714Y-115051918D01*
X195885714Y-115051918D02*
X195933333Y-115099537D01*
X196266667Y-115004299D02*
X196885714Y-115004299D01*
X196885714Y-115004299D02*
X196552381Y-115385251D01*
X196552381Y-115385251D02*
X196695238Y-115385251D01*
X196695238Y-115385251D02*
X196790476Y-115432870D01*
X196790476Y-115432870D02*
X196838095Y-115480489D01*
X196838095Y-115480489D02*
X196885714Y-115575727D01*
X196885714Y-115575727D02*
X196885714Y-115813822D01*
X196885714Y-115813822D02*
X196838095Y-115909060D01*
X196838095Y-115909060D02*
X196790476Y-115956680D01*
X196790476Y-115956680D02*
X196695238Y-116004299D01*
X196695238Y-116004299D02*
X196409524Y-116004299D01*
X196409524Y-116004299D02*
X196314286Y-115956680D01*
X196314286Y-115956680D02*
X196266667Y-115909060D01*
X208538095Y-126504299D02*
X208538095Y-127313822D01*
X208538095Y-127313822D02*
X208585714Y-127409060D01*
X208585714Y-127409060D02*
X208633333Y-127456680D01*
X208633333Y-127456680D02*
X208728571Y-127504299D01*
X208728571Y-127504299D02*
X208919047Y-127504299D01*
X208919047Y-127504299D02*
X209014285Y-127456680D01*
X209014285Y-127456680D02*
X209061904Y-127409060D01*
X209061904Y-127409060D02*
X209109523Y-127313822D01*
X209109523Y-127313822D02*
X209109523Y-126504299D01*
X209490476Y-126504299D02*
X210109523Y-126504299D01*
X210109523Y-126504299D02*
X209776190Y-126885251D01*
X209776190Y-126885251D02*
X209919047Y-126885251D01*
X209919047Y-126885251D02*
X210014285Y-126932870D01*
X210014285Y-126932870D02*
X210061904Y-126980489D01*
X210061904Y-126980489D02*
X210109523Y-127075727D01*
X210109523Y-127075727D02*
X210109523Y-127313822D01*
X210109523Y-127313822D02*
X210061904Y-127409060D01*
X210061904Y-127409060D02*
X210014285Y-127456680D01*
X210014285Y-127456680D02*
X209919047Y-127504299D01*
X209919047Y-127504299D02*
X209633333Y-127504299D01*
X209633333Y-127504299D02*
X209538095Y-127456680D01*
X209538095Y-127456680D02*
X209490476Y-127409060D01*
X194766666Y-124517989D02*
X194433333Y-124517989D01*
X194433333Y-125041799D02*
X194433333Y-124041799D01*
X194433333Y-124041799D02*
X194909523Y-124041799D01*
X195623809Y-124517989D02*
X195766666Y-124565608D01*
X195766666Y-124565608D02*
X195814285Y-124613227D01*
X195814285Y-124613227D02*
X195861904Y-124708465D01*
X195861904Y-124708465D02*
X195861904Y-124851322D01*
X195861904Y-124851322D02*
X195814285Y-124946560D01*
X195814285Y-124946560D02*
X195766666Y-124994180D01*
X195766666Y-124994180D02*
X195671428Y-125041799D01*
X195671428Y-125041799D02*
X195290476Y-125041799D01*
X195290476Y-125041799D02*
X195290476Y-124041799D01*
X195290476Y-124041799D02*
X195623809Y-124041799D01*
X195623809Y-124041799D02*
X195719047Y-124089418D01*
X195719047Y-124089418D02*
X195766666Y-124137037D01*
X195766666Y-124137037D02*
X195814285Y-124232275D01*
X195814285Y-124232275D02*
X195814285Y-124327513D01*
X195814285Y-124327513D02*
X195766666Y-124422751D01*
X195766666Y-124422751D02*
X195719047Y-124470370D01*
X195719047Y-124470370D02*
X195623809Y-124517989D01*
X195623809Y-124517989D02*
X195290476Y-124517989D01*
X196814285Y-125041799D02*
X196242857Y-125041799D01*
X196528571Y-125041799D02*
X196528571Y-124041799D01*
X196528571Y-124041799D02*
X196433333Y-124184656D01*
X196433333Y-124184656D02*
X196338095Y-124279894D01*
X196338095Y-124279894D02*
X196242857Y-124327513D01*
X205233333Y-104854299D02*
X204900000Y-104378108D01*
X204661905Y-104854299D02*
X204661905Y-103854299D01*
X204661905Y-103854299D02*
X205042857Y-103854299D01*
X205042857Y-103854299D02*
X205138095Y-103901918D01*
X205138095Y-103901918D02*
X205185714Y-103949537D01*
X205185714Y-103949537D02*
X205233333Y-104044775D01*
X205233333Y-104044775D02*
X205233333Y-104187632D01*
X205233333Y-104187632D02*
X205185714Y-104282870D01*
X205185714Y-104282870D02*
X205138095Y-104330489D01*
X205138095Y-104330489D02*
X205042857Y-104378108D01*
X205042857Y-104378108D02*
X204661905Y-104378108D01*
X206185714Y-104854299D02*
X205614286Y-104854299D01*
X205900000Y-104854299D02*
X205900000Y-103854299D01*
X205900000Y-103854299D02*
X205804762Y-103997156D01*
X205804762Y-103997156D02*
X205709524Y-104092394D01*
X205709524Y-104092394D02*
X205614286Y-104140013D01*
X215283333Y-121054299D02*
X214950000Y-120578108D01*
X214711905Y-121054299D02*
X214711905Y-120054299D01*
X214711905Y-120054299D02*
X215092857Y-120054299D01*
X215092857Y-120054299D02*
X215188095Y-120101918D01*
X215188095Y-120101918D02*
X215235714Y-120149537D01*
X215235714Y-120149537D02*
X215283333Y-120244775D01*
X215283333Y-120244775D02*
X215283333Y-120387632D01*
X215283333Y-120387632D02*
X215235714Y-120482870D01*
X215235714Y-120482870D02*
X215188095Y-120530489D01*
X215188095Y-120530489D02*
X215092857Y-120578108D01*
X215092857Y-120578108D02*
X214711905Y-120578108D01*
X215616667Y-120054299D02*
X216235714Y-120054299D01*
X216235714Y-120054299D02*
X215902381Y-120435251D01*
X215902381Y-120435251D02*
X216045238Y-120435251D01*
X216045238Y-120435251D02*
X216140476Y-120482870D01*
X216140476Y-120482870D02*
X216188095Y-120530489D01*
X216188095Y-120530489D02*
X216235714Y-120625727D01*
X216235714Y-120625727D02*
X216235714Y-120863822D01*
X216235714Y-120863822D02*
X216188095Y-120959060D01*
X216188095Y-120959060D02*
X216140476Y-121006680D01*
X216140476Y-121006680D02*
X216045238Y-121054299D01*
X216045238Y-121054299D02*
X215759524Y-121054299D01*
X215759524Y-121054299D02*
X215664286Y-121006680D01*
X215664286Y-121006680D02*
X215616667Y-120959060D01*
X218009060Y-123942857D02*
X218056680Y-123990476D01*
X218056680Y-123990476D02*
X218104299Y-124133333D01*
X218104299Y-124133333D02*
X218104299Y-124228571D01*
X218104299Y-124228571D02*
X218056680Y-124371428D01*
X218056680Y-124371428D02*
X217961441Y-124466666D01*
X217961441Y-124466666D02*
X217866203Y-124514285D01*
X217866203Y-124514285D02*
X217675727Y-124561904D01*
X217675727Y-124561904D02*
X217532870Y-124561904D01*
X217532870Y-124561904D02*
X217342394Y-124514285D01*
X217342394Y-124514285D02*
X217247156Y-124466666D01*
X217247156Y-124466666D02*
X217151918Y-124371428D01*
X217151918Y-124371428D02*
X217104299Y-124228571D01*
X217104299Y-124228571D02*
X217104299Y-124133333D01*
X217104299Y-124133333D02*
X217151918Y-123990476D01*
X217151918Y-123990476D02*
X217199537Y-123942857D01*
X218104299Y-122990476D02*
X218104299Y-123561904D01*
X218104299Y-123276190D02*
X217104299Y-123276190D01*
X217104299Y-123276190D02*
X217247156Y-123371428D01*
X217247156Y-123371428D02*
X217342394Y-123466666D01*
X217342394Y-123466666D02*
X217390013Y-123561904D01*
X217104299Y-122657142D02*
X217104299Y-122038095D01*
X217104299Y-122038095D02*
X217485251Y-122371428D01*
X217485251Y-122371428D02*
X217485251Y-122228571D01*
X217485251Y-122228571D02*
X217532870Y-122133333D01*
X217532870Y-122133333D02*
X217580489Y-122085714D01*
X217580489Y-122085714D02*
X217675727Y-122038095D01*
X217675727Y-122038095D02*
X217913822Y-122038095D01*
X217913822Y-122038095D02*
X218009060Y-122085714D01*
X218009060Y-122085714D02*
X218056680Y-122133333D01*
X218056680Y-122133333D02*
X218104299Y-122228571D01*
X218104299Y-122228571D02*
X218104299Y-122514285D01*
X218104299Y-122514285D02*
X218056680Y-122609523D01*
X218056680Y-122609523D02*
X218009060Y-122657142D01*
X211809060Y-119992857D02*
X211856680Y-120040476D01*
X211856680Y-120040476D02*
X211904299Y-120183333D01*
X211904299Y-120183333D02*
X211904299Y-120278571D01*
X211904299Y-120278571D02*
X211856680Y-120421428D01*
X211856680Y-120421428D02*
X211761441Y-120516666D01*
X211761441Y-120516666D02*
X211666203Y-120564285D01*
X211666203Y-120564285D02*
X211475727Y-120611904D01*
X211475727Y-120611904D02*
X211332870Y-120611904D01*
X211332870Y-120611904D02*
X211142394Y-120564285D01*
X211142394Y-120564285D02*
X211047156Y-120516666D01*
X211047156Y-120516666D02*
X210951918Y-120421428D01*
X210951918Y-120421428D02*
X210904299Y-120278571D01*
X210904299Y-120278571D02*
X210904299Y-120183333D01*
X210904299Y-120183333D02*
X210951918Y-120040476D01*
X210951918Y-120040476D02*
X210999537Y-119992857D01*
X211904299Y-119040476D02*
X211904299Y-119611904D01*
X211904299Y-119326190D02*
X210904299Y-119326190D01*
X210904299Y-119326190D02*
X211047156Y-119421428D01*
X211047156Y-119421428D02*
X211142394Y-119516666D01*
X211142394Y-119516666D02*
X211190013Y-119611904D01*
X210999537Y-118659523D02*
X210951918Y-118611904D01*
X210951918Y-118611904D02*
X210904299Y-118516666D01*
X210904299Y-118516666D02*
X210904299Y-118278571D01*
X210904299Y-118278571D02*
X210951918Y-118183333D01*
X210951918Y-118183333D02*
X210999537Y-118135714D01*
X210999537Y-118135714D02*
X211094775Y-118088095D01*
X211094775Y-118088095D02*
X211190013Y-118088095D01*
X211190013Y-118088095D02*
X211332870Y-118135714D01*
X211332870Y-118135714D02*
X211904299Y-118707142D01*
X211904299Y-118707142D02*
X211904299Y-118088095D01*
D11*
%TO.C,CON1*%
X224700000Y-119900000D02*
X222000000Y-119900000D01*
X219790000Y-119600000D02*
X219790000Y-118410000D01*
X219790000Y-118410000D02*
X219360000Y-118410000D01*
X219790000Y-114200000D02*
X219392500Y-114200000D01*
X219790000Y-114190000D02*
X219790000Y-112950000D01*
X224700000Y-112700000D02*
X222050000Y-112700000D01*
%TO.C,C11*%
X193090000Y-117357836D02*
X193090000Y-117142164D01*
X193810000Y-117357836D02*
X193810000Y-117142164D01*
%TO.C,C4*%
X207840000Y-114572164D02*
X207840000Y-114787836D01*
X208560000Y-114572164D02*
X208560000Y-114787836D01*
%TO.C,C15*%
X209552500Y-122087836D02*
X209552500Y-121872164D01*
X210272500Y-122087836D02*
X210272500Y-121872164D01*
%TO.C,C9*%
X199737836Y-123140000D02*
X199522164Y-123140000D01*
X199737836Y-123860000D02*
X199522164Y-123860000D01*
%TO.C,U2*%
X213752500Y-114590000D02*
X215572500Y-114590000D01*
X213752500Y-114640000D02*
X213752500Y-114590000D01*
X213752500Y-117710000D02*
X213752500Y-117660000D01*
X215572500Y-114590000D02*
X215572500Y-114640000D01*
X215572500Y-117660000D02*
X215572500Y-117710000D01*
X215572500Y-117710000D02*
X213752500Y-117710000D01*
X216352500Y-117990000D02*
X215872500Y-117990000D01*
X216112500Y-117660000D01*
X216352500Y-117990000D01*
G36*
X216352500Y-117990000D02*
G01*
X215872500Y-117990000D01*
X216112500Y-117660000D01*
X216352500Y-117990000D01*
G37*
%TO.C,C16*%
X207177500Y-123227064D02*
X207177500Y-122772936D01*
X208647500Y-123227064D02*
X208647500Y-122772936D01*
%TO.C,R4*%
X215965000Y-127827064D02*
X215965000Y-127372936D01*
X217435000Y-127827064D02*
X217435000Y-127372936D01*
%TO.C,C8*%
X192965580Y-122277500D02*
X192684420Y-122277500D01*
X192965580Y-123297500D02*
X192684420Y-123297500D01*
%TO.C,C10*%
X193090000Y-115107836D02*
X193090000Y-114892164D01*
X193810000Y-115107836D02*
X193810000Y-114892164D01*
%TO.C,C2*%
X199612164Y-110940000D02*
X199827836Y-110940000D01*
X199612164Y-111660000D02*
X199827836Y-111660000D01*
%TO.C,C7*%
X192965580Y-120490000D02*
X192684420Y-120490000D01*
X192965580Y-121510000D02*
X192684420Y-121510000D01*
%TO.C,C5*%
X204827836Y-122840000D02*
X204612164Y-122840000D01*
X204827836Y-123560000D02*
X204612164Y-123560000D01*
%TO.C,Y1*%
X189440000Y-114040000D02*
X189440000Y-118160000D01*
X192860000Y-114040000D02*
X189440000Y-114040000D01*
%TO.C,R2*%
X209965000Y-114572936D02*
X209965000Y-115027064D01*
X211435000Y-114572936D02*
X211435000Y-115027064D01*
%TO.C,C1*%
X199472936Y-108765000D02*
X199927064Y-108765000D01*
X199472936Y-110235000D02*
X199927064Y-110235000D01*
%TO.C,U1*%
X198640000Y-113640000D02*
X199090000Y-113640000D01*
X198640000Y-114090000D02*
X198640000Y-113640000D01*
X198640000Y-120860000D02*
X198640000Y-120410000D01*
X199090000Y-120860000D02*
X198640000Y-120860000D01*
X205410000Y-113640000D02*
X205860000Y-113640000D01*
X205860000Y-113640000D02*
X205860000Y-114090000D01*
X205860000Y-120410000D02*
X205860000Y-120860000D01*
X205860000Y-120860000D02*
X205410000Y-120860000D01*
X198000000Y-114090000D02*
X197660000Y-113620000D01*
X198340000Y-113620000D01*
X198000000Y-114090000D01*
G36*
X198000000Y-114090000D02*
G01*
X197660000Y-113620000D01*
X198340000Y-113620000D01*
X198000000Y-114090000D01*
G37*
%TO.C,C6*%
X195940000Y-118407836D02*
X195940000Y-118192164D01*
X196660000Y-118407836D02*
X196660000Y-118192164D01*
%TO.C,C14*%
X213790000Y-124785436D02*
X213790000Y-125239564D01*
X215260000Y-124785436D02*
X215260000Y-125239564D01*
%TO.C,D1*%
X209450000Y-129935000D02*
X213335000Y-129935000D01*
X213335000Y-127665000D02*
X209450000Y-127665000D01*
X213335000Y-129935000D02*
X213335000Y-127665000D01*
%TO.C,C3*%
X196040000Y-114127836D02*
X196040000Y-113912164D01*
X196760000Y-114127836D02*
X196760000Y-113912164D01*
%TO.C,J1*%
X207130000Y-103570000D02*
X207130000Y-106230000D01*
X214810000Y-103570000D02*
X207130000Y-103570000D01*
X214810000Y-103570000D02*
X214810000Y-106230000D01*
X214810000Y-106230000D02*
X207130000Y-106230000D01*
X217410000Y-104900000D02*
X217410000Y-106230000D01*
X217410000Y-106230000D02*
X216080000Y-106230000D01*
%TO.C,U3*%
X210365000Y-123390000D02*
X212185000Y-123390000D01*
X210365000Y-123440000D02*
X210365000Y-123390000D01*
X210365000Y-125340000D02*
X210365000Y-124560000D01*
X210365000Y-126510000D02*
X210365000Y-126460000D01*
X212185000Y-123390000D02*
X212185000Y-123440000D01*
X212185000Y-126460000D02*
X212185000Y-126510000D01*
X212185000Y-126510000D02*
X210365000Y-126510000D01*
X212965000Y-126790000D02*
X212485000Y-126790000D01*
X212725000Y-126460000D01*
X212965000Y-126790000D01*
G36*
X212965000Y-126790000D02*
G01*
X212485000Y-126790000D01*
X212725000Y-126460000D01*
X212965000Y-126790000D01*
G37*
%TO.C,FB1*%
X194865000Y-121660436D02*
X194865000Y-122114564D01*
X196335000Y-121660436D02*
X196335000Y-122114564D01*
%TO.C,R1*%
X203090000Y-106772936D02*
X203090000Y-108227064D01*
X204910000Y-106772936D02*
X204910000Y-108227064D01*
%TO.C,R3*%
X213847936Y-121265000D02*
X214302064Y-121265000D01*
X213847936Y-122735000D02*
X214302064Y-122735000D01*
%TO.C,SW1*%
D12*
X199150000Y-101600000D02*
X198350000Y-101600000D01*
X198350000Y-103000000D01*
X199150000Y-103000000D01*
X199150000Y-101600000D01*
X199250000Y-101500000D02*
X198250000Y-101500000D01*
X198250000Y-104500000D01*
X199250000Y-104500000D01*
X199250000Y-101500000D01*
X200500000Y-98500000D02*
X197000000Y-98500000D01*
X197000000Y-107500000D01*
X200500000Y-107500000D01*
X200500000Y-98500000D01*
D11*
%TO.C,C13*%
X215915000Y-123722164D02*
X215915000Y-123937836D01*
X216635000Y-123722164D02*
X216635000Y-123937836D01*
%TO.C,C12*%
X211052500Y-121872164D02*
X211052500Y-122087836D01*
X211772500Y-121872164D02*
X211772500Y-122087836D01*
%TD*%
M02*
