%TF.GenerationSoftware,KiCad,Pcbnew,9.0.5*%
%TF.CreationDate,2025-11-09T16:32:06+01:00*%
%TF.ProjectId,PTP,5054502e-6b69-4636-9164-5f7063625858,rev?*%
%TF.SameCoordinates,Original*%
%TF.FileFunction,Copper,L2,Bot*%
%TF.FilePolarity,Positive*%
%FSLAX46Y46*%
G04 Gerber Fmt 4.6, Leading zero omitted, Abs format (unit mm)*
G04 Created by KiCad (PCBNEW 9.0.5) date 2025-11-09 16:32:06*
%MOMM*%
%LPD*%
G01*
G04 APERTURE LIST*
%TA.AperFunction,ComponentPad*%
%ADD10R,1.700000X1.700000*%
%TD*%
%TA.AperFunction,ComponentPad*%
%ADD11C,1.700000*%
%TD*%
%TA.AperFunction,ViaPad*%
%ADD12C,0.700000*%
%TD*%
G04 APERTURE END LIST*
D10*
%TO.P,J1,1,Pin_1*%
%TO.N,+3V3*%
X216080000Y-104900000D03*
D11*
%TO.P,J1,2,Pin_2*%
%TO.N,/SWDIO*%
X213540000Y-104900000D03*
%TO.P,J1,3,Pin_3*%
%TO.N,/SWCLK*%
X211000000Y-104900000D03*
%TO.P,J1,4,Pin_4*%
%TO.N,GND*%
X208460000Y-104900000D03*
%TD*%
D12*
%TO.N,GND*%
X201000000Y-123500000D03*
X209000000Y-120950000D03*
X192050000Y-119750000D03*
X217250000Y-116150000D03*
X201600000Y-107700000D03*
X204500000Y-120000000D03*
X190300000Y-118850000D03*
X218400000Y-114100000D03*
X192050000Y-124000000D03*
X192000000Y-113600000D03*
X209200000Y-115200000D03*
X217000000Y-125500000D03*
X211250000Y-123350000D03*
X208250000Y-120950000D03*
X214550000Y-126900000D03*
X196400000Y-112500000D03*
X195000000Y-118600000D03*
X194300000Y-116750000D03*
X195500000Y-106900000D03*
X208450000Y-107200000D03*
X194330000Y-114520000D03*
X216050000Y-125500000D03*
%TD*%
%TA.AperFunction,Conductor*%
%TO.N,GND*%
G36*
X225003736Y-97500726D02*
G01*
X225293796Y-97518271D01*
X225308659Y-97520076D01*
X225590798Y-97571780D01*
X225605335Y-97575363D01*
X225879172Y-97660695D01*
X225893163Y-97666000D01*
X226154743Y-97783727D01*
X226167989Y-97790680D01*
X226413465Y-97939075D01*
X226425776Y-97947573D01*
X226651573Y-98124473D01*
X226662781Y-98134403D01*
X226865596Y-98337218D01*
X226875526Y-98348426D01*
X226995481Y-98501538D01*
X227052422Y-98574217D01*
X227060928Y-98586540D01*
X227209316Y-98832004D01*
X227216275Y-98845263D01*
X227333997Y-99106831D01*
X227339306Y-99120832D01*
X227424635Y-99394663D01*
X227428219Y-99409201D01*
X227479923Y-99691340D01*
X227481728Y-99706205D01*
X227499274Y-99996263D01*
X227499500Y-100003750D01*
X227499500Y-129996249D01*
X227499274Y-130003736D01*
X227481728Y-130293794D01*
X227479923Y-130308659D01*
X227428219Y-130590798D01*
X227424635Y-130605336D01*
X227339306Y-130879167D01*
X227333997Y-130893168D01*
X227216275Y-131154736D01*
X227209316Y-131167995D01*
X227060928Y-131413459D01*
X227052422Y-131425782D01*
X226875526Y-131651573D01*
X226865596Y-131662781D01*
X226662781Y-131865596D01*
X226651573Y-131875526D01*
X226425782Y-132052422D01*
X226413459Y-132060928D01*
X226167995Y-132209316D01*
X226154736Y-132216275D01*
X225893168Y-132333997D01*
X225879167Y-132339306D01*
X225605336Y-132424635D01*
X225590798Y-132428219D01*
X225308659Y-132479923D01*
X225293794Y-132481728D01*
X225003736Y-132499274D01*
X224996249Y-132499500D01*
X190003751Y-132499500D01*
X189996264Y-132499274D01*
X189706205Y-132481728D01*
X189691340Y-132479923D01*
X189409201Y-132428219D01*
X189394663Y-132424635D01*
X189120832Y-132339306D01*
X189106831Y-132333997D01*
X188845263Y-132216275D01*
X188832004Y-132209316D01*
X188586540Y-132060928D01*
X188574217Y-132052422D01*
X188348426Y-131875526D01*
X188337218Y-131865596D01*
X188134403Y-131662781D01*
X188124473Y-131651573D01*
X187947573Y-131425776D01*
X187939075Y-131413465D01*
X187790680Y-131167989D01*
X187783727Y-131154743D01*
X187666000Y-130893163D01*
X187660693Y-130879167D01*
X187575364Y-130605336D01*
X187571780Y-130590798D01*
X187520076Y-130308659D01*
X187518271Y-130293794D01*
X187500726Y-130003736D01*
X187500500Y-129996249D01*
X187500500Y-129877973D01*
X188449500Y-129877973D01*
X188449500Y-130122026D01*
X188487678Y-130363072D01*
X188563097Y-130595187D01*
X188673896Y-130812642D01*
X188817339Y-131010076D01*
X188817343Y-131010081D01*
X188989918Y-131182656D01*
X188989923Y-131182660D01*
X189162136Y-131307779D01*
X189187361Y-131326106D01*
X189404815Y-131436904D01*
X189636924Y-131512321D01*
X189877973Y-131550500D01*
X189877974Y-131550500D01*
X190122026Y-131550500D01*
X190122027Y-131550500D01*
X190363076Y-131512321D01*
X190595185Y-131436904D01*
X190812639Y-131326106D01*
X191010083Y-131182655D01*
X191182655Y-131010083D01*
X191326106Y-130812639D01*
X191436904Y-130595185D01*
X191512321Y-130363076D01*
X191550500Y-130122027D01*
X191550500Y-129877973D01*
X223449500Y-129877973D01*
X223449500Y-130122026D01*
X223487678Y-130363072D01*
X223563097Y-130595187D01*
X223673896Y-130812642D01*
X223817339Y-131010076D01*
X223817343Y-131010081D01*
X223989918Y-131182656D01*
X223989923Y-131182660D01*
X224162136Y-131307779D01*
X224187361Y-131326106D01*
X224404815Y-131436904D01*
X224636924Y-131512321D01*
X224877973Y-131550500D01*
X224877974Y-131550500D01*
X225122026Y-131550500D01*
X225122027Y-131550500D01*
X225363076Y-131512321D01*
X225595185Y-131436904D01*
X225812639Y-131326106D01*
X226010083Y-131182655D01*
X226182655Y-131010083D01*
X226326106Y-130812639D01*
X226436904Y-130595185D01*
X226512321Y-130363076D01*
X226550500Y-130122027D01*
X226550500Y-129877973D01*
X226512321Y-129636924D01*
X226436904Y-129404815D01*
X226326106Y-129187361D01*
X226307779Y-129162136D01*
X226182660Y-128989923D01*
X226182656Y-128989918D01*
X226010081Y-128817343D01*
X226010076Y-128817339D01*
X225812642Y-128673896D01*
X225812641Y-128673895D01*
X225812639Y-128673894D01*
X225595185Y-128563096D01*
X225363076Y-128487679D01*
X225363074Y-128487678D01*
X225363072Y-128487678D01*
X225194769Y-128461021D01*
X225122027Y-128449500D01*
X224877973Y-128449500D01*
X224822093Y-128458350D01*
X224636927Y-128487678D01*
X224404812Y-128563097D01*
X224187357Y-128673896D01*
X223989923Y-128817339D01*
X223989918Y-128817343D01*
X223817343Y-128989918D01*
X223817339Y-128989923D01*
X223673896Y-129187357D01*
X223563097Y-129404812D01*
X223487678Y-129636927D01*
X223449500Y-129877973D01*
X191550500Y-129877973D01*
X191512321Y-129636924D01*
X191436904Y-129404815D01*
X191326106Y-129187361D01*
X191307779Y-129162136D01*
X191182660Y-128989923D01*
X191182656Y-128989918D01*
X191010081Y-128817343D01*
X191010076Y-128817339D01*
X190812642Y-128673896D01*
X190812641Y-128673895D01*
X190812639Y-128673894D01*
X190595185Y-128563096D01*
X190363076Y-128487679D01*
X190363074Y-128487678D01*
X190363072Y-128487678D01*
X190194769Y-128461021D01*
X190122027Y-128449500D01*
X189877973Y-128449500D01*
X189822093Y-128458350D01*
X189636927Y-128487678D01*
X189404812Y-128563097D01*
X189187357Y-128673896D01*
X188989923Y-128817339D01*
X188989918Y-128817343D01*
X188817343Y-128989918D01*
X188817339Y-128989923D01*
X188673896Y-129187357D01*
X188563097Y-129404812D01*
X188487678Y-129636927D01*
X188449500Y-129877973D01*
X187500500Y-129877973D01*
X187500500Y-118406379D01*
X222249500Y-118406379D01*
X222249500Y-118593620D01*
X222286025Y-118777243D01*
X222286027Y-118777251D01*
X222357676Y-118950228D01*
X222357681Y-118950237D01*
X222461697Y-119105907D01*
X222461700Y-119105911D01*
X222594088Y-119238299D01*
X222594092Y-119238302D01*
X222749762Y-119342318D01*
X222749768Y-119342321D01*
X222749769Y-119342322D01*
X222922749Y-119413973D01*
X223106379Y-119450499D01*
X223106383Y-119450500D01*
X223106384Y-119450500D01*
X223293617Y-119450500D01*
X223293618Y-119450499D01*
X223477251Y-119413973D01*
X223650231Y-119342322D01*
X223805908Y-119238302D01*
X223938302Y-119105908D01*
X224042322Y-118950231D01*
X224113973Y-118777251D01*
X224150500Y-118593616D01*
X224150500Y-118406384D01*
X224113973Y-118222749D01*
X224042322Y-118049769D01*
X224042321Y-118049768D01*
X224042318Y-118049762D01*
X223938302Y-117894092D01*
X223938299Y-117894088D01*
X223805911Y-117761700D01*
X223805907Y-117761697D01*
X223650237Y-117657681D01*
X223650228Y-117657676D01*
X223477251Y-117586027D01*
X223477243Y-117586025D01*
X223293620Y-117549500D01*
X223293616Y-117549500D01*
X223106384Y-117549500D01*
X223106379Y-117549500D01*
X222922756Y-117586025D01*
X222922748Y-117586027D01*
X222749771Y-117657676D01*
X222749762Y-117657681D01*
X222594092Y-117761697D01*
X222594088Y-117761700D01*
X222461700Y-117894088D01*
X222461697Y-117894092D01*
X222357681Y-118049762D01*
X222357676Y-118049771D01*
X222286027Y-118222748D01*
X222286025Y-118222756D01*
X222249500Y-118406379D01*
X187500500Y-118406379D01*
X187500500Y-114006379D01*
X222249500Y-114006379D01*
X222249500Y-114193620D01*
X222286025Y-114377243D01*
X222286027Y-114377251D01*
X222357676Y-114550228D01*
X222357681Y-114550237D01*
X222461697Y-114705907D01*
X222461700Y-114705911D01*
X222594088Y-114838299D01*
X222594092Y-114838302D01*
X222749762Y-114942318D01*
X222749768Y-114942321D01*
X222749769Y-114942322D01*
X222922749Y-115013973D01*
X223106379Y-115050499D01*
X223106383Y-115050500D01*
X223106384Y-115050500D01*
X223293617Y-115050500D01*
X223293618Y-115050499D01*
X223477251Y-115013973D01*
X223650231Y-114942322D01*
X223805908Y-114838302D01*
X223938302Y-114705908D01*
X224042322Y-114550231D01*
X224113973Y-114377251D01*
X224150500Y-114193616D01*
X224150500Y-114006384D01*
X224113973Y-113822749D01*
X224042322Y-113649769D01*
X224042321Y-113649768D01*
X224042318Y-113649762D01*
X223938302Y-113494092D01*
X223938299Y-113494088D01*
X223805911Y-113361700D01*
X223805907Y-113361697D01*
X223650237Y-113257681D01*
X223650228Y-113257676D01*
X223477251Y-113186027D01*
X223477243Y-113186025D01*
X223293620Y-113149500D01*
X223293616Y-113149500D01*
X223106384Y-113149500D01*
X223106379Y-113149500D01*
X222922756Y-113186025D01*
X222922748Y-113186027D01*
X222749771Y-113257676D01*
X222749762Y-113257681D01*
X222594092Y-113361697D01*
X222594088Y-113361700D01*
X222461700Y-113494088D01*
X222461697Y-113494092D01*
X222357681Y-113649762D01*
X222357676Y-113649771D01*
X222286027Y-113822748D01*
X222286025Y-113822756D01*
X222249500Y-114006379D01*
X187500500Y-114006379D01*
X187500500Y-104793753D01*
X207110000Y-104793753D01*
X207110000Y-105006246D01*
X207143242Y-105216127D01*
X207143242Y-105216130D01*
X207208904Y-105418217D01*
X207305375Y-105607550D01*
X207344728Y-105661716D01*
X207977037Y-105029408D01*
X207994075Y-105092993D01*
X208059901Y-105207007D01*
X208152993Y-105300099D01*
X208267007Y-105365925D01*
X208330590Y-105382962D01*
X207698282Y-106015269D01*
X207698282Y-106015270D01*
X207752449Y-106054624D01*
X207941782Y-106151095D01*
X208143870Y-106216757D01*
X208353754Y-106250000D01*
X208566246Y-106250000D01*
X208776127Y-106216757D01*
X208776130Y-106216757D01*
X208978217Y-106151095D01*
X209167554Y-106054622D01*
X209221716Y-106015270D01*
X209221717Y-106015270D01*
X208589408Y-105382962D01*
X208652993Y-105365925D01*
X208767007Y-105300099D01*
X208860099Y-105207007D01*
X208925925Y-105092993D01*
X208942962Y-105029408D01*
X209575270Y-105661717D01*
X209575270Y-105661716D01*
X209614622Y-105607554D01*
X209711095Y-105418217D01*
X209720492Y-105389295D01*
X209759928Y-105331618D01*
X209824286Y-105304419D01*
X209893133Y-105316331D01*
X209944610Y-105363574D01*
X209948908Y-105371314D01*
X210016004Y-105502995D01*
X210122441Y-105649494D01*
X210122445Y-105649499D01*
X210250500Y-105777554D01*
X210250505Y-105777558D01*
X210378287Y-105870396D01*
X210397006Y-105883996D01*
X210473094Y-105922765D01*
X210558360Y-105966211D01*
X210558363Y-105966212D01*
X210644476Y-105994191D01*
X210730591Y-106022171D01*
X210813429Y-106035291D01*
X210909449Y-106050500D01*
X210909454Y-106050500D01*
X211090551Y-106050500D01*
X211177259Y-106036765D01*
X211269409Y-106022171D01*
X211441639Y-105966211D01*
X211602994Y-105883996D01*
X211749501Y-105777553D01*
X211877553Y-105649501D01*
X211983996Y-105502994D01*
X212066211Y-105341639D01*
X212122171Y-105169409D01*
X212143027Y-105037729D01*
X212147527Y-105009321D01*
X212177456Y-104946186D01*
X212236768Y-104909255D01*
X212306630Y-104910253D01*
X212364863Y-104948863D01*
X212392473Y-105009321D01*
X212417829Y-105169410D01*
X212473787Y-105341636D01*
X212473788Y-105341639D01*
X212556006Y-105502997D01*
X212662441Y-105649494D01*
X212662445Y-105649499D01*
X212790500Y-105777554D01*
X212790505Y-105777558D01*
X212918287Y-105870396D01*
X212937006Y-105883996D01*
X213013094Y-105922765D01*
X213098360Y-105966211D01*
X213098363Y-105966212D01*
X213184476Y-105994191D01*
X213270591Y-106022171D01*
X213353429Y-106035291D01*
X213449449Y-106050500D01*
X213449454Y-106050500D01*
X213630551Y-106050500D01*
X213717259Y-106036765D01*
X213809409Y-106022171D01*
X213981639Y-105966211D01*
X214142994Y-105883996D01*
X214289501Y-105777553D01*
X214417553Y-105649501D01*
X214523996Y-105502994D01*
X214606211Y-105341639D01*
X214662171Y-105169409D01*
X214683027Y-105037729D01*
X214712956Y-104974595D01*
X214772267Y-104937663D01*
X214842130Y-104938661D01*
X214900363Y-104977271D01*
X214928477Y-105041234D01*
X214929500Y-105057127D01*
X214929500Y-105794856D01*
X214929502Y-105794882D01*
X214932413Y-105819987D01*
X214932415Y-105819991D01*
X214977793Y-105922764D01*
X214977794Y-105922765D01*
X215057235Y-106002206D01*
X215160009Y-106047585D01*
X215185135Y-106050500D01*
X216974864Y-106050499D01*
X216974879Y-106050497D01*
X216974882Y-106050497D01*
X216999987Y-106047586D01*
X216999988Y-106047585D01*
X216999991Y-106047585D01*
X217102765Y-106002206D01*
X217182206Y-105922765D01*
X217227585Y-105819991D01*
X217230500Y-105794865D01*
X217230499Y-104005136D01*
X217230497Y-104005117D01*
X217227586Y-103980012D01*
X217227585Y-103980010D01*
X217227585Y-103980009D01*
X217182206Y-103877235D01*
X217102765Y-103797794D01*
X217102763Y-103797793D01*
X216999992Y-103752415D01*
X216974865Y-103749500D01*
X215185143Y-103749500D01*
X215185117Y-103749502D01*
X215160012Y-103752413D01*
X215160008Y-103752415D01*
X215057235Y-103797793D01*
X214977794Y-103877234D01*
X214932415Y-103980006D01*
X214932415Y-103980008D01*
X214929500Y-104005131D01*
X214929500Y-104742871D01*
X214909815Y-104809910D01*
X214857011Y-104855665D01*
X214787853Y-104865609D01*
X214724297Y-104836584D01*
X214686523Y-104777806D01*
X214683027Y-104762269D01*
X214674274Y-104707007D01*
X214662171Y-104630591D01*
X214606211Y-104458361D01*
X214606211Y-104458360D01*
X214567191Y-104381780D01*
X214523996Y-104297006D01*
X214510396Y-104278287D01*
X214417558Y-104150505D01*
X214417554Y-104150500D01*
X214289499Y-104022445D01*
X214289494Y-104022441D01*
X214142997Y-103916006D01*
X214142996Y-103916005D01*
X214142994Y-103916004D01*
X214066906Y-103877235D01*
X213981639Y-103833788D01*
X213981636Y-103833787D01*
X213809410Y-103777829D01*
X213630551Y-103749500D01*
X213630546Y-103749500D01*
X213449454Y-103749500D01*
X213449449Y-103749500D01*
X213270589Y-103777829D01*
X213098363Y-103833787D01*
X213098360Y-103833788D01*
X212937002Y-103916006D01*
X212790505Y-104022441D01*
X212790500Y-104022445D01*
X212662445Y-104150500D01*
X212662441Y-104150505D01*
X212556006Y-104297002D01*
X212473788Y-104458360D01*
X212473787Y-104458363D01*
X212417829Y-104630589D01*
X212392473Y-104790678D01*
X212362544Y-104853813D01*
X212303232Y-104890744D01*
X212233369Y-104889746D01*
X212175137Y-104851136D01*
X212147527Y-104790678D01*
X212133740Y-104703639D01*
X212122171Y-104630591D01*
X212066211Y-104458361D01*
X212066211Y-104458360D01*
X212027191Y-104381780D01*
X211983996Y-104297006D01*
X211970396Y-104278287D01*
X211877558Y-104150505D01*
X211877554Y-104150500D01*
X211749499Y-104022445D01*
X211749494Y-104022441D01*
X211602997Y-103916006D01*
X211602996Y-103916005D01*
X211602994Y-103916004D01*
X211526906Y-103877235D01*
X211441639Y-103833788D01*
X211441636Y-103833787D01*
X211269410Y-103777829D01*
X211090551Y-103749500D01*
X211090546Y-103749500D01*
X210909454Y-103749500D01*
X210909449Y-103749500D01*
X210730589Y-103777829D01*
X210558363Y-103833787D01*
X210558360Y-103833788D01*
X210397002Y-103916006D01*
X210250505Y-104022441D01*
X210250500Y-104022445D01*
X210122445Y-104150500D01*
X210122441Y-104150505D01*
X210016004Y-104297004D01*
X209948908Y-104428685D01*
X209900933Y-104479480D01*
X209833112Y-104496275D01*
X209766977Y-104473737D01*
X209723527Y-104419021D01*
X209720492Y-104410705D01*
X209711094Y-104381780D01*
X209614624Y-104192449D01*
X209575270Y-104138282D01*
X209575269Y-104138282D01*
X208942962Y-104770590D01*
X208925925Y-104707007D01*
X208860099Y-104592993D01*
X208767007Y-104499901D01*
X208652993Y-104434075D01*
X208589409Y-104417037D01*
X209221716Y-103784728D01*
X209167550Y-103745375D01*
X208978217Y-103648904D01*
X208776129Y-103583242D01*
X208566246Y-103550000D01*
X208353754Y-103550000D01*
X208143872Y-103583242D01*
X208143869Y-103583242D01*
X207941782Y-103648904D01*
X207752439Y-103745380D01*
X207698282Y-103784727D01*
X207698282Y-103784728D01*
X208330591Y-104417037D01*
X208267007Y-104434075D01*
X208152993Y-104499901D01*
X208059901Y-104592993D01*
X207994075Y-104707007D01*
X207977037Y-104770591D01*
X207344728Y-104138282D01*
X207344727Y-104138282D01*
X207305380Y-104192439D01*
X207208904Y-104381782D01*
X207143242Y-104583869D01*
X207143242Y-104583872D01*
X207110000Y-104793753D01*
X187500500Y-104793753D01*
X187500500Y-100003750D01*
X187500726Y-99996263D01*
X187507881Y-99877973D01*
X188449500Y-99877973D01*
X188449500Y-100122026D01*
X188487678Y-100363072D01*
X188563097Y-100595187D01*
X188673896Y-100812642D01*
X188817339Y-101010076D01*
X188817343Y-101010081D01*
X188989918Y-101182656D01*
X188989923Y-101182660D01*
X189162136Y-101307779D01*
X189187361Y-101326106D01*
X189404815Y-101436904D01*
X189636924Y-101512321D01*
X189877973Y-101550500D01*
X189877974Y-101550500D01*
X190122026Y-101550500D01*
X190122027Y-101550500D01*
X190363076Y-101512321D01*
X190595185Y-101436904D01*
X190812639Y-101326106D01*
X191010083Y-101182655D01*
X191182655Y-101010083D01*
X191326106Y-100812639D01*
X191436904Y-100595185D01*
X191512321Y-100363076D01*
X191550500Y-100122027D01*
X191550500Y-99877973D01*
X223449500Y-99877973D01*
X223449500Y-100122026D01*
X223487678Y-100363072D01*
X223563097Y-100595187D01*
X223673896Y-100812642D01*
X223817339Y-101010076D01*
X223817343Y-101010081D01*
X223989918Y-101182656D01*
X223989923Y-101182660D01*
X224162136Y-101307779D01*
X224187361Y-101326106D01*
X224404815Y-101436904D01*
X224636924Y-101512321D01*
X224877973Y-101550500D01*
X224877974Y-101550500D01*
X225122026Y-101550500D01*
X225122027Y-101550500D01*
X225363076Y-101512321D01*
X225595185Y-101436904D01*
X225812639Y-101326106D01*
X226010083Y-101182655D01*
X226182655Y-101010083D01*
X226326106Y-100812639D01*
X226436904Y-100595185D01*
X226512321Y-100363076D01*
X226550500Y-100122027D01*
X226550500Y-99877973D01*
X226512321Y-99636924D01*
X226436904Y-99404815D01*
X226326106Y-99187361D01*
X226267598Y-99106831D01*
X226182660Y-98989923D01*
X226182656Y-98989918D01*
X226010081Y-98817343D01*
X226010076Y-98817339D01*
X225812642Y-98673896D01*
X225812641Y-98673895D01*
X225812639Y-98673894D01*
X225595185Y-98563096D01*
X225363076Y-98487679D01*
X225363074Y-98487678D01*
X225363072Y-98487678D01*
X225194769Y-98461021D01*
X225122027Y-98449500D01*
X224877973Y-98449500D01*
X224822093Y-98458350D01*
X224636927Y-98487678D01*
X224404812Y-98563097D01*
X224187357Y-98673896D01*
X223989923Y-98817339D01*
X223989918Y-98817343D01*
X223817343Y-98989918D01*
X223817339Y-98989923D01*
X223673896Y-99187357D01*
X223563097Y-99404812D01*
X223487678Y-99636927D01*
X223449500Y-99877973D01*
X191550500Y-99877973D01*
X191512321Y-99636924D01*
X191436904Y-99404815D01*
X191326106Y-99187361D01*
X191267598Y-99106831D01*
X191182660Y-98989923D01*
X191182656Y-98989918D01*
X191010081Y-98817343D01*
X191010076Y-98817339D01*
X190812642Y-98673896D01*
X190812641Y-98673895D01*
X190812639Y-98673894D01*
X190595185Y-98563096D01*
X190363076Y-98487679D01*
X190363074Y-98487678D01*
X190363072Y-98487678D01*
X190194769Y-98461021D01*
X190122027Y-98449500D01*
X189877973Y-98449500D01*
X189822093Y-98458350D01*
X189636927Y-98487678D01*
X189404812Y-98563097D01*
X189187357Y-98673896D01*
X188989923Y-98817339D01*
X188989918Y-98817343D01*
X188817343Y-98989918D01*
X188817339Y-98989923D01*
X188673896Y-99187357D01*
X188563097Y-99404812D01*
X188487678Y-99636927D01*
X188449500Y-99877973D01*
X187507881Y-99877973D01*
X187508629Y-99865614D01*
X187518271Y-99706205D01*
X187520076Y-99691340D01*
X187571780Y-99409201D01*
X187575364Y-99394663D01*
X187639962Y-99187361D01*
X187660696Y-99120822D01*
X187665998Y-99106841D01*
X187783731Y-98845249D01*
X187790676Y-98832016D01*
X187939080Y-98586526D01*
X187947567Y-98574230D01*
X188124480Y-98348417D01*
X188134395Y-98337226D01*
X188337226Y-98134395D01*
X188348417Y-98124480D01*
X188574230Y-97947567D01*
X188586526Y-97939080D01*
X188832016Y-97790676D01*
X188845249Y-97783731D01*
X189106841Y-97665998D01*
X189120822Y-97660696D01*
X189394668Y-97575362D01*
X189409197Y-97571780D01*
X189691344Y-97520075D01*
X189706201Y-97518271D01*
X189996264Y-97500726D01*
X190003751Y-97500500D01*
X190065892Y-97500500D01*
X224934108Y-97500500D01*
X224996249Y-97500500D01*
X225003736Y-97500726D01*
G37*
%TD.AperFunction*%
%TD*%
M02*
