%TF.GenerationSoftware,KiCad,Pcbnew,9.0.5*%
%TF.CreationDate,2025-11-09T16:32:06+01:00*%
%TF.ProjectId,PTP,5054502e-6b69-4636-9164-5f7063625858,rev?*%
%TF.SameCoordinates,Original*%
%TF.FileFunction,Paste,Top*%
%TF.FilePolarity,Positive*%
%FSLAX46Y46*%
G04 Gerber Fmt 4.6, Leading zero omitted, Abs format (unit mm)*
G04 Created by KiCad (PCBNEW 9.0.5) date 2025-11-09 16:32:06*
%MOMM*%
%LPD*%
G01*
G04 APERTURE LIST*
G04 Aperture macros list*
%AMRoundRect*
0 Rectangle with rounded corners*
0 $1 Rounding radius*
0 $2 $3 $4 $5 $6 $7 $8 $9 X,Y pos of 4 corners*
0 Add a 4 corners polygon primitive as box body*
4,1,4,$2,$3,$4,$5,$6,$7,$8,$9,$2,$3,0*
0 Add four circle primitives for the rounded corners*
1,1,$1+$1,$2,$3*
1,1,$1+$1,$4,$5*
1,1,$1+$1,$6,$7*
1,1,$1+$1,$8,$9*
0 Add four rect primitives between the rounded corners*
20,1,$1+$1,$2,$3,$4,$5,0*
20,1,$1+$1,$4,$5,$6,$7,0*
20,1,$1+$1,$6,$7,$8,$9,0*
20,1,$1+$1,$8,$9,$2,$3,0*%
G04 Aperture macros list end*
%ADD10R,2.300000X0.500000*%
%ADD11R,2.299996X0.500000*%
%ADD12R,2.500000X2.000000*%
%ADD13R,2.500000X1.999992*%
%ADD14RoundRect,0.140000X0.170000X-0.140000X0.170000X0.140000X-0.170000X0.140000X-0.170000X-0.140000X0*%
%ADD15RoundRect,0.140000X-0.170000X0.140000X-0.170000X-0.140000X0.170000X-0.140000X0.170000X0.140000X0*%
%ADD16RoundRect,0.140000X0.140000X0.170000X-0.140000X0.170000X-0.140000X-0.170000X0.140000X-0.170000X0*%
%ADD17RoundRect,0.150000X0.512500X0.150000X-0.512500X0.150000X-0.512500X-0.150000X0.512500X-0.150000X0*%
%ADD18RoundRect,0.250000X0.450000X-0.262500X0.450000X0.262500X-0.450000X0.262500X-0.450000X-0.262500X0*%
%ADD19RoundRect,0.225000X0.225000X0.250000X-0.225000X0.250000X-0.225000X-0.250000X0.225000X-0.250000X0*%
%ADD20RoundRect,0.140000X-0.140000X-0.170000X0.140000X-0.170000X0.140000X0.170000X-0.140000X0.170000X0*%
%ADD21RoundRect,0.250000X-0.350000X0.450000X-0.350000X-0.450000X0.350000X-0.450000X0.350000X0.450000X0*%
%ADD22RoundRect,0.250000X-0.450000X0.262500X-0.450000X-0.262500X0.450000X-0.262500X0.450000X0.262500X0*%
%ADD23RoundRect,0.250000X-0.262500X-0.450000X0.262500X-0.450000X0.262500X0.450000X-0.262500X0.450000X0*%
%ADD24RoundRect,0.075000X-0.662500X-0.075000X0.662500X-0.075000X0.662500X0.075000X-0.662500X0.075000X0*%
%ADD25RoundRect,0.075000X-0.075000X-0.662500X0.075000X-0.662500X0.075000X0.662500X-0.075000X0.662500X0*%
%ADD26RoundRect,0.250000X0.375000X0.625000X-0.375000X0.625000X-0.375000X-0.625000X0.375000X-0.625000X0*%
%ADD27RoundRect,0.250000X-0.625000X0.312500X-0.625000X-0.312500X0.625000X-0.312500X0.625000X0.312500X0*%
%ADD28RoundRect,0.050000X-0.800000X0.450000X-0.800000X-0.450000X0.800000X-0.450000X0.800000X0.450000X0*%
G04 APERTURE END LIST*
D10*
%TO.C,CON1*%
X220500000Y-117900000D03*
X220500000Y-117100000D03*
X220500000Y-116300000D03*
D11*
X220500002Y-115500000D03*
D10*
X220500000Y-114700000D03*
D12*
X220600000Y-120750000D03*
D13*
X226100000Y-120750000D03*
D12*
X220600000Y-111850000D03*
D13*
X226100000Y-111850000D03*
%TD*%
D14*
%TO.C,C11*%
X193450000Y-117730000D03*
X193450000Y-116770000D03*
%TD*%
D15*
%TO.C,C4*%
X208200000Y-114200000D03*
X208200000Y-115160000D03*
%TD*%
D14*
%TO.C,C15*%
X209912500Y-122460000D03*
X209912500Y-121500000D03*
%TD*%
D16*
%TO.C,C9*%
X200110000Y-123500000D03*
X199150000Y-123500000D03*
%TD*%
D17*
%TO.C,U2*%
X215800000Y-117100000D03*
X215800000Y-116150000D03*
X215800000Y-115200000D03*
X213525000Y-115200000D03*
X213525000Y-116150000D03*
X213525000Y-117100000D03*
%TD*%
D18*
%TO.C,C16*%
X207912500Y-123912500D03*
X207912500Y-122087500D03*
%TD*%
%TO.C,R4*%
X216700000Y-128512500D03*
X216700000Y-126687500D03*
%TD*%
D19*
%TO.C,C8*%
X193600000Y-122787500D03*
X192050000Y-122787500D03*
%TD*%
D14*
%TO.C,C10*%
X193450000Y-115480000D03*
X193450000Y-114520000D03*
%TD*%
D20*
%TO.C,C2*%
X199240000Y-111300000D03*
X200200000Y-111300000D03*
%TD*%
D19*
%TO.C,C7*%
X193600000Y-121000000D03*
X192050000Y-121000000D03*
%TD*%
D16*
%TO.C,C5*%
X205200000Y-123200000D03*
X204240000Y-123200000D03*
%TD*%
D21*
%TO.C,Y1*%
X190300000Y-115000000D03*
X190300000Y-117200000D03*
X192000000Y-117200000D03*
X192000000Y-115000000D03*
%TD*%
D22*
%TO.C,R2*%
X210700000Y-113887500D03*
X210700000Y-115712500D03*
%TD*%
D23*
%TO.C,C1*%
X198787500Y-109500000D03*
X200612500Y-109500000D03*
%TD*%
D24*
%TO.C,U1*%
X198087500Y-114500000D03*
X198087500Y-115000000D03*
X198087500Y-115500000D03*
X198087500Y-116000000D03*
X198087500Y-116500000D03*
X198087500Y-117000000D03*
X198087500Y-117500000D03*
X198087500Y-118000000D03*
X198087500Y-118500000D03*
X198087500Y-119000000D03*
X198087500Y-119500000D03*
X198087500Y-120000000D03*
D25*
X199500000Y-121412500D03*
X200000000Y-121412500D03*
X200500000Y-121412500D03*
X201000000Y-121412500D03*
X201500000Y-121412500D03*
X202000000Y-121412500D03*
X202500000Y-121412500D03*
X203000000Y-121412500D03*
X203500000Y-121412500D03*
X204000000Y-121412500D03*
X204500000Y-121412500D03*
X205000000Y-121412500D03*
D24*
X206412500Y-120000000D03*
X206412500Y-119500000D03*
X206412500Y-119000000D03*
X206412500Y-118500000D03*
X206412500Y-118000000D03*
X206412500Y-117500000D03*
X206412500Y-117000000D03*
X206412500Y-116500000D03*
X206412500Y-116000000D03*
X206412500Y-115500000D03*
X206412500Y-115000000D03*
X206412500Y-114500000D03*
D25*
X205000000Y-113087500D03*
X204500000Y-113087500D03*
X204000000Y-113087500D03*
X203500000Y-113087500D03*
X203000000Y-113087500D03*
X202500000Y-113087500D03*
X202000000Y-113087500D03*
X201500000Y-113087500D03*
X201000000Y-113087500D03*
X200500000Y-113087500D03*
X200000000Y-113087500D03*
X199500000Y-113087500D03*
%TD*%
D14*
%TO.C,C6*%
X196300000Y-118780000D03*
X196300000Y-117820000D03*
%TD*%
D22*
%TO.C,C14*%
X214525000Y-124100000D03*
X214525000Y-125925000D03*
%TD*%
D26*
%TO.C,D1*%
X212450000Y-128800000D03*
X209650000Y-128800000D03*
%TD*%
D14*
%TO.C,C3*%
X196400000Y-114500000D03*
X196400000Y-113540000D03*
%TD*%
D17*
%TO.C,U3*%
X212412500Y-125900000D03*
X212412500Y-124950000D03*
X212412500Y-124000000D03*
X210137500Y-124000000D03*
X210137500Y-125900000D03*
%TD*%
D22*
%TO.C,FB1*%
X195600000Y-120975000D03*
X195600000Y-122800000D03*
%TD*%
D27*
%TO.C,R1*%
X204000000Y-106037500D03*
X204000000Y-108962500D03*
%TD*%
D23*
%TO.C,R3*%
X213162500Y-122000000D03*
X214987500Y-122000000D03*
%TD*%
D28*
%TO.C,SW1*%
X195500000Y-100500000D03*
X202000000Y-103000000D03*
X195500000Y-105500000D03*
%TD*%
D15*
%TO.C,C13*%
X216275000Y-123350000D03*
X216275000Y-124310000D03*
%TD*%
%TO.C,C12*%
X211412500Y-121500000D03*
X211412500Y-122460000D03*
%TD*%
M02*
