M48
; DRILL file {KiCad 9.0.5} date 2025-11-25T11:42:19+0100
; FORMAT={-:-/ absolute / metric / decimal}
; #@! TF.CreationDate,2025-11-25T11:42:19+01:00
; #@! TF.GenerationSoftware,Kicad,Pcbnew,9.0.5
; #@! TF.FileFunction,Plated,1,2,PTH
FMAT,2
METRIC
; #@! TA.AperFunction,Plated,PTH,ViaDrill
T1C0.300
; #@! TA.AperFunction,Plated,PTH,ComponentDrill
T2C1.000
%
G90
G05
T1
X84.9Y-81.6
X90.1Y-81.2
X90.6Y-112.8
X93.95Y-94.05
X98.6Y-117.8
X99.7Y-111.35
X101.4Y-106.1
X102.5Y-112.825
X103.7Y-109.25
X104.1Y-103.6
X104.4Y-111.5
X105.8Y-105.0
X107.7Y-100.5
X109.25Y-109.85
X110.0Y-100.5
X113.9Y-112.5
X114.9Y-117.1
X116.7Y-117.6
X117.2Y-105.8
X117.7Y-125.9
X118.494Y-113.718
X118.6Y-107.7
X118.8Y-110.4
X119.244Y-113.718
X119.4Y-105.3
X119.521Y-109.782
X120.6Y-106.1
X120.9Y-110.599
X121.2Y-111.5
X121.9Y-105.6
X122.0Y-115.0
X122.5Y-111.8
X123.4Y-106.7
X124.4Y-106.5
X124.7Y-111.1
X126.138Y-119.44
X126.6Y-103.7
X126.8Y-91.3
X126.9Y-88.9
X126.9Y-93.4
X127.5Y-106.6
X127.638Y-118.04
X128.175Y-108.75
X128.588Y-118.04
X129.1Y-85.0
X129.4Y-106.5
X133.3Y-129.5
X133.9Y-100.4
X135.6Y-88.5
X135.65Y-91.65
T2
X85.0Y-78.0
X85.0Y-132.0
X85.8Y-98.16
X85.8Y-100.7
X85.8Y-103.24
X85.8Y-105.78
X85.8Y-108.32
X85.8Y-110.86
X87.54Y-78.0
X87.54Y-132.0
X90.08Y-78.0
X90.08Y-132.0
X92.62Y-78.0
X92.62Y-132.0
X95.16Y-78.0
X95.16Y-132.0
X97.7Y-78.0
X97.7Y-132.0
X100.24Y-78.0
X100.24Y-132.0
X102.78Y-78.0
X102.78Y-132.0
X105.32Y-78.0
X105.32Y-132.0
X107.86Y-78.0
X107.86Y-132.0
X110.4Y-78.0
X110.4Y-132.0
X112.94Y-78.0
X112.94Y-132.0
X115.48Y-78.0
X115.48Y-132.0
X118.02Y-78.0
X118.02Y-132.0
X120.56Y-78.0
X120.56Y-132.0
X123.1Y-78.0
X123.1Y-132.0
X125.64Y-78.0
X125.64Y-132.0
X128.18Y-78.0
X128.18Y-132.0
X130.72Y-78.0
X130.72Y-132.0
X133.26Y-78.0
X133.26Y-132.0
M30
