%TF.GenerationSoftware,KiCad,Pcbnew,9.0.5*%
%TF.CreationDate,2025-11-25T11:42:17+01:00*%
%TF.ProjectId,PTP,5054502e-6b69-4636-9164-5f7063625858,rev?*%
%TF.SameCoordinates,Original*%
%TF.FileFunction,Legend,Bot*%
%TF.FilePolarity,Positive*%
%FSLAX46Y46*%
G04 Gerber Fmt 4.6, Leading zero omitted, Abs format (unit mm)*
G04 Created by KiCad (PCBNEW 9.0.5) date 2025-11-25 11:42:17*
%MOMM*%
%LPD*%
G01*
G04 APERTURE LIST*
%ADD10C,0.160000*%
G04 APERTURE END LIST*
D10*
X116249498Y-109219299D02*
X115916165Y-110219299D01*
X115916165Y-110219299D02*
X115582832Y-109219299D01*
X114725689Y-110219299D02*
X115297117Y-110219299D01*
X115011403Y-110219299D02*
X115011403Y-109219299D01*
X115011403Y-109219299D02*
X115106641Y-109362156D01*
X115106641Y-109362156D02*
X115201879Y-109457394D01*
X115201879Y-109457394D02*
X115297117Y-109505013D01*
X114297117Y-110124060D02*
X114249498Y-110171680D01*
X114249498Y-110171680D02*
X114297117Y-110219299D01*
X114297117Y-110219299D02*
X114344736Y-110171680D01*
X114344736Y-110171680D02*
X114297117Y-110124060D01*
X114297117Y-110124060D02*
X114297117Y-110219299D01*
X113297118Y-110219299D02*
X113868546Y-110219299D01*
X113582832Y-110219299D02*
X113582832Y-109219299D01*
X113582832Y-109219299D02*
X113678070Y-109362156D01*
X113678070Y-109362156D02*
X113773308Y-109457394D01*
X113773308Y-109457394D02*
X113868546Y-109505013D01*
X111582832Y-110219299D02*
X112154260Y-110219299D01*
X111868546Y-110219299D02*
X111868546Y-109219299D01*
X111868546Y-109219299D02*
X111963784Y-109362156D01*
X111963784Y-109362156D02*
X112059022Y-109457394D01*
X112059022Y-109457394D02*
X112154260Y-109505013D01*
X110630451Y-110219299D02*
X111201879Y-110219299D01*
X110916165Y-110219299D02*
X110916165Y-109219299D01*
X110916165Y-109219299D02*
X111011403Y-109362156D01*
X111011403Y-109362156D02*
X111106641Y-109457394D01*
X111106641Y-109457394D02*
X111201879Y-109505013D01*
X109487594Y-109171680D02*
X110344736Y-110457394D01*
X109201879Y-109314537D02*
X109154260Y-109266918D01*
X109154260Y-109266918D02*
X109059022Y-109219299D01*
X109059022Y-109219299D02*
X108820927Y-109219299D01*
X108820927Y-109219299D02*
X108725689Y-109266918D01*
X108725689Y-109266918D02*
X108678070Y-109314537D01*
X108678070Y-109314537D02*
X108630451Y-109409775D01*
X108630451Y-109409775D02*
X108630451Y-109505013D01*
X108630451Y-109505013D02*
X108678070Y-109647870D01*
X108678070Y-109647870D02*
X109249498Y-110219299D01*
X109249498Y-110219299D02*
X108630451Y-110219299D01*
X108011403Y-109219299D02*
X107916165Y-109219299D01*
X107916165Y-109219299D02*
X107820927Y-109266918D01*
X107820927Y-109266918D02*
X107773308Y-109314537D01*
X107773308Y-109314537D02*
X107725689Y-109409775D01*
X107725689Y-109409775D02*
X107678070Y-109600251D01*
X107678070Y-109600251D02*
X107678070Y-109838346D01*
X107678070Y-109838346D02*
X107725689Y-110028822D01*
X107725689Y-110028822D02*
X107773308Y-110124060D01*
X107773308Y-110124060D02*
X107820927Y-110171680D01*
X107820927Y-110171680D02*
X107916165Y-110219299D01*
X107916165Y-110219299D02*
X108011403Y-110219299D01*
X108011403Y-110219299D02*
X108106641Y-110171680D01*
X108106641Y-110171680D02*
X108154260Y-110124060D01*
X108154260Y-110124060D02*
X108201879Y-110028822D01*
X108201879Y-110028822D02*
X108249498Y-109838346D01*
X108249498Y-109838346D02*
X108249498Y-109600251D01*
X108249498Y-109600251D02*
X108201879Y-109409775D01*
X108201879Y-109409775D02*
X108154260Y-109314537D01*
X108154260Y-109314537D02*
X108106641Y-109266918D01*
X108106641Y-109266918D02*
X108011403Y-109219299D01*
X107297117Y-109314537D02*
X107249498Y-109266918D01*
X107249498Y-109266918D02*
X107154260Y-109219299D01*
X107154260Y-109219299D02*
X106916165Y-109219299D01*
X106916165Y-109219299D02*
X106820927Y-109266918D01*
X106820927Y-109266918D02*
X106773308Y-109314537D01*
X106773308Y-109314537D02*
X106725689Y-109409775D01*
X106725689Y-109409775D02*
X106725689Y-109505013D01*
X106725689Y-109505013D02*
X106773308Y-109647870D01*
X106773308Y-109647870D02*
X107344736Y-110219299D01*
X107344736Y-110219299D02*
X106725689Y-110219299D01*
X105820927Y-109219299D02*
X106297117Y-109219299D01*
X106297117Y-109219299D02*
X106344736Y-109695489D01*
X106344736Y-109695489D02*
X106297117Y-109647870D01*
X106297117Y-109647870D02*
X106201879Y-109600251D01*
X106201879Y-109600251D02*
X105963784Y-109600251D01*
X105963784Y-109600251D02*
X105868546Y-109647870D01*
X105868546Y-109647870D02*
X105820927Y-109695489D01*
X105820927Y-109695489D02*
X105773308Y-109790727D01*
X105773308Y-109790727D02*
X105773308Y-110028822D01*
X105773308Y-110028822D02*
X105820927Y-110124060D01*
X105820927Y-110124060D02*
X105868546Y-110171680D01*
X105868546Y-110171680D02*
X105963784Y-110219299D01*
X105963784Y-110219299D02*
X106201879Y-110219299D01*
X106201879Y-110219299D02*
X106297117Y-110171680D01*
X106297117Y-110171680D02*
X106344736Y-110124060D01*
M02*
