%TF.GenerationSoftware,KiCad,Pcbnew,9.0.5*%
%TF.CreationDate,2025-11-25T11:42:17+01:00*%
%TF.ProjectId,PTP,5054502e-6b69-4636-9164-5f7063625858,rev?*%
%TF.SameCoordinates,Original*%
%TF.FileFunction,Soldermask,Bot*%
%TF.FilePolarity,Negative*%
%FSLAX46Y46*%
G04 Gerber Fmt 4.6, Leading zero omitted, Abs format (unit mm)*
G04 Created by KiCad (PCBNEW 9.0.5) date 2025-11-25 11:42:17*
%MOMM*%
%LPD*%
G01*
G04 APERTURE LIST*
%ADD10R,1.700000X1.700000*%
%ADD11C,1.700000*%
%ADD12C,1.000000*%
G04 APERTURE END LIST*
D10*
%TO.C,J4*%
X85000000Y-132000000D03*
D11*
X87540000Y-132000000D03*
X90080000Y-132000000D03*
X92620000Y-132000000D03*
X95160000Y-132000000D03*
X97700000Y-132000000D03*
X100240000Y-132000000D03*
X102780000Y-132000000D03*
X105320000Y-132000000D03*
X107860000Y-132000000D03*
X110400000Y-132000000D03*
X112940000Y-132000000D03*
X115480000Y-132000000D03*
X118020000Y-132000000D03*
X120560000Y-132000000D03*
X123100000Y-132000000D03*
X125640000Y-132000000D03*
X128180000Y-132000000D03*
X130720000Y-132000000D03*
X133260000Y-132000000D03*
%TD*%
D10*
%TO.C,J5*%
X85000000Y-78000000D03*
D11*
X87540000Y-78000000D03*
X90080000Y-78000000D03*
X92620000Y-78000000D03*
X95160000Y-78000000D03*
X97700000Y-78000000D03*
X100240000Y-78000000D03*
X102780000Y-78000000D03*
X105320000Y-78000000D03*
X107860000Y-78000000D03*
X110400000Y-78000000D03*
X112940000Y-78000000D03*
X115480000Y-78000000D03*
X118020000Y-78000000D03*
X120560000Y-78000000D03*
X123100000Y-78000000D03*
X125640000Y-78000000D03*
X128180000Y-78000000D03*
X130720000Y-78000000D03*
X133260000Y-78000000D03*
%TD*%
D12*
%TO.C,J1*%
X134200000Y-110900000D03*
X134200000Y-106500000D03*
%TD*%
D11*
%TO.C,J3*%
X85800000Y-98160000D03*
X85800000Y-100700000D03*
X85800000Y-103240000D03*
X85800000Y-105780000D03*
X85800000Y-108320000D03*
D10*
X85800000Y-110860000D03*
%TD*%
M02*
