%TF.GenerationSoftware,KiCad,Pcbnew,9.0.5*%
%TF.CreationDate,2025-11-25T11:42:17+01:00*%
%TF.ProjectId,PTP,5054502e-6b69-4636-9164-5f7063625858,rev?*%
%TF.SameCoordinates,Original*%
%TF.FileFunction,Copper,L2,Bot*%
%TF.FilePolarity,Positive*%
%FSLAX46Y46*%
G04 Gerber Fmt 4.6, Leading zero omitted, Abs format (unit mm)*
G04 Created by KiCad (PCBNEW 9.0.5) date 2025-11-25 11:42:17*
%MOMM*%
%LPD*%
G01*
G04 APERTURE LIST*
%TA.AperFunction,ComponentPad*%
%ADD10R,1.700000X1.700000*%
%TD*%
%TA.AperFunction,ComponentPad*%
%ADD11C,1.700000*%
%TD*%
%TA.AperFunction,ViaPad*%
%ADD12C,0.700000*%
%TD*%
%TA.AperFunction,Conductor*%
%ADD13C,0.500000*%
%TD*%
%TA.AperFunction,Conductor*%
%ADD14C,0.200000*%
%TD*%
%TA.AperFunction,Conductor*%
%ADD15C,0.300000*%
%TD*%
G04 APERTURE END LIST*
D10*
%TO.P,J4,1,Pin_1*%
%TO.N,/PC13*%
X85000000Y-132000000D03*
D11*
%TO.P,J4,2,Pin_2*%
%TO.N,/PC14*%
X87540000Y-132000000D03*
%TO.P,J4,3,Pin_3*%
%TO.N,/PC15*%
X90080000Y-132000000D03*
%TO.P,J4,4,Pin_4*%
%TO.N,/NRST*%
X92620000Y-132000000D03*
%TO.P,J4,5,Pin_5*%
%TO.N,/PA0*%
X95160000Y-132000000D03*
%TO.P,J4,6,Pin_6*%
%TO.N,/PA1*%
X97700000Y-132000000D03*
%TO.P,J4,7,Pin_7*%
%TO.N,/PA2*%
X100240000Y-132000000D03*
%TO.P,J4,8,Pin_8*%
%TO.N,/PA3*%
X102780000Y-132000000D03*
%TO.P,J4,9,Pin_9*%
%TO.N,/PA4*%
X105320000Y-132000000D03*
%TO.P,J4,10,Pin_10*%
%TO.N,/PA5*%
X107860000Y-132000000D03*
%TO.P,J4,11,Pin_11*%
%TO.N,/PA6*%
X110400000Y-132000000D03*
%TO.P,J4,12,Pin_12*%
%TO.N,/PA7*%
X112940000Y-132000000D03*
%TO.P,J4,13,Pin_13*%
%TO.N,/PB0*%
X115480000Y-132000000D03*
%TO.P,J4,14,Pin_14*%
%TO.N,/PB1*%
X118020000Y-132000000D03*
%TO.P,J4,15,Pin_15*%
%TO.N,/PB2*%
X120560000Y-132000000D03*
%TO.P,J4,16,Pin_16*%
%TO.N,/PB10*%
X123100000Y-132000000D03*
%TO.P,J4,17,Pin_17*%
%TO.N,/PB11*%
X125640000Y-132000000D03*
%TO.P,J4,18,Pin_18*%
%TO.N,/PB12*%
X128180000Y-132000000D03*
%TO.P,J4,19,Pin_19*%
%TO.N,+3V3*%
X130720000Y-132000000D03*
%TO.P,J4,20,Pin_20*%
%TO.N,GND*%
X133260000Y-132000000D03*
%TD*%
D10*
%TO.P,J5,1,Pin_1*%
%TO.N,GND*%
X85000000Y-78000000D03*
D11*
%TO.P,J5,2,Pin_2*%
%TO.N,+3V3*%
X87540000Y-78000000D03*
%TO.P,J5,3,Pin_3*%
%TO.N,/PB9*%
X90080000Y-78000000D03*
%TO.P,J5,4,Pin_4*%
%TO.N,/PB8*%
X92620000Y-78000000D03*
%TO.P,J5,5,Pin_5*%
%TO.N,/PB7*%
X95160000Y-78000000D03*
%TO.P,J5,6,Pin_6*%
%TO.N,/PB6*%
X97700000Y-78000000D03*
%TO.P,J5,7,Pin_7*%
%TO.N,/PB5*%
X100240000Y-78000000D03*
%TO.P,J5,8,Pin_8*%
%TO.N,/PB4*%
X102780000Y-78000000D03*
%TO.P,J5,9,Pin_9*%
%TO.N,/PB3(SWO)*%
X105320000Y-78000000D03*
%TO.P,J5,10,Pin_10*%
%TO.N,/PA15*%
X107860000Y-78000000D03*
%TO.P,J5,11,Pin_11*%
%TO.N,/SWCLK*%
X110400000Y-78000000D03*
%TO.P,J5,12,Pin_12*%
%TO.N,/SWDIO*%
X112940000Y-78000000D03*
%TO.P,J5,13,Pin_13*%
%TO.N,/USB_D+*%
X115480000Y-78000000D03*
%TO.P,J5,14,Pin_14*%
%TO.N,/USB_D-*%
X118020000Y-78000000D03*
%TO.P,J5,15,Pin_15*%
%TO.N,/USART1_RX*%
X120560000Y-78000000D03*
%TO.P,J5,16,Pin_16*%
%TO.N,/USART1_TX*%
X123100000Y-78000000D03*
%TO.P,J5,17,Pin_17*%
%TO.N,/PA8*%
X125640000Y-78000000D03*
%TO.P,J5,18,Pin_18*%
%TO.N,/PB15*%
X128180000Y-78000000D03*
%TO.P,J5,19,Pin_19*%
%TO.N,/PB14*%
X130720000Y-78000000D03*
%TO.P,J5,20,Pin_20*%
%TO.N,/PB13*%
X133260000Y-78000000D03*
%TD*%
%TO.P,J3,6,Pin_6*%
%TO.N,/NRST*%
X85800000Y-98160000D03*
%TO.P,J3,5,Pin_5*%
%TO.N,/PB3(SWO)*%
X85800000Y-100700000D03*
%TO.P,J3,4,Pin_4*%
%TO.N,GND*%
X85800000Y-103240000D03*
%TO.P,J3,3,Pin_3*%
%TO.N,/SWCLK*%
X85800000Y-105780000D03*
%TO.P,J3,2,Pin_2*%
%TO.N,/SWDIO*%
X85800000Y-108320000D03*
D10*
%TO.P,J3,1,Pin_1*%
%TO.N,+3V3*%
X85800000Y-110860000D03*
%TD*%
D12*
%TO.N,GND*%
X133300000Y-129500000D03*
X135600000Y-88500000D03*
X135650000Y-91650000D03*
%TO.N,+3V3*%
X133900000Y-100400000D03*
X117200000Y-105800000D03*
X107700000Y-100500000D03*
X104100000Y-103600000D03*
%TO.N,GND*%
X117700000Y-125900000D03*
%TO.N,+3V3*%
X98600000Y-117800000D03*
X90100000Y-81200000D03*
X90600000Y-112800000D03*
%TO.N,GND*%
X84900000Y-81600000D03*
%TO.N,+3V3*%
X116700000Y-117600000D03*
X114900000Y-117100000D03*
%TO.N,/NRST*%
X109250000Y-109850000D03*
X126600000Y-103700000D03*
%TO.N,/SWCLK*%
X126800000Y-91300000D03*
%TO.N,/SWDIO*%
X126900000Y-93400000D03*
%TO.N,/USART1_RX*%
X129100000Y-85000000D03*
%TO.N,/PB3(SWO)*%
X126900000Y-88900000D03*
%TO.N,/USART1_RX*%
X119400000Y-105300000D03*
%TO.N,/USART1_TX*%
X120600000Y-106100000D03*
X118800000Y-110400000D03*
%TO.N,/USART1_RX*%
X119521296Y-109781747D03*
%TO.N,/PB13*%
X127500000Y-106600000D03*
%TO.N,/PA8*%
X121900000Y-105600000D03*
%TO.N,/PB15*%
X123400000Y-106700000D03*
%TO.N,/PB14*%
X124400000Y-106500000D03*
X122500000Y-111800000D03*
%TO.N,/PB13*%
X124700000Y-111100000D03*
%TO.N,/PB15*%
X121200000Y-111500000D03*
%TO.N,/PA8*%
X120899583Y-110598749D03*
%TO.N,GND*%
X102500000Y-112825000D03*
X104400000Y-111500000D03*
X93950000Y-94050000D03*
X119244000Y-113718000D03*
X128175000Y-108750000D03*
X110000000Y-100500000D03*
X113900000Y-112500000D03*
X99700000Y-111350000D03*
X129400000Y-106500000D03*
X101400000Y-106100000D03*
X118600000Y-107700000D03*
X128588000Y-118040000D03*
X122000000Y-115000000D03*
X118494000Y-113718000D03*
X126138000Y-119440000D03*
X105800000Y-105000000D03*
X103700000Y-109250000D03*
X127638000Y-118040000D03*
%TD*%
D13*
%TO.N,+3V3*%
X90080000Y-81200000D02*
X87540000Y-78660000D01*
X87540000Y-78660000D02*
X87540000Y-78000000D01*
X90100000Y-81200000D02*
X90080000Y-81200000D01*
D14*
%TO.N,/SWCLK*%
X125500000Y-94800000D02*
X110440000Y-79740000D01*
X127601000Y-93899000D02*
X126700000Y-94800000D01*
X110440000Y-79740000D02*
X110440000Y-78040000D01*
X127601000Y-92101000D02*
X127601000Y-93899000D01*
X126700000Y-94800000D02*
X125500000Y-94800000D01*
X110440000Y-78040000D02*
X110400000Y-78000000D01*
X126800000Y-91300000D02*
X127601000Y-92101000D01*
%TO.N,/USART1_RX*%
X127560000Y-85000000D02*
X120560000Y-78000000D01*
X129100000Y-85000000D02*
X127560000Y-85000000D01*
D15*
%TO.N,+3V3*%
X132100000Y-100500000D02*
X132200000Y-100400000D01*
X132200000Y-100400000D02*
X133900000Y-100400000D01*
X130300000Y-102300000D02*
X132100000Y-100500000D01*
X128051000Y-104549000D02*
X130300000Y-102300000D01*
X118451000Y-104549000D02*
X128051000Y-104549000D01*
X117200000Y-105800000D02*
X118451000Y-104549000D01*
X107200000Y-100500000D02*
X104100000Y-103600000D01*
X107700000Y-100500000D02*
X107200000Y-100500000D01*
D13*
X95600000Y-117800000D02*
X98600000Y-117800000D01*
X90600000Y-112800000D02*
X95600000Y-117800000D01*
X88660000Y-110860000D02*
X85800000Y-110860000D01*
X90600000Y-112800000D02*
X88660000Y-110860000D01*
X115400000Y-117600000D02*
X114900000Y-117100000D01*
X116700000Y-117600000D02*
X115400000Y-117600000D01*
D14*
%TO.N,/NRST*%
X109250000Y-109850000D02*
X109200000Y-109900000D01*
X115400000Y-103700000D02*
X109250000Y-109850000D01*
X126600000Y-103700000D02*
X115400000Y-103700000D01*
%TO.N,/SWDIO*%
X112980000Y-79580000D02*
X112980000Y-78700000D01*
X126800000Y-93400000D02*
X112980000Y-79580000D01*
X126900000Y-93400000D02*
X126800000Y-93400000D01*
%TO.N,/PB3(SWO)*%
X127700000Y-88900000D02*
X126900000Y-88900000D01*
X128400000Y-89600000D02*
X127700000Y-88900000D01*
X127000000Y-95700000D02*
X128400000Y-94300000D01*
X128400000Y-94300000D02*
X128400000Y-89600000D01*
X122360000Y-95700000D02*
X127000000Y-95700000D01*
X105360000Y-78700000D02*
X122360000Y-95700000D01*
%TO.N,/PA8*%
X120899583Y-110300417D02*
X121900000Y-109300000D01*
X121900000Y-109300000D02*
X121900000Y-105600000D01*
X120899583Y-110598749D02*
X120899583Y-110300417D01*
%TO.N,/USART1_TX*%
X119811660Y-110482747D02*
X120600000Y-109694407D01*
X120600000Y-109694407D02*
X120600000Y-106100000D01*
X119799000Y-110482747D02*
X119811660Y-110482747D01*
X118882747Y-110482747D02*
X119799000Y-110482747D01*
X118800000Y-110400000D02*
X118882747Y-110482747D01*
%TO.N,/USART1_RX*%
X119600000Y-105500000D02*
X119400000Y-105300000D01*
X119600000Y-109400000D02*
X119600000Y-105500000D01*
X119721296Y-109521296D02*
X119600000Y-109400000D01*
X119721296Y-109581747D02*
X119721296Y-109521296D01*
X119521296Y-109781747D02*
X119721296Y-109581747D01*
%TO.N,/PB13*%
X127500000Y-108300000D02*
X127500000Y-106600000D01*
X124700000Y-111100000D02*
X127500000Y-108300000D01*
%TO.N,/PB14*%
X124400000Y-109900000D02*
X124400000Y-106500000D01*
X122500000Y-111800000D02*
X124400000Y-109900000D01*
%TO.N,/PB15*%
X123400000Y-109300000D02*
X123400000Y-106700000D01*
X121200000Y-111500000D02*
X123400000Y-109300000D01*
%TD*%
%TA.AperFunction,Conductor*%
%TO.N,GND*%
G36*
X138442539Y-74520185D02*
G01*
X138488294Y-74572989D01*
X138499500Y-74624500D01*
X138499500Y-135375500D01*
X138479815Y-135442539D01*
X138427011Y-135488294D01*
X138375500Y-135499500D01*
X79624500Y-135499500D01*
X79557461Y-135479815D01*
X79511706Y-135427011D01*
X79500500Y-135375500D01*
X79500500Y-131102135D01*
X83649500Y-131102135D01*
X83649500Y-132897870D01*
X83649501Y-132897876D01*
X83655908Y-132957483D01*
X83706202Y-133092328D01*
X83706206Y-133092335D01*
X83792452Y-133207544D01*
X83792455Y-133207547D01*
X83907664Y-133293793D01*
X83907671Y-133293797D01*
X84042517Y-133344091D01*
X84042516Y-133344091D01*
X84049444Y-133344835D01*
X84102127Y-133350500D01*
X85897872Y-133350499D01*
X85957483Y-133344091D01*
X86092331Y-133293796D01*
X86207546Y-133207546D01*
X86293796Y-133092331D01*
X86342810Y-132960916D01*
X86384681Y-132904984D01*
X86450145Y-132880566D01*
X86518418Y-132895417D01*
X86546673Y-132916569D01*
X86660213Y-133030109D01*
X86832179Y-133155048D01*
X86832181Y-133155049D01*
X86832184Y-133155051D01*
X87021588Y-133251557D01*
X87223757Y-133317246D01*
X87433713Y-133350500D01*
X87433714Y-133350500D01*
X87646286Y-133350500D01*
X87646287Y-133350500D01*
X87856243Y-133317246D01*
X88058412Y-133251557D01*
X88247816Y-133155051D01*
X88334138Y-133092335D01*
X88419786Y-133030109D01*
X88419788Y-133030106D01*
X88419792Y-133030104D01*
X88570104Y-132879792D01*
X88570106Y-132879788D01*
X88570109Y-132879786D01*
X88695048Y-132707820D01*
X88695047Y-132707820D01*
X88695051Y-132707816D01*
X88699514Y-132699054D01*
X88747488Y-132648259D01*
X88815308Y-132631463D01*
X88881444Y-132653999D01*
X88920486Y-132699056D01*
X88924951Y-132707820D01*
X89049890Y-132879786D01*
X89200213Y-133030109D01*
X89372179Y-133155048D01*
X89372181Y-133155049D01*
X89372184Y-133155051D01*
X89561588Y-133251557D01*
X89763757Y-133317246D01*
X89973713Y-133350500D01*
X89973714Y-133350500D01*
X90186286Y-133350500D01*
X90186287Y-133350500D01*
X90396243Y-133317246D01*
X90598412Y-133251557D01*
X90787816Y-133155051D01*
X90874138Y-133092335D01*
X90959786Y-133030109D01*
X90959788Y-133030106D01*
X90959792Y-133030104D01*
X91110104Y-132879792D01*
X91110106Y-132879788D01*
X91110109Y-132879786D01*
X91235048Y-132707820D01*
X91235047Y-132707820D01*
X91235051Y-132707816D01*
X91239514Y-132699054D01*
X91287488Y-132648259D01*
X91355308Y-132631463D01*
X91421444Y-132653999D01*
X91460486Y-132699056D01*
X91464951Y-132707820D01*
X91589890Y-132879786D01*
X91740213Y-133030109D01*
X91912179Y-133155048D01*
X91912181Y-133155049D01*
X91912184Y-133155051D01*
X92101588Y-133251557D01*
X92303757Y-133317246D01*
X92513713Y-133350500D01*
X92513714Y-133350500D01*
X92726286Y-133350500D01*
X92726287Y-133350500D01*
X92936243Y-133317246D01*
X93138412Y-133251557D01*
X93327816Y-133155051D01*
X93414138Y-133092335D01*
X93499786Y-133030109D01*
X93499788Y-133030106D01*
X93499792Y-133030104D01*
X93650104Y-132879792D01*
X93650106Y-132879788D01*
X93650109Y-132879786D01*
X93775048Y-132707820D01*
X93775047Y-132707820D01*
X93775051Y-132707816D01*
X93779514Y-132699054D01*
X93827488Y-132648259D01*
X93895308Y-132631463D01*
X93961444Y-132653999D01*
X94000486Y-132699056D01*
X94004951Y-132707820D01*
X94129890Y-132879786D01*
X94280213Y-133030109D01*
X94452179Y-133155048D01*
X94452181Y-133155049D01*
X94452184Y-133155051D01*
X94641588Y-133251557D01*
X94843757Y-133317246D01*
X95053713Y-133350500D01*
X95053714Y-133350500D01*
X95266286Y-133350500D01*
X95266287Y-133350500D01*
X95476243Y-133317246D01*
X95678412Y-133251557D01*
X95867816Y-133155051D01*
X95954138Y-133092335D01*
X96039786Y-133030109D01*
X96039788Y-133030106D01*
X96039792Y-133030104D01*
X96190104Y-132879792D01*
X96190106Y-132879788D01*
X96190109Y-132879786D01*
X96315048Y-132707820D01*
X96315047Y-132707820D01*
X96315051Y-132707816D01*
X96319514Y-132699054D01*
X96367488Y-132648259D01*
X96435308Y-132631463D01*
X96501444Y-132653999D01*
X96540486Y-132699056D01*
X96544951Y-132707820D01*
X96669890Y-132879786D01*
X96820213Y-133030109D01*
X96992179Y-133155048D01*
X96992181Y-133155049D01*
X96992184Y-133155051D01*
X97181588Y-133251557D01*
X97383757Y-133317246D01*
X97593713Y-133350500D01*
X97593714Y-133350500D01*
X97806286Y-133350500D01*
X97806287Y-133350500D01*
X98016243Y-133317246D01*
X98218412Y-133251557D01*
X98407816Y-133155051D01*
X98494138Y-133092335D01*
X98579786Y-133030109D01*
X98579788Y-133030106D01*
X98579792Y-133030104D01*
X98730104Y-132879792D01*
X98730106Y-132879788D01*
X98730109Y-132879786D01*
X98855048Y-132707820D01*
X98855047Y-132707820D01*
X98855051Y-132707816D01*
X98859514Y-132699054D01*
X98907488Y-132648259D01*
X98975308Y-132631463D01*
X99041444Y-132653999D01*
X99080486Y-132699056D01*
X99084951Y-132707820D01*
X99209890Y-132879786D01*
X99360213Y-133030109D01*
X99532179Y-133155048D01*
X99532181Y-133155049D01*
X99532184Y-133155051D01*
X99721588Y-133251557D01*
X99923757Y-133317246D01*
X100133713Y-133350500D01*
X100133714Y-133350500D01*
X100346286Y-133350500D01*
X100346287Y-133350500D01*
X100556243Y-133317246D01*
X100758412Y-133251557D01*
X100947816Y-133155051D01*
X101034138Y-133092335D01*
X101119786Y-133030109D01*
X101119788Y-133030106D01*
X101119792Y-133030104D01*
X101270104Y-132879792D01*
X101270106Y-132879788D01*
X101270109Y-132879786D01*
X101395048Y-132707820D01*
X101395047Y-132707820D01*
X101395051Y-132707816D01*
X101399514Y-132699054D01*
X101447488Y-132648259D01*
X101515308Y-132631463D01*
X101581444Y-132653999D01*
X101620486Y-132699056D01*
X101624951Y-132707820D01*
X101749890Y-132879786D01*
X101900213Y-133030109D01*
X102072179Y-133155048D01*
X102072181Y-133155049D01*
X102072184Y-133155051D01*
X102261588Y-133251557D01*
X102463757Y-133317246D01*
X102673713Y-133350500D01*
X102673714Y-133350500D01*
X102886286Y-133350500D01*
X102886287Y-133350500D01*
X103096243Y-133317246D01*
X103298412Y-133251557D01*
X103487816Y-133155051D01*
X103574138Y-133092335D01*
X103659786Y-133030109D01*
X103659788Y-133030106D01*
X103659792Y-133030104D01*
X103810104Y-132879792D01*
X103810106Y-132879788D01*
X103810109Y-132879786D01*
X103935048Y-132707820D01*
X103935047Y-132707820D01*
X103935051Y-132707816D01*
X103939514Y-132699054D01*
X103987488Y-132648259D01*
X104055308Y-132631463D01*
X104121444Y-132653999D01*
X104160486Y-132699056D01*
X104164951Y-132707820D01*
X104289890Y-132879786D01*
X104440213Y-133030109D01*
X104612179Y-133155048D01*
X104612181Y-133155049D01*
X104612184Y-133155051D01*
X104801588Y-133251557D01*
X105003757Y-133317246D01*
X105213713Y-133350500D01*
X105213714Y-133350500D01*
X105426286Y-133350500D01*
X105426287Y-133350500D01*
X105636243Y-133317246D01*
X105838412Y-133251557D01*
X106027816Y-133155051D01*
X106114138Y-133092335D01*
X106199786Y-133030109D01*
X106199788Y-133030106D01*
X106199792Y-133030104D01*
X106350104Y-132879792D01*
X106350106Y-132879788D01*
X106350109Y-132879786D01*
X106475048Y-132707820D01*
X106475047Y-132707820D01*
X106475051Y-132707816D01*
X106479514Y-132699054D01*
X106527488Y-132648259D01*
X106595308Y-132631463D01*
X106661444Y-132653999D01*
X106700486Y-132699056D01*
X106704951Y-132707820D01*
X106829890Y-132879786D01*
X106980213Y-133030109D01*
X107152179Y-133155048D01*
X107152181Y-133155049D01*
X107152184Y-133155051D01*
X107341588Y-133251557D01*
X107543757Y-133317246D01*
X107753713Y-133350500D01*
X107753714Y-133350500D01*
X107966286Y-133350500D01*
X107966287Y-133350500D01*
X108176243Y-133317246D01*
X108378412Y-133251557D01*
X108567816Y-133155051D01*
X108654138Y-133092335D01*
X108739786Y-133030109D01*
X108739788Y-133030106D01*
X108739792Y-133030104D01*
X108890104Y-132879792D01*
X108890106Y-132879788D01*
X108890109Y-132879786D01*
X109015048Y-132707820D01*
X109015047Y-132707820D01*
X109015051Y-132707816D01*
X109019514Y-132699054D01*
X109067488Y-132648259D01*
X109135308Y-132631463D01*
X109201444Y-132653999D01*
X109240486Y-132699056D01*
X109244951Y-132707820D01*
X109369890Y-132879786D01*
X109520213Y-133030109D01*
X109692179Y-133155048D01*
X109692181Y-133155049D01*
X109692184Y-133155051D01*
X109881588Y-133251557D01*
X110083757Y-133317246D01*
X110293713Y-133350500D01*
X110293714Y-133350500D01*
X110506286Y-133350500D01*
X110506287Y-133350500D01*
X110716243Y-133317246D01*
X110918412Y-133251557D01*
X111107816Y-133155051D01*
X111194138Y-133092335D01*
X111279786Y-133030109D01*
X111279788Y-133030106D01*
X111279792Y-133030104D01*
X111430104Y-132879792D01*
X111430106Y-132879788D01*
X111430109Y-132879786D01*
X111555048Y-132707820D01*
X111555047Y-132707820D01*
X111555051Y-132707816D01*
X111559514Y-132699054D01*
X111607488Y-132648259D01*
X111675308Y-132631463D01*
X111741444Y-132653999D01*
X111780486Y-132699056D01*
X111784951Y-132707820D01*
X111909890Y-132879786D01*
X112060213Y-133030109D01*
X112232179Y-133155048D01*
X112232181Y-133155049D01*
X112232184Y-133155051D01*
X112421588Y-133251557D01*
X112623757Y-133317246D01*
X112833713Y-133350500D01*
X112833714Y-133350500D01*
X113046286Y-133350500D01*
X113046287Y-133350500D01*
X113256243Y-133317246D01*
X113458412Y-133251557D01*
X113647816Y-133155051D01*
X113734138Y-133092335D01*
X113819786Y-133030109D01*
X113819788Y-133030106D01*
X113819792Y-133030104D01*
X113970104Y-132879792D01*
X113970106Y-132879788D01*
X113970109Y-132879786D01*
X114095048Y-132707820D01*
X114095047Y-132707820D01*
X114095051Y-132707816D01*
X114099514Y-132699054D01*
X114147488Y-132648259D01*
X114215308Y-132631463D01*
X114281444Y-132653999D01*
X114320486Y-132699056D01*
X114324951Y-132707820D01*
X114449890Y-132879786D01*
X114600213Y-133030109D01*
X114772179Y-133155048D01*
X114772181Y-133155049D01*
X114772184Y-133155051D01*
X114961588Y-133251557D01*
X115163757Y-133317246D01*
X115373713Y-133350500D01*
X115373714Y-133350500D01*
X115586286Y-133350500D01*
X115586287Y-133350500D01*
X115796243Y-133317246D01*
X115998412Y-133251557D01*
X116187816Y-133155051D01*
X116274138Y-133092335D01*
X116359786Y-133030109D01*
X116359788Y-133030106D01*
X116359792Y-133030104D01*
X116510104Y-132879792D01*
X116510106Y-132879788D01*
X116510109Y-132879786D01*
X116635048Y-132707820D01*
X116635047Y-132707820D01*
X116635051Y-132707816D01*
X116639514Y-132699054D01*
X116687488Y-132648259D01*
X116755308Y-132631463D01*
X116821444Y-132653999D01*
X116860486Y-132699056D01*
X116864951Y-132707820D01*
X116989890Y-132879786D01*
X117140213Y-133030109D01*
X117312179Y-133155048D01*
X117312181Y-133155049D01*
X117312184Y-133155051D01*
X117501588Y-133251557D01*
X117703757Y-133317246D01*
X117913713Y-133350500D01*
X117913714Y-133350500D01*
X118126286Y-133350500D01*
X118126287Y-133350500D01*
X118336243Y-133317246D01*
X118538412Y-133251557D01*
X118727816Y-133155051D01*
X118814138Y-133092335D01*
X118899786Y-133030109D01*
X118899788Y-133030106D01*
X118899792Y-133030104D01*
X119050104Y-132879792D01*
X119050106Y-132879788D01*
X119050109Y-132879786D01*
X119175048Y-132707820D01*
X119175047Y-132707820D01*
X119175051Y-132707816D01*
X119179514Y-132699054D01*
X119227488Y-132648259D01*
X119295308Y-132631463D01*
X119361444Y-132653999D01*
X119400486Y-132699056D01*
X119404951Y-132707820D01*
X119529890Y-132879786D01*
X119680213Y-133030109D01*
X119852179Y-133155048D01*
X119852181Y-133155049D01*
X119852184Y-133155051D01*
X120041588Y-133251557D01*
X120243757Y-133317246D01*
X120453713Y-133350500D01*
X120453714Y-133350500D01*
X120666286Y-133350500D01*
X120666287Y-133350500D01*
X120876243Y-133317246D01*
X121078412Y-133251557D01*
X121267816Y-133155051D01*
X121354138Y-133092335D01*
X121439786Y-133030109D01*
X121439788Y-133030106D01*
X121439792Y-133030104D01*
X121590104Y-132879792D01*
X121590106Y-132879788D01*
X121590109Y-132879786D01*
X121715048Y-132707820D01*
X121715047Y-132707820D01*
X121715051Y-132707816D01*
X121719514Y-132699054D01*
X121767488Y-132648259D01*
X121835308Y-132631463D01*
X121901444Y-132653999D01*
X121940486Y-132699056D01*
X121944951Y-132707820D01*
X122069890Y-132879786D01*
X122220213Y-133030109D01*
X122392179Y-133155048D01*
X122392181Y-133155049D01*
X122392184Y-133155051D01*
X122581588Y-133251557D01*
X122783757Y-133317246D01*
X122993713Y-133350500D01*
X122993714Y-133350500D01*
X123206286Y-133350500D01*
X123206287Y-133350500D01*
X123416243Y-133317246D01*
X123618412Y-133251557D01*
X123807816Y-133155051D01*
X123894138Y-133092335D01*
X123979786Y-133030109D01*
X123979788Y-133030106D01*
X123979792Y-133030104D01*
X124130104Y-132879792D01*
X124130106Y-132879788D01*
X124130109Y-132879786D01*
X124255048Y-132707820D01*
X124255047Y-132707820D01*
X124255051Y-132707816D01*
X124259514Y-132699054D01*
X124307488Y-132648259D01*
X124375308Y-132631463D01*
X124441444Y-132653999D01*
X124480486Y-132699056D01*
X124484951Y-132707820D01*
X124609890Y-132879786D01*
X124760213Y-133030109D01*
X124932179Y-133155048D01*
X124932181Y-133155049D01*
X124932184Y-133155051D01*
X125121588Y-133251557D01*
X125323757Y-133317246D01*
X125533713Y-133350500D01*
X125533714Y-133350500D01*
X125746286Y-133350500D01*
X125746287Y-133350500D01*
X125956243Y-133317246D01*
X126158412Y-133251557D01*
X126347816Y-133155051D01*
X126434138Y-133092335D01*
X126519786Y-133030109D01*
X126519788Y-133030106D01*
X126519792Y-133030104D01*
X126670104Y-132879792D01*
X126670106Y-132879788D01*
X126670109Y-132879786D01*
X126795048Y-132707820D01*
X126795047Y-132707820D01*
X126795051Y-132707816D01*
X126799514Y-132699054D01*
X126847488Y-132648259D01*
X126915308Y-132631463D01*
X126981444Y-132653999D01*
X127020486Y-132699056D01*
X127024951Y-132707820D01*
X127149890Y-132879786D01*
X127300213Y-133030109D01*
X127472179Y-133155048D01*
X127472181Y-133155049D01*
X127472184Y-133155051D01*
X127661588Y-133251557D01*
X127863757Y-133317246D01*
X128073713Y-133350500D01*
X128073714Y-133350500D01*
X128286286Y-133350500D01*
X128286287Y-133350500D01*
X128496243Y-133317246D01*
X128698412Y-133251557D01*
X128887816Y-133155051D01*
X128974138Y-133092335D01*
X129059786Y-133030109D01*
X129059788Y-133030106D01*
X129059792Y-133030104D01*
X129210104Y-132879792D01*
X129210106Y-132879788D01*
X129210109Y-132879786D01*
X129335048Y-132707820D01*
X129335047Y-132707820D01*
X129335051Y-132707816D01*
X129339514Y-132699054D01*
X129387488Y-132648259D01*
X129455308Y-132631463D01*
X129521444Y-132653999D01*
X129560486Y-132699056D01*
X129564951Y-132707820D01*
X129689890Y-132879786D01*
X129840213Y-133030109D01*
X130012179Y-133155048D01*
X130012181Y-133155049D01*
X130012184Y-133155051D01*
X130201588Y-133251557D01*
X130403757Y-133317246D01*
X130613713Y-133350500D01*
X130613714Y-133350500D01*
X130826286Y-133350500D01*
X130826287Y-133350500D01*
X131036243Y-133317246D01*
X131238412Y-133251557D01*
X131427816Y-133155051D01*
X131514138Y-133092335D01*
X131599786Y-133030109D01*
X131599788Y-133030106D01*
X131599792Y-133030104D01*
X131750104Y-132879792D01*
X131750106Y-132879788D01*
X131750109Y-132879786D01*
X131835890Y-132761717D01*
X131875051Y-132707816D01*
X131879793Y-132698508D01*
X131927763Y-132647711D01*
X131995583Y-132630911D01*
X132061719Y-132653445D01*
X132100763Y-132698500D01*
X132105373Y-132707547D01*
X132144728Y-132761716D01*
X132777037Y-132129408D01*
X132794075Y-132192993D01*
X132859901Y-132307007D01*
X132952993Y-132400099D01*
X133067007Y-132465925D01*
X133130590Y-132482962D01*
X132498282Y-133115269D01*
X132498282Y-133115270D01*
X132552449Y-133154624D01*
X132741782Y-133251095D01*
X132943870Y-133316757D01*
X133153754Y-133350000D01*
X133366246Y-133350000D01*
X133576127Y-133316757D01*
X133576130Y-133316757D01*
X133778217Y-133251095D01*
X133967554Y-133154622D01*
X134021716Y-133115270D01*
X134021717Y-133115270D01*
X133389408Y-132482962D01*
X133452993Y-132465925D01*
X133567007Y-132400099D01*
X133660099Y-132307007D01*
X133725925Y-132192993D01*
X133742962Y-132129409D01*
X134375270Y-132761717D01*
X134375270Y-132761716D01*
X134414622Y-132707554D01*
X134511095Y-132518217D01*
X134576757Y-132316130D01*
X134576757Y-132316127D01*
X134610000Y-132106246D01*
X134610000Y-131893753D01*
X134576757Y-131683872D01*
X134576757Y-131683869D01*
X134511095Y-131481782D01*
X134414624Y-131292449D01*
X134375270Y-131238282D01*
X134375269Y-131238282D01*
X133742962Y-131870590D01*
X133725925Y-131807007D01*
X133660099Y-131692993D01*
X133567007Y-131599901D01*
X133452993Y-131534075D01*
X133389409Y-131517037D01*
X134021716Y-130884728D01*
X133967550Y-130845375D01*
X133778217Y-130748904D01*
X133576129Y-130683242D01*
X133366246Y-130650000D01*
X133153754Y-130650000D01*
X132943872Y-130683242D01*
X132943869Y-130683242D01*
X132741782Y-130748904D01*
X132552439Y-130845380D01*
X132498282Y-130884727D01*
X132498282Y-130884728D01*
X133130591Y-131517037D01*
X133067007Y-131534075D01*
X132952993Y-131599901D01*
X132859901Y-131692993D01*
X132794075Y-131807007D01*
X132777037Y-131870591D01*
X132144728Y-131238282D01*
X132144727Y-131238282D01*
X132105380Y-131292440D01*
X132105376Y-131292446D01*
X132100760Y-131301505D01*
X132052781Y-131352297D01*
X131984959Y-131369087D01*
X131918826Y-131346543D01*
X131879794Y-131301493D01*
X131875051Y-131292184D01*
X131875049Y-131292181D01*
X131875048Y-131292179D01*
X131750109Y-131120213D01*
X131599786Y-130969890D01*
X131427820Y-130844951D01*
X131238414Y-130748444D01*
X131238413Y-130748443D01*
X131238412Y-130748443D01*
X131036243Y-130682754D01*
X131036241Y-130682753D01*
X131036240Y-130682753D01*
X130874957Y-130657208D01*
X130826287Y-130649500D01*
X130613713Y-130649500D01*
X130565042Y-130657208D01*
X130403760Y-130682753D01*
X130201585Y-130748444D01*
X130012179Y-130844951D01*
X129840213Y-130969890D01*
X129689890Y-131120213D01*
X129564949Y-131292182D01*
X129560484Y-131300946D01*
X129512509Y-131351742D01*
X129444688Y-131368536D01*
X129378553Y-131345998D01*
X129339516Y-131300946D01*
X129335050Y-131292182D01*
X129210109Y-131120213D01*
X129059786Y-130969890D01*
X128887820Y-130844951D01*
X128698414Y-130748444D01*
X128698413Y-130748443D01*
X128698412Y-130748443D01*
X128496243Y-130682754D01*
X128496241Y-130682753D01*
X128496240Y-130682753D01*
X128334957Y-130657208D01*
X128286287Y-130649500D01*
X128073713Y-130649500D01*
X128025042Y-130657208D01*
X127863760Y-130682753D01*
X127661585Y-130748444D01*
X127472179Y-130844951D01*
X127300213Y-130969890D01*
X127149890Y-131120213D01*
X127024949Y-131292182D01*
X127020484Y-131300946D01*
X126972509Y-131351742D01*
X126904688Y-131368536D01*
X126838553Y-131345998D01*
X126799516Y-131300946D01*
X126795050Y-131292182D01*
X126670109Y-131120213D01*
X126519786Y-130969890D01*
X126347820Y-130844951D01*
X126158414Y-130748444D01*
X126158413Y-130748443D01*
X126158412Y-130748443D01*
X125956243Y-130682754D01*
X125956241Y-130682753D01*
X125956240Y-130682753D01*
X125794957Y-130657208D01*
X125746287Y-130649500D01*
X125533713Y-130649500D01*
X125485042Y-130657208D01*
X125323760Y-130682753D01*
X125121585Y-130748444D01*
X124932179Y-130844951D01*
X124760213Y-130969890D01*
X124609890Y-131120213D01*
X124484949Y-131292182D01*
X124480484Y-131300946D01*
X124432509Y-131351742D01*
X124364688Y-131368536D01*
X124298553Y-131345998D01*
X124259516Y-131300946D01*
X124255050Y-131292182D01*
X124130109Y-131120213D01*
X123979786Y-130969890D01*
X123807820Y-130844951D01*
X123618414Y-130748444D01*
X123618413Y-130748443D01*
X123618412Y-130748443D01*
X123416243Y-130682754D01*
X123416241Y-130682753D01*
X123416240Y-130682753D01*
X123254957Y-130657208D01*
X123206287Y-130649500D01*
X122993713Y-130649500D01*
X122945042Y-130657208D01*
X122783760Y-130682753D01*
X122581585Y-130748444D01*
X122392179Y-130844951D01*
X122220213Y-130969890D01*
X122069890Y-131120213D01*
X121944949Y-131292182D01*
X121940484Y-131300946D01*
X121892509Y-131351742D01*
X121824688Y-131368536D01*
X121758553Y-131345998D01*
X121719516Y-131300946D01*
X121715050Y-131292182D01*
X121590109Y-131120213D01*
X121439786Y-130969890D01*
X121267820Y-130844951D01*
X121078414Y-130748444D01*
X121078413Y-130748443D01*
X121078412Y-130748443D01*
X120876243Y-130682754D01*
X120876241Y-130682753D01*
X120876240Y-130682753D01*
X120714957Y-130657208D01*
X120666287Y-130649500D01*
X120453713Y-130649500D01*
X120405042Y-130657208D01*
X120243760Y-130682753D01*
X120041585Y-130748444D01*
X119852179Y-130844951D01*
X119680213Y-130969890D01*
X119529890Y-131120213D01*
X119404949Y-131292182D01*
X119400484Y-131300946D01*
X119352509Y-131351742D01*
X119284688Y-131368536D01*
X119218553Y-131345998D01*
X119179516Y-131300946D01*
X119175050Y-131292182D01*
X119050109Y-131120213D01*
X118899786Y-130969890D01*
X118727820Y-130844951D01*
X118538414Y-130748444D01*
X118538413Y-130748443D01*
X118538412Y-130748443D01*
X118336243Y-130682754D01*
X118336241Y-130682753D01*
X118336240Y-130682753D01*
X118174957Y-130657208D01*
X118126287Y-130649500D01*
X117913713Y-130649500D01*
X117865042Y-130657208D01*
X117703760Y-130682753D01*
X117501585Y-130748444D01*
X117312179Y-130844951D01*
X117140213Y-130969890D01*
X116989890Y-131120213D01*
X116864949Y-131292182D01*
X116860484Y-131300946D01*
X116812509Y-131351742D01*
X116744688Y-131368536D01*
X116678553Y-131345998D01*
X116639516Y-131300946D01*
X116635050Y-131292182D01*
X116510109Y-131120213D01*
X116359786Y-130969890D01*
X116187820Y-130844951D01*
X115998414Y-130748444D01*
X115998413Y-130748443D01*
X115998412Y-130748443D01*
X115796243Y-130682754D01*
X115796241Y-130682753D01*
X115796240Y-130682753D01*
X115634957Y-130657208D01*
X115586287Y-130649500D01*
X115373713Y-130649500D01*
X115325042Y-130657208D01*
X115163760Y-130682753D01*
X114961585Y-130748444D01*
X114772179Y-130844951D01*
X114600213Y-130969890D01*
X114449890Y-131120213D01*
X114324949Y-131292182D01*
X114320484Y-131300946D01*
X114272509Y-131351742D01*
X114204688Y-131368536D01*
X114138553Y-131345998D01*
X114099516Y-131300946D01*
X114095050Y-131292182D01*
X113970109Y-131120213D01*
X113819786Y-130969890D01*
X113647820Y-130844951D01*
X113458414Y-130748444D01*
X113458413Y-130748443D01*
X113458412Y-130748443D01*
X113256243Y-130682754D01*
X113256241Y-130682753D01*
X113256240Y-130682753D01*
X113094957Y-130657208D01*
X113046287Y-130649500D01*
X112833713Y-130649500D01*
X112785042Y-130657208D01*
X112623760Y-130682753D01*
X112421585Y-130748444D01*
X112232179Y-130844951D01*
X112060213Y-130969890D01*
X111909890Y-131120213D01*
X111784949Y-131292182D01*
X111780484Y-131300946D01*
X111732509Y-131351742D01*
X111664688Y-131368536D01*
X111598553Y-131345998D01*
X111559516Y-131300946D01*
X111555050Y-131292182D01*
X111430109Y-131120213D01*
X111279786Y-130969890D01*
X111107820Y-130844951D01*
X110918414Y-130748444D01*
X110918413Y-130748443D01*
X110918412Y-130748443D01*
X110716243Y-130682754D01*
X110716241Y-130682753D01*
X110716240Y-130682753D01*
X110554957Y-130657208D01*
X110506287Y-130649500D01*
X110293713Y-130649500D01*
X110245042Y-130657208D01*
X110083760Y-130682753D01*
X109881585Y-130748444D01*
X109692179Y-130844951D01*
X109520213Y-130969890D01*
X109369890Y-131120213D01*
X109244949Y-131292182D01*
X109240484Y-131300946D01*
X109192509Y-131351742D01*
X109124688Y-131368536D01*
X109058553Y-131345998D01*
X109019516Y-131300946D01*
X109015050Y-131292182D01*
X108890109Y-131120213D01*
X108739786Y-130969890D01*
X108567820Y-130844951D01*
X108378414Y-130748444D01*
X108378413Y-130748443D01*
X108378412Y-130748443D01*
X108176243Y-130682754D01*
X108176241Y-130682753D01*
X108176240Y-130682753D01*
X108014957Y-130657208D01*
X107966287Y-130649500D01*
X107753713Y-130649500D01*
X107705042Y-130657208D01*
X107543760Y-130682753D01*
X107341585Y-130748444D01*
X107152179Y-130844951D01*
X106980213Y-130969890D01*
X106829890Y-131120213D01*
X106704949Y-131292182D01*
X106700484Y-131300946D01*
X106652509Y-131351742D01*
X106584688Y-131368536D01*
X106518553Y-131345998D01*
X106479516Y-131300946D01*
X106475050Y-131292182D01*
X106350109Y-131120213D01*
X106199786Y-130969890D01*
X106027820Y-130844951D01*
X105838414Y-130748444D01*
X105838413Y-130748443D01*
X105838412Y-130748443D01*
X105636243Y-130682754D01*
X105636241Y-130682753D01*
X105636240Y-130682753D01*
X105474957Y-130657208D01*
X105426287Y-130649500D01*
X105213713Y-130649500D01*
X105165042Y-130657208D01*
X105003760Y-130682753D01*
X104801585Y-130748444D01*
X104612179Y-130844951D01*
X104440213Y-130969890D01*
X104289890Y-131120213D01*
X104164949Y-131292182D01*
X104160484Y-131300946D01*
X104112509Y-131351742D01*
X104044688Y-131368536D01*
X103978553Y-131345998D01*
X103939516Y-131300946D01*
X103935050Y-131292182D01*
X103810109Y-131120213D01*
X103659786Y-130969890D01*
X103487820Y-130844951D01*
X103298414Y-130748444D01*
X103298413Y-130748443D01*
X103298412Y-130748443D01*
X103096243Y-130682754D01*
X103096241Y-130682753D01*
X103096240Y-130682753D01*
X102934957Y-130657208D01*
X102886287Y-130649500D01*
X102673713Y-130649500D01*
X102625042Y-130657208D01*
X102463760Y-130682753D01*
X102261585Y-130748444D01*
X102072179Y-130844951D01*
X101900213Y-130969890D01*
X101749890Y-131120213D01*
X101624949Y-131292182D01*
X101620484Y-131300946D01*
X101572509Y-131351742D01*
X101504688Y-131368536D01*
X101438553Y-131345998D01*
X101399516Y-131300946D01*
X101395050Y-131292182D01*
X101270109Y-131120213D01*
X101119786Y-130969890D01*
X100947820Y-130844951D01*
X100758414Y-130748444D01*
X100758413Y-130748443D01*
X100758412Y-130748443D01*
X100556243Y-130682754D01*
X100556241Y-130682753D01*
X100556240Y-130682753D01*
X100394957Y-130657208D01*
X100346287Y-130649500D01*
X100133713Y-130649500D01*
X100085042Y-130657208D01*
X99923760Y-130682753D01*
X99721585Y-130748444D01*
X99532179Y-130844951D01*
X99360213Y-130969890D01*
X99209890Y-131120213D01*
X99084949Y-131292182D01*
X99080484Y-131300946D01*
X99032509Y-131351742D01*
X98964688Y-131368536D01*
X98898553Y-131345998D01*
X98859516Y-131300946D01*
X98855050Y-131292182D01*
X98730109Y-131120213D01*
X98579786Y-130969890D01*
X98407820Y-130844951D01*
X98218414Y-130748444D01*
X98218413Y-130748443D01*
X98218412Y-130748443D01*
X98016243Y-130682754D01*
X98016241Y-130682753D01*
X98016240Y-130682753D01*
X97854957Y-130657208D01*
X97806287Y-130649500D01*
X97593713Y-130649500D01*
X97545042Y-130657208D01*
X97383760Y-130682753D01*
X97181585Y-130748444D01*
X96992179Y-130844951D01*
X96820213Y-130969890D01*
X96669890Y-131120213D01*
X96544949Y-131292182D01*
X96540484Y-131300946D01*
X96492509Y-131351742D01*
X96424688Y-131368536D01*
X96358553Y-131345998D01*
X96319516Y-131300946D01*
X96315050Y-131292182D01*
X96190109Y-131120213D01*
X96039786Y-130969890D01*
X95867820Y-130844951D01*
X95678414Y-130748444D01*
X95678413Y-130748443D01*
X95678412Y-130748443D01*
X95476243Y-130682754D01*
X95476241Y-130682753D01*
X95476240Y-130682753D01*
X95314957Y-130657208D01*
X95266287Y-130649500D01*
X95053713Y-130649500D01*
X95005042Y-130657208D01*
X94843760Y-130682753D01*
X94641585Y-130748444D01*
X94452179Y-130844951D01*
X94280213Y-130969890D01*
X94129890Y-131120213D01*
X94004949Y-131292182D01*
X94000484Y-131300946D01*
X93952509Y-131351742D01*
X93884688Y-131368536D01*
X93818553Y-131345998D01*
X93779516Y-131300946D01*
X93775050Y-131292182D01*
X93650109Y-131120213D01*
X93499786Y-130969890D01*
X93327820Y-130844951D01*
X93138414Y-130748444D01*
X93138413Y-130748443D01*
X93138412Y-130748443D01*
X92936243Y-130682754D01*
X92936241Y-130682753D01*
X92936240Y-130682753D01*
X92774957Y-130657208D01*
X92726287Y-130649500D01*
X92513713Y-130649500D01*
X92465042Y-130657208D01*
X92303760Y-130682753D01*
X92101585Y-130748444D01*
X91912179Y-130844951D01*
X91740213Y-130969890D01*
X91589890Y-131120213D01*
X91464949Y-131292182D01*
X91460484Y-131300946D01*
X91412509Y-131351742D01*
X91344688Y-131368536D01*
X91278553Y-131345998D01*
X91239516Y-131300946D01*
X91235050Y-131292182D01*
X91110109Y-131120213D01*
X90959786Y-130969890D01*
X90787820Y-130844951D01*
X90598414Y-130748444D01*
X90598413Y-130748443D01*
X90598412Y-130748443D01*
X90396243Y-130682754D01*
X90396241Y-130682753D01*
X90396240Y-130682753D01*
X90234957Y-130657208D01*
X90186287Y-130649500D01*
X89973713Y-130649500D01*
X89925042Y-130657208D01*
X89763760Y-130682753D01*
X89561585Y-130748444D01*
X89372179Y-130844951D01*
X89200213Y-130969890D01*
X89049890Y-131120213D01*
X88924949Y-131292182D01*
X88920484Y-131300946D01*
X88872509Y-131351742D01*
X88804688Y-131368536D01*
X88738553Y-131345998D01*
X88699516Y-131300946D01*
X88695050Y-131292182D01*
X88570109Y-131120213D01*
X88419786Y-130969890D01*
X88247820Y-130844951D01*
X88058414Y-130748444D01*
X88058413Y-130748443D01*
X88058412Y-130748443D01*
X87856243Y-130682754D01*
X87856241Y-130682753D01*
X87856240Y-130682753D01*
X87694957Y-130657208D01*
X87646287Y-130649500D01*
X87433713Y-130649500D01*
X87385042Y-130657208D01*
X87223760Y-130682753D01*
X87021585Y-130748444D01*
X86832179Y-130844951D01*
X86660215Y-130969889D01*
X86546673Y-131083431D01*
X86485350Y-131116915D01*
X86415658Y-131111931D01*
X86359725Y-131070059D01*
X86342810Y-131039082D01*
X86293797Y-130907671D01*
X86293793Y-130907664D01*
X86207547Y-130792455D01*
X86207544Y-130792452D01*
X86092335Y-130706206D01*
X86092328Y-130706202D01*
X85957482Y-130655908D01*
X85957483Y-130655908D01*
X85897883Y-130649501D01*
X85897881Y-130649500D01*
X85897873Y-130649500D01*
X85897864Y-130649500D01*
X84102129Y-130649500D01*
X84102123Y-130649501D01*
X84042516Y-130655908D01*
X83907671Y-130706202D01*
X83907664Y-130706206D01*
X83792455Y-130792452D01*
X83792452Y-130792455D01*
X83706206Y-130907664D01*
X83706202Y-130907671D01*
X83655908Y-131042517D01*
X83649501Y-131102116D01*
X83649500Y-131102135D01*
X79500500Y-131102135D01*
X79500500Y-98053713D01*
X84449500Y-98053713D01*
X84449500Y-98266286D01*
X84482753Y-98476239D01*
X84548444Y-98678414D01*
X84644951Y-98867820D01*
X84769890Y-99039786D01*
X84920213Y-99190109D01*
X85092182Y-99315050D01*
X85100946Y-99319516D01*
X85151742Y-99367491D01*
X85168536Y-99435312D01*
X85145998Y-99501447D01*
X85100946Y-99540484D01*
X85092182Y-99544949D01*
X84920213Y-99669890D01*
X84769890Y-99820213D01*
X84644951Y-99992179D01*
X84548444Y-100181585D01*
X84482753Y-100383760D01*
X84449500Y-100593713D01*
X84449500Y-100806286D01*
X84471020Y-100942162D01*
X84482754Y-101016243D01*
X84548249Y-101217816D01*
X84548444Y-101218414D01*
X84644951Y-101407820D01*
X84769890Y-101579786D01*
X84920213Y-101730109D01*
X85092179Y-101855048D01*
X85092181Y-101855049D01*
X85092184Y-101855051D01*
X85101493Y-101859794D01*
X85152290Y-101907766D01*
X85169087Y-101975587D01*
X85146552Y-102041722D01*
X85101505Y-102080760D01*
X85092446Y-102085376D01*
X85092440Y-102085380D01*
X85038282Y-102124727D01*
X85038282Y-102124728D01*
X85670591Y-102757037D01*
X85607007Y-102774075D01*
X85492993Y-102839901D01*
X85399901Y-102932993D01*
X85334075Y-103047007D01*
X85317037Y-103110591D01*
X84684728Y-102478282D01*
X84684727Y-102478282D01*
X84645380Y-102532439D01*
X84548904Y-102721782D01*
X84483242Y-102923869D01*
X84483242Y-102923872D01*
X84450000Y-103133753D01*
X84450000Y-103346246D01*
X84483242Y-103556127D01*
X84483242Y-103556130D01*
X84548904Y-103758217D01*
X84645375Y-103947550D01*
X84684728Y-104001716D01*
X85317037Y-103369408D01*
X85334075Y-103432993D01*
X85399901Y-103547007D01*
X85492993Y-103640099D01*
X85607007Y-103705925D01*
X85670590Y-103722962D01*
X85038282Y-104355269D01*
X85038282Y-104355270D01*
X85092452Y-104394626D01*
X85092451Y-104394626D01*
X85101495Y-104399234D01*
X85152292Y-104447208D01*
X85169087Y-104515029D01*
X85146550Y-104581164D01*
X85101499Y-104620202D01*
X85092182Y-104624949D01*
X84920213Y-104749890D01*
X84769890Y-104900213D01*
X84644951Y-105072179D01*
X84548444Y-105261585D01*
X84482753Y-105463760D01*
X84449500Y-105673713D01*
X84449500Y-105886286D01*
X84475393Y-106049771D01*
X84482754Y-106096243D01*
X84533338Y-106251925D01*
X84548444Y-106298414D01*
X84644951Y-106487820D01*
X84769890Y-106659786D01*
X84920213Y-106810109D01*
X85092182Y-106935050D01*
X85100946Y-106939516D01*
X85151742Y-106987491D01*
X85168536Y-107055312D01*
X85145998Y-107121447D01*
X85100946Y-107160484D01*
X85092182Y-107164949D01*
X84920213Y-107289890D01*
X84769890Y-107440213D01*
X84644951Y-107612179D01*
X84548444Y-107801585D01*
X84482753Y-108003760D01*
X84449500Y-108213713D01*
X84449500Y-108426286D01*
X84482753Y-108636239D01*
X84548444Y-108838414D01*
X84644951Y-109027820D01*
X84769890Y-109199786D01*
X84883430Y-109313326D01*
X84916915Y-109374649D01*
X84911931Y-109444341D01*
X84870059Y-109500274D01*
X84839083Y-109517189D01*
X84707669Y-109566203D01*
X84707664Y-109566206D01*
X84592455Y-109652452D01*
X84592452Y-109652455D01*
X84506206Y-109767664D01*
X84506202Y-109767671D01*
X84455908Y-109902517D01*
X84449501Y-109962116D01*
X84449500Y-109962135D01*
X84449500Y-111757870D01*
X84449501Y-111757876D01*
X84455908Y-111817483D01*
X84506202Y-111952328D01*
X84506206Y-111952335D01*
X84592452Y-112067544D01*
X84592455Y-112067547D01*
X84707664Y-112153793D01*
X84707671Y-112153797D01*
X84842517Y-112204091D01*
X84842516Y-112204091D01*
X84849444Y-112204835D01*
X84902127Y-112210500D01*
X86697872Y-112210499D01*
X86757483Y-112204091D01*
X86892331Y-112153796D01*
X87007546Y-112067546D01*
X87093796Y-111952331D01*
X87144091Y-111817483D01*
X87150500Y-111757873D01*
X87150500Y-111734500D01*
X87170185Y-111667461D01*
X87222989Y-111621706D01*
X87274500Y-111610500D01*
X88297770Y-111610500D01*
X88364809Y-111630185D01*
X88385451Y-111646819D01*
X89761539Y-113022907D01*
X89788419Y-113063135D01*
X89846295Y-113202860D01*
X89939373Y-113342162D01*
X90057837Y-113460626D01*
X90150494Y-113522537D01*
X90197137Y-113553703D01*
X90197138Y-113553703D01*
X90197139Y-113553704D01*
X90197141Y-113553705D01*
X90251353Y-113576160D01*
X90336864Y-113611580D01*
X90377091Y-113638459D01*
X95121586Y-118382954D01*
X95156370Y-118406194D01*
X95173763Y-118417816D01*
X95244505Y-118465084D01*
X95381087Y-118521658D01*
X95381091Y-118521658D01*
X95381092Y-118521659D01*
X95526079Y-118550500D01*
X95526082Y-118550500D01*
X95526083Y-118550500D01*
X95673918Y-118550500D01*
X98164739Y-118550500D01*
X98212191Y-118559938D01*
X98351918Y-118617816D01*
X98516228Y-118650499D01*
X98516232Y-118650500D01*
X98516233Y-118650500D01*
X98683768Y-118650500D01*
X98683769Y-118650499D01*
X98848082Y-118617816D01*
X99002863Y-118553703D01*
X99142162Y-118460626D01*
X99260626Y-118342162D01*
X99353703Y-118202863D01*
X99417816Y-118048082D01*
X99450500Y-117883767D01*
X99450500Y-117716233D01*
X99417816Y-117551918D01*
X99353703Y-117397137D01*
X99320920Y-117348074D01*
X99260626Y-117257837D01*
X99142165Y-117139376D01*
X99142161Y-117139373D01*
X99103055Y-117113243D01*
X99103053Y-117113241D01*
X99002865Y-117046298D01*
X99002861Y-117046296D01*
X98930271Y-117016228D01*
X114049500Y-117016228D01*
X114049500Y-117183771D01*
X114082182Y-117348074D01*
X114082184Y-117348082D01*
X114146295Y-117502860D01*
X114239373Y-117642162D01*
X114357837Y-117760626D01*
X114450494Y-117822537D01*
X114497137Y-117853703D01*
X114497138Y-117853703D01*
X114497139Y-117853704D01*
X114497141Y-117853705D01*
X114551353Y-117876160D01*
X114636864Y-117911580D01*
X114677091Y-117938459D01*
X114921584Y-118182952D01*
X114951384Y-118202863D01*
X115044505Y-118265084D01*
X115181087Y-118321658D01*
X115181091Y-118321658D01*
X115181092Y-118321659D01*
X115326079Y-118350500D01*
X115326082Y-118350500D01*
X115326083Y-118350500D01*
X115473918Y-118350500D01*
X116264739Y-118350500D01*
X116312191Y-118359938D01*
X116451918Y-118417816D01*
X116616228Y-118450499D01*
X116616232Y-118450500D01*
X116616233Y-118450500D01*
X116783768Y-118450500D01*
X116783769Y-118450499D01*
X116948082Y-118417816D01*
X117102863Y-118353703D01*
X117242162Y-118260626D01*
X117360626Y-118142162D01*
X117453703Y-118002863D01*
X117517816Y-117848082D01*
X117550500Y-117683767D01*
X117550500Y-117516233D01*
X117517816Y-117351918D01*
X117453703Y-117197137D01*
X117397647Y-117113243D01*
X117360626Y-117057837D01*
X117242162Y-116939373D01*
X117102860Y-116846295D01*
X116948082Y-116782184D01*
X116948074Y-116782182D01*
X116783771Y-116749500D01*
X116783767Y-116749500D01*
X116616233Y-116749500D01*
X116616228Y-116749500D01*
X116451925Y-116782182D01*
X116451917Y-116782184D01*
X116312192Y-116840061D01*
X116264739Y-116849500D01*
X115799668Y-116849500D01*
X115732629Y-116829815D01*
X115686874Y-116777011D01*
X115685107Y-116772952D01*
X115653706Y-116697143D01*
X115653699Y-116697130D01*
X115560626Y-116557838D01*
X115560623Y-116557834D01*
X115442162Y-116439373D01*
X115302860Y-116346295D01*
X115148082Y-116282184D01*
X115148074Y-116282182D01*
X114983771Y-116249500D01*
X114983767Y-116249500D01*
X114816233Y-116249500D01*
X114816228Y-116249500D01*
X114651925Y-116282182D01*
X114651917Y-116282184D01*
X114497139Y-116346295D01*
X114357837Y-116439373D01*
X114239373Y-116557837D01*
X114146295Y-116697139D01*
X114082184Y-116851917D01*
X114082182Y-116851925D01*
X114049500Y-117016228D01*
X98930271Y-117016228D01*
X98848082Y-116982184D01*
X98848074Y-116982182D01*
X98683771Y-116949500D01*
X98683767Y-116949500D01*
X98516233Y-116949500D01*
X98516228Y-116949500D01*
X98351925Y-116982182D01*
X98351917Y-116982184D01*
X98212192Y-117040061D01*
X98164739Y-117049500D01*
X95962230Y-117049500D01*
X95895191Y-117029815D01*
X95874549Y-117013181D01*
X91438459Y-112577091D01*
X91411580Y-112536864D01*
X91353703Y-112397137D01*
X91271996Y-112274854D01*
X91260626Y-112257837D01*
X91142162Y-112139373D01*
X91002860Y-112046295D01*
X90863135Y-111988419D01*
X90822907Y-111961539D01*
X89138421Y-110277052D01*
X89138420Y-110277051D01*
X89102219Y-110252863D01*
X89051114Y-110218716D01*
X89015495Y-110194916D01*
X89015493Y-110194915D01*
X89015490Y-110194913D01*
X88878917Y-110138343D01*
X88878907Y-110138340D01*
X88733920Y-110109500D01*
X88733918Y-110109500D01*
X87274499Y-110109500D01*
X87207460Y-110089815D01*
X87161705Y-110037011D01*
X87153577Y-110012955D01*
X87150499Y-109999398D01*
X87150499Y-109962128D01*
X87144091Y-109902517D01*
X87104250Y-109795700D01*
X87104250Y-109795696D01*
X87093797Y-109767671D01*
X87093793Y-109767664D01*
X87092718Y-109766228D01*
X108399500Y-109766228D01*
X108399500Y-109933771D01*
X108432182Y-110098074D01*
X108432184Y-110098082D01*
X108496295Y-110252860D01*
X108589373Y-110392162D01*
X108707837Y-110510626D01*
X108800494Y-110572537D01*
X108847137Y-110603703D01*
X109001918Y-110667816D01*
X109166228Y-110700499D01*
X109166232Y-110700500D01*
X109166233Y-110700500D01*
X109333768Y-110700500D01*
X109333769Y-110700499D01*
X109498082Y-110667816D01*
X109652863Y-110603703D01*
X109792162Y-110510626D01*
X109910626Y-110392162D01*
X110003703Y-110252863D01*
X110067816Y-110098082D01*
X110100500Y-109933767D01*
X110100500Y-109900097D01*
X110120185Y-109833058D01*
X110136819Y-109812416D01*
X115612416Y-104336819D01*
X115673739Y-104303334D01*
X115700097Y-104300500D01*
X117480193Y-104300500D01*
X117547232Y-104320185D01*
X117592987Y-104372989D01*
X117602931Y-104442147D01*
X117573906Y-104505703D01*
X117567874Y-104512181D01*
X117160708Y-104919345D01*
X117099385Y-104952830D01*
X117097219Y-104953281D01*
X116951923Y-104982182D01*
X116951917Y-104982184D01*
X116797139Y-105046295D01*
X116657837Y-105139373D01*
X116539373Y-105257837D01*
X116446295Y-105397139D01*
X116382184Y-105551917D01*
X116382182Y-105551925D01*
X116349500Y-105716228D01*
X116349500Y-105883771D01*
X116382182Y-106048074D01*
X116382184Y-106048082D01*
X116446295Y-106202860D01*
X116539373Y-106342162D01*
X116657837Y-106460626D01*
X116741052Y-106516228D01*
X116797137Y-106553703D01*
X116951918Y-106617816D01*
X117074315Y-106642162D01*
X117116228Y-106650499D01*
X117116232Y-106650500D01*
X117116233Y-106650500D01*
X117283768Y-106650500D01*
X117283769Y-106650499D01*
X117448082Y-106617816D01*
X117602863Y-106553703D01*
X117742162Y-106460626D01*
X117860626Y-106342162D01*
X117953703Y-106202863D01*
X118017816Y-106048082D01*
X118046718Y-105902776D01*
X118079102Y-105840869D01*
X118080596Y-105839348D01*
X118389360Y-105530584D01*
X118450681Y-105497101D01*
X118520373Y-105502085D01*
X118576306Y-105543957D01*
X118591600Y-105570814D01*
X118646295Y-105702860D01*
X118739373Y-105842162D01*
X118857835Y-105960624D01*
X118857838Y-105960626D01*
X118944392Y-106018460D01*
X118989195Y-106072069D01*
X118999500Y-106121560D01*
X118999500Y-109049392D01*
X118979815Y-109116431D01*
X118963181Y-109137073D01*
X118860672Y-109239581D01*
X118860669Y-109239584D01*
X118767591Y-109378886D01*
X118720551Y-109492452D01*
X118676710Y-109546855D01*
X118630181Y-109566616D01*
X118551925Y-109582182D01*
X118551917Y-109582184D01*
X118397139Y-109646295D01*
X118257837Y-109739373D01*
X118139373Y-109857837D01*
X118046295Y-109997139D01*
X117982184Y-110151917D01*
X117982182Y-110151925D01*
X117949500Y-110316228D01*
X117949500Y-110483771D01*
X117982182Y-110648074D01*
X117982184Y-110648082D01*
X118046295Y-110802860D01*
X118139373Y-110942162D01*
X118257837Y-111060626D01*
X118350494Y-111122537D01*
X118397137Y-111153703D01*
X118551918Y-111217816D01*
X118716228Y-111250499D01*
X118716232Y-111250500D01*
X118716233Y-111250500D01*
X118883768Y-111250500D01*
X118883769Y-111250499D01*
X119048082Y-111217816D01*
X119202863Y-111153703D01*
X119277031Y-111104144D01*
X119343709Y-111083267D01*
X119345922Y-111083247D01*
X119719943Y-111083247D01*
X119724991Y-111083247D01*
X119725007Y-111083248D01*
X119732603Y-111083248D01*
X119890714Y-111083248D01*
X119890717Y-111083248D01*
X120043445Y-111042324D01*
X120043447Y-111042322D01*
X120043450Y-111042322D01*
X120050957Y-111039213D01*
X120052618Y-111043224D01*
X120063925Y-111039897D01*
X120096331Y-111029788D01*
X120097337Y-111030065D01*
X120098340Y-111029770D01*
X120130963Y-111039327D01*
X120163692Y-111048343D01*
X120164718Y-111049217D01*
X120165391Y-111049414D01*
X120168270Y-111052241D01*
X120192079Y-111072510D01*
X120197186Y-111078396D01*
X120238957Y-111140911D01*
X120333078Y-111235032D01*
X120335954Y-111238347D01*
X120348736Y-111266292D01*
X120363456Y-111293249D01*
X120363503Y-111298576D01*
X120365017Y-111301885D01*
X120363620Y-111311640D01*
X120363908Y-111343797D01*
X120349500Y-111416234D01*
X120349500Y-111583771D01*
X120382182Y-111748074D01*
X120382184Y-111748082D01*
X120446295Y-111902860D01*
X120539373Y-112042162D01*
X120657837Y-112160626D01*
X120732476Y-112210498D01*
X120797137Y-112253703D01*
X120797138Y-112253703D01*
X120797139Y-112253704D01*
X120832201Y-112268227D01*
X120951918Y-112317816D01*
X121074315Y-112342162D01*
X121116228Y-112350499D01*
X121116232Y-112350500D01*
X121116233Y-112350500D01*
X121283768Y-112350500D01*
X121283769Y-112350499D01*
X121448082Y-112317816D01*
X121602863Y-112253703D01*
X121622404Y-112240645D01*
X121689080Y-112219765D01*
X121756461Y-112238247D01*
X121794400Y-112274854D01*
X121839373Y-112342162D01*
X121957837Y-112460626D01*
X122050494Y-112522537D01*
X122097137Y-112553703D01*
X122097138Y-112553703D01*
X122097139Y-112553704D01*
X122132201Y-112568227D01*
X122251918Y-112617816D01*
X122416228Y-112650499D01*
X122416232Y-112650500D01*
X122416233Y-112650500D01*
X122583768Y-112650500D01*
X122583769Y-112650499D01*
X122748082Y-112617816D01*
X122902863Y-112553703D01*
X123042162Y-112460626D01*
X123160626Y-112342162D01*
X123253703Y-112202863D01*
X123317816Y-112048082D01*
X123350500Y-111883767D01*
X123350500Y-111850097D01*
X123370185Y-111783058D01*
X123386819Y-111762416D01*
X123538735Y-111610500D01*
X123727228Y-111422006D01*
X123788549Y-111388523D01*
X123858240Y-111393507D01*
X123914174Y-111435378D01*
X123929468Y-111462235D01*
X123946296Y-111502862D01*
X124039373Y-111642162D01*
X124157837Y-111760626D01*
X124242929Y-111817482D01*
X124297137Y-111853703D01*
X124451918Y-111917816D01*
X124616228Y-111950499D01*
X124616232Y-111950500D01*
X124616233Y-111950500D01*
X124783768Y-111950500D01*
X124783769Y-111950499D01*
X124948082Y-111917816D01*
X125102863Y-111853703D01*
X125242162Y-111760626D01*
X125360626Y-111642162D01*
X125453703Y-111502863D01*
X125517816Y-111348082D01*
X125550500Y-111183767D01*
X125550500Y-111150096D01*
X125570185Y-111083057D01*
X125586814Y-111062420D01*
X125842855Y-110806379D01*
X133249500Y-110806379D01*
X133249500Y-110993620D01*
X133286025Y-111177243D01*
X133286027Y-111177251D01*
X133357676Y-111350228D01*
X133357681Y-111350237D01*
X133461697Y-111505907D01*
X133461700Y-111505911D01*
X133594088Y-111638299D01*
X133594092Y-111638302D01*
X133749762Y-111742318D01*
X133749771Y-111742323D01*
X133787336Y-111757883D01*
X133922749Y-111813973D01*
X134104358Y-111850097D01*
X134106379Y-111850499D01*
X134106383Y-111850500D01*
X134106384Y-111850500D01*
X134293617Y-111850500D01*
X134293618Y-111850499D01*
X134477251Y-111813973D01*
X134650231Y-111742322D01*
X134805908Y-111638302D01*
X134938302Y-111505908D01*
X135042322Y-111350231D01*
X135113973Y-111177251D01*
X135150500Y-110993616D01*
X135150500Y-110806384D01*
X135113973Y-110622749D01*
X135056406Y-110483771D01*
X135042323Y-110449771D01*
X135042318Y-110449762D01*
X134938302Y-110294092D01*
X134938299Y-110294088D01*
X134805911Y-110161700D01*
X134805907Y-110161697D01*
X134650237Y-110057681D01*
X134650228Y-110057676D01*
X134477251Y-109986027D01*
X134477243Y-109986025D01*
X134293620Y-109949500D01*
X134293616Y-109949500D01*
X134106384Y-109949500D01*
X134106379Y-109949500D01*
X133922756Y-109986025D01*
X133922748Y-109986027D01*
X133749771Y-110057676D01*
X133749762Y-110057681D01*
X133594092Y-110161697D01*
X133594088Y-110161700D01*
X133461700Y-110294088D01*
X133461697Y-110294092D01*
X133357681Y-110449762D01*
X133357676Y-110449771D01*
X133286027Y-110622748D01*
X133286025Y-110622756D01*
X133249500Y-110806379D01*
X125842855Y-110806379D01*
X127868713Y-108780521D01*
X127868716Y-108780520D01*
X127980520Y-108668716D01*
X128030639Y-108581904D01*
X128059577Y-108531785D01*
X128100501Y-108379057D01*
X128100501Y-108220943D01*
X128100501Y-108213348D01*
X128100500Y-108213330D01*
X128100500Y-107253650D01*
X128120185Y-107186611D01*
X128136815Y-107165972D01*
X128160626Y-107142162D01*
X128253703Y-107002863D01*
X128317816Y-106848082D01*
X128350500Y-106683767D01*
X128350500Y-106516233D01*
X128328649Y-106406379D01*
X133249500Y-106406379D01*
X133249500Y-106593620D01*
X133286025Y-106777243D01*
X133286027Y-106777251D01*
X133357676Y-106950228D01*
X133357681Y-106950237D01*
X133461697Y-107105907D01*
X133461700Y-107105911D01*
X133594088Y-107238299D01*
X133594092Y-107238302D01*
X133749762Y-107342318D01*
X133749768Y-107342321D01*
X133749769Y-107342322D01*
X133922749Y-107413973D01*
X134106379Y-107450499D01*
X134106383Y-107450500D01*
X134106384Y-107450500D01*
X134293617Y-107450500D01*
X134293618Y-107450499D01*
X134477251Y-107413973D01*
X134650231Y-107342322D01*
X134805908Y-107238302D01*
X134938302Y-107105908D01*
X135042322Y-106950231D01*
X135113973Y-106777251D01*
X135150500Y-106593616D01*
X135150500Y-106406384D01*
X135113973Y-106222749D01*
X135042322Y-106049769D01*
X135042321Y-106049768D01*
X135042318Y-106049762D01*
X134938302Y-105894092D01*
X134938299Y-105894088D01*
X134805911Y-105761700D01*
X134805907Y-105761697D01*
X134650237Y-105657681D01*
X134650228Y-105657676D01*
X134477251Y-105586027D01*
X134477243Y-105586025D01*
X134293620Y-105549500D01*
X134293616Y-105549500D01*
X134106384Y-105549500D01*
X134106379Y-105549500D01*
X133922756Y-105586025D01*
X133922748Y-105586027D01*
X133749771Y-105657676D01*
X133749762Y-105657681D01*
X133594092Y-105761697D01*
X133594088Y-105761700D01*
X133461700Y-105894088D01*
X133461697Y-105894092D01*
X133357681Y-106049762D01*
X133357676Y-106049771D01*
X133286027Y-106222748D01*
X133286025Y-106222756D01*
X133249500Y-106406379D01*
X128328649Y-106406379D01*
X128317816Y-106351918D01*
X128253703Y-106197137D01*
X128203204Y-106121560D01*
X128160626Y-106057837D01*
X128042162Y-105939373D01*
X127902860Y-105846295D01*
X127748082Y-105782184D01*
X127748074Y-105782182D01*
X127583771Y-105749500D01*
X127583767Y-105749500D01*
X127416233Y-105749500D01*
X127416228Y-105749500D01*
X127251925Y-105782182D01*
X127251917Y-105782184D01*
X127097139Y-105846295D01*
X126957837Y-105939373D01*
X126839373Y-106057837D01*
X126746295Y-106197139D01*
X126682184Y-106351917D01*
X126682182Y-106351925D01*
X126649500Y-106516228D01*
X126649500Y-106683771D01*
X126682182Y-106848074D01*
X126682184Y-106848082D01*
X126746295Y-107002860D01*
X126839372Y-107142160D01*
X126839373Y-107142161D01*
X126839374Y-107142162D01*
X126863181Y-107165969D01*
X126896666Y-107227290D01*
X126899500Y-107253650D01*
X126899500Y-107999903D01*
X126879815Y-108066942D01*
X126863181Y-108087584D01*
X125212181Y-109738584D01*
X125150858Y-109772069D01*
X125081166Y-109767085D01*
X125025233Y-109725213D01*
X125000816Y-109659749D01*
X125000500Y-109650903D01*
X125000500Y-107153650D01*
X125020185Y-107086611D01*
X125036815Y-107065972D01*
X125060626Y-107042162D01*
X125153703Y-106902863D01*
X125217816Y-106748082D01*
X125250500Y-106583767D01*
X125250500Y-106416233D01*
X125217816Y-106251918D01*
X125153703Y-106097137D01*
X125112663Y-106035717D01*
X125060626Y-105957837D01*
X124942162Y-105839373D01*
X124802860Y-105746295D01*
X124648082Y-105682184D01*
X124648074Y-105682182D01*
X124483771Y-105649500D01*
X124483767Y-105649500D01*
X124316233Y-105649500D01*
X124316228Y-105649500D01*
X124151925Y-105682182D01*
X124151917Y-105682184D01*
X123997139Y-105746295D01*
X123857841Y-105839371D01*
X123824714Y-105872497D01*
X123763390Y-105905980D01*
X123693698Y-105900994D01*
X123689582Y-105899374D01*
X123676830Y-105894092D01*
X123648082Y-105882184D01*
X123648074Y-105882182D01*
X123483771Y-105849500D01*
X123483767Y-105849500D01*
X123316233Y-105849500D01*
X123316228Y-105849500D01*
X123151925Y-105882182D01*
X123151917Y-105882184D01*
X122997140Y-105946295D01*
X122894555Y-106014840D01*
X122827878Y-106035717D01*
X122760498Y-106017232D01*
X122713808Y-105965253D01*
X122702632Y-105896283D01*
X122711103Y-105864288D01*
X122717816Y-105848082D01*
X122750500Y-105683767D01*
X122750500Y-105516233D01*
X122747686Y-105502085D01*
X122716976Y-105347691D01*
X122723203Y-105278099D01*
X122766067Y-105222922D01*
X122831956Y-105199678D01*
X122838593Y-105199500D01*
X128115071Y-105199500D01*
X128199615Y-105182682D01*
X128240744Y-105174501D01*
X128359127Y-105125465D01*
X128381889Y-105110256D01*
X128465669Y-105054277D01*
X130805276Y-102714670D01*
X130805277Y-102714669D01*
X132433127Y-101086819D01*
X132494450Y-101053334D01*
X132520808Y-101050500D01*
X133305068Y-101050500D01*
X133372107Y-101070185D01*
X133373959Y-101071398D01*
X133497137Y-101153703D01*
X133651918Y-101217816D01*
X133816228Y-101250499D01*
X133816232Y-101250500D01*
X133816233Y-101250500D01*
X133983768Y-101250500D01*
X133983769Y-101250499D01*
X134148082Y-101217816D01*
X134302863Y-101153703D01*
X134442162Y-101060626D01*
X134560626Y-100942162D01*
X134653703Y-100802863D01*
X134717816Y-100648082D01*
X134750500Y-100483767D01*
X134750500Y-100316233D01*
X134717816Y-100151918D01*
X134653703Y-99997137D01*
X134585272Y-99894723D01*
X134560626Y-99857837D01*
X134442162Y-99739373D01*
X134302860Y-99646295D01*
X134148082Y-99582184D01*
X134148074Y-99582182D01*
X133983771Y-99549500D01*
X133983767Y-99549500D01*
X133816233Y-99549500D01*
X133816228Y-99549500D01*
X133651925Y-99582182D01*
X133651917Y-99582184D01*
X133497139Y-99646295D01*
X133373959Y-99728602D01*
X133307281Y-99749480D01*
X133305068Y-99749500D01*
X132135929Y-99749500D01*
X132010261Y-99774497D01*
X132010255Y-99774499D01*
X131891870Y-99823535D01*
X131785331Y-99894722D01*
X131785330Y-99894723D01*
X131756520Y-99923534D01*
X131685331Y-99994723D01*
X127817873Y-103862181D01*
X127790945Y-103876884D01*
X127765127Y-103893477D01*
X127758926Y-103894368D01*
X127756550Y-103895666D01*
X127730192Y-103898500D01*
X127574500Y-103898500D01*
X127507461Y-103878815D01*
X127461706Y-103826011D01*
X127450500Y-103774500D01*
X127450500Y-103616232D01*
X127450499Y-103616228D01*
X127430608Y-103516228D01*
X127417816Y-103451918D01*
X127353703Y-103297137D01*
X127315525Y-103240000D01*
X127260626Y-103157837D01*
X127142162Y-103039373D01*
X127002860Y-102946295D01*
X126848082Y-102882184D01*
X126848074Y-102882182D01*
X126683771Y-102849500D01*
X126683767Y-102849500D01*
X126516233Y-102849500D01*
X126516228Y-102849500D01*
X126351925Y-102882182D01*
X126351917Y-102882184D01*
X126197139Y-102946295D01*
X126057837Y-103039373D01*
X126057834Y-103039376D01*
X126034030Y-103063181D01*
X125972707Y-103096666D01*
X125946349Y-103099500D01*
X115320940Y-103099500D01*
X115280019Y-103110464D01*
X115280019Y-103110465D01*
X115242751Y-103120451D01*
X115168214Y-103140423D01*
X115168209Y-103140426D01*
X115031290Y-103219475D01*
X115031282Y-103219481D01*
X114953627Y-103297137D01*
X114919480Y-103331284D01*
X114919478Y-103331286D01*
X112092927Y-106157838D01*
X109287584Y-108963181D01*
X109226261Y-108996666D01*
X109199903Y-108999500D01*
X109166228Y-108999500D01*
X109001925Y-109032182D01*
X109001917Y-109032184D01*
X108847139Y-109096295D01*
X108707837Y-109189373D01*
X108589373Y-109307837D01*
X108496295Y-109447139D01*
X108432184Y-109601917D01*
X108432182Y-109601925D01*
X108399500Y-109766228D01*
X87092718Y-109766228D01*
X87007547Y-109652455D01*
X87007544Y-109652452D01*
X86892335Y-109566206D01*
X86892328Y-109566202D01*
X86760917Y-109517189D01*
X86704983Y-109475318D01*
X86680566Y-109409853D01*
X86695418Y-109341580D01*
X86716563Y-109313332D01*
X86830104Y-109199792D01*
X86884289Y-109125213D01*
X86955048Y-109027820D01*
X86955047Y-109027820D01*
X86955051Y-109027816D01*
X87051557Y-108838412D01*
X87117246Y-108636243D01*
X87150500Y-108426287D01*
X87150500Y-108213713D01*
X87117246Y-108003757D01*
X87051557Y-107801588D01*
X86955051Y-107612184D01*
X86955049Y-107612181D01*
X86955048Y-107612179D01*
X86830109Y-107440213D01*
X86679786Y-107289890D01*
X86507820Y-107164951D01*
X86507115Y-107164591D01*
X86499054Y-107160485D01*
X86448259Y-107112512D01*
X86431463Y-107044692D01*
X86453999Y-106978556D01*
X86499054Y-106939515D01*
X86507816Y-106935051D01*
X86552119Y-106902863D01*
X86679786Y-106810109D01*
X86679788Y-106810106D01*
X86679792Y-106810104D01*
X86830104Y-106659792D01*
X86830106Y-106659788D01*
X86830109Y-106659786D01*
X86955048Y-106487820D01*
X86955047Y-106487820D01*
X86955051Y-106487816D01*
X87051557Y-106298412D01*
X87117246Y-106096243D01*
X87150500Y-105886287D01*
X87150500Y-105673713D01*
X87117246Y-105463757D01*
X87051557Y-105261588D01*
X86955051Y-105072184D01*
X86955049Y-105072181D01*
X86955048Y-105072179D01*
X86830109Y-104900213D01*
X86679786Y-104749890D01*
X86507817Y-104624949D01*
X86498504Y-104620204D01*
X86447707Y-104572230D01*
X86430912Y-104504409D01*
X86453449Y-104438274D01*
X86498507Y-104399232D01*
X86507555Y-104394622D01*
X86561716Y-104355270D01*
X86561717Y-104355270D01*
X85929408Y-103722962D01*
X85992993Y-103705925D01*
X86107007Y-103640099D01*
X86200099Y-103547007D01*
X86265925Y-103432993D01*
X86282962Y-103369408D01*
X86915270Y-104001717D01*
X86915270Y-104001716D01*
X86954622Y-103947554D01*
X87051095Y-103758217D01*
X87116757Y-103556130D01*
X87116757Y-103556127D01*
X87123077Y-103516228D01*
X103249500Y-103516228D01*
X103249500Y-103683771D01*
X103282182Y-103848074D01*
X103282184Y-103848082D01*
X103346295Y-104002860D01*
X103439373Y-104142162D01*
X103557837Y-104260626D01*
X103646974Y-104320185D01*
X103697137Y-104353703D01*
X103697138Y-104353703D01*
X103697139Y-104353704D01*
X103700920Y-104355270D01*
X103851918Y-104417816D01*
X103999683Y-104447208D01*
X104016228Y-104450499D01*
X104016232Y-104450500D01*
X104016233Y-104450500D01*
X104183768Y-104450500D01*
X104183769Y-104450499D01*
X104348082Y-104417816D01*
X104502863Y-104353703D01*
X104642162Y-104260626D01*
X104760626Y-104142162D01*
X104853703Y-104002863D01*
X104917816Y-103848082D01*
X104946718Y-103702781D01*
X104979102Y-103640870D01*
X104980597Y-103639348D01*
X107287416Y-101332528D01*
X107348737Y-101299045D01*
X107418429Y-101304029D01*
X107422518Y-101305637D01*
X107451918Y-101317816D01*
X107616228Y-101350499D01*
X107616232Y-101350500D01*
X107616233Y-101350500D01*
X107783768Y-101350500D01*
X107783769Y-101350499D01*
X107948082Y-101317816D01*
X108102863Y-101253703D01*
X108242162Y-101160626D01*
X108360626Y-101042162D01*
X108453703Y-100902863D01*
X108517816Y-100748082D01*
X108550500Y-100583767D01*
X108550500Y-100416233D01*
X108517816Y-100251918D01*
X108453703Y-100097137D01*
X108422537Y-100050494D01*
X108360626Y-99957837D01*
X108242162Y-99839373D01*
X108102860Y-99746295D01*
X107948082Y-99682184D01*
X107948074Y-99682182D01*
X107783771Y-99649500D01*
X107783767Y-99649500D01*
X107616233Y-99649500D01*
X107616228Y-99649500D01*
X107451925Y-99682182D01*
X107451917Y-99682184D01*
X107297140Y-99746295D01*
X107166052Y-99833884D01*
X107121355Y-99852398D01*
X107010260Y-99874497D01*
X107010255Y-99874499D01*
X106891874Y-99923534D01*
X106785326Y-99994726D01*
X106785325Y-99994727D01*
X104060708Y-102719345D01*
X103999385Y-102752830D01*
X103997219Y-102753281D01*
X103851923Y-102782182D01*
X103851917Y-102782184D01*
X103697139Y-102846295D01*
X103557837Y-102939373D01*
X103439373Y-103057837D01*
X103346295Y-103197139D01*
X103282184Y-103351917D01*
X103282182Y-103351925D01*
X103249500Y-103516228D01*
X87123077Y-103516228D01*
X87127114Y-103490743D01*
X87150000Y-103346246D01*
X87150000Y-103133753D01*
X87116757Y-102923872D01*
X87116757Y-102923869D01*
X87051095Y-102721782D01*
X86954624Y-102532449D01*
X86915270Y-102478282D01*
X86915269Y-102478282D01*
X86282962Y-103110590D01*
X86265925Y-103047007D01*
X86200099Y-102932993D01*
X86107007Y-102839901D01*
X85992993Y-102774075D01*
X85929409Y-102757037D01*
X86561716Y-102124728D01*
X86507547Y-102085373D01*
X86507547Y-102085372D01*
X86498500Y-102080763D01*
X86447706Y-102032788D01*
X86430912Y-101964966D01*
X86453451Y-101898832D01*
X86498508Y-101859793D01*
X86507816Y-101855051D01*
X86590850Y-101794724D01*
X86679786Y-101730109D01*
X86679788Y-101730106D01*
X86679792Y-101730104D01*
X86830104Y-101579792D01*
X86830106Y-101579788D01*
X86830109Y-101579786D01*
X86955048Y-101407820D01*
X86955047Y-101407820D01*
X86955051Y-101407816D01*
X87051557Y-101218412D01*
X87117246Y-101016243D01*
X87150500Y-100806287D01*
X87150500Y-100593713D01*
X87117246Y-100383757D01*
X87051557Y-100181588D01*
X86955051Y-99992184D01*
X86955049Y-99992181D01*
X86955048Y-99992179D01*
X86830109Y-99820213D01*
X86679786Y-99669890D01*
X86507820Y-99544951D01*
X86507115Y-99544591D01*
X86499054Y-99540485D01*
X86448259Y-99492512D01*
X86431463Y-99424692D01*
X86453999Y-99358556D01*
X86499054Y-99319515D01*
X86507816Y-99315051D01*
X86529789Y-99299086D01*
X86679786Y-99190109D01*
X86679788Y-99190106D01*
X86679792Y-99190104D01*
X86830104Y-99039792D01*
X86830106Y-99039788D01*
X86830109Y-99039786D01*
X86955048Y-98867820D01*
X86955047Y-98867820D01*
X86955051Y-98867816D01*
X87051557Y-98678412D01*
X87117246Y-98476243D01*
X87150500Y-98266287D01*
X87150500Y-98053713D01*
X87117246Y-97843757D01*
X87051557Y-97641588D01*
X86955051Y-97452184D01*
X86955049Y-97452181D01*
X86955048Y-97452179D01*
X86830109Y-97280213D01*
X86679786Y-97129890D01*
X86507820Y-97004951D01*
X86318414Y-96908444D01*
X86318413Y-96908443D01*
X86318412Y-96908443D01*
X86116243Y-96842754D01*
X86116241Y-96842753D01*
X86116240Y-96842753D01*
X85954957Y-96817208D01*
X85906287Y-96809500D01*
X85693713Y-96809500D01*
X85645042Y-96817208D01*
X85483760Y-96842753D01*
X85281585Y-96908444D01*
X85092179Y-97004951D01*
X84920213Y-97129890D01*
X84769890Y-97280213D01*
X84644951Y-97452179D01*
X84548444Y-97641585D01*
X84482753Y-97843760D01*
X84449500Y-98053713D01*
X79500500Y-98053713D01*
X79500500Y-77102155D01*
X83650000Y-77102155D01*
X83650000Y-77750000D01*
X84566988Y-77750000D01*
X84534075Y-77807007D01*
X84500000Y-77934174D01*
X84500000Y-78065826D01*
X84534075Y-78192993D01*
X84566988Y-78250000D01*
X83650000Y-78250000D01*
X83650000Y-78897844D01*
X83656401Y-78957372D01*
X83656403Y-78957379D01*
X83706645Y-79092086D01*
X83706649Y-79092093D01*
X83792809Y-79207187D01*
X83792812Y-79207190D01*
X83907906Y-79293350D01*
X83907913Y-79293354D01*
X84042620Y-79343596D01*
X84042627Y-79343598D01*
X84102155Y-79349999D01*
X84102172Y-79350000D01*
X84750000Y-79350000D01*
X84750000Y-78433012D01*
X84807007Y-78465925D01*
X84934174Y-78500000D01*
X85065826Y-78500000D01*
X85192993Y-78465925D01*
X85250000Y-78433012D01*
X85250000Y-79350000D01*
X85897828Y-79350000D01*
X85897844Y-79349999D01*
X85957372Y-79343598D01*
X85957379Y-79343596D01*
X86092086Y-79293354D01*
X86092093Y-79293350D01*
X86207187Y-79207190D01*
X86207190Y-79207187D01*
X86293350Y-79092093D01*
X86293354Y-79092086D01*
X86342422Y-78960529D01*
X86384293Y-78904595D01*
X86449757Y-78880178D01*
X86518030Y-78895030D01*
X86546285Y-78916181D01*
X86660213Y-79030109D01*
X86832179Y-79155048D01*
X86832181Y-79155049D01*
X86832184Y-79155051D01*
X87021588Y-79251557D01*
X87065269Y-79265750D01*
X87114631Y-79295999D01*
X89275680Y-81457047D01*
X89302560Y-81497275D01*
X89346295Y-81602860D01*
X89439373Y-81742162D01*
X89557837Y-81860626D01*
X89650494Y-81922537D01*
X89697137Y-81953703D01*
X89851918Y-82017816D01*
X90016228Y-82050499D01*
X90016232Y-82050500D01*
X90016233Y-82050500D01*
X90183768Y-82050500D01*
X90183769Y-82050499D01*
X90348082Y-82017816D01*
X90502863Y-81953703D01*
X90642162Y-81860626D01*
X90760626Y-81742162D01*
X90853703Y-81602863D01*
X90917816Y-81448082D01*
X90950500Y-81283767D01*
X90950500Y-81116233D01*
X90917816Y-80951918D01*
X90853703Y-80797137D01*
X90822537Y-80750494D01*
X90760626Y-80657837D01*
X90642162Y-80539373D01*
X90502860Y-80446295D01*
X90348078Y-80382182D01*
X90342592Y-80380518D01*
X90290907Y-80349539D01*
X89890080Y-79948712D01*
X89363537Y-79422170D01*
X89330053Y-79360848D01*
X89335037Y-79291157D01*
X89376909Y-79235223D01*
X89442373Y-79210806D01*
X89507514Y-79224005D01*
X89561588Y-79251557D01*
X89763757Y-79317246D01*
X89973713Y-79350500D01*
X89973714Y-79350500D01*
X90186286Y-79350500D01*
X90186287Y-79350500D01*
X90396243Y-79317246D01*
X90598412Y-79251557D01*
X90787816Y-79155051D01*
X90874471Y-79092093D01*
X90959786Y-79030109D01*
X90959788Y-79030106D01*
X90959792Y-79030104D01*
X91110104Y-78879792D01*
X91110106Y-78879788D01*
X91110109Y-78879786D01*
X91235048Y-78707820D01*
X91235047Y-78707820D01*
X91235051Y-78707816D01*
X91239514Y-78699054D01*
X91287488Y-78648259D01*
X91355308Y-78631463D01*
X91421444Y-78653999D01*
X91460486Y-78699056D01*
X91464951Y-78707820D01*
X91589890Y-78879786D01*
X91740213Y-79030109D01*
X91912179Y-79155048D01*
X91912181Y-79155049D01*
X91912184Y-79155051D01*
X92101588Y-79251557D01*
X92303757Y-79317246D01*
X92513713Y-79350500D01*
X92513714Y-79350500D01*
X92726286Y-79350500D01*
X92726287Y-79350500D01*
X92936243Y-79317246D01*
X93138412Y-79251557D01*
X93327816Y-79155051D01*
X93414471Y-79092093D01*
X93499786Y-79030109D01*
X93499788Y-79030106D01*
X93499792Y-79030104D01*
X93650104Y-78879792D01*
X93650106Y-78879788D01*
X93650109Y-78879786D01*
X93775048Y-78707820D01*
X93775047Y-78707820D01*
X93775051Y-78707816D01*
X93779514Y-78699054D01*
X93827488Y-78648259D01*
X93895308Y-78631463D01*
X93961444Y-78653999D01*
X94000486Y-78699056D01*
X94004951Y-78707820D01*
X94129890Y-78879786D01*
X94280213Y-79030109D01*
X94452179Y-79155048D01*
X94452181Y-79155049D01*
X94452184Y-79155051D01*
X94641588Y-79251557D01*
X94843757Y-79317246D01*
X95053713Y-79350500D01*
X95053714Y-79350500D01*
X95266286Y-79350500D01*
X95266287Y-79350500D01*
X95476243Y-79317246D01*
X95678412Y-79251557D01*
X95867816Y-79155051D01*
X95954471Y-79092093D01*
X96039786Y-79030109D01*
X96039788Y-79030106D01*
X96039792Y-79030104D01*
X96190104Y-78879792D01*
X96190106Y-78879788D01*
X96190109Y-78879786D01*
X96315048Y-78707820D01*
X96315047Y-78707820D01*
X96315051Y-78707816D01*
X96319514Y-78699054D01*
X96367488Y-78648259D01*
X96435308Y-78631463D01*
X96501444Y-78653999D01*
X96540486Y-78699056D01*
X96544951Y-78707820D01*
X96669890Y-78879786D01*
X96820213Y-79030109D01*
X96992179Y-79155048D01*
X96992181Y-79155049D01*
X96992184Y-79155051D01*
X97181588Y-79251557D01*
X97383757Y-79317246D01*
X97593713Y-79350500D01*
X97593714Y-79350500D01*
X97806286Y-79350500D01*
X97806287Y-79350500D01*
X98016243Y-79317246D01*
X98218412Y-79251557D01*
X98407816Y-79155051D01*
X98494471Y-79092093D01*
X98579786Y-79030109D01*
X98579788Y-79030106D01*
X98579792Y-79030104D01*
X98730104Y-78879792D01*
X98730106Y-78879788D01*
X98730109Y-78879786D01*
X98855048Y-78707820D01*
X98855047Y-78707820D01*
X98855051Y-78707816D01*
X98859514Y-78699054D01*
X98907488Y-78648259D01*
X98975308Y-78631463D01*
X99041444Y-78653999D01*
X99080486Y-78699056D01*
X99084951Y-78707820D01*
X99209890Y-78879786D01*
X99360213Y-79030109D01*
X99532179Y-79155048D01*
X99532181Y-79155049D01*
X99532184Y-79155051D01*
X99721588Y-79251557D01*
X99923757Y-79317246D01*
X100133713Y-79350500D01*
X100133714Y-79350500D01*
X100346286Y-79350500D01*
X100346287Y-79350500D01*
X100556243Y-79317246D01*
X100758412Y-79251557D01*
X100947816Y-79155051D01*
X101034471Y-79092093D01*
X101119786Y-79030109D01*
X101119788Y-79030106D01*
X101119792Y-79030104D01*
X101270104Y-78879792D01*
X101270106Y-78879788D01*
X101270109Y-78879786D01*
X101395048Y-78707820D01*
X101395047Y-78707820D01*
X101395051Y-78707816D01*
X101399514Y-78699054D01*
X101447488Y-78648259D01*
X101515308Y-78631463D01*
X101581444Y-78653999D01*
X101620486Y-78699056D01*
X101624951Y-78707820D01*
X101749890Y-78879786D01*
X101900213Y-79030109D01*
X102072179Y-79155048D01*
X102072181Y-79155049D01*
X102072184Y-79155051D01*
X102261588Y-79251557D01*
X102463757Y-79317246D01*
X102673713Y-79350500D01*
X102673714Y-79350500D01*
X102886286Y-79350500D01*
X102886287Y-79350500D01*
X103096243Y-79317246D01*
X103298412Y-79251557D01*
X103487816Y-79155051D01*
X103574471Y-79092093D01*
X103659786Y-79030109D01*
X103659788Y-79030106D01*
X103659792Y-79030104D01*
X103810104Y-78879792D01*
X103810106Y-78879788D01*
X103810109Y-78879786D01*
X103935048Y-78707820D01*
X103935047Y-78707820D01*
X103935051Y-78707816D01*
X103939514Y-78699054D01*
X103987488Y-78648259D01*
X104055308Y-78631463D01*
X104121444Y-78653999D01*
X104160486Y-78699056D01*
X104164951Y-78707820D01*
X104289890Y-78879786D01*
X104440213Y-79030109D01*
X104612179Y-79155048D01*
X104612181Y-79155049D01*
X104612184Y-79155051D01*
X104679500Y-79189350D01*
X104801583Y-79251555D01*
X104801585Y-79251555D01*
X104801588Y-79251557D01*
X104861932Y-79271164D01*
X105003756Y-79317246D01*
X105051416Y-79324794D01*
X105111599Y-79334326D01*
X105174734Y-79364255D01*
X105179882Y-79369117D01*
X121991284Y-96180520D01*
X121991286Y-96180521D01*
X121991290Y-96180524D01*
X122128209Y-96259573D01*
X122128216Y-96259577D01*
X122280943Y-96300501D01*
X122280945Y-96300501D01*
X122446654Y-96300501D01*
X122446670Y-96300500D01*
X126913331Y-96300500D01*
X126913347Y-96300501D01*
X126920943Y-96300501D01*
X127079054Y-96300501D01*
X127079057Y-96300501D01*
X127231785Y-96259577D01*
X127281904Y-96230639D01*
X127368716Y-96180520D01*
X127480520Y-96068716D01*
X127480520Y-96068714D01*
X127490728Y-96058507D01*
X127490730Y-96058504D01*
X128758506Y-94790728D01*
X128758511Y-94790724D01*
X128768714Y-94780520D01*
X128768716Y-94780520D01*
X128880520Y-94668716D01*
X128884408Y-94661980D01*
X128938544Y-94568216D01*
X128938545Y-94568214D01*
X128959574Y-94531790D01*
X128959575Y-94531789D01*
X128959575Y-94531787D01*
X128959577Y-94531785D01*
X129000501Y-94379057D01*
X129000501Y-94220943D01*
X129000501Y-94213348D01*
X129000500Y-94213330D01*
X129000500Y-89520945D01*
X129000500Y-89520943D01*
X128959577Y-89368216D01*
X128921844Y-89302860D01*
X128880524Y-89231290D01*
X128880521Y-89231286D01*
X128880520Y-89231284D01*
X128768716Y-89119480D01*
X128768715Y-89119479D01*
X128764385Y-89115149D01*
X128764374Y-89115139D01*
X128187590Y-88538355D01*
X128187588Y-88538352D01*
X128068717Y-88419481D01*
X128068716Y-88419480D01*
X127961948Y-88357838D01*
X127961947Y-88357837D01*
X127931783Y-88340422D01*
X127875881Y-88325443D01*
X127779057Y-88299499D01*
X127620943Y-88299499D01*
X127613347Y-88299499D01*
X127613331Y-88299500D01*
X127553651Y-88299500D01*
X127486612Y-88279815D01*
X127465970Y-88263181D01*
X127442162Y-88239373D01*
X127302860Y-88146295D01*
X127148082Y-88082184D01*
X127148074Y-88082182D01*
X126983771Y-88049500D01*
X126983767Y-88049500D01*
X126816233Y-88049500D01*
X126816228Y-88049500D01*
X126651925Y-88082182D01*
X126651917Y-88082184D01*
X126497139Y-88146295D01*
X126357837Y-88239373D01*
X126239373Y-88357837D01*
X126146295Y-88497139D01*
X126082184Y-88651917D01*
X126082182Y-88651925D01*
X126049500Y-88816228D01*
X126049500Y-88983771D01*
X126082182Y-89148074D01*
X126082184Y-89148082D01*
X126146295Y-89302860D01*
X126239373Y-89442162D01*
X126357837Y-89560626D01*
X126450494Y-89622537D01*
X126497137Y-89653703D01*
X126651918Y-89717816D01*
X126816228Y-89750499D01*
X126816232Y-89750500D01*
X126816233Y-89750500D01*
X126983768Y-89750500D01*
X126983769Y-89750499D01*
X127148082Y-89717816D01*
X127302863Y-89653703D01*
X127399049Y-89589432D01*
X127465723Y-89568555D01*
X127533104Y-89587039D01*
X127555619Y-89604854D01*
X127763181Y-89812416D01*
X127796666Y-89873739D01*
X127799500Y-89900097D01*
X127799500Y-90867152D01*
X127779815Y-90934191D01*
X127727011Y-90979946D01*
X127657853Y-90989890D01*
X127594297Y-90960865D01*
X127560940Y-90914606D01*
X127553706Y-90897143D01*
X127553704Y-90897139D01*
X127533667Y-90867152D01*
X127522537Y-90850494D01*
X127460626Y-90757837D01*
X127342162Y-90639373D01*
X127202860Y-90546295D01*
X127048082Y-90482184D01*
X127048074Y-90482182D01*
X126883771Y-90449500D01*
X126883767Y-90449500D01*
X126716233Y-90449500D01*
X126716228Y-90449500D01*
X126551925Y-90482182D01*
X126551917Y-90482184D01*
X126397139Y-90546295D01*
X126257837Y-90639373D01*
X126139373Y-90757837D01*
X126046295Y-90897139D01*
X125982184Y-91051917D01*
X125982182Y-91051925D01*
X125949500Y-91216228D01*
X125949500Y-91383768D01*
X125950097Y-91389830D01*
X125947287Y-91390106D01*
X125942036Y-91447717D01*
X125899081Y-91502823D01*
X125833153Y-91525958D01*
X125765183Y-91509777D01*
X125739041Y-91489806D01*
X113616819Y-79367584D01*
X113602115Y-79340656D01*
X113585523Y-79314838D01*
X113584631Y-79308637D01*
X113583334Y-79306261D01*
X113580500Y-79279903D01*
X113580500Y-79265337D01*
X113600185Y-79198298D01*
X113644206Y-79158471D01*
X113643668Y-79157592D01*
X113647797Y-79155060D01*
X113647816Y-79155051D01*
X113739672Y-79088313D01*
X113819786Y-79030109D01*
X113819788Y-79030106D01*
X113819792Y-79030104D01*
X113970104Y-78879792D01*
X113970106Y-78879788D01*
X113970109Y-78879786D01*
X114095048Y-78707820D01*
X114095047Y-78707820D01*
X114095051Y-78707816D01*
X114099514Y-78699054D01*
X114147488Y-78648259D01*
X114215308Y-78631463D01*
X114281444Y-78653999D01*
X114320486Y-78699056D01*
X114324951Y-78707820D01*
X114449890Y-78879786D01*
X114600213Y-79030109D01*
X114772179Y-79155048D01*
X114772181Y-79155049D01*
X114772184Y-79155051D01*
X114961588Y-79251557D01*
X115163757Y-79317246D01*
X115373713Y-79350500D01*
X115373714Y-79350500D01*
X115586286Y-79350500D01*
X115586287Y-79350500D01*
X115796243Y-79317246D01*
X115998412Y-79251557D01*
X116187816Y-79155051D01*
X116274471Y-79092093D01*
X116359786Y-79030109D01*
X116359788Y-79030106D01*
X116359792Y-79030104D01*
X116510104Y-78879792D01*
X116510106Y-78879788D01*
X116510109Y-78879786D01*
X116635048Y-78707820D01*
X116635047Y-78707820D01*
X116635051Y-78707816D01*
X116639514Y-78699054D01*
X116687488Y-78648259D01*
X116755308Y-78631463D01*
X116821444Y-78653999D01*
X116860486Y-78699056D01*
X116864951Y-78707820D01*
X116989890Y-78879786D01*
X117140213Y-79030109D01*
X117312179Y-79155048D01*
X117312181Y-79155049D01*
X117312184Y-79155051D01*
X117501588Y-79251557D01*
X117703757Y-79317246D01*
X117913713Y-79350500D01*
X117913714Y-79350500D01*
X118126286Y-79350500D01*
X118126287Y-79350500D01*
X118336243Y-79317246D01*
X118538412Y-79251557D01*
X118727816Y-79155051D01*
X118814471Y-79092093D01*
X118899786Y-79030109D01*
X118899788Y-79030106D01*
X118899792Y-79030104D01*
X119050104Y-78879792D01*
X119050106Y-78879788D01*
X119050109Y-78879786D01*
X119175048Y-78707820D01*
X119175047Y-78707820D01*
X119175051Y-78707816D01*
X119179514Y-78699054D01*
X119227488Y-78648259D01*
X119295308Y-78631463D01*
X119361444Y-78653999D01*
X119400486Y-78699056D01*
X119404951Y-78707820D01*
X119529890Y-78879786D01*
X119680213Y-79030109D01*
X119852179Y-79155048D01*
X119852181Y-79155049D01*
X119852184Y-79155051D01*
X120041588Y-79251557D01*
X120243757Y-79317246D01*
X120453713Y-79350500D01*
X120453714Y-79350500D01*
X120666286Y-79350500D01*
X120666287Y-79350500D01*
X120876243Y-79317246D01*
X120918523Y-79303507D01*
X120988362Y-79301511D01*
X121044522Y-79333757D01*
X127075139Y-85364374D01*
X127075149Y-85364385D01*
X127079479Y-85368715D01*
X127079480Y-85368716D01*
X127191284Y-85480520D01*
X127278095Y-85530639D01*
X127278097Y-85530641D01*
X127316151Y-85552611D01*
X127328215Y-85559577D01*
X127480943Y-85600501D01*
X127480946Y-85600501D01*
X127646653Y-85600501D01*
X127646669Y-85600500D01*
X128446349Y-85600500D01*
X128513388Y-85620185D01*
X128534030Y-85636819D01*
X128557837Y-85660626D01*
X128650494Y-85722537D01*
X128697137Y-85753703D01*
X128851918Y-85817816D01*
X129016228Y-85850499D01*
X129016232Y-85850500D01*
X129016233Y-85850500D01*
X129183768Y-85850500D01*
X129183769Y-85850499D01*
X129348082Y-85817816D01*
X129502863Y-85753703D01*
X129642162Y-85660626D01*
X129760626Y-85542162D01*
X129853703Y-85402863D01*
X129917816Y-85248082D01*
X129950500Y-85083767D01*
X129950500Y-84916233D01*
X129917816Y-84751918D01*
X129853703Y-84597137D01*
X129822537Y-84550494D01*
X129760626Y-84457837D01*
X129642162Y-84339373D01*
X129502860Y-84246295D01*
X129348082Y-84182184D01*
X129348074Y-84182182D01*
X129183771Y-84149500D01*
X129183767Y-84149500D01*
X129016233Y-84149500D01*
X129016228Y-84149500D01*
X128851925Y-84182182D01*
X128851917Y-84182184D01*
X128697139Y-84246295D01*
X128557837Y-84339373D01*
X128557834Y-84339376D01*
X128534030Y-84363181D01*
X128472707Y-84396666D01*
X128446349Y-84399500D01*
X127860097Y-84399500D01*
X127793058Y-84379815D01*
X127772416Y-84363181D01*
X122971416Y-79562181D01*
X122937931Y-79500858D01*
X122942915Y-79431166D01*
X122984787Y-79375233D01*
X123050251Y-79350816D01*
X123059097Y-79350500D01*
X123206286Y-79350500D01*
X123206287Y-79350500D01*
X123416243Y-79317246D01*
X123618412Y-79251557D01*
X123807816Y-79155051D01*
X123894471Y-79092093D01*
X123979786Y-79030109D01*
X123979788Y-79030106D01*
X123979792Y-79030104D01*
X124130104Y-78879792D01*
X124130106Y-78879788D01*
X124130109Y-78879786D01*
X124255048Y-78707820D01*
X124255047Y-78707820D01*
X124255051Y-78707816D01*
X124259514Y-78699054D01*
X124307488Y-78648259D01*
X124375308Y-78631463D01*
X124441444Y-78653999D01*
X124480486Y-78699056D01*
X124484951Y-78707820D01*
X124609890Y-78879786D01*
X124760213Y-79030109D01*
X124932179Y-79155048D01*
X124932181Y-79155049D01*
X124932184Y-79155051D01*
X125121588Y-79251557D01*
X125323757Y-79317246D01*
X125533713Y-79350500D01*
X125533714Y-79350500D01*
X125746286Y-79350500D01*
X125746287Y-79350500D01*
X125956243Y-79317246D01*
X126158412Y-79251557D01*
X126347816Y-79155051D01*
X126434471Y-79092093D01*
X126519786Y-79030109D01*
X126519788Y-79030106D01*
X126519792Y-79030104D01*
X126670104Y-78879792D01*
X126670106Y-78879788D01*
X126670109Y-78879786D01*
X126795048Y-78707820D01*
X126795047Y-78707820D01*
X126795051Y-78707816D01*
X126799514Y-78699054D01*
X126847488Y-78648259D01*
X126915308Y-78631463D01*
X126981444Y-78653999D01*
X127020486Y-78699056D01*
X127024951Y-78707820D01*
X127149890Y-78879786D01*
X127300213Y-79030109D01*
X127472179Y-79155048D01*
X127472181Y-79155049D01*
X127472184Y-79155051D01*
X127661588Y-79251557D01*
X127863757Y-79317246D01*
X128073713Y-79350500D01*
X128073714Y-79350500D01*
X128286286Y-79350500D01*
X128286287Y-79350500D01*
X128496243Y-79317246D01*
X128698412Y-79251557D01*
X128887816Y-79155051D01*
X128974471Y-79092093D01*
X129059786Y-79030109D01*
X129059788Y-79030106D01*
X129059792Y-79030104D01*
X129210104Y-78879792D01*
X129210106Y-78879788D01*
X129210109Y-78879786D01*
X129335048Y-78707820D01*
X129335047Y-78707820D01*
X129335051Y-78707816D01*
X129339514Y-78699054D01*
X129387488Y-78648259D01*
X129455308Y-78631463D01*
X129521444Y-78653999D01*
X129560486Y-78699056D01*
X129564951Y-78707820D01*
X129689890Y-78879786D01*
X129840213Y-79030109D01*
X130012179Y-79155048D01*
X130012181Y-79155049D01*
X130012184Y-79155051D01*
X130201588Y-79251557D01*
X130403757Y-79317246D01*
X130613713Y-79350500D01*
X130613714Y-79350500D01*
X130826286Y-79350500D01*
X130826287Y-79350500D01*
X131036243Y-79317246D01*
X131238412Y-79251557D01*
X131427816Y-79155051D01*
X131514471Y-79092093D01*
X131599786Y-79030109D01*
X131599788Y-79030106D01*
X131599792Y-79030104D01*
X131750104Y-78879792D01*
X131750106Y-78879788D01*
X131750109Y-78879786D01*
X131875048Y-78707820D01*
X131875047Y-78707820D01*
X131875051Y-78707816D01*
X131879514Y-78699054D01*
X131927488Y-78648259D01*
X131995308Y-78631463D01*
X132061444Y-78653999D01*
X132100486Y-78699056D01*
X132104951Y-78707820D01*
X132229890Y-78879786D01*
X132380213Y-79030109D01*
X132552179Y-79155048D01*
X132552181Y-79155049D01*
X132552184Y-79155051D01*
X132741588Y-79251557D01*
X132943757Y-79317246D01*
X133153713Y-79350500D01*
X133153714Y-79350500D01*
X133366286Y-79350500D01*
X133366287Y-79350500D01*
X133576243Y-79317246D01*
X133778412Y-79251557D01*
X133967816Y-79155051D01*
X134054471Y-79092093D01*
X134139786Y-79030109D01*
X134139788Y-79030106D01*
X134139792Y-79030104D01*
X134290104Y-78879792D01*
X134290106Y-78879788D01*
X134290109Y-78879786D01*
X134415048Y-78707820D01*
X134415047Y-78707820D01*
X134415051Y-78707816D01*
X134511557Y-78518412D01*
X134577246Y-78316243D01*
X134610500Y-78106287D01*
X134610500Y-77893713D01*
X134577246Y-77683757D01*
X134511557Y-77481588D01*
X134415051Y-77292184D01*
X134415049Y-77292181D01*
X134415048Y-77292179D01*
X134290109Y-77120213D01*
X134139786Y-76969890D01*
X133967820Y-76844951D01*
X133778414Y-76748444D01*
X133778413Y-76748443D01*
X133778412Y-76748443D01*
X133576243Y-76682754D01*
X133576241Y-76682753D01*
X133576240Y-76682753D01*
X133414957Y-76657208D01*
X133366287Y-76649500D01*
X133153713Y-76649500D01*
X133105042Y-76657208D01*
X132943760Y-76682753D01*
X132741585Y-76748444D01*
X132552179Y-76844951D01*
X132380213Y-76969890D01*
X132229890Y-77120213D01*
X132104949Y-77292182D01*
X132100484Y-77300946D01*
X132052509Y-77351742D01*
X131984688Y-77368536D01*
X131918553Y-77345998D01*
X131879516Y-77300946D01*
X131875050Y-77292182D01*
X131750109Y-77120213D01*
X131599786Y-76969890D01*
X131427820Y-76844951D01*
X131238414Y-76748444D01*
X131238413Y-76748443D01*
X131238412Y-76748443D01*
X131036243Y-76682754D01*
X131036241Y-76682753D01*
X131036240Y-76682753D01*
X130874957Y-76657208D01*
X130826287Y-76649500D01*
X130613713Y-76649500D01*
X130565042Y-76657208D01*
X130403760Y-76682753D01*
X130201585Y-76748444D01*
X130012179Y-76844951D01*
X129840213Y-76969890D01*
X129689890Y-77120213D01*
X129564949Y-77292182D01*
X129560484Y-77300946D01*
X129512509Y-77351742D01*
X129444688Y-77368536D01*
X129378553Y-77345998D01*
X129339516Y-77300946D01*
X129335050Y-77292182D01*
X129210109Y-77120213D01*
X129059786Y-76969890D01*
X128887820Y-76844951D01*
X128698414Y-76748444D01*
X128698413Y-76748443D01*
X128698412Y-76748443D01*
X128496243Y-76682754D01*
X128496241Y-76682753D01*
X128496240Y-76682753D01*
X128334957Y-76657208D01*
X128286287Y-76649500D01*
X128073713Y-76649500D01*
X128025042Y-76657208D01*
X127863760Y-76682753D01*
X127661585Y-76748444D01*
X127472179Y-76844951D01*
X127300213Y-76969890D01*
X127149890Y-77120213D01*
X127024949Y-77292182D01*
X127020484Y-77300946D01*
X126972509Y-77351742D01*
X126904688Y-77368536D01*
X126838553Y-77345998D01*
X126799516Y-77300946D01*
X126795050Y-77292182D01*
X126670109Y-77120213D01*
X126519786Y-76969890D01*
X126347820Y-76844951D01*
X126158414Y-76748444D01*
X126158413Y-76748443D01*
X126158412Y-76748443D01*
X125956243Y-76682754D01*
X125956241Y-76682753D01*
X125956240Y-76682753D01*
X125794957Y-76657208D01*
X125746287Y-76649500D01*
X125533713Y-76649500D01*
X125485042Y-76657208D01*
X125323760Y-76682753D01*
X125121585Y-76748444D01*
X124932179Y-76844951D01*
X124760213Y-76969890D01*
X124609890Y-77120213D01*
X124484949Y-77292182D01*
X124480484Y-77300946D01*
X124432509Y-77351742D01*
X124364688Y-77368536D01*
X124298553Y-77345998D01*
X124259516Y-77300946D01*
X124255050Y-77292182D01*
X124130109Y-77120213D01*
X123979786Y-76969890D01*
X123807820Y-76844951D01*
X123618414Y-76748444D01*
X123618413Y-76748443D01*
X123618412Y-76748443D01*
X123416243Y-76682754D01*
X123416241Y-76682753D01*
X123416240Y-76682753D01*
X123254957Y-76657208D01*
X123206287Y-76649500D01*
X122993713Y-76649500D01*
X122945042Y-76657208D01*
X122783760Y-76682753D01*
X122581585Y-76748444D01*
X122392179Y-76844951D01*
X122220213Y-76969890D01*
X122069890Y-77120213D01*
X121944949Y-77292182D01*
X121940484Y-77300946D01*
X121892509Y-77351742D01*
X121824688Y-77368536D01*
X121758553Y-77345998D01*
X121719516Y-77300946D01*
X121715050Y-77292182D01*
X121590109Y-77120213D01*
X121439786Y-76969890D01*
X121267820Y-76844951D01*
X121078414Y-76748444D01*
X121078413Y-76748443D01*
X121078412Y-76748443D01*
X120876243Y-76682754D01*
X120876241Y-76682753D01*
X120876240Y-76682753D01*
X120714957Y-76657208D01*
X120666287Y-76649500D01*
X120453713Y-76649500D01*
X120405042Y-76657208D01*
X120243760Y-76682753D01*
X120041585Y-76748444D01*
X119852179Y-76844951D01*
X119680213Y-76969890D01*
X119529890Y-77120213D01*
X119404949Y-77292182D01*
X119400484Y-77300946D01*
X119352509Y-77351742D01*
X119284688Y-77368536D01*
X119218553Y-77345998D01*
X119179516Y-77300946D01*
X119175050Y-77292182D01*
X119050109Y-77120213D01*
X118899786Y-76969890D01*
X118727820Y-76844951D01*
X118538414Y-76748444D01*
X118538413Y-76748443D01*
X118538412Y-76748443D01*
X118336243Y-76682754D01*
X118336241Y-76682753D01*
X118336240Y-76682753D01*
X118174957Y-76657208D01*
X118126287Y-76649500D01*
X117913713Y-76649500D01*
X117865042Y-76657208D01*
X117703760Y-76682753D01*
X117501585Y-76748444D01*
X117312179Y-76844951D01*
X117140213Y-76969890D01*
X116989890Y-77120213D01*
X116864949Y-77292182D01*
X116860484Y-77300946D01*
X116812509Y-77351742D01*
X116744688Y-77368536D01*
X116678553Y-77345998D01*
X116639516Y-77300946D01*
X116635050Y-77292182D01*
X116510109Y-77120213D01*
X116359786Y-76969890D01*
X116187820Y-76844951D01*
X115998414Y-76748444D01*
X115998413Y-76748443D01*
X115998412Y-76748443D01*
X115796243Y-76682754D01*
X115796241Y-76682753D01*
X115796240Y-76682753D01*
X115634957Y-76657208D01*
X115586287Y-76649500D01*
X115373713Y-76649500D01*
X115325042Y-76657208D01*
X115163760Y-76682753D01*
X114961585Y-76748444D01*
X114772179Y-76844951D01*
X114600213Y-76969890D01*
X114449890Y-77120213D01*
X114324949Y-77292182D01*
X114320484Y-77300946D01*
X114272509Y-77351742D01*
X114204688Y-77368536D01*
X114138553Y-77345998D01*
X114099516Y-77300946D01*
X114095050Y-77292182D01*
X113970109Y-77120213D01*
X113819786Y-76969890D01*
X113647820Y-76844951D01*
X113458414Y-76748444D01*
X113458413Y-76748443D01*
X113458412Y-76748443D01*
X113256243Y-76682754D01*
X113256241Y-76682753D01*
X113256240Y-76682753D01*
X113094957Y-76657208D01*
X113046287Y-76649500D01*
X112833713Y-76649500D01*
X112785042Y-76657208D01*
X112623760Y-76682753D01*
X112421585Y-76748444D01*
X112232179Y-76844951D01*
X112060213Y-76969890D01*
X111909890Y-77120213D01*
X111784949Y-77292182D01*
X111780484Y-77300946D01*
X111732509Y-77351742D01*
X111664688Y-77368536D01*
X111598553Y-77345998D01*
X111559516Y-77300946D01*
X111555050Y-77292182D01*
X111430109Y-77120213D01*
X111279786Y-76969890D01*
X111107820Y-76844951D01*
X110918414Y-76748444D01*
X110918413Y-76748443D01*
X110918412Y-76748443D01*
X110716243Y-76682754D01*
X110716241Y-76682753D01*
X110716240Y-76682753D01*
X110554957Y-76657208D01*
X110506287Y-76649500D01*
X110293713Y-76649500D01*
X110245042Y-76657208D01*
X110083760Y-76682753D01*
X109881585Y-76748444D01*
X109692179Y-76844951D01*
X109520213Y-76969890D01*
X109369890Y-77120213D01*
X109244949Y-77292182D01*
X109240484Y-77300946D01*
X109192509Y-77351742D01*
X109124688Y-77368536D01*
X109058553Y-77345998D01*
X109019516Y-77300946D01*
X109015050Y-77292182D01*
X108890109Y-77120213D01*
X108739786Y-76969890D01*
X108567820Y-76844951D01*
X108378414Y-76748444D01*
X108378413Y-76748443D01*
X108378412Y-76748443D01*
X108176243Y-76682754D01*
X108176241Y-76682753D01*
X108176240Y-76682753D01*
X108014957Y-76657208D01*
X107966287Y-76649500D01*
X107753713Y-76649500D01*
X107705042Y-76657208D01*
X107543760Y-76682753D01*
X107341585Y-76748444D01*
X107152179Y-76844951D01*
X106980213Y-76969890D01*
X106829890Y-77120213D01*
X106704949Y-77292182D01*
X106700484Y-77300946D01*
X106652509Y-77351742D01*
X106584688Y-77368536D01*
X106518553Y-77345998D01*
X106479516Y-77300946D01*
X106475050Y-77292182D01*
X106350109Y-77120213D01*
X106199786Y-76969890D01*
X106027820Y-76844951D01*
X105838414Y-76748444D01*
X105838413Y-76748443D01*
X105838412Y-76748443D01*
X105636243Y-76682754D01*
X105636241Y-76682753D01*
X105636240Y-76682753D01*
X105474957Y-76657208D01*
X105426287Y-76649500D01*
X105213713Y-76649500D01*
X105165042Y-76657208D01*
X105003760Y-76682753D01*
X104801585Y-76748444D01*
X104612179Y-76844951D01*
X104440213Y-76969890D01*
X104289890Y-77120213D01*
X104164949Y-77292182D01*
X104160484Y-77300946D01*
X104112509Y-77351742D01*
X104044688Y-77368536D01*
X103978553Y-77345998D01*
X103939516Y-77300946D01*
X103935050Y-77292182D01*
X103810109Y-77120213D01*
X103659786Y-76969890D01*
X103487820Y-76844951D01*
X103298414Y-76748444D01*
X103298413Y-76748443D01*
X103298412Y-76748443D01*
X103096243Y-76682754D01*
X103096241Y-76682753D01*
X103096240Y-76682753D01*
X102934957Y-76657208D01*
X102886287Y-76649500D01*
X102673713Y-76649500D01*
X102625042Y-76657208D01*
X102463760Y-76682753D01*
X102261585Y-76748444D01*
X102072179Y-76844951D01*
X101900213Y-76969890D01*
X101749890Y-77120213D01*
X101624949Y-77292182D01*
X101620484Y-77300946D01*
X101572509Y-77351742D01*
X101504688Y-77368536D01*
X101438553Y-77345998D01*
X101399516Y-77300946D01*
X101395050Y-77292182D01*
X101270109Y-77120213D01*
X101119786Y-76969890D01*
X100947820Y-76844951D01*
X100758414Y-76748444D01*
X100758413Y-76748443D01*
X100758412Y-76748443D01*
X100556243Y-76682754D01*
X100556241Y-76682753D01*
X100556240Y-76682753D01*
X100394957Y-76657208D01*
X100346287Y-76649500D01*
X100133713Y-76649500D01*
X100085042Y-76657208D01*
X99923760Y-76682753D01*
X99721585Y-76748444D01*
X99532179Y-76844951D01*
X99360213Y-76969890D01*
X99209890Y-77120213D01*
X99084949Y-77292182D01*
X99080484Y-77300946D01*
X99032509Y-77351742D01*
X98964688Y-77368536D01*
X98898553Y-77345998D01*
X98859516Y-77300946D01*
X98855050Y-77292182D01*
X98730109Y-77120213D01*
X98579786Y-76969890D01*
X98407820Y-76844951D01*
X98218414Y-76748444D01*
X98218413Y-76748443D01*
X98218412Y-76748443D01*
X98016243Y-76682754D01*
X98016241Y-76682753D01*
X98016240Y-76682753D01*
X97854957Y-76657208D01*
X97806287Y-76649500D01*
X97593713Y-76649500D01*
X97545042Y-76657208D01*
X97383760Y-76682753D01*
X97181585Y-76748444D01*
X96992179Y-76844951D01*
X96820213Y-76969890D01*
X96669890Y-77120213D01*
X96544949Y-77292182D01*
X96540484Y-77300946D01*
X96492509Y-77351742D01*
X96424688Y-77368536D01*
X96358553Y-77345998D01*
X96319516Y-77300946D01*
X96315050Y-77292182D01*
X96190109Y-77120213D01*
X96039786Y-76969890D01*
X95867820Y-76844951D01*
X95678414Y-76748444D01*
X95678413Y-76748443D01*
X95678412Y-76748443D01*
X95476243Y-76682754D01*
X95476241Y-76682753D01*
X95476240Y-76682753D01*
X95314957Y-76657208D01*
X95266287Y-76649500D01*
X95053713Y-76649500D01*
X95005042Y-76657208D01*
X94843760Y-76682753D01*
X94641585Y-76748444D01*
X94452179Y-76844951D01*
X94280213Y-76969890D01*
X94129890Y-77120213D01*
X94004949Y-77292182D01*
X94000484Y-77300946D01*
X93952509Y-77351742D01*
X93884688Y-77368536D01*
X93818553Y-77345998D01*
X93779516Y-77300946D01*
X93775050Y-77292182D01*
X93650109Y-77120213D01*
X93499786Y-76969890D01*
X93327820Y-76844951D01*
X93138414Y-76748444D01*
X93138413Y-76748443D01*
X93138412Y-76748443D01*
X92936243Y-76682754D01*
X92936241Y-76682753D01*
X92936240Y-76682753D01*
X92774957Y-76657208D01*
X92726287Y-76649500D01*
X92513713Y-76649500D01*
X92465042Y-76657208D01*
X92303760Y-76682753D01*
X92101585Y-76748444D01*
X91912179Y-76844951D01*
X91740213Y-76969890D01*
X91589890Y-77120213D01*
X91464949Y-77292182D01*
X91460484Y-77300946D01*
X91412509Y-77351742D01*
X91344688Y-77368536D01*
X91278553Y-77345998D01*
X91239516Y-77300946D01*
X91235050Y-77292182D01*
X91110109Y-77120213D01*
X90959786Y-76969890D01*
X90787820Y-76844951D01*
X90598414Y-76748444D01*
X90598413Y-76748443D01*
X90598412Y-76748443D01*
X90396243Y-76682754D01*
X90396241Y-76682753D01*
X90396240Y-76682753D01*
X90234957Y-76657208D01*
X90186287Y-76649500D01*
X89973713Y-76649500D01*
X89925042Y-76657208D01*
X89763760Y-76682753D01*
X89561585Y-76748444D01*
X89372179Y-76844951D01*
X89200213Y-76969890D01*
X89049890Y-77120213D01*
X88924949Y-77292182D01*
X88920484Y-77300946D01*
X88872509Y-77351742D01*
X88804688Y-77368536D01*
X88738553Y-77345998D01*
X88699516Y-77300946D01*
X88695050Y-77292182D01*
X88570109Y-77120213D01*
X88419786Y-76969890D01*
X88247820Y-76844951D01*
X88058414Y-76748444D01*
X88058413Y-76748443D01*
X88058412Y-76748443D01*
X87856243Y-76682754D01*
X87856241Y-76682753D01*
X87856240Y-76682753D01*
X87694957Y-76657208D01*
X87646287Y-76649500D01*
X87433713Y-76649500D01*
X87385042Y-76657208D01*
X87223760Y-76682753D01*
X87021585Y-76748444D01*
X86832179Y-76844951D01*
X86660215Y-76969889D01*
X86546285Y-77083819D01*
X86484962Y-77117303D01*
X86415270Y-77112319D01*
X86359337Y-77070447D01*
X86342422Y-77039470D01*
X86293354Y-76907913D01*
X86293350Y-76907906D01*
X86207190Y-76792812D01*
X86207187Y-76792809D01*
X86092093Y-76706649D01*
X86092086Y-76706645D01*
X85957379Y-76656403D01*
X85957372Y-76656401D01*
X85897844Y-76650000D01*
X85250000Y-76650000D01*
X85250000Y-77566988D01*
X85192993Y-77534075D01*
X85065826Y-77500000D01*
X84934174Y-77500000D01*
X84807007Y-77534075D01*
X84750000Y-77566988D01*
X84750000Y-76650000D01*
X84102155Y-76650000D01*
X84042627Y-76656401D01*
X84042620Y-76656403D01*
X83907913Y-76706645D01*
X83907906Y-76706649D01*
X83792812Y-76792809D01*
X83792809Y-76792812D01*
X83706649Y-76907906D01*
X83706645Y-76907913D01*
X83656403Y-77042620D01*
X83656401Y-77042627D01*
X83650000Y-77102155D01*
X79500500Y-77102155D01*
X79500500Y-74624500D01*
X79520185Y-74557461D01*
X79572989Y-74511706D01*
X79624500Y-74500500D01*
X138375500Y-74500500D01*
X138442539Y-74520185D01*
G37*
%TD.AperFunction*%
%TD*%
M02*
