%TF.GenerationSoftware,KiCad,Pcbnew,9.0.5*%
%TF.CreationDate,2025-11-25T11:18:22+01:00*%
%TF.ProjectId,PTP,5054502e-6b69-4636-9164-5f7063625858,rev?*%
%TF.SameCoordinates,Original*%
%TF.FileFunction,Legend,Top*%
%TF.FilePolarity,Positive*%
%FSLAX46Y46*%
G04 Gerber Fmt 4.6, Leading zero omitted, Abs format (unit mm)*
G04 Created by KiCad (PCBNEW 9.0.5) date 2025-11-25 11:18:22*
%MOMM*%
%LPD*%
G01*
G04 APERTURE LIST*
%ADD10C,0.160000*%
%ADD11C,0.100000*%
%ADD12C,0.120000*%
G04 APERTURE END LIST*
D10*
X124280952Y-123354299D02*
X124471428Y-123354299D01*
X124471428Y-123354299D02*
X124566666Y-123401918D01*
X124566666Y-123401918D02*
X124661904Y-123497156D01*
X124661904Y-123497156D02*
X124709523Y-123687632D01*
X124709523Y-123687632D02*
X124709523Y-124020965D01*
X124709523Y-124020965D02*
X124661904Y-124211441D01*
X124661904Y-124211441D02*
X124566666Y-124306680D01*
X124566666Y-124306680D02*
X124471428Y-124354299D01*
X124471428Y-124354299D02*
X124280952Y-124354299D01*
X124280952Y-124354299D02*
X124185714Y-124306680D01*
X124185714Y-124306680D02*
X124090476Y-124211441D01*
X124090476Y-124211441D02*
X124042857Y-124020965D01*
X124042857Y-124020965D02*
X124042857Y-123687632D01*
X124042857Y-123687632D02*
X124090476Y-123497156D01*
X124090476Y-123497156D02*
X124185714Y-123401918D01*
X124185714Y-123401918D02*
X124280952Y-123354299D01*
X125138095Y-124354299D02*
X125138095Y-123354299D01*
X125138095Y-123354299D02*
X125709523Y-124354299D01*
X125709523Y-124354299D02*
X125709523Y-123354299D01*
X128743358Y-101369299D02*
X128743358Y-102178822D01*
X128743358Y-102178822D02*
X128790977Y-102274060D01*
X128790977Y-102274060D02*
X128838596Y-102321680D01*
X128838596Y-102321680D02*
X128933834Y-102369299D01*
X128933834Y-102369299D02*
X129124310Y-102369299D01*
X129124310Y-102369299D02*
X129219548Y-102321680D01*
X129219548Y-102321680D02*
X129267167Y-102274060D01*
X129267167Y-102274060D02*
X129314786Y-102178822D01*
X129314786Y-102178822D02*
X129314786Y-101369299D01*
X129743358Y-102321680D02*
X129886215Y-102369299D01*
X129886215Y-102369299D02*
X130124310Y-102369299D01*
X130124310Y-102369299D02*
X130219548Y-102321680D01*
X130219548Y-102321680D02*
X130267167Y-102274060D01*
X130267167Y-102274060D02*
X130314786Y-102178822D01*
X130314786Y-102178822D02*
X130314786Y-102083584D01*
X130314786Y-102083584D02*
X130267167Y-101988346D01*
X130267167Y-101988346D02*
X130219548Y-101940727D01*
X130219548Y-101940727D02*
X130124310Y-101893108D01*
X130124310Y-101893108D02*
X129933834Y-101845489D01*
X129933834Y-101845489D02*
X129838596Y-101797870D01*
X129838596Y-101797870D02*
X129790977Y-101750251D01*
X129790977Y-101750251D02*
X129743358Y-101655013D01*
X129743358Y-101655013D02*
X129743358Y-101559775D01*
X129743358Y-101559775D02*
X129790977Y-101464537D01*
X129790977Y-101464537D02*
X129838596Y-101416918D01*
X129838596Y-101416918D02*
X129933834Y-101369299D01*
X129933834Y-101369299D02*
X130171929Y-101369299D01*
X130171929Y-101369299D02*
X130314786Y-101416918D01*
X131076691Y-101845489D02*
X131219548Y-101893108D01*
X131219548Y-101893108D02*
X131267167Y-101940727D01*
X131267167Y-101940727D02*
X131314786Y-102035965D01*
X131314786Y-102035965D02*
X131314786Y-102178822D01*
X131314786Y-102178822D02*
X131267167Y-102274060D01*
X131267167Y-102274060D02*
X131219548Y-102321680D01*
X131219548Y-102321680D02*
X131124310Y-102369299D01*
X131124310Y-102369299D02*
X130743358Y-102369299D01*
X130743358Y-102369299D02*
X130743358Y-101369299D01*
X130743358Y-101369299D02*
X131076691Y-101369299D01*
X131076691Y-101369299D02*
X131171929Y-101416918D01*
X131171929Y-101416918D02*
X131219548Y-101464537D01*
X131219548Y-101464537D02*
X131267167Y-101559775D01*
X131267167Y-101559775D02*
X131267167Y-101655013D01*
X131267167Y-101655013D02*
X131219548Y-101750251D01*
X131219548Y-101750251D02*
X131171929Y-101797870D01*
X131171929Y-101797870D02*
X131076691Y-101845489D01*
X131076691Y-101845489D02*
X130743358Y-101845489D01*
X132505263Y-102369299D02*
X132505263Y-101369299D01*
X132505263Y-101369299D02*
X132838596Y-102083584D01*
X132838596Y-102083584D02*
X133171929Y-101369299D01*
X133171929Y-101369299D02*
X133171929Y-102369299D01*
X133648120Y-102369299D02*
X133648120Y-101369299D01*
X134124310Y-102369299D02*
X134124310Y-101369299D01*
X134124310Y-101369299D02*
X134695738Y-102369299D01*
X134695738Y-102369299D02*
X134695738Y-101369299D01*
X135171929Y-102369299D02*
X135171929Y-101369299D01*
X136743357Y-101845489D02*
X136886214Y-101893108D01*
X136886214Y-101893108D02*
X136933833Y-101940727D01*
X136933833Y-101940727D02*
X136981452Y-102035965D01*
X136981452Y-102035965D02*
X136981452Y-102178822D01*
X136981452Y-102178822D02*
X136933833Y-102274060D01*
X136933833Y-102274060D02*
X136886214Y-102321680D01*
X136886214Y-102321680D02*
X136790976Y-102369299D01*
X136790976Y-102369299D02*
X136410024Y-102369299D01*
X136410024Y-102369299D02*
X136410024Y-101369299D01*
X136410024Y-101369299D02*
X136743357Y-101369299D01*
X136743357Y-101369299D02*
X136838595Y-101416918D01*
X136838595Y-101416918D02*
X136886214Y-101464537D01*
X136886214Y-101464537D02*
X136933833Y-101559775D01*
X136933833Y-101559775D02*
X136933833Y-101655013D01*
X136933833Y-101655013D02*
X136886214Y-101750251D01*
X136886214Y-101750251D02*
X136838595Y-101797870D01*
X136838595Y-101797870D02*
X136743357Y-101845489D01*
X136743357Y-101845489D02*
X136410024Y-101845489D01*
X99526691Y-95935545D02*
X99669548Y-95983164D01*
X99669548Y-95983164D02*
X99717167Y-96030783D01*
X99717167Y-96030783D02*
X99764786Y-96126021D01*
X99764786Y-96126021D02*
X99764786Y-96268878D01*
X99764786Y-96268878D02*
X99717167Y-96364116D01*
X99717167Y-96364116D02*
X99669548Y-96411736D01*
X99669548Y-96411736D02*
X99574310Y-96459355D01*
X99574310Y-96459355D02*
X99193358Y-96459355D01*
X99193358Y-96459355D02*
X99193358Y-95459355D01*
X99193358Y-95459355D02*
X99526691Y-95459355D01*
X99526691Y-95459355D02*
X99621929Y-95506974D01*
X99621929Y-95506974D02*
X99669548Y-95554593D01*
X99669548Y-95554593D02*
X99717167Y-95649831D01*
X99717167Y-95649831D02*
X99717167Y-95745069D01*
X99717167Y-95745069D02*
X99669548Y-95840307D01*
X99669548Y-95840307D02*
X99621929Y-95887926D01*
X99621929Y-95887926D02*
X99526691Y-95935545D01*
X99526691Y-95935545D02*
X99193358Y-95935545D01*
X100383834Y-95459355D02*
X100574310Y-95459355D01*
X100574310Y-95459355D02*
X100669548Y-95506974D01*
X100669548Y-95506974D02*
X100764786Y-95602212D01*
X100764786Y-95602212D02*
X100812405Y-95792688D01*
X100812405Y-95792688D02*
X100812405Y-96126021D01*
X100812405Y-96126021D02*
X100764786Y-96316497D01*
X100764786Y-96316497D02*
X100669548Y-96411736D01*
X100669548Y-96411736D02*
X100574310Y-96459355D01*
X100574310Y-96459355D02*
X100383834Y-96459355D01*
X100383834Y-96459355D02*
X100288596Y-96411736D01*
X100288596Y-96411736D02*
X100193358Y-96316497D01*
X100193358Y-96316497D02*
X100145739Y-96126021D01*
X100145739Y-96126021D02*
X100145739Y-95792688D01*
X100145739Y-95792688D02*
X100193358Y-95602212D01*
X100193358Y-95602212D02*
X100288596Y-95506974D01*
X100288596Y-95506974D02*
X100383834Y-95459355D01*
X101431453Y-95459355D02*
X101621929Y-95459355D01*
X101621929Y-95459355D02*
X101717167Y-95506974D01*
X101717167Y-95506974D02*
X101812405Y-95602212D01*
X101812405Y-95602212D02*
X101860024Y-95792688D01*
X101860024Y-95792688D02*
X101860024Y-96126021D01*
X101860024Y-96126021D02*
X101812405Y-96316497D01*
X101812405Y-96316497D02*
X101717167Y-96411736D01*
X101717167Y-96411736D02*
X101621929Y-96459355D01*
X101621929Y-96459355D02*
X101431453Y-96459355D01*
X101431453Y-96459355D02*
X101336215Y-96411736D01*
X101336215Y-96411736D02*
X101240977Y-96316497D01*
X101240977Y-96316497D02*
X101193358Y-96126021D01*
X101193358Y-96126021D02*
X101193358Y-95792688D01*
X101193358Y-95792688D02*
X101240977Y-95602212D01*
X101240977Y-95602212D02*
X101336215Y-95506974D01*
X101336215Y-95506974D02*
X101431453Y-95459355D01*
X102145739Y-95459355D02*
X102717167Y-95459355D01*
X102431453Y-96459355D02*
X102431453Y-95459355D01*
X94285714Y-97949327D02*
X93714286Y-97949327D01*
X94000000Y-97949327D02*
X94000000Y-96949327D01*
X94000000Y-96949327D02*
X93904762Y-97092184D01*
X93904762Y-97092184D02*
X93809524Y-97187422D01*
X93809524Y-97187422D02*
X93714286Y-97235041D01*
X94000000Y-99559271D02*
X94000000Y-98797366D01*
X93809524Y-98987842D02*
X94000000Y-98797366D01*
X94000000Y-98797366D02*
X94190476Y-98987842D01*
X129239299Y-97233333D02*
X129953584Y-97233333D01*
X129953584Y-97233333D02*
X130096441Y-97280952D01*
X130096441Y-97280952D02*
X130191680Y-97376190D01*
X130191680Y-97376190D02*
X130239299Y-97519047D01*
X130239299Y-97519047D02*
X130239299Y-97614285D01*
X129334537Y-96804761D02*
X129286918Y-96757142D01*
X129286918Y-96757142D02*
X129239299Y-96661904D01*
X129239299Y-96661904D02*
X129239299Y-96423809D01*
X129239299Y-96423809D02*
X129286918Y-96328571D01*
X129286918Y-96328571D02*
X129334537Y-96280952D01*
X129334537Y-96280952D02*
X129429775Y-96233333D01*
X129429775Y-96233333D02*
X129525013Y-96233333D01*
X129525013Y-96233333D02*
X129667870Y-96280952D01*
X129667870Y-96280952D02*
X130239299Y-96852380D01*
X130239299Y-96852380D02*
X130239299Y-96233333D01*
X82074299Y-132333333D02*
X82788584Y-132333333D01*
X82788584Y-132333333D02*
X82931441Y-132380952D01*
X82931441Y-132380952D02*
X83026680Y-132476190D01*
X83026680Y-132476190D02*
X83074299Y-132619047D01*
X83074299Y-132619047D02*
X83074299Y-132714285D01*
X82407632Y-131428571D02*
X83074299Y-131428571D01*
X82026680Y-131666666D02*
X82740965Y-131904761D01*
X82740965Y-131904761D02*
X82740965Y-131285714D01*
X82074299Y-78333333D02*
X82788584Y-78333333D01*
X82788584Y-78333333D02*
X82931441Y-78380952D01*
X82931441Y-78380952D02*
X83026680Y-78476190D01*
X83026680Y-78476190D02*
X83074299Y-78619047D01*
X83074299Y-78619047D02*
X83074299Y-78714285D01*
X82074299Y-77380952D02*
X82074299Y-77857142D01*
X82074299Y-77857142D02*
X82550489Y-77904761D01*
X82550489Y-77904761D02*
X82502870Y-77857142D01*
X82502870Y-77857142D02*
X82455251Y-77761904D01*
X82455251Y-77761904D02*
X82455251Y-77523809D01*
X82455251Y-77523809D02*
X82502870Y-77428571D01*
X82502870Y-77428571D02*
X82550489Y-77380952D01*
X82550489Y-77380952D02*
X82645727Y-77333333D01*
X82645727Y-77333333D02*
X82883822Y-77333333D01*
X82883822Y-77333333D02*
X82979060Y-77380952D01*
X82979060Y-77380952D02*
X83026680Y-77428571D01*
X83026680Y-77428571D02*
X83074299Y-77523809D01*
X83074299Y-77523809D02*
X83074299Y-77761904D01*
X83074299Y-77761904D02*
X83026680Y-77857142D01*
X83026680Y-77857142D02*
X82979060Y-77904761D01*
X119357142Y-113159060D02*
X119309523Y-113206680D01*
X119309523Y-113206680D02*
X119166666Y-113254299D01*
X119166666Y-113254299D02*
X119071428Y-113254299D01*
X119071428Y-113254299D02*
X118928571Y-113206680D01*
X118928571Y-113206680D02*
X118833333Y-113111441D01*
X118833333Y-113111441D02*
X118785714Y-113016203D01*
X118785714Y-113016203D02*
X118738095Y-112825727D01*
X118738095Y-112825727D02*
X118738095Y-112682870D01*
X118738095Y-112682870D02*
X118785714Y-112492394D01*
X118785714Y-112492394D02*
X118833333Y-112397156D01*
X118833333Y-112397156D02*
X118928571Y-112301918D01*
X118928571Y-112301918D02*
X119071428Y-112254299D01*
X119071428Y-112254299D02*
X119166666Y-112254299D01*
X119166666Y-112254299D02*
X119309523Y-112301918D01*
X119309523Y-112301918D02*
X119357142Y-112349537D01*
X120309523Y-113254299D02*
X119738095Y-113254299D01*
X120023809Y-113254299D02*
X120023809Y-112254299D01*
X120023809Y-112254299D02*
X119928571Y-112397156D01*
X119928571Y-112397156D02*
X119833333Y-112492394D01*
X119833333Y-112492394D02*
X119738095Y-112540013D01*
X121214285Y-112254299D02*
X120738095Y-112254299D01*
X120738095Y-112254299D02*
X120690476Y-112730489D01*
X120690476Y-112730489D02*
X120738095Y-112682870D01*
X120738095Y-112682870D02*
X120833333Y-112635251D01*
X120833333Y-112635251D02*
X121071428Y-112635251D01*
X121071428Y-112635251D02*
X121166666Y-112682870D01*
X121166666Y-112682870D02*
X121214285Y-112730489D01*
X121214285Y-112730489D02*
X121261904Y-112825727D01*
X121261904Y-112825727D02*
X121261904Y-113063822D01*
X121261904Y-113063822D02*
X121214285Y-113159060D01*
X121214285Y-113159060D02*
X121166666Y-113206680D01*
X121166666Y-113206680D02*
X121071428Y-113254299D01*
X121071428Y-113254299D02*
X120833333Y-113254299D01*
X120833333Y-113254299D02*
X120738095Y-113206680D01*
X120738095Y-113206680D02*
X120690476Y-113159060D01*
X122433333Y-111354299D02*
X122100000Y-110878108D01*
X121861905Y-111354299D02*
X121861905Y-110354299D01*
X121861905Y-110354299D02*
X122242857Y-110354299D01*
X122242857Y-110354299D02*
X122338095Y-110401918D01*
X122338095Y-110401918D02*
X122385714Y-110449537D01*
X122385714Y-110449537D02*
X122433333Y-110544775D01*
X122433333Y-110544775D02*
X122433333Y-110687632D01*
X122433333Y-110687632D02*
X122385714Y-110782870D01*
X122385714Y-110782870D02*
X122338095Y-110830489D01*
X122338095Y-110830489D02*
X122242857Y-110878108D01*
X122242857Y-110878108D02*
X121861905Y-110878108D01*
X122766667Y-110354299D02*
X123385714Y-110354299D01*
X123385714Y-110354299D02*
X123052381Y-110735251D01*
X123052381Y-110735251D02*
X123195238Y-110735251D01*
X123195238Y-110735251D02*
X123290476Y-110782870D01*
X123290476Y-110782870D02*
X123338095Y-110830489D01*
X123338095Y-110830489D02*
X123385714Y-110925727D01*
X123385714Y-110925727D02*
X123385714Y-111163822D01*
X123385714Y-111163822D02*
X123338095Y-111259060D01*
X123338095Y-111259060D02*
X123290476Y-111306680D01*
X123290476Y-111306680D02*
X123195238Y-111354299D01*
X123195238Y-111354299D02*
X122909524Y-111354299D01*
X122909524Y-111354299D02*
X122814286Y-111306680D01*
X122814286Y-111306680D02*
X122766667Y-111259060D01*
X98554166Y-116155489D02*
X98220833Y-116155489D01*
X98220833Y-116679299D02*
X98220833Y-115679299D01*
X98220833Y-115679299D02*
X98697023Y-115679299D01*
X99411309Y-116155489D02*
X99554166Y-116203108D01*
X99554166Y-116203108D02*
X99601785Y-116250727D01*
X99601785Y-116250727D02*
X99649404Y-116345965D01*
X99649404Y-116345965D02*
X99649404Y-116488822D01*
X99649404Y-116488822D02*
X99601785Y-116584060D01*
X99601785Y-116584060D02*
X99554166Y-116631680D01*
X99554166Y-116631680D02*
X99458928Y-116679299D01*
X99458928Y-116679299D02*
X99077976Y-116679299D01*
X99077976Y-116679299D02*
X99077976Y-115679299D01*
X99077976Y-115679299D02*
X99411309Y-115679299D01*
X99411309Y-115679299D02*
X99506547Y-115726918D01*
X99506547Y-115726918D02*
X99554166Y-115774537D01*
X99554166Y-115774537D02*
X99601785Y-115869775D01*
X99601785Y-115869775D02*
X99601785Y-115965013D01*
X99601785Y-115965013D02*
X99554166Y-116060251D01*
X99554166Y-116060251D02*
X99506547Y-116107870D01*
X99506547Y-116107870D02*
X99411309Y-116155489D01*
X99411309Y-116155489D02*
X99077976Y-116155489D01*
X100601785Y-116679299D02*
X100030357Y-116679299D01*
X100316071Y-116679299D02*
X100316071Y-115679299D01*
X100316071Y-115679299D02*
X100220833Y-115822156D01*
X100220833Y-115822156D02*
X100125595Y-115917394D01*
X100125595Y-115917394D02*
X100030357Y-115965013D01*
X101757142Y-111709060D02*
X101709523Y-111756680D01*
X101709523Y-111756680D02*
X101566666Y-111804299D01*
X101566666Y-111804299D02*
X101471428Y-111804299D01*
X101471428Y-111804299D02*
X101328571Y-111756680D01*
X101328571Y-111756680D02*
X101233333Y-111661441D01*
X101233333Y-111661441D02*
X101185714Y-111566203D01*
X101185714Y-111566203D02*
X101138095Y-111375727D01*
X101138095Y-111375727D02*
X101138095Y-111232870D01*
X101138095Y-111232870D02*
X101185714Y-111042394D01*
X101185714Y-111042394D02*
X101233333Y-110947156D01*
X101233333Y-110947156D02*
X101328571Y-110851918D01*
X101328571Y-110851918D02*
X101471428Y-110804299D01*
X101471428Y-110804299D02*
X101566666Y-110804299D01*
X101566666Y-110804299D02*
X101709523Y-110851918D01*
X101709523Y-110851918D02*
X101757142Y-110899537D01*
X102709523Y-111804299D02*
X102138095Y-111804299D01*
X102423809Y-111804299D02*
X102423809Y-110804299D01*
X102423809Y-110804299D02*
X102328571Y-110947156D01*
X102328571Y-110947156D02*
X102233333Y-111042394D01*
X102233333Y-111042394D02*
X102138095Y-111090013D01*
X103661904Y-111804299D02*
X103090476Y-111804299D01*
X103376190Y-111804299D02*
X103376190Y-110804299D01*
X103376190Y-110804299D02*
X103280952Y-110947156D01*
X103280952Y-110947156D02*
X103185714Y-111042394D01*
X103185714Y-111042394D02*
X103090476Y-111090013D01*
X96733333Y-113754299D02*
X96400000Y-113278108D01*
X96161905Y-113754299D02*
X96161905Y-112754299D01*
X96161905Y-112754299D02*
X96542857Y-112754299D01*
X96542857Y-112754299D02*
X96638095Y-112801918D01*
X96638095Y-112801918D02*
X96685714Y-112849537D01*
X96685714Y-112849537D02*
X96733333Y-112944775D01*
X96733333Y-112944775D02*
X96733333Y-113087632D01*
X96733333Y-113087632D02*
X96685714Y-113182870D01*
X96685714Y-113182870D02*
X96638095Y-113230489D01*
X96638095Y-113230489D02*
X96542857Y-113278108D01*
X96542857Y-113278108D02*
X96161905Y-113278108D01*
X97114286Y-112849537D02*
X97161905Y-112801918D01*
X97161905Y-112801918D02*
X97257143Y-112754299D01*
X97257143Y-112754299D02*
X97495238Y-112754299D01*
X97495238Y-112754299D02*
X97590476Y-112801918D01*
X97590476Y-112801918D02*
X97638095Y-112849537D01*
X97638095Y-112849537D02*
X97685714Y-112944775D01*
X97685714Y-112944775D02*
X97685714Y-113040013D01*
X97685714Y-113040013D02*
X97638095Y-113182870D01*
X97638095Y-113182870D02*
X97066667Y-113754299D01*
X97066667Y-113754299D02*
X97685714Y-113754299D01*
X96233333Y-110979060D02*
X96185714Y-111026680D01*
X96185714Y-111026680D02*
X96042857Y-111074299D01*
X96042857Y-111074299D02*
X95947619Y-111074299D01*
X95947619Y-111074299D02*
X95804762Y-111026680D01*
X95804762Y-111026680D02*
X95709524Y-110931441D01*
X95709524Y-110931441D02*
X95661905Y-110836203D01*
X95661905Y-110836203D02*
X95614286Y-110645727D01*
X95614286Y-110645727D02*
X95614286Y-110502870D01*
X95614286Y-110502870D02*
X95661905Y-110312394D01*
X95661905Y-110312394D02*
X95709524Y-110217156D01*
X95709524Y-110217156D02*
X95804762Y-110121918D01*
X95804762Y-110121918D02*
X95947619Y-110074299D01*
X95947619Y-110074299D02*
X96042857Y-110074299D01*
X96042857Y-110074299D02*
X96185714Y-110121918D01*
X96185714Y-110121918D02*
X96233333Y-110169537D01*
X96709524Y-111074299D02*
X96900000Y-111074299D01*
X96900000Y-111074299D02*
X96995238Y-111026680D01*
X96995238Y-111026680D02*
X97042857Y-110979060D01*
X97042857Y-110979060D02*
X97138095Y-110836203D01*
X97138095Y-110836203D02*
X97185714Y-110645727D01*
X97185714Y-110645727D02*
X97185714Y-110264775D01*
X97185714Y-110264775D02*
X97138095Y-110169537D01*
X97138095Y-110169537D02*
X97090476Y-110121918D01*
X97090476Y-110121918D02*
X96995238Y-110074299D01*
X96995238Y-110074299D02*
X96804762Y-110074299D01*
X96804762Y-110074299D02*
X96709524Y-110121918D01*
X96709524Y-110121918D02*
X96661905Y-110169537D01*
X96661905Y-110169537D02*
X96614286Y-110264775D01*
X96614286Y-110264775D02*
X96614286Y-110502870D01*
X96614286Y-110502870D02*
X96661905Y-110598108D01*
X96661905Y-110598108D02*
X96709524Y-110645727D01*
X96709524Y-110645727D02*
X96804762Y-110693346D01*
X96804762Y-110693346D02*
X96995238Y-110693346D01*
X96995238Y-110693346D02*
X97090476Y-110645727D01*
X97090476Y-110645727D02*
X97138095Y-110598108D01*
X97138095Y-110598108D02*
X97185714Y-110502870D01*
X125263095Y-105654299D02*
X125263095Y-106463822D01*
X125263095Y-106463822D02*
X125310714Y-106559060D01*
X125310714Y-106559060D02*
X125358333Y-106606680D01*
X125358333Y-106606680D02*
X125453571Y-106654299D01*
X125453571Y-106654299D02*
X125644047Y-106654299D01*
X125644047Y-106654299D02*
X125739285Y-106606680D01*
X125739285Y-106606680D02*
X125786904Y-106559060D01*
X125786904Y-106559060D02*
X125834523Y-106463822D01*
X125834523Y-106463822D02*
X125834523Y-105654299D01*
X126263095Y-105749537D02*
X126310714Y-105701918D01*
X126310714Y-105701918D02*
X126405952Y-105654299D01*
X126405952Y-105654299D02*
X126644047Y-105654299D01*
X126644047Y-105654299D02*
X126739285Y-105701918D01*
X126739285Y-105701918D02*
X126786904Y-105749537D01*
X126786904Y-105749537D02*
X126834523Y-105844775D01*
X126834523Y-105844775D02*
X126834523Y-105940013D01*
X126834523Y-105940013D02*
X126786904Y-106082870D01*
X126786904Y-106082870D02*
X126215476Y-106654299D01*
X126215476Y-106654299D02*
X126834523Y-106654299D01*
X117053160Y-115960457D02*
X117100780Y-116008076D01*
X117100780Y-116008076D02*
X117148399Y-116150933D01*
X117148399Y-116150933D02*
X117148399Y-116246171D01*
X117148399Y-116246171D02*
X117100780Y-116389028D01*
X117100780Y-116389028D02*
X117005541Y-116484266D01*
X117005541Y-116484266D02*
X116910303Y-116531885D01*
X116910303Y-116531885D02*
X116719827Y-116579504D01*
X116719827Y-116579504D02*
X116576970Y-116579504D01*
X116576970Y-116579504D02*
X116386494Y-116531885D01*
X116386494Y-116531885D02*
X116291256Y-116484266D01*
X116291256Y-116484266D02*
X116196018Y-116389028D01*
X116196018Y-116389028D02*
X116148399Y-116246171D01*
X116148399Y-116246171D02*
X116148399Y-116150933D01*
X116148399Y-116150933D02*
X116196018Y-116008076D01*
X116196018Y-116008076D02*
X116243637Y-115960457D01*
X117148399Y-115008076D02*
X117148399Y-115579504D01*
X117148399Y-115293790D02*
X116148399Y-115293790D01*
X116148399Y-115293790D02*
X116291256Y-115389028D01*
X116291256Y-115389028D02*
X116386494Y-115484266D01*
X116386494Y-115484266D02*
X116434113Y-115579504D01*
X116148399Y-114150933D02*
X116148399Y-114341409D01*
X116148399Y-114341409D02*
X116196018Y-114436647D01*
X116196018Y-114436647D02*
X116243637Y-114484266D01*
X116243637Y-114484266D02*
X116386494Y-114579504D01*
X116386494Y-114579504D02*
X116576970Y-114627123D01*
X116576970Y-114627123D02*
X116957922Y-114627123D01*
X116957922Y-114627123D02*
X117053160Y-114579504D01*
X117053160Y-114579504D02*
X117100780Y-114531885D01*
X117100780Y-114531885D02*
X117148399Y-114436647D01*
X117148399Y-114436647D02*
X117148399Y-114246171D01*
X117148399Y-114246171D02*
X117100780Y-114150933D01*
X117100780Y-114150933D02*
X117053160Y-114103314D01*
X117053160Y-114103314D02*
X116957922Y-114055695D01*
X116957922Y-114055695D02*
X116719827Y-114055695D01*
X116719827Y-114055695D02*
X116624589Y-114103314D01*
X116624589Y-114103314D02*
X116576970Y-114150933D01*
X116576970Y-114150933D02*
X116529351Y-114246171D01*
X116529351Y-114246171D02*
X116529351Y-114436647D01*
X116529351Y-114436647D02*
X116576970Y-114531885D01*
X116576970Y-114531885D02*
X116624589Y-114579504D01*
X116624589Y-114579504D02*
X116719827Y-114627123D01*
X130320833Y-120444299D02*
X129987500Y-119968108D01*
X129749405Y-120444299D02*
X129749405Y-119444299D01*
X129749405Y-119444299D02*
X130130357Y-119444299D01*
X130130357Y-119444299D02*
X130225595Y-119491918D01*
X130225595Y-119491918D02*
X130273214Y-119539537D01*
X130273214Y-119539537D02*
X130320833Y-119634775D01*
X130320833Y-119634775D02*
X130320833Y-119777632D01*
X130320833Y-119777632D02*
X130273214Y-119872870D01*
X130273214Y-119872870D02*
X130225595Y-119920489D01*
X130225595Y-119920489D02*
X130130357Y-119968108D01*
X130130357Y-119968108D02*
X129749405Y-119968108D01*
X130654167Y-119444299D02*
X131320833Y-119444299D01*
X131320833Y-119444299D02*
X130892262Y-120444299D01*
X99420833Y-114259060D02*
X99373214Y-114306680D01*
X99373214Y-114306680D02*
X99230357Y-114354299D01*
X99230357Y-114354299D02*
X99135119Y-114354299D01*
X99135119Y-114354299D02*
X98992262Y-114306680D01*
X98992262Y-114306680D02*
X98897024Y-114211441D01*
X98897024Y-114211441D02*
X98849405Y-114116203D01*
X98849405Y-114116203D02*
X98801786Y-113925727D01*
X98801786Y-113925727D02*
X98801786Y-113782870D01*
X98801786Y-113782870D02*
X98849405Y-113592394D01*
X98849405Y-113592394D02*
X98897024Y-113497156D01*
X98897024Y-113497156D02*
X98992262Y-113401918D01*
X98992262Y-113401918D02*
X99135119Y-113354299D01*
X99135119Y-113354299D02*
X99230357Y-113354299D01*
X99230357Y-113354299D02*
X99373214Y-113401918D01*
X99373214Y-113401918D02*
X99420833Y-113449537D01*
X99992262Y-113782870D02*
X99897024Y-113735251D01*
X99897024Y-113735251D02*
X99849405Y-113687632D01*
X99849405Y-113687632D02*
X99801786Y-113592394D01*
X99801786Y-113592394D02*
X99801786Y-113544775D01*
X99801786Y-113544775D02*
X99849405Y-113449537D01*
X99849405Y-113449537D02*
X99897024Y-113401918D01*
X99897024Y-113401918D02*
X99992262Y-113354299D01*
X99992262Y-113354299D02*
X100182738Y-113354299D01*
X100182738Y-113354299D02*
X100277976Y-113401918D01*
X100277976Y-113401918D02*
X100325595Y-113449537D01*
X100325595Y-113449537D02*
X100373214Y-113544775D01*
X100373214Y-113544775D02*
X100373214Y-113592394D01*
X100373214Y-113592394D02*
X100325595Y-113687632D01*
X100325595Y-113687632D02*
X100277976Y-113735251D01*
X100277976Y-113735251D02*
X100182738Y-113782870D01*
X100182738Y-113782870D02*
X99992262Y-113782870D01*
X99992262Y-113782870D02*
X99897024Y-113830489D01*
X99897024Y-113830489D02*
X99849405Y-113878108D01*
X99849405Y-113878108D02*
X99801786Y-113973346D01*
X99801786Y-113973346D02*
X99801786Y-114163822D01*
X99801786Y-114163822D02*
X99849405Y-114259060D01*
X99849405Y-114259060D02*
X99897024Y-114306680D01*
X99897024Y-114306680D02*
X99992262Y-114354299D01*
X99992262Y-114354299D02*
X100182738Y-114354299D01*
X100182738Y-114354299D02*
X100277976Y-114306680D01*
X100277976Y-114306680D02*
X100325595Y-114259060D01*
X100325595Y-114259060D02*
X100373214Y-114163822D01*
X100373214Y-114163822D02*
X100373214Y-113973346D01*
X100373214Y-113973346D02*
X100325595Y-113878108D01*
X100325595Y-113878108D02*
X100277976Y-113830489D01*
X100277976Y-113830489D02*
X100182738Y-113782870D01*
X102557142Y-106209060D02*
X102509523Y-106256680D01*
X102509523Y-106256680D02*
X102366666Y-106304299D01*
X102366666Y-106304299D02*
X102271428Y-106304299D01*
X102271428Y-106304299D02*
X102128571Y-106256680D01*
X102128571Y-106256680D02*
X102033333Y-106161441D01*
X102033333Y-106161441D02*
X101985714Y-106066203D01*
X101985714Y-106066203D02*
X101938095Y-105875727D01*
X101938095Y-105875727D02*
X101938095Y-105732870D01*
X101938095Y-105732870D02*
X101985714Y-105542394D01*
X101985714Y-105542394D02*
X102033333Y-105447156D01*
X102033333Y-105447156D02*
X102128571Y-105351918D01*
X102128571Y-105351918D02*
X102271428Y-105304299D01*
X102271428Y-105304299D02*
X102366666Y-105304299D01*
X102366666Y-105304299D02*
X102509523Y-105351918D01*
X102509523Y-105351918D02*
X102557142Y-105399537D01*
X103509523Y-106304299D02*
X102938095Y-106304299D01*
X103223809Y-106304299D02*
X103223809Y-105304299D01*
X103223809Y-105304299D02*
X103128571Y-105447156D01*
X103128571Y-105447156D02*
X103033333Y-105542394D01*
X103033333Y-105542394D02*
X102938095Y-105590013D01*
X104128571Y-105304299D02*
X104223809Y-105304299D01*
X104223809Y-105304299D02*
X104319047Y-105351918D01*
X104319047Y-105351918D02*
X104366666Y-105399537D01*
X104366666Y-105399537D02*
X104414285Y-105494775D01*
X104414285Y-105494775D02*
X104461904Y-105685251D01*
X104461904Y-105685251D02*
X104461904Y-105923346D01*
X104461904Y-105923346D02*
X104414285Y-106113822D01*
X104414285Y-106113822D02*
X104366666Y-106209060D01*
X104366666Y-106209060D02*
X104319047Y-106256680D01*
X104319047Y-106256680D02*
X104223809Y-106304299D01*
X104223809Y-106304299D02*
X104128571Y-106304299D01*
X104128571Y-106304299D02*
X104033333Y-106256680D01*
X104033333Y-106256680D02*
X103985714Y-106209060D01*
X103985714Y-106209060D02*
X103938095Y-106113822D01*
X103938095Y-106113822D02*
X103890476Y-105923346D01*
X103890476Y-105923346D02*
X103890476Y-105685251D01*
X103890476Y-105685251D02*
X103938095Y-105494775D01*
X103938095Y-105494775D02*
X103985714Y-105399537D01*
X103985714Y-105399537D02*
X104033333Y-105351918D01*
X104033333Y-105351918D02*
X104128571Y-105304299D01*
X106733333Y-104109060D02*
X106685714Y-104156680D01*
X106685714Y-104156680D02*
X106542857Y-104204299D01*
X106542857Y-104204299D02*
X106447619Y-104204299D01*
X106447619Y-104204299D02*
X106304762Y-104156680D01*
X106304762Y-104156680D02*
X106209524Y-104061441D01*
X106209524Y-104061441D02*
X106161905Y-103966203D01*
X106161905Y-103966203D02*
X106114286Y-103775727D01*
X106114286Y-103775727D02*
X106114286Y-103632870D01*
X106114286Y-103632870D02*
X106161905Y-103442394D01*
X106161905Y-103442394D02*
X106209524Y-103347156D01*
X106209524Y-103347156D02*
X106304762Y-103251918D01*
X106304762Y-103251918D02*
X106447619Y-103204299D01*
X106447619Y-103204299D02*
X106542857Y-103204299D01*
X106542857Y-103204299D02*
X106685714Y-103251918D01*
X106685714Y-103251918D02*
X106733333Y-103299537D01*
X107114286Y-103299537D02*
X107161905Y-103251918D01*
X107161905Y-103251918D02*
X107257143Y-103204299D01*
X107257143Y-103204299D02*
X107495238Y-103204299D01*
X107495238Y-103204299D02*
X107590476Y-103251918D01*
X107590476Y-103251918D02*
X107638095Y-103299537D01*
X107638095Y-103299537D02*
X107685714Y-103394775D01*
X107685714Y-103394775D02*
X107685714Y-103490013D01*
X107685714Y-103490013D02*
X107638095Y-103632870D01*
X107638095Y-103632870D02*
X107066667Y-104204299D01*
X107066667Y-104204299D02*
X107685714Y-104204299D01*
X121808333Y-106954299D02*
X121475000Y-106478108D01*
X121236905Y-106954299D02*
X121236905Y-105954299D01*
X121236905Y-105954299D02*
X121617857Y-105954299D01*
X121617857Y-105954299D02*
X121713095Y-106001918D01*
X121713095Y-106001918D02*
X121760714Y-106049537D01*
X121760714Y-106049537D02*
X121808333Y-106144775D01*
X121808333Y-106144775D02*
X121808333Y-106287632D01*
X121808333Y-106287632D02*
X121760714Y-106382870D01*
X121760714Y-106382870D02*
X121713095Y-106430489D01*
X121713095Y-106430489D02*
X121617857Y-106478108D01*
X121617857Y-106478108D02*
X121236905Y-106478108D01*
X122665476Y-106287632D02*
X122665476Y-106954299D01*
X122427381Y-105906680D02*
X122189286Y-106620965D01*
X122189286Y-106620965D02*
X122808333Y-106620965D01*
X105133333Y-114659060D02*
X105085714Y-114706680D01*
X105085714Y-114706680D02*
X104942857Y-114754299D01*
X104942857Y-114754299D02*
X104847619Y-114754299D01*
X104847619Y-114754299D02*
X104704762Y-114706680D01*
X104704762Y-114706680D02*
X104609524Y-114611441D01*
X104609524Y-114611441D02*
X104561905Y-114516203D01*
X104561905Y-114516203D02*
X104514286Y-114325727D01*
X104514286Y-114325727D02*
X104514286Y-114182870D01*
X104514286Y-114182870D02*
X104561905Y-113992394D01*
X104561905Y-113992394D02*
X104609524Y-113897156D01*
X104609524Y-113897156D02*
X104704762Y-113801918D01*
X104704762Y-113801918D02*
X104847619Y-113754299D01*
X104847619Y-113754299D02*
X104942857Y-113754299D01*
X104942857Y-113754299D02*
X105085714Y-113801918D01*
X105085714Y-113801918D02*
X105133333Y-113849537D01*
X105466667Y-113754299D02*
X106133333Y-113754299D01*
X106133333Y-113754299D02*
X105704762Y-114754299D01*
X112333333Y-116359060D02*
X112285714Y-116406680D01*
X112285714Y-116406680D02*
X112142857Y-116454299D01*
X112142857Y-116454299D02*
X112047619Y-116454299D01*
X112047619Y-116454299D02*
X111904762Y-116406680D01*
X111904762Y-116406680D02*
X111809524Y-116311441D01*
X111809524Y-116311441D02*
X111761905Y-116216203D01*
X111761905Y-116216203D02*
X111714286Y-116025727D01*
X111714286Y-116025727D02*
X111714286Y-115882870D01*
X111714286Y-115882870D02*
X111761905Y-115692394D01*
X111761905Y-115692394D02*
X111809524Y-115597156D01*
X111809524Y-115597156D02*
X111904762Y-115501918D01*
X111904762Y-115501918D02*
X112047619Y-115454299D01*
X112047619Y-115454299D02*
X112142857Y-115454299D01*
X112142857Y-115454299D02*
X112285714Y-115501918D01*
X112285714Y-115501918D02*
X112333333Y-115549537D01*
X113238095Y-115454299D02*
X112761905Y-115454299D01*
X112761905Y-115454299D02*
X112714286Y-115930489D01*
X112714286Y-115930489D02*
X112761905Y-115882870D01*
X112761905Y-115882870D02*
X112857143Y-115835251D01*
X112857143Y-115835251D02*
X113095238Y-115835251D01*
X113095238Y-115835251D02*
X113190476Y-115882870D01*
X113190476Y-115882870D02*
X113238095Y-115930489D01*
X113238095Y-115930489D02*
X113285714Y-116025727D01*
X113285714Y-116025727D02*
X113285714Y-116263822D01*
X113285714Y-116263822D02*
X113238095Y-116359060D01*
X113238095Y-116359060D02*
X113190476Y-116406680D01*
X113190476Y-116406680D02*
X113095238Y-116454299D01*
X113095238Y-116454299D02*
X112857143Y-116454299D01*
X112857143Y-116454299D02*
X112761905Y-116406680D01*
X112761905Y-116406680D02*
X112714286Y-116359060D01*
X99273809Y-105678108D02*
X99273809Y-106154299D01*
X98940476Y-105154299D02*
X99273809Y-105678108D01*
X99273809Y-105678108D02*
X99607142Y-105154299D01*
X100464285Y-106154299D02*
X99892857Y-106154299D01*
X100178571Y-106154299D02*
X100178571Y-105154299D01*
X100178571Y-105154299D02*
X100083333Y-105297156D01*
X100083333Y-105297156D02*
X99988095Y-105392394D01*
X99988095Y-105392394D02*
X99892857Y-105440013D01*
X106445833Y-102359060D02*
X106398214Y-102406680D01*
X106398214Y-102406680D02*
X106255357Y-102454299D01*
X106255357Y-102454299D02*
X106160119Y-102454299D01*
X106160119Y-102454299D02*
X106017262Y-102406680D01*
X106017262Y-102406680D02*
X105922024Y-102311441D01*
X105922024Y-102311441D02*
X105874405Y-102216203D01*
X105874405Y-102216203D02*
X105826786Y-102025727D01*
X105826786Y-102025727D02*
X105826786Y-101882870D01*
X105826786Y-101882870D02*
X105874405Y-101692394D01*
X105874405Y-101692394D02*
X105922024Y-101597156D01*
X105922024Y-101597156D02*
X106017262Y-101501918D01*
X106017262Y-101501918D02*
X106160119Y-101454299D01*
X106160119Y-101454299D02*
X106255357Y-101454299D01*
X106255357Y-101454299D02*
X106398214Y-101501918D01*
X106398214Y-101501918D02*
X106445833Y-101549537D01*
X107398214Y-102454299D02*
X106826786Y-102454299D01*
X107112500Y-102454299D02*
X107112500Y-101454299D01*
X107112500Y-101454299D02*
X107017262Y-101597156D01*
X107017262Y-101597156D02*
X106922024Y-101692394D01*
X106922024Y-101692394D02*
X106826786Y-101740013D01*
X104308333Y-96954299D02*
X103975000Y-96478108D01*
X103736905Y-96954299D02*
X103736905Y-95954299D01*
X103736905Y-95954299D02*
X104117857Y-95954299D01*
X104117857Y-95954299D02*
X104213095Y-96001918D01*
X104213095Y-96001918D02*
X104260714Y-96049537D01*
X104260714Y-96049537D02*
X104308333Y-96144775D01*
X104308333Y-96144775D02*
X104308333Y-96287632D01*
X104308333Y-96287632D02*
X104260714Y-96382870D01*
X104260714Y-96382870D02*
X104213095Y-96430489D01*
X104213095Y-96430489D02*
X104117857Y-96478108D01*
X104117857Y-96478108D02*
X103736905Y-96478108D01*
X105260714Y-96954299D02*
X104689286Y-96954299D01*
X104975000Y-96954299D02*
X104975000Y-95954299D01*
X104975000Y-95954299D02*
X104879762Y-96097156D01*
X104879762Y-96097156D02*
X104784524Y-96192394D01*
X104784524Y-96192394D02*
X104689286Y-96240013D01*
X105133333Y-110579060D02*
X105085714Y-110626680D01*
X105085714Y-110626680D02*
X104942857Y-110674299D01*
X104942857Y-110674299D02*
X104847619Y-110674299D01*
X104847619Y-110674299D02*
X104704762Y-110626680D01*
X104704762Y-110626680D02*
X104609524Y-110531441D01*
X104609524Y-110531441D02*
X104561905Y-110436203D01*
X104561905Y-110436203D02*
X104514286Y-110245727D01*
X104514286Y-110245727D02*
X104514286Y-110102870D01*
X104514286Y-110102870D02*
X104561905Y-109912394D01*
X104561905Y-109912394D02*
X104609524Y-109817156D01*
X104609524Y-109817156D02*
X104704762Y-109721918D01*
X104704762Y-109721918D02*
X104847619Y-109674299D01*
X104847619Y-109674299D02*
X104942857Y-109674299D01*
X104942857Y-109674299D02*
X105085714Y-109721918D01*
X105085714Y-109721918D02*
X105133333Y-109769537D01*
X105990476Y-109674299D02*
X105800000Y-109674299D01*
X105800000Y-109674299D02*
X105704762Y-109721918D01*
X105704762Y-109721918D02*
X105657143Y-109769537D01*
X105657143Y-109769537D02*
X105561905Y-109912394D01*
X105561905Y-109912394D02*
X105514286Y-110102870D01*
X105514286Y-110102870D02*
X105514286Y-110483822D01*
X105514286Y-110483822D02*
X105561905Y-110579060D01*
X105561905Y-110579060D02*
X105609524Y-110626680D01*
X105609524Y-110626680D02*
X105704762Y-110674299D01*
X105704762Y-110674299D02*
X105895238Y-110674299D01*
X105895238Y-110674299D02*
X105990476Y-110626680D01*
X105990476Y-110626680D02*
X106038095Y-110579060D01*
X106038095Y-110579060D02*
X106085714Y-110483822D01*
X106085714Y-110483822D02*
X106085714Y-110245727D01*
X106085714Y-110245727D02*
X106038095Y-110150489D01*
X106038095Y-110150489D02*
X105990476Y-110102870D01*
X105990476Y-110102870D02*
X105895238Y-110055251D01*
X105895238Y-110055251D02*
X105704762Y-110055251D01*
X105704762Y-110055251D02*
X105609524Y-110102870D01*
X105609524Y-110102870D02*
X105561905Y-110150489D01*
X105561905Y-110150489D02*
X105514286Y-110245727D01*
X126859060Y-122042857D02*
X126906680Y-122090476D01*
X126906680Y-122090476D02*
X126954299Y-122233333D01*
X126954299Y-122233333D02*
X126954299Y-122328571D01*
X126954299Y-122328571D02*
X126906680Y-122471428D01*
X126906680Y-122471428D02*
X126811441Y-122566666D01*
X126811441Y-122566666D02*
X126716203Y-122614285D01*
X126716203Y-122614285D02*
X126525727Y-122661904D01*
X126525727Y-122661904D02*
X126382870Y-122661904D01*
X126382870Y-122661904D02*
X126192394Y-122614285D01*
X126192394Y-122614285D02*
X126097156Y-122566666D01*
X126097156Y-122566666D02*
X126001918Y-122471428D01*
X126001918Y-122471428D02*
X125954299Y-122328571D01*
X125954299Y-122328571D02*
X125954299Y-122233333D01*
X125954299Y-122233333D02*
X126001918Y-122090476D01*
X126001918Y-122090476D02*
X126049537Y-122042857D01*
X126954299Y-121090476D02*
X126954299Y-121661904D01*
X126954299Y-121376190D02*
X125954299Y-121376190D01*
X125954299Y-121376190D02*
X126097156Y-121471428D01*
X126097156Y-121471428D02*
X126192394Y-121566666D01*
X126192394Y-121566666D02*
X126240013Y-121661904D01*
X126287632Y-120233333D02*
X126954299Y-120233333D01*
X125906680Y-120471428D02*
X126620965Y-120709523D01*
X126620965Y-120709523D02*
X126620965Y-120090476D01*
X120861905Y-124354299D02*
X120861905Y-123354299D01*
X120861905Y-123354299D02*
X121100000Y-123354299D01*
X121100000Y-123354299D02*
X121242857Y-123401918D01*
X121242857Y-123401918D02*
X121338095Y-123497156D01*
X121338095Y-123497156D02*
X121385714Y-123592394D01*
X121385714Y-123592394D02*
X121433333Y-123782870D01*
X121433333Y-123782870D02*
X121433333Y-123925727D01*
X121433333Y-123925727D02*
X121385714Y-124116203D01*
X121385714Y-124116203D02*
X121338095Y-124211441D01*
X121338095Y-124211441D02*
X121242857Y-124306680D01*
X121242857Y-124306680D02*
X121100000Y-124354299D01*
X121100000Y-124354299D02*
X120861905Y-124354299D01*
X122385714Y-124354299D02*
X121814286Y-124354299D01*
X122100000Y-124354299D02*
X122100000Y-123354299D01*
X122100000Y-123354299D02*
X122004762Y-123497156D01*
X122004762Y-123497156D02*
X121909524Y-123592394D01*
X121909524Y-123592394D02*
X121814286Y-123640013D01*
X85466666Y-112694299D02*
X85466666Y-113408584D01*
X85466666Y-113408584D02*
X85419047Y-113551441D01*
X85419047Y-113551441D02*
X85323809Y-113646680D01*
X85323809Y-113646680D02*
X85180952Y-113694299D01*
X85180952Y-113694299D02*
X85085714Y-113694299D01*
X85847619Y-112694299D02*
X86466666Y-112694299D01*
X86466666Y-112694299D02*
X86133333Y-113075251D01*
X86133333Y-113075251D02*
X86276190Y-113075251D01*
X86276190Y-113075251D02*
X86371428Y-113122870D01*
X86371428Y-113122870D02*
X86419047Y-113170489D01*
X86419047Y-113170489D02*
X86466666Y-113265727D01*
X86466666Y-113265727D02*
X86466666Y-113503822D01*
X86466666Y-113503822D02*
X86419047Y-113599060D01*
X86419047Y-113599060D02*
X86371428Y-113646680D01*
X86371428Y-113646680D02*
X86276190Y-113694299D01*
X86276190Y-113694299D02*
X85990476Y-113694299D01*
X85990476Y-113694299D02*
X85895238Y-113646680D01*
X85895238Y-113646680D02*
X85847619Y-113599060D01*
X105333333Y-108409060D02*
X105285714Y-108456680D01*
X105285714Y-108456680D02*
X105142857Y-108504299D01*
X105142857Y-108504299D02*
X105047619Y-108504299D01*
X105047619Y-108504299D02*
X104904762Y-108456680D01*
X104904762Y-108456680D02*
X104809524Y-108361441D01*
X104809524Y-108361441D02*
X104761905Y-108266203D01*
X104761905Y-108266203D02*
X104714286Y-108075727D01*
X104714286Y-108075727D02*
X104714286Y-107932870D01*
X104714286Y-107932870D02*
X104761905Y-107742394D01*
X104761905Y-107742394D02*
X104809524Y-107647156D01*
X104809524Y-107647156D02*
X104904762Y-107551918D01*
X104904762Y-107551918D02*
X105047619Y-107504299D01*
X105047619Y-107504299D02*
X105142857Y-107504299D01*
X105142857Y-107504299D02*
X105285714Y-107551918D01*
X105285714Y-107551918D02*
X105333333Y-107599537D01*
X105666667Y-107504299D02*
X106285714Y-107504299D01*
X106285714Y-107504299D02*
X105952381Y-107885251D01*
X105952381Y-107885251D02*
X106095238Y-107885251D01*
X106095238Y-107885251D02*
X106190476Y-107932870D01*
X106190476Y-107932870D02*
X106238095Y-107980489D01*
X106238095Y-107980489D02*
X106285714Y-108075727D01*
X106285714Y-108075727D02*
X106285714Y-108313822D01*
X106285714Y-108313822D02*
X106238095Y-108409060D01*
X106238095Y-108409060D02*
X106190476Y-108456680D01*
X106190476Y-108456680D02*
X106095238Y-108504299D01*
X106095238Y-108504299D02*
X105809524Y-108504299D01*
X105809524Y-108504299D02*
X105714286Y-108456680D01*
X105714286Y-108456680D02*
X105666667Y-108409060D01*
X122038095Y-119354299D02*
X122038095Y-120163822D01*
X122038095Y-120163822D02*
X122085714Y-120259060D01*
X122085714Y-120259060D02*
X122133333Y-120306680D01*
X122133333Y-120306680D02*
X122228571Y-120354299D01*
X122228571Y-120354299D02*
X122419047Y-120354299D01*
X122419047Y-120354299D02*
X122514285Y-120306680D01*
X122514285Y-120306680D02*
X122561904Y-120259060D01*
X122561904Y-120259060D02*
X122609523Y-120163822D01*
X122609523Y-120163822D02*
X122609523Y-119354299D01*
X122990476Y-119354299D02*
X123609523Y-119354299D01*
X123609523Y-119354299D02*
X123276190Y-119735251D01*
X123276190Y-119735251D02*
X123419047Y-119735251D01*
X123419047Y-119735251D02*
X123514285Y-119782870D01*
X123514285Y-119782870D02*
X123561904Y-119830489D01*
X123561904Y-119830489D02*
X123609523Y-119925727D01*
X123609523Y-119925727D02*
X123609523Y-120163822D01*
X123609523Y-120163822D02*
X123561904Y-120259060D01*
X123561904Y-120259060D02*
X123514285Y-120306680D01*
X123514285Y-120306680D02*
X123419047Y-120354299D01*
X123419047Y-120354299D02*
X123133333Y-120354299D01*
X123133333Y-120354299D02*
X123038095Y-120306680D01*
X123038095Y-120306680D02*
X122990476Y-120259060D01*
X118461905Y-121154299D02*
X118461905Y-120154299D01*
X118461905Y-120154299D02*
X118700000Y-120154299D01*
X118700000Y-120154299D02*
X118842857Y-120201918D01*
X118842857Y-120201918D02*
X118938095Y-120297156D01*
X118938095Y-120297156D02*
X118985714Y-120392394D01*
X118985714Y-120392394D02*
X119033333Y-120582870D01*
X119033333Y-120582870D02*
X119033333Y-120725727D01*
X119033333Y-120725727D02*
X118985714Y-120916203D01*
X118985714Y-120916203D02*
X118938095Y-121011441D01*
X118938095Y-121011441D02*
X118842857Y-121106680D01*
X118842857Y-121106680D02*
X118700000Y-121154299D01*
X118700000Y-121154299D02*
X118461905Y-121154299D01*
X119414286Y-120249537D02*
X119461905Y-120201918D01*
X119461905Y-120201918D02*
X119557143Y-120154299D01*
X119557143Y-120154299D02*
X119795238Y-120154299D01*
X119795238Y-120154299D02*
X119890476Y-120201918D01*
X119890476Y-120201918D02*
X119938095Y-120249537D01*
X119938095Y-120249537D02*
X119985714Y-120344775D01*
X119985714Y-120344775D02*
X119985714Y-120440013D01*
X119985714Y-120440013D02*
X119938095Y-120582870D01*
X119938095Y-120582870D02*
X119366667Y-121154299D01*
X119366667Y-121154299D02*
X119985714Y-121154299D01*
X115908333Y-125884299D02*
X115575000Y-125408108D01*
X115336905Y-125884299D02*
X115336905Y-124884299D01*
X115336905Y-124884299D02*
X115717857Y-124884299D01*
X115717857Y-124884299D02*
X115813095Y-124931918D01*
X115813095Y-124931918D02*
X115860714Y-124979537D01*
X115860714Y-124979537D02*
X115908333Y-125074775D01*
X115908333Y-125074775D02*
X115908333Y-125217632D01*
X115908333Y-125217632D02*
X115860714Y-125312870D01*
X115860714Y-125312870D02*
X115813095Y-125360489D01*
X115813095Y-125360489D02*
X115717857Y-125408108D01*
X115717857Y-125408108D02*
X115336905Y-125408108D01*
X116813095Y-124884299D02*
X116336905Y-124884299D01*
X116336905Y-124884299D02*
X116289286Y-125360489D01*
X116289286Y-125360489D02*
X116336905Y-125312870D01*
X116336905Y-125312870D02*
X116432143Y-125265251D01*
X116432143Y-125265251D02*
X116670238Y-125265251D01*
X116670238Y-125265251D02*
X116765476Y-125312870D01*
X116765476Y-125312870D02*
X116813095Y-125360489D01*
X116813095Y-125360489D02*
X116860714Y-125455727D01*
X116860714Y-125455727D02*
X116860714Y-125693822D01*
X116860714Y-125693822D02*
X116813095Y-125789060D01*
X116813095Y-125789060D02*
X116765476Y-125836680D01*
X116765476Y-125836680D02*
X116670238Y-125884299D01*
X116670238Y-125884299D02*
X116432143Y-125884299D01*
X116432143Y-125884299D02*
X116336905Y-125836680D01*
X116336905Y-125836680D02*
X116289286Y-125789060D01*
X126870833Y-113594299D02*
X126537500Y-113118108D01*
X126299405Y-113594299D02*
X126299405Y-112594299D01*
X126299405Y-112594299D02*
X126680357Y-112594299D01*
X126680357Y-112594299D02*
X126775595Y-112641918D01*
X126775595Y-112641918D02*
X126823214Y-112689537D01*
X126823214Y-112689537D02*
X126870833Y-112784775D01*
X126870833Y-112784775D02*
X126870833Y-112927632D01*
X126870833Y-112927632D02*
X126823214Y-113022870D01*
X126823214Y-113022870D02*
X126775595Y-113070489D01*
X126775595Y-113070489D02*
X126680357Y-113118108D01*
X126680357Y-113118108D02*
X126299405Y-113118108D01*
X127727976Y-112594299D02*
X127537500Y-112594299D01*
X127537500Y-112594299D02*
X127442262Y-112641918D01*
X127442262Y-112641918D02*
X127394643Y-112689537D01*
X127394643Y-112689537D02*
X127299405Y-112832394D01*
X127299405Y-112832394D02*
X127251786Y-113022870D01*
X127251786Y-113022870D02*
X127251786Y-113403822D01*
X127251786Y-113403822D02*
X127299405Y-113499060D01*
X127299405Y-113499060D02*
X127347024Y-113546680D01*
X127347024Y-113546680D02*
X127442262Y-113594299D01*
X127442262Y-113594299D02*
X127632738Y-113594299D01*
X127632738Y-113594299D02*
X127727976Y-113546680D01*
X127727976Y-113546680D02*
X127775595Y-113499060D01*
X127775595Y-113499060D02*
X127823214Y-113403822D01*
X127823214Y-113403822D02*
X127823214Y-113165727D01*
X127823214Y-113165727D02*
X127775595Y-113070489D01*
X127775595Y-113070489D02*
X127727976Y-113022870D01*
X127727976Y-113022870D02*
X127632738Y-112975251D01*
X127632738Y-112975251D02*
X127442262Y-112975251D01*
X127442262Y-112975251D02*
X127347024Y-113022870D01*
X127347024Y-113022870D02*
X127299405Y-113070489D01*
X127299405Y-113070489D02*
X127251786Y-113165727D01*
X129659060Y-116642857D02*
X129706680Y-116690476D01*
X129706680Y-116690476D02*
X129754299Y-116833333D01*
X129754299Y-116833333D02*
X129754299Y-116928571D01*
X129754299Y-116928571D02*
X129706680Y-117071428D01*
X129706680Y-117071428D02*
X129611441Y-117166666D01*
X129611441Y-117166666D02*
X129516203Y-117214285D01*
X129516203Y-117214285D02*
X129325727Y-117261904D01*
X129325727Y-117261904D02*
X129182870Y-117261904D01*
X129182870Y-117261904D02*
X128992394Y-117214285D01*
X128992394Y-117214285D02*
X128897156Y-117166666D01*
X128897156Y-117166666D02*
X128801918Y-117071428D01*
X128801918Y-117071428D02*
X128754299Y-116928571D01*
X128754299Y-116928571D02*
X128754299Y-116833333D01*
X128754299Y-116833333D02*
X128801918Y-116690476D01*
X128801918Y-116690476D02*
X128849537Y-116642857D01*
X129754299Y-115690476D02*
X129754299Y-116261904D01*
X129754299Y-115976190D02*
X128754299Y-115976190D01*
X128754299Y-115976190D02*
X128897156Y-116071428D01*
X128897156Y-116071428D02*
X128992394Y-116166666D01*
X128992394Y-116166666D02*
X129040013Y-116261904D01*
X128754299Y-115357142D02*
X128754299Y-114738095D01*
X128754299Y-114738095D02*
X129135251Y-115071428D01*
X129135251Y-115071428D02*
X129135251Y-114928571D01*
X129135251Y-114928571D02*
X129182870Y-114833333D01*
X129182870Y-114833333D02*
X129230489Y-114785714D01*
X129230489Y-114785714D02*
X129325727Y-114738095D01*
X129325727Y-114738095D02*
X129563822Y-114738095D01*
X129563822Y-114738095D02*
X129659060Y-114785714D01*
X129659060Y-114785714D02*
X129706680Y-114833333D01*
X129706680Y-114833333D02*
X129754299Y-114928571D01*
X129754299Y-114928571D02*
X129754299Y-115214285D01*
X129754299Y-115214285D02*
X129706680Y-115309523D01*
X129706680Y-115309523D02*
X129659060Y-115357142D01*
X122457142Y-113159060D02*
X122409523Y-113206680D01*
X122409523Y-113206680D02*
X122266666Y-113254299D01*
X122266666Y-113254299D02*
X122171428Y-113254299D01*
X122171428Y-113254299D02*
X122028571Y-113206680D01*
X122028571Y-113206680D02*
X121933333Y-113111441D01*
X121933333Y-113111441D02*
X121885714Y-113016203D01*
X121885714Y-113016203D02*
X121838095Y-112825727D01*
X121838095Y-112825727D02*
X121838095Y-112682870D01*
X121838095Y-112682870D02*
X121885714Y-112492394D01*
X121885714Y-112492394D02*
X121933333Y-112397156D01*
X121933333Y-112397156D02*
X122028571Y-112301918D01*
X122028571Y-112301918D02*
X122171428Y-112254299D01*
X122171428Y-112254299D02*
X122266666Y-112254299D01*
X122266666Y-112254299D02*
X122409523Y-112301918D01*
X122409523Y-112301918D02*
X122457142Y-112349537D01*
X123409523Y-113254299D02*
X122838095Y-113254299D01*
X123123809Y-113254299D02*
X123123809Y-112254299D01*
X123123809Y-112254299D02*
X123028571Y-112397156D01*
X123028571Y-112397156D02*
X122933333Y-112492394D01*
X122933333Y-112492394D02*
X122838095Y-112540013D01*
X123790476Y-112349537D02*
X123838095Y-112301918D01*
X123838095Y-112301918D02*
X123933333Y-112254299D01*
X123933333Y-112254299D02*
X124171428Y-112254299D01*
X124171428Y-112254299D02*
X124266666Y-112301918D01*
X124266666Y-112301918D02*
X124314285Y-112349537D01*
X124314285Y-112349537D02*
X124361904Y-112444775D01*
X124361904Y-112444775D02*
X124361904Y-112540013D01*
X124361904Y-112540013D02*
X124314285Y-112682870D01*
X124314285Y-112682870D02*
X123742857Y-113254299D01*
X123742857Y-113254299D02*
X124361904Y-113254299D01*
X112638095Y-103254299D02*
X112638095Y-104063822D01*
X112638095Y-104063822D02*
X112685714Y-104159060D01*
X112685714Y-104159060D02*
X112733333Y-104206680D01*
X112733333Y-104206680D02*
X112828571Y-104254299D01*
X112828571Y-104254299D02*
X113019047Y-104254299D01*
X113019047Y-104254299D02*
X113114285Y-104206680D01*
X113114285Y-104206680D02*
X113161904Y-104159060D01*
X113161904Y-104159060D02*
X113209523Y-104063822D01*
X113209523Y-104063822D02*
X113209523Y-103254299D01*
X114209523Y-104254299D02*
X113638095Y-104254299D01*
X113923809Y-104254299D02*
X113923809Y-103254299D01*
X113923809Y-103254299D02*
X113828571Y-103397156D01*
X113828571Y-103397156D02*
X113733333Y-103492394D01*
X113733333Y-103492394D02*
X113638095Y-103540013D01*
D11*
%TO.C,J2*%
X133215000Y-95505000D02*
X129785000Y-95505000D01*
X129785000Y-86605000D02*
X133215000Y-86605000D01*
D12*
%TO.C,J4*%
X83620000Y-133380000D02*
X83620000Y-132000000D01*
X85000000Y-133380000D02*
X83620000Y-133380000D01*
X86270000Y-133380000D02*
X134640000Y-133380000D01*
X86270000Y-133380000D02*
X86270000Y-130620000D01*
X134640000Y-133380000D02*
X134640000Y-130620000D01*
X86270000Y-130620000D02*
X134640000Y-130620000D01*
%TO.C,J5*%
X83620000Y-79380000D02*
X83620000Y-78000000D01*
X85000000Y-79380000D02*
X83620000Y-79380000D01*
X86270000Y-79380000D02*
X134640000Y-79380000D01*
X86270000Y-79380000D02*
X86270000Y-76620000D01*
X134640000Y-79380000D02*
X134640000Y-76620000D01*
X86270000Y-76620000D02*
X134640000Y-76620000D01*
%TO.C,C15*%
X120516600Y-114855436D02*
X120516600Y-114639764D01*
X119796600Y-114855436D02*
X119796600Y-114639764D01*
%TO.C,R3*%
X121737742Y-110022500D02*
X122212258Y-110022500D01*
X121737742Y-108977500D02*
X122212258Y-108977500D01*
%TO.C,FB1*%
X102727064Y-116935000D02*
X102272936Y-116935000D01*
X102727064Y-115465000D02*
X102272936Y-115465000D01*
%TO.C,C11*%
X102490000Y-109857836D02*
X102490000Y-109642164D01*
X103210000Y-109857836D02*
X103210000Y-109642164D01*
%TO.C,R2*%
X96737742Y-114177500D02*
X97212258Y-114177500D01*
X96737742Y-115222500D02*
X97212258Y-115222500D01*
%TO.C,C4*%
X117240000Y-107072164D02*
X117240000Y-107287836D01*
X117960000Y-107072164D02*
X117960000Y-107287836D01*
%TO.C,C9*%
X98240000Y-111692164D02*
X98240000Y-111907836D01*
X98960000Y-111692164D02*
X98960000Y-111907836D01*
%TO.C,U2*%
X124677500Y-107190000D02*
X126497500Y-107190000D01*
X124677500Y-107240000D02*
X124677500Y-107190000D01*
X124677500Y-110310000D02*
X124677500Y-110260000D01*
X126497500Y-107190000D02*
X126497500Y-107240000D01*
X126497500Y-110260000D02*
X126497500Y-110310000D01*
X126497500Y-110310000D02*
X124677500Y-110310000D01*
X127277500Y-110590000D02*
X126797500Y-110590000D01*
X127037500Y-110260000D01*
X127277500Y-110590000D01*
G36*
X127277500Y-110590000D02*
G01*
X126797500Y-110590000D01*
X127037500Y-110260000D01*
X127277500Y-110590000D01*
G37*
%TO.C,C16*%
X117421600Y-115994664D02*
X117421600Y-115540536D01*
X118891600Y-115994664D02*
X118891600Y-115540536D01*
%TO.C,J1*%
X130790000Y-106590000D02*
X130790000Y-105350000D01*
X130790000Y-106600000D02*
X130392500Y-106600000D01*
X130790000Y-110810000D02*
X130360000Y-110810000D01*
X130790000Y-112000000D02*
X130790000Y-110810000D01*
X135700000Y-105100000D02*
X133050000Y-105100000D01*
X135700000Y-112300000D02*
X133000000Y-112300000D01*
%TO.C,R7*%
X127552500Y-120367064D02*
X127552500Y-119912936D01*
X129022500Y-120367064D02*
X129022500Y-119912936D01*
%TO.C,C8*%
X101910000Y-113740580D02*
X101910000Y-113459420D01*
X100890000Y-113740580D02*
X100890000Y-113459420D01*
%TO.C,C10*%
X102490000Y-107607836D02*
X102490000Y-107392164D01*
X103210000Y-107607836D02*
X103210000Y-107392164D01*
%TO.C,C2*%
X109012164Y-103440000D02*
X109227836Y-103440000D01*
X109012164Y-104160000D02*
X109227836Y-104160000D01*
%TO.C,R4*%
X121737742Y-107477500D02*
X122212258Y-107477500D01*
X121737742Y-108522500D02*
X122212258Y-108522500D01*
%TO.C,C7*%
X104210000Y-113765580D02*
X104210000Y-113484420D01*
X103190000Y-113765580D02*
X103190000Y-113484420D01*
%TO.C,C5*%
X114527836Y-115340000D02*
X114312164Y-115340000D01*
X114527836Y-116060000D02*
X114312164Y-116060000D01*
%TO.C,Y1*%
X98840000Y-106540000D02*
X98840000Y-110660000D01*
X102260000Y-106540000D02*
X98840000Y-106540000D01*
%TO.C,C1*%
X108872936Y-101265000D02*
X109327064Y-101265000D01*
X108872936Y-102735000D02*
X109327064Y-102735000D01*
%TO.C,R1*%
X104262742Y-97677500D02*
X104737258Y-97677500D01*
X104262742Y-98722500D02*
X104737258Y-98722500D01*
%TO.C,C6*%
X105860000Y-111727836D02*
X105860000Y-111512164D01*
X105140000Y-111727836D02*
X105140000Y-111512164D01*
%TO.C,C14*%
X125377500Y-117325436D02*
X125377500Y-117779564D01*
X126847500Y-117325436D02*
X126847500Y-117779564D01*
%TO.C,D1*%
X121800000Y-123035000D02*
X125685000Y-123035000D01*
X125685000Y-120765000D02*
X121800000Y-120765000D01*
X125685000Y-123035000D02*
X125685000Y-120765000D01*
%TO.C,J3*%
X87180000Y-112240000D02*
X85800000Y-112240000D01*
X87180000Y-110860000D02*
X87180000Y-112240000D01*
X84420000Y-109590000D02*
X84420000Y-96780000D01*
X87180000Y-109590000D02*
X84420000Y-109590000D01*
X87180000Y-109590000D02*
X87180000Y-96780000D01*
X87180000Y-96780000D02*
X84420000Y-96780000D01*
%TO.C,C3*%
X105440000Y-106627836D02*
X105440000Y-106412164D01*
X106160000Y-106627836D02*
X106160000Y-106412164D01*
%TO.C,U3*%
X121952500Y-115930000D02*
X123772500Y-115930000D01*
X121952500Y-115980000D02*
X121952500Y-115930000D01*
X121952500Y-117880000D02*
X121952500Y-117100000D01*
X121952500Y-119050000D02*
X121952500Y-119000000D01*
X123772500Y-115930000D02*
X123772500Y-115980000D01*
X123772500Y-119000000D02*
X123772500Y-119050000D01*
X123772500Y-119050000D02*
X121952500Y-119050000D01*
X124552500Y-119330000D02*
X124072500Y-119330000D01*
X124312500Y-119000000D01*
X124552500Y-119330000D01*
G36*
X124552500Y-119330000D02*
G01*
X124072500Y-119330000D01*
X124312500Y-119000000D01*
X124552500Y-119330000D01*
G37*
%TO.C,D2*%
X117590000Y-118150000D02*
X117590000Y-119850000D01*
X117590000Y-118150000D02*
X120250000Y-118150000D01*
X117590000Y-119850000D02*
X120250000Y-119850000D01*
%TO.C,R5*%
X116312258Y-124522500D02*
X115837742Y-124522500D01*
X116312258Y-123477500D02*
X115837742Y-123477500D01*
%TO.C,R6*%
X125435436Y-113805000D02*
X125889564Y-113805000D01*
X125435436Y-115275000D02*
X125889564Y-115275000D01*
%TO.C,C13*%
X127502500Y-116262164D02*
X127502500Y-116477836D01*
X128222500Y-116262164D02*
X128222500Y-116477836D01*
%TO.C,C12*%
X122640000Y-114412164D02*
X122640000Y-114627836D01*
X123360000Y-114412164D02*
X123360000Y-114627836D01*
%TO.C,SW1*%
D11*
X97600000Y-96800000D02*
X96800000Y-96800000D01*
X96800000Y-98200000D01*
X97600000Y-98200000D01*
X97600000Y-96800000D01*
X97700000Y-96700000D02*
X96700000Y-96700000D01*
X96700000Y-99700000D01*
X97700000Y-99700000D01*
X97700000Y-96700000D01*
X98950000Y-93700000D02*
X95450000Y-93700000D01*
X95450000Y-102700000D01*
X98950000Y-102700000D01*
X98950000Y-93700000D01*
D12*
%TO.C,U1*%
X108040000Y-106140000D02*
X108490000Y-106140000D01*
X108040000Y-106590000D02*
X108040000Y-106140000D01*
X108040000Y-113360000D02*
X108040000Y-112910000D01*
X108490000Y-113360000D02*
X108040000Y-113360000D01*
X114810000Y-106140000D02*
X115260000Y-106140000D01*
X115260000Y-106140000D02*
X115260000Y-106590000D01*
X115260000Y-112910000D02*
X115260000Y-113360000D01*
X115260000Y-113360000D02*
X114810000Y-113360000D01*
X107400000Y-106590000D02*
X107060000Y-106120000D01*
X107740000Y-106120000D01*
X107400000Y-106590000D01*
G36*
X107400000Y-106590000D02*
G01*
X107060000Y-106120000D01*
X107740000Y-106120000D01*
X107400000Y-106590000D01*
G37*
%TD*%
M02*
