%TF.GenerationSoftware,KiCad,Pcbnew,9.0.5*%
%TF.CreationDate,2025-11-25T11:18:21+01:00*%
%TF.ProjectId,PTP,5054502e-6b69-4636-9164-5f7063625858,rev?*%
%TF.SameCoordinates,Original*%
%TF.FileFunction,Copper,L1,Top*%
%TF.FilePolarity,Positive*%
%FSLAX46Y46*%
G04 Gerber Fmt 4.6, Leading zero omitted, Abs format (unit mm)*
G04 Created by KiCad (PCBNEW 9.0.5) date 2025-11-25 11:18:21*
%MOMM*%
%LPD*%
G01*
G04 APERTURE LIST*
G04 Aperture macros list*
%AMRoundRect*
0 Rectangle with rounded corners*
0 $1 Rounding radius*
0 $2 $3 $4 $5 $6 $7 $8 $9 X,Y pos of 4 corners*
0 Add a 4 corners polygon primitive as box body*
4,1,4,$2,$3,$4,$5,$6,$7,$8,$9,$2,$3,0*
0 Add four circle primitives for the rounded corners*
1,1,$1+$1,$2,$3*
1,1,$1+$1,$4,$5*
1,1,$1+$1,$6,$7*
1,1,$1+$1,$8,$9*
0 Add four rect primitives between the rounded corners*
20,1,$1+$1,$2,$3,$4,$5,0*
20,1,$1+$1,$4,$5,$6,$7,0*
20,1,$1+$1,$6,$7,$8,$9,0*
20,1,$1+$1,$8,$9,$2,$3,0*%
G04 Aperture macros list end*
%TA.AperFunction,SMDPad,CuDef*%
%ADD10RoundRect,0.111000X1.284000X-0.259000X1.284000X0.259000X-1.284000X0.259000X-1.284000X-0.259000X0*%
%TD*%
%TA.AperFunction,ComponentPad*%
%ADD11R,1.700000X1.700000*%
%TD*%
%TA.AperFunction,ComponentPad*%
%ADD12C,1.700000*%
%TD*%
%TA.AperFunction,SMDPad,CuDef*%
%ADD13RoundRect,0.140000X0.170000X-0.140000X0.170000X0.140000X-0.170000X0.140000X-0.170000X-0.140000X0*%
%TD*%
%TA.AperFunction,SMDPad,CuDef*%
%ADD14RoundRect,0.200000X-0.200000X-0.275000X0.200000X-0.275000X0.200000X0.275000X-0.200000X0.275000X0*%
%TD*%
%TA.AperFunction,SMDPad,CuDef*%
%ADD15RoundRect,0.250000X0.262500X0.450000X-0.262500X0.450000X-0.262500X-0.450000X0.262500X-0.450000X0*%
%TD*%
%TA.AperFunction,SMDPad,CuDef*%
%ADD16RoundRect,0.140000X-0.170000X0.140000X-0.170000X-0.140000X0.170000X-0.140000X0.170000X0.140000X0*%
%TD*%
%TA.AperFunction,SMDPad,CuDef*%
%ADD17RoundRect,0.150000X0.512500X0.150000X-0.512500X0.150000X-0.512500X-0.150000X0.512500X-0.150000X0*%
%TD*%
%TA.AperFunction,SMDPad,CuDef*%
%ADD18RoundRect,0.250000X0.450000X-0.262500X0.450000X0.262500X-0.450000X0.262500X-0.450000X-0.262500X0*%
%TD*%
%TA.AperFunction,SMDPad,CuDef*%
%ADD19R,2.300000X0.500000*%
%TD*%
%TA.AperFunction,SMDPad,CuDef*%
%ADD20R,2.299996X0.500000*%
%TD*%
%TA.AperFunction,SMDPad,CuDef*%
%ADD21R,2.500000X2.000000*%
%TD*%
%TA.AperFunction,SMDPad,CuDef*%
%ADD22R,2.500000X1.999992*%
%TD*%
%TA.AperFunction,SMDPad,CuDef*%
%ADD23RoundRect,0.225000X0.250000X-0.225000X0.250000X0.225000X-0.250000X0.225000X-0.250000X-0.225000X0*%
%TD*%
%TA.AperFunction,SMDPad,CuDef*%
%ADD24RoundRect,0.140000X-0.140000X-0.170000X0.140000X-0.170000X0.140000X0.170000X-0.140000X0.170000X0*%
%TD*%
%TA.AperFunction,SMDPad,CuDef*%
%ADD25RoundRect,0.140000X0.140000X0.170000X-0.140000X0.170000X-0.140000X-0.170000X0.140000X-0.170000X0*%
%TD*%
%TA.AperFunction,SMDPad,CuDef*%
%ADD26RoundRect,0.250000X-0.350000X0.450000X-0.350000X-0.450000X0.350000X-0.450000X0.350000X0.450000X0*%
%TD*%
%TA.AperFunction,SMDPad,CuDef*%
%ADD27RoundRect,0.250000X-0.262500X-0.450000X0.262500X-0.450000X0.262500X0.450000X-0.262500X0.450000X0*%
%TD*%
%TA.AperFunction,SMDPad,CuDef*%
%ADD28RoundRect,0.250000X-0.450000X0.262500X-0.450000X-0.262500X0.450000X-0.262500X0.450000X0.262500X0*%
%TD*%
%TA.AperFunction,SMDPad,CuDef*%
%ADD29RoundRect,0.250000X0.375000X0.625000X-0.375000X0.625000X-0.375000X-0.625000X0.375000X-0.625000X0*%
%TD*%
%TA.AperFunction,SMDPad,CuDef*%
%ADD30RoundRect,0.112500X-0.187500X-0.112500X0.187500X-0.112500X0.187500X0.112500X-0.187500X0.112500X0*%
%TD*%
%TA.AperFunction,SMDPad,CuDef*%
%ADD31RoundRect,0.200000X0.200000X0.275000X-0.200000X0.275000X-0.200000X-0.275000X0.200000X-0.275000X0*%
%TD*%
%TA.AperFunction,SMDPad,CuDef*%
%ADD32RoundRect,0.050000X-0.800000X0.450000X-0.800000X-0.450000X0.800000X-0.450000X0.800000X0.450000X0*%
%TD*%
%TA.AperFunction,SMDPad,CuDef*%
%ADD33RoundRect,0.075000X-0.662500X-0.075000X0.662500X-0.075000X0.662500X0.075000X-0.662500X0.075000X0*%
%TD*%
%TA.AperFunction,SMDPad,CuDef*%
%ADD34RoundRect,0.075000X-0.075000X-0.662500X0.075000X-0.662500X0.075000X0.662500X-0.075000X0.662500X0*%
%TD*%
%TA.AperFunction,ViaPad*%
%ADD35C,0.700000*%
%TD*%
%TA.AperFunction,Conductor*%
%ADD36C,0.300000*%
%TD*%
%TA.AperFunction,Conductor*%
%ADD37C,0.200000*%
%TD*%
%TA.AperFunction,Conductor*%
%ADD38C,0.500000*%
%TD*%
G04 APERTURE END LIST*
D10*
%TO.P,J2,1,NC*%
%TO.N,unconnected-(J2-NC-Pad1)*%
X133535000Y-94870000D03*
%TO.P,J2,2,NC*%
%TO.N,unconnected-(J2-NC-Pad2)*%
X129465000Y-94870000D03*
%TO.P,J2,3,VCC*%
%TO.N,+3V3*%
X133535000Y-93600000D03*
%TO.P,J2,4,JTMS/SWDIO*%
%TO.N,/SWDIO*%
X129465000Y-93600000D03*
%TO.P,J2,5,GND*%
%TO.N,GND*%
X133535000Y-92330000D03*
%TO.P,J2,6,JCLK/SWCLK*%
%TO.N,/SWCLK*%
X129465000Y-92330000D03*
%TO.P,J2,7,GND*%
%TO.N,GND*%
X133535000Y-91055000D03*
%TO.P,J2,8,JTDO/SWO*%
%TO.N,/PB3(SWO)*%
X129465000Y-91060000D03*
%TO.P,J2,9,JRCLK/NC*%
%TO.N,unconnected-(J2-JRCLK{slash}NC-Pad9)*%
X133535000Y-89790000D03*
%TO.P,J2,10,JTDI/NC*%
%TO.N,unconnected-(J2-JTDI{slash}NC-Pad10)*%
X129465000Y-89790000D03*
%TO.P,J2,11,GNDDetect*%
%TO.N,GND*%
X133535000Y-88520000D03*
%TO.P,J2,12,~{RST}*%
%TO.N,/NRST*%
X129465000Y-88520000D03*
%TO.P,J2,13,VCP_RX*%
%TO.N,/USART1_RX*%
X129465000Y-87250000D03*
%TO.P,J2,14,VCP_TX*%
%TO.N,/USART1_TX*%
X133535000Y-87250000D03*
%TD*%
D11*
%TO.P,J4,1,Pin_1*%
%TO.N,/PC13*%
X85000000Y-132000000D03*
D12*
%TO.P,J4,2,Pin_2*%
%TO.N,/PC14*%
X87540000Y-132000000D03*
%TO.P,J4,3,Pin_3*%
%TO.N,/PC15*%
X90080000Y-132000000D03*
%TO.P,J4,4,Pin_4*%
%TO.N,/NRST*%
X92620000Y-132000000D03*
%TO.P,J4,5,Pin_5*%
%TO.N,/PA0*%
X95160000Y-132000000D03*
%TO.P,J4,6,Pin_6*%
%TO.N,/PA1*%
X97700000Y-132000000D03*
%TO.P,J4,7,Pin_7*%
%TO.N,/PA2*%
X100240000Y-132000000D03*
%TO.P,J4,8,Pin_8*%
%TO.N,/PA3*%
X102780000Y-132000000D03*
%TO.P,J4,9,Pin_9*%
%TO.N,/PA4*%
X105320000Y-132000000D03*
%TO.P,J4,10,Pin_10*%
%TO.N,/PA5*%
X107860000Y-132000000D03*
%TO.P,J4,11,Pin_11*%
%TO.N,/PA6*%
X110400000Y-132000000D03*
%TO.P,J4,12,Pin_12*%
%TO.N,/PA7*%
X112940000Y-132000000D03*
%TO.P,J4,13,Pin_13*%
%TO.N,/PB0*%
X115480000Y-132000000D03*
%TO.P,J4,14,Pin_14*%
%TO.N,/PB1*%
X118020000Y-132000000D03*
%TO.P,J4,15,Pin_15*%
%TO.N,/PB2*%
X120560000Y-132000000D03*
%TO.P,J4,16,Pin_16*%
%TO.N,/PB10*%
X123100000Y-132000000D03*
%TO.P,J4,17,Pin_17*%
%TO.N,/PB11*%
X125640000Y-132000000D03*
%TO.P,J4,18,Pin_18*%
%TO.N,/PB12*%
X128180000Y-132000000D03*
%TO.P,J4,19,Pin_19*%
%TO.N,+3V3*%
X130720000Y-132000000D03*
%TO.P,J4,20,Pin_20*%
%TO.N,GND*%
X133260000Y-132000000D03*
%TD*%
D11*
%TO.P,J5,1,Pin_1*%
%TO.N,GND*%
X85000000Y-78000000D03*
D12*
%TO.P,J5,2,Pin_2*%
%TO.N,+3V3*%
X87540000Y-78000000D03*
%TO.P,J5,3,Pin_3*%
%TO.N,/PB9*%
X90080000Y-78000000D03*
%TO.P,J5,4,Pin_4*%
%TO.N,/PB8*%
X92620000Y-78000000D03*
%TO.P,J5,5,Pin_5*%
%TO.N,/PB7*%
X95160000Y-78000000D03*
%TO.P,J5,6,Pin_6*%
%TO.N,/PB6*%
X97700000Y-78000000D03*
%TO.P,J5,7,Pin_7*%
%TO.N,/PB5*%
X100240000Y-78000000D03*
%TO.P,J5,8,Pin_8*%
%TO.N,/PB4*%
X102780000Y-78000000D03*
%TO.P,J5,9,Pin_9*%
%TO.N,/PB3(SWO)*%
X105320000Y-78000000D03*
%TO.P,J5,10,Pin_10*%
%TO.N,/PA15*%
X107860000Y-78000000D03*
%TO.P,J5,11,Pin_11*%
%TO.N,/SWCLK*%
X110400000Y-78000000D03*
%TO.P,J5,12,Pin_12*%
%TO.N,/SWDIO*%
X112940000Y-78000000D03*
%TO.P,J5,13,Pin_13*%
%TO.N,/USB_D+*%
X115480000Y-78000000D03*
%TO.P,J5,14,Pin_14*%
%TO.N,/USB_D-*%
X118020000Y-78000000D03*
%TO.P,J5,15,Pin_15*%
%TO.N,/USART1_RX*%
X120560000Y-78000000D03*
%TO.P,J5,16,Pin_16*%
%TO.N,/USART1_TX*%
X123100000Y-78000000D03*
%TO.P,J5,17,Pin_17*%
%TO.N,/PA8*%
X125640000Y-78000000D03*
%TO.P,J5,18,Pin_18*%
%TO.N,/PB15*%
X128180000Y-78000000D03*
%TO.P,J5,19,Pin_19*%
%TO.N,/PB14*%
X130720000Y-78000000D03*
%TO.P,J5,20,Pin_20*%
%TO.N,/PB13*%
X133260000Y-78000000D03*
%TD*%
D13*
%TO.P,C15,2*%
%TO.N,GND*%
X120156600Y-114267600D03*
%TO.P,C15,1*%
%TO.N,/BP*%
X120156600Y-115227600D03*
%TD*%
D14*
%TO.P,R3,2*%
%TO.N,/D_R-*%
X122800000Y-109500000D03*
%TO.P,R3,1*%
%TO.N,/USB_D-*%
X121150000Y-109500000D03*
%TD*%
D15*
%TO.P,FB1,2*%
%TO.N,+3V3*%
X101587500Y-116200000D03*
%TO.P,FB1,1*%
%TO.N,+3V3A*%
X103412500Y-116200000D03*
%TD*%
D13*
%TO.P,C11,1*%
%TO.N,/HSE_OUT*%
X102850000Y-110230000D03*
%TO.P,C11,2*%
%TO.N,GND*%
X102850000Y-109270000D03*
%TD*%
D14*
%TO.P,R2,1*%
%TO.N,/NRST*%
X96150000Y-114700000D03*
%TO.P,R2,2*%
%TO.N,+3V3*%
X97800000Y-114700000D03*
%TD*%
D16*
%TO.P,C4,1*%
%TO.N,+3V3*%
X117600000Y-106700000D03*
%TO.P,C4,2*%
%TO.N,GND*%
X117600000Y-107660000D03*
%TD*%
%TO.P,C9,1*%
%TO.N,GND*%
X98600000Y-111320000D03*
%TO.P,C9,2*%
%TO.N,/NRST*%
X98600000Y-112280000D03*
%TD*%
D17*
%TO.P,U2,1,I/O1*%
%TO.N,/D-*%
X126725000Y-109700000D03*
%TO.P,U2,2,GND*%
%TO.N,GND*%
X126725000Y-108750000D03*
%TO.P,U2,3,I/O2*%
%TO.N,/D+*%
X126725000Y-107800000D03*
%TO.P,U2,4,I/O2*%
%TO.N,/D_R+*%
X124450000Y-107800000D03*
%TO.P,U2,5,VBUS*%
%TO.N,+VCC*%
X124450000Y-108750000D03*
%TO.P,U2,6,I/O1*%
%TO.N,/D_R-*%
X124450000Y-109700000D03*
%TD*%
D18*
%TO.P,C16,1*%
%TO.N,+3V3*%
X118156600Y-116680100D03*
%TO.P,C16,2*%
%TO.N,GND*%
X118156600Y-114855100D03*
%TD*%
D19*
%TO.P,J1,1,VCC*%
%TO.N,+VCC*%
X131500000Y-110300000D03*
%TO.P,J1,2,D-*%
%TO.N,/D-*%
X131500000Y-109500000D03*
%TO.P,J1,3,D+*%
%TO.N,/D+*%
X131500000Y-108700000D03*
D20*
%TO.P,J1,4,ID*%
%TO.N,unconnected-(J1-ID-Pad4)*%
X131500002Y-107900000D03*
D19*
%TO.P,J1,5,GND*%
%TO.N,GND*%
X131500000Y-107100000D03*
D21*
%TO.P,J1,6,EH*%
%TO.N,unconnected-(J1-EH-Pad6)_3*%
X131600000Y-113150000D03*
D22*
%TO.N,unconnected-(J1-EH-Pad6)*%
X137100000Y-113150000D03*
D21*
%TO.N,unconnected-(J1-EH-Pad6)_2*%
X131600000Y-104250000D03*
D22*
%TO.N,unconnected-(J1-EH-Pad6)_1*%
X137100000Y-104250000D03*
%TD*%
D18*
%TO.P,R7,1*%
%TO.N,/PWR_LED_K*%
X128287500Y-121052500D03*
%TO.P,R7,2*%
%TO.N,GND*%
X128287500Y-119227500D03*
%TD*%
D23*
%TO.P,C8,1*%
%TO.N,+3V3*%
X101400000Y-114375000D03*
%TO.P,C8,2*%
%TO.N,GND*%
X101400000Y-112825000D03*
%TD*%
D13*
%TO.P,C10,1*%
%TO.N,/HSE_IN*%
X102850000Y-107980000D03*
%TO.P,C10,2*%
%TO.N,GND*%
X102850000Y-107020000D03*
%TD*%
D24*
%TO.P,C2,1*%
%TO.N,+3V3*%
X108640000Y-103800000D03*
%TO.P,C2,2*%
%TO.N,GND*%
X109600000Y-103800000D03*
%TD*%
D14*
%TO.P,R4,1*%
%TO.N,/USB_D+*%
X121150000Y-108000000D03*
%TO.P,R4,2*%
%TO.N,/D_R+*%
X122800000Y-108000000D03*
%TD*%
D23*
%TO.P,C7,1*%
%TO.N,+3V3A*%
X103700000Y-114400000D03*
%TO.P,C7,2*%
%TO.N,GND*%
X103700000Y-112850000D03*
%TD*%
D25*
%TO.P,C5,1*%
%TO.N,+3V3*%
X114900000Y-115700000D03*
%TO.P,C5,2*%
%TO.N,GND*%
X113940000Y-115700000D03*
%TD*%
D26*
%TO.P,Y1,1,1*%
%TO.N,/HSE_IN*%
X99700000Y-107500000D03*
%TO.P,Y1,2,2*%
%TO.N,GND*%
X99700000Y-109700000D03*
%TO.P,Y1,3,3*%
%TO.N,/HSE_OUT*%
X101400000Y-109700000D03*
%TO.P,Y1,4,4*%
%TO.N,GND*%
X101400000Y-107500000D03*
%TD*%
D27*
%TO.P,C1,1*%
%TO.N,+3V3*%
X108187500Y-102000000D03*
%TO.P,C1,2*%
%TO.N,GND*%
X110012500Y-102000000D03*
%TD*%
D14*
%TO.P,R1,1*%
%TO.N,/SW_BOOT0*%
X103675000Y-98200000D03*
%TO.P,R1,2*%
%TO.N,/BOOT0*%
X105325000Y-98200000D03*
%TD*%
D13*
%TO.P,C6,2*%
%TO.N,GND*%
X105500000Y-111140000D03*
%TO.P,C6,1*%
%TO.N,+3V3A*%
X105500000Y-112100000D03*
%TD*%
D28*
%TO.P,C14,1*%
%TO.N,/IN*%
X126112500Y-116640000D03*
%TO.P,C14,2*%
%TO.N,GND*%
X126112500Y-118465000D03*
%TD*%
D29*
%TO.P,D1,1,K*%
%TO.N,/PWR_LED_K*%
X124800000Y-121900000D03*
%TO.P,D1,2,A*%
%TO.N,+3V3*%
X122000000Y-121900000D03*
%TD*%
D12*
%TO.P,J3,6,Pin_6*%
%TO.N,/NRST*%
X85800000Y-98160000D03*
%TO.P,J3,5,Pin_5*%
%TO.N,/PB3(SWO)*%
X85800000Y-100700000D03*
%TO.P,J3,4,Pin_4*%
%TO.N,GND*%
X85800000Y-103240000D03*
%TO.P,J3,3,Pin_3*%
%TO.N,/SWCLK*%
X85800000Y-105780000D03*
%TO.P,J3,2,Pin_2*%
%TO.N,/SWDIO*%
X85800000Y-108320000D03*
D11*
%TO.P,J3,1,Pin_1*%
%TO.N,+3V3*%
X85800000Y-110860000D03*
%TD*%
D13*
%TO.P,C3,1*%
%TO.N,+3V3*%
X105800000Y-107000000D03*
%TO.P,C3,2*%
%TO.N,GND*%
X105800000Y-106040000D03*
%TD*%
D17*
%TO.P,U3,1,IN*%
%TO.N,/IN*%
X124000000Y-118440000D03*
%TO.P,U3,2,GND*%
%TO.N,GND*%
X124000000Y-117490000D03*
%TO.P,U3,3,EN*%
%TO.N,/IN*%
X124000000Y-116540000D03*
%TO.P,U3,4,BP*%
%TO.N,/BP*%
X121725000Y-116540000D03*
%TO.P,U3,5,OUT*%
%TO.N,/OUT*%
X121725000Y-118440000D03*
%TD*%
D30*
%TO.P,D2,1,K*%
%TO.N,+3V3*%
X118150000Y-119000000D03*
%TO.P,D2,2,A*%
%TO.N,/OUT*%
X120250000Y-119000000D03*
%TD*%
D31*
%TO.P,R5,1*%
%TO.N,GND*%
X116900000Y-124000000D03*
%TO.P,R5,2*%
%TO.N,/PB2*%
X115250000Y-124000000D03*
%TD*%
D27*
%TO.P,R6,1*%
%TO.N,+VCC*%
X124750000Y-114540000D03*
%TO.P,R6,2*%
%TO.N,/IN*%
X126575000Y-114540000D03*
%TD*%
D16*
%TO.P,C13,1*%
%TO.N,/IN*%
X127862500Y-115890000D03*
%TO.P,C13,2*%
%TO.N,GND*%
X127862500Y-116850000D03*
%TD*%
%TO.P,C12,1*%
%TO.N,+VCC*%
X123000000Y-114040000D03*
%TO.P,C12,2*%
%TO.N,GND*%
X123000000Y-115000000D03*
%TD*%
D32*
%TO.P,SW1,1,A*%
%TO.N,GND*%
X93950000Y-95700000D03*
%TO.P,SW1,2,B*%
%TO.N,/SW_BOOT0*%
X100450000Y-98200000D03*
%TO.P,SW1,3,C*%
%TO.N,+3V3*%
X93950000Y-100700000D03*
%TD*%
D33*
%TO.P,U1,1,VBAT*%
%TO.N,+3V3*%
X107487500Y-107000000D03*
%TO.P,U1,2,PC13*%
%TO.N,/PC13*%
X107487500Y-107500000D03*
%TO.P,U1,3,PC14*%
%TO.N,/PC14*%
X107487500Y-108000000D03*
%TO.P,U1,4,PC15*%
%TO.N,/PC15*%
X107487500Y-108500000D03*
%TO.P,U1,5,PD0*%
%TO.N,/HSE_IN*%
X107487500Y-109000000D03*
%TO.P,U1,6,PD1*%
%TO.N,/HSE_OUT*%
X107487500Y-109500000D03*
%TO.P,U1,7,NRST*%
%TO.N,/NRST*%
X107487500Y-110000000D03*
%TO.P,U1,8,VSSA*%
%TO.N,GND*%
X107487500Y-110500000D03*
%TO.P,U1,9,VDDA*%
%TO.N,+3V3A*%
X107487500Y-111000000D03*
%TO.P,U1,10,PA0*%
%TO.N,/PA0*%
X107487500Y-111500000D03*
%TO.P,U1,11,PA1*%
%TO.N,/PA1*%
X107487500Y-112000000D03*
%TO.P,U1,12,PA2*%
%TO.N,/PA2*%
X107487500Y-112500000D03*
D34*
%TO.P,U1,13,PA3*%
%TO.N,/PA3*%
X108900000Y-113912500D03*
%TO.P,U1,14,PA4*%
%TO.N,/PA4*%
X109400000Y-113912500D03*
%TO.P,U1,15,PA5*%
%TO.N,/PA5*%
X109900000Y-113912500D03*
%TO.P,U1,16,PA6*%
%TO.N,/PA6*%
X110400000Y-113912500D03*
%TO.P,U1,17,PA7*%
%TO.N,/PA7*%
X110900000Y-113912500D03*
%TO.P,U1,18,PB0*%
%TO.N,/PB0*%
X111400000Y-113912500D03*
%TO.P,U1,19,PB1*%
%TO.N,/PB1*%
X111900000Y-113912500D03*
%TO.P,U1,20,PB2*%
%TO.N,/PB2*%
X112400000Y-113912500D03*
%TO.P,U1,21,PB10*%
%TO.N,/PB10*%
X112900000Y-113912500D03*
%TO.P,U1,22,PB11*%
%TO.N,/PB11*%
X113400000Y-113912500D03*
%TO.P,U1,23,VSS_1*%
%TO.N,GND*%
X113900000Y-113912500D03*
%TO.P,U1,24,VDD_1*%
%TO.N,+3V3*%
X114400000Y-113912500D03*
D33*
%TO.P,U1,25,PB12*%
%TO.N,/PB12*%
X115812500Y-112500000D03*
%TO.P,U1,26,PB13*%
%TO.N,/PB13*%
X115812500Y-112000000D03*
%TO.P,U1,27,PB14*%
%TO.N,/PB14*%
X115812500Y-111500000D03*
%TO.P,U1,28,PB15*%
%TO.N,/PB15*%
X115812500Y-111000000D03*
%TO.P,U1,29,PA8*%
%TO.N,/PA8*%
X115812500Y-110500000D03*
%TO.P,U1,30,PA9*%
%TO.N,/USART1_TX*%
X115812500Y-110000000D03*
%TO.P,U1,31,PA10*%
%TO.N,/USART1_RX*%
X115812500Y-109500000D03*
%TO.P,U1,32,PA11*%
%TO.N,/USB_D-*%
X115812500Y-109000000D03*
%TO.P,U1,33,PA12*%
%TO.N,/USB_D+*%
X115812500Y-108500000D03*
%TO.P,U1,34,PA13*%
%TO.N,/SWDIO*%
X115812500Y-108000000D03*
%TO.P,U1,35,VSS_2*%
%TO.N,GND*%
X115812500Y-107500000D03*
%TO.P,U1,36,VDD_2*%
%TO.N,+3V3*%
X115812500Y-107000000D03*
D34*
%TO.P,U1,37,PA14*%
%TO.N,/SWCLK*%
X114400000Y-105587500D03*
%TO.P,U1,38,PA15*%
%TO.N,/PA15*%
X113900000Y-105587500D03*
%TO.P,U1,39,PB3*%
%TO.N,/PB3(SWO)*%
X113400000Y-105587500D03*
%TO.P,U1,40,PB4*%
%TO.N,/PB4*%
X112900000Y-105587500D03*
%TO.P,U1,41,PB5*%
%TO.N,/PB5*%
X112400000Y-105587500D03*
%TO.P,U1,42,PB6*%
%TO.N,/PB6*%
X111900000Y-105587500D03*
%TO.P,U1,43,PB7*%
%TO.N,/PB7*%
X111400000Y-105587500D03*
%TO.P,U1,44,BOOT0*%
%TO.N,/BOOT0*%
X110900000Y-105587500D03*
%TO.P,U1,45,PB8*%
%TO.N,/PB8*%
X110400000Y-105587500D03*
%TO.P,U1,46,PB9*%
%TO.N,/PB9*%
X109900000Y-105587500D03*
%TO.P,U1,47,VSS_3*%
%TO.N,GND*%
X109400000Y-105587500D03*
%TO.P,U1,48,VDD_3*%
%TO.N,+3V3*%
X108900000Y-105587500D03*
%TD*%
D35*
%TO.N,GND*%
X133300000Y-129500000D03*
X135600000Y-88500000D03*
X135650000Y-91650000D03*
%TO.N,+3V3*%
X133900000Y-100400000D03*
X117200000Y-105800000D03*
X107700000Y-100500000D03*
X104100000Y-103600000D03*
%TO.N,GND*%
X117700000Y-125900000D03*
%TO.N,+3V3*%
X98600000Y-117800000D03*
X90100000Y-81200000D03*
X90600000Y-112800000D03*
%TO.N,GND*%
X84900000Y-81600000D03*
%TO.N,+3V3*%
X116700000Y-117600000D03*
X114900000Y-117100000D03*
%TO.N,/NRST*%
X109250000Y-109850000D03*
X126600000Y-103700000D03*
%TO.N,/SWCLK*%
X126800000Y-91300000D03*
%TO.N,/SWDIO*%
X126900000Y-93400000D03*
%TO.N,/USART1_RX*%
X129100000Y-85000000D03*
%TO.N,/PB3(SWO)*%
X126900000Y-88900000D03*
%TO.N,/USART1_RX*%
X119400000Y-105300000D03*
%TO.N,/USART1_TX*%
X120600000Y-106100000D03*
X118800000Y-110400000D03*
%TO.N,/USART1_RX*%
X119521296Y-109781747D03*
%TO.N,/PB13*%
X127500000Y-106600000D03*
%TO.N,/PA8*%
X121900000Y-105600000D03*
%TO.N,/PB15*%
X123400000Y-106700000D03*
%TO.N,/PB14*%
X124400000Y-106500000D03*
X122500000Y-111800000D03*
%TO.N,/PB13*%
X124700000Y-111100000D03*
%TO.N,/PB15*%
X121200000Y-111500000D03*
%TO.N,/PA8*%
X120899583Y-110598749D03*
%TO.N,GND*%
X102500000Y-112825000D03*
X104400000Y-111500000D03*
X93950000Y-94050000D03*
X119244000Y-113718000D03*
X128175000Y-108750000D03*
X110000000Y-100500000D03*
X113900000Y-112500000D03*
X99700000Y-111350000D03*
X129400000Y-106500000D03*
X101400000Y-106100000D03*
X118600000Y-107700000D03*
X128588000Y-118040000D03*
X122000000Y-115000000D03*
X118494000Y-113718000D03*
X126138000Y-119440000D03*
X105800000Y-105000000D03*
X103700000Y-109250000D03*
X127638000Y-118040000D03*
%TD*%
D36*
%TO.N,/USB_D+*%
X120650000Y-108500000D02*
X115812500Y-108500000D01*
D37*
X119300000Y-106800000D02*
X119300000Y-108500000D01*
X118000000Y-105500000D02*
X119300000Y-106800000D01*
X118000000Y-81180000D02*
X118000000Y-105500000D01*
X115480000Y-78660000D02*
X118000000Y-81180000D01*
X115480000Y-78000000D02*
X115480000Y-78660000D01*
D36*
%TO.N,+3V3*%
X133900000Y-100400000D02*
X134600000Y-100400000D01*
D38*
X135400000Y-94394134D02*
X134605866Y-93600000D01*
X134600000Y-98600000D02*
X135400000Y-97800000D01*
X134600000Y-105201530D02*
X134600000Y-98600000D01*
X134605866Y-93600000D02*
X133535000Y-93600000D01*
X135401000Y-111397470D02*
X135401000Y-106002530D01*
X134900000Y-111898470D02*
X135401000Y-111397470D01*
X135401000Y-106002530D02*
X134600000Y-105201530D01*
X134900000Y-111900000D02*
X134900000Y-111898470D01*
X134000000Y-112800000D02*
X134900000Y-111900000D01*
X128100000Y-124800000D02*
X134000000Y-118900000D01*
X134000000Y-118900000D02*
X134000000Y-112800000D01*
X135400000Y-97800000D02*
X135400000Y-94394134D01*
D36*
%TO.N,GND*%
X101400000Y-112825000D02*
X102500000Y-112825000D01*
X103675000Y-112825000D02*
X103700000Y-112850000D01*
X102500000Y-112825000D02*
X103675000Y-112825000D01*
D37*
%TO.N,/PB8*%
X98100000Y-98600000D02*
X98100000Y-83960000D01*
X99200000Y-99700000D02*
X98100000Y-98600000D01*
X110600000Y-99700000D02*
X99200000Y-99700000D01*
X111099000Y-100199000D02*
X110600000Y-99700000D01*
X110400000Y-103779232D02*
X111099000Y-103080232D01*
X111099000Y-103080232D02*
X111099000Y-100199000D01*
X110400000Y-105587500D02*
X110400000Y-103779232D01*
X98100000Y-83960000D02*
X93120000Y-78980000D01*
%TO.N,/PA15*%
X107860000Y-78480000D02*
X107860000Y-78000000D01*
X114800000Y-85420000D02*
X107860000Y-78480000D01*
X113900000Y-104500000D02*
X114800000Y-103600000D01*
X113900000Y-105587500D02*
X113900000Y-104500000D01*
X114800000Y-103600000D02*
X114800000Y-85420000D01*
%TO.N,/PB12*%
X128180000Y-131380000D02*
X128180000Y-132000000D01*
X115812500Y-119012500D02*
X128180000Y-131380000D01*
X115812500Y-112500000D02*
X115812500Y-119012500D01*
%TO.N,/PB11*%
X125640000Y-131040000D02*
X125640000Y-132000000D01*
X113359000Y-117524800D02*
X118401000Y-122566800D01*
X118401000Y-122566800D02*
X118401000Y-123801000D01*
X113359000Y-113953500D02*
X113359000Y-117524800D01*
X118401000Y-123801000D02*
X125640000Y-131040000D01*
X113400000Y-113912500D02*
X113359000Y-113953500D01*
%TO.N,/PB10*%
X118000000Y-125200000D02*
X123100000Y-130300000D01*
X123100000Y-130300000D02*
X123100000Y-132000000D01*
X112900000Y-117632900D02*
X118000000Y-122732900D01*
X112900000Y-113912500D02*
X112900000Y-117632900D01*
X118000000Y-122732900D02*
X118000000Y-125200000D01*
%TO.N,/PB2*%
X115250000Y-126690000D02*
X120560000Y-132000000D01*
X115250000Y-124000000D02*
X115250000Y-126690000D01*
%TO.N,/PB1*%
X113500000Y-127480000D02*
X118020000Y-132000000D01*
X113500000Y-119700000D02*
X113500000Y-127480000D01*
X111900000Y-118100000D02*
X113500000Y-119700000D01*
X111900000Y-113912500D02*
X111900000Y-118100000D01*
%TO.N,/PB0*%
X112800000Y-120100000D02*
X112800000Y-129320000D01*
X112800000Y-129320000D02*
X115480000Y-132000000D01*
X111400000Y-118700000D02*
X112800000Y-120100000D01*
X111400000Y-113912500D02*
X111400000Y-118700000D01*
D36*
%TO.N,/PA7*%
X111700000Y-120300000D02*
X111700000Y-130760000D01*
X110900000Y-119500000D02*
X111700000Y-120300000D01*
X110900000Y-113912500D02*
X110900000Y-119500000D01*
X111700000Y-130760000D02*
X112940000Y-132000000D01*
%TO.N,/PA6*%
X110400000Y-132000000D02*
X110400000Y-113912500D01*
%TO.N,/PA5*%
X107800000Y-129900000D02*
X107800000Y-131940000D01*
X108800000Y-116900000D02*
X108800000Y-128900000D01*
X107800000Y-131940000D02*
X107860000Y-132000000D01*
X109900000Y-115800000D02*
X108800000Y-116900000D01*
X108800000Y-128900000D02*
X107800000Y-129900000D01*
X109900000Y-113912500D02*
X109900000Y-115800000D01*
%TO.N,/PA4*%
X105320000Y-129080000D02*
X105320000Y-132000000D01*
X108000000Y-126400000D02*
X105320000Y-129080000D01*
X109400000Y-114900000D02*
X108000000Y-116300000D01*
X109400000Y-113912500D02*
X109400000Y-114900000D01*
X108000000Y-116300000D02*
X108000000Y-126400000D01*
%TO.N,/PA3*%
X107100000Y-115712500D02*
X108900000Y-113912500D01*
X107100000Y-126100000D02*
X107100000Y-115712500D01*
X102780000Y-130420000D02*
X107100000Y-126100000D01*
X102780000Y-132000000D02*
X102780000Y-130420000D01*
%TO.N,/PA0*%
X96560000Y-133400000D02*
X95160000Y-132000000D01*
X100900000Y-133400000D02*
X96560000Y-133400000D01*
X101500000Y-132800000D02*
X100900000Y-133400000D01*
X106400000Y-115000000D02*
X106400000Y-125500000D01*
X108800000Y-112600000D02*
X106400000Y-115000000D01*
X108800000Y-111900000D02*
X108800000Y-112600000D01*
X106400000Y-125500000D02*
X101500000Y-130400000D01*
X108400000Y-111500000D02*
X108800000Y-111900000D01*
X101500000Y-130400000D02*
X101500000Y-132800000D01*
X107487500Y-111500000D02*
X108400000Y-111500000D01*
%TO.N,/PA2*%
X100240000Y-130660000D02*
X100240000Y-132000000D01*
X105800000Y-125100000D02*
X100240000Y-130660000D01*
X107487500Y-112500000D02*
X105800000Y-114187500D01*
X105800000Y-114187500D02*
X105800000Y-125100000D01*
D37*
%TO.N,/NRST*%
X92620000Y-132000000D02*
X92660000Y-132000000D01*
X90920000Y-133700000D02*
X92620000Y-132000000D01*
X83700000Y-133700000D02*
X90920000Y-133700000D01*
X82700000Y-118632900D02*
X82700000Y-132700000D01*
X88300000Y-113032900D02*
X82700000Y-118632900D01*
X86793880Y-102000000D02*
X88300000Y-103506120D01*
X82700000Y-132700000D02*
X83700000Y-133700000D01*
X88300000Y-103506120D02*
X88300000Y-113032900D01*
X84400000Y-101300000D02*
X85100000Y-102000000D01*
X85100000Y-102000000D02*
X86793880Y-102000000D01*
X84400000Y-99560000D02*
X84400000Y-101300000D01*
X85800000Y-98160000D02*
X84400000Y-99560000D01*
D36*
%TO.N,/PA1*%
X106001000Y-112607260D02*
X106001000Y-112807520D01*
X106001000Y-112807520D02*
X105100000Y-113708520D01*
X106017519Y-112601000D02*
X106007260Y-112601000D01*
X105100000Y-124600000D02*
X97700000Y-132000000D01*
X106618520Y-112000000D02*
X106017519Y-112601000D01*
X106007260Y-112601000D02*
X106001000Y-112607260D01*
X107487500Y-112000000D02*
X106618520Y-112000000D01*
X105100000Y-113708520D02*
X105100000Y-124600000D01*
D37*
%TO.N,/PC13*%
X91900000Y-125100000D02*
X85000000Y-132000000D01*
X91900000Y-110000000D02*
X91900000Y-125100000D01*
X98300000Y-103600000D02*
X91900000Y-110000000D01*
X103000000Y-103600000D02*
X98300000Y-103600000D01*
X104400000Y-105000000D02*
X103000000Y-103600000D01*
X104401000Y-106901000D02*
X104401000Y-105333900D01*
X106617176Y-107599000D02*
X105099000Y-107599000D01*
X104400000Y-105332900D02*
X104400000Y-105000000D01*
X106667176Y-107549000D02*
X106617176Y-107599000D01*
X105099000Y-107599000D02*
X104401000Y-106901000D01*
X107438500Y-107549000D02*
X106667176Y-107549000D01*
X104401000Y-105333900D02*
X104400000Y-105332900D01*
X107487500Y-107500000D02*
X107438500Y-107549000D01*
%TO.N,/PC14*%
X93200000Y-110100000D02*
X93200000Y-126340000D01*
X98900000Y-104400000D02*
X93200000Y-110100000D01*
X104000000Y-105500000D02*
X102900000Y-104400000D01*
X104000000Y-107100000D02*
X104000000Y-105500000D01*
X104900000Y-108000000D02*
X104000000Y-107100000D01*
X102900000Y-104400000D02*
X98900000Y-104400000D01*
X107487500Y-108000000D02*
X104900000Y-108000000D01*
X93200000Y-126340000D02*
X87540000Y-132000000D01*
%TO.N,/PC15*%
X94800000Y-127280000D02*
X90080000Y-132000000D01*
X99400000Y-105300000D02*
X94800000Y-109900000D01*
X103001364Y-105300000D02*
X99400000Y-105300000D01*
X103600000Y-105898636D02*
X103001364Y-105300000D01*
X94800000Y-109900000D02*
X94800000Y-127280000D01*
X103600000Y-107300000D02*
X103600000Y-105898636D01*
X104800000Y-108500000D02*
X103600000Y-107300000D01*
X107487500Y-108500000D02*
X104800000Y-108500000D01*
D36*
%TO.N,/NRST*%
X96150000Y-128470000D02*
X92620000Y-132000000D01*
X96150000Y-114700000D02*
X96150000Y-128470000D01*
D38*
%TO.N,GND*%
X133260000Y-129540000D02*
X133300000Y-129500000D01*
X133260000Y-132000000D02*
X133260000Y-129540000D01*
%TO.N,+3V3*%
X128300000Y-124800000D02*
X130700000Y-127200000D01*
X130700000Y-127200000D02*
X130700000Y-131980000D01*
X128100000Y-124800000D02*
X128300000Y-124800000D01*
X130700000Y-131980000D02*
X130720000Y-132000000D01*
D37*
%TO.N,/SWDIO*%
X110440000Y-75500000D02*
X112940000Y-78000000D01*
X83900000Y-75500000D02*
X110440000Y-75500000D01*
X82800000Y-76600000D02*
X83900000Y-75500000D01*
X82800000Y-105320000D02*
X82800000Y-76600000D01*
X85800000Y-108320000D02*
X82800000Y-105320000D01*
D38*
%TO.N,GND*%
X84900000Y-78100000D02*
X84900000Y-81600000D01*
X85000000Y-78000000D02*
X84900000Y-78100000D01*
D37*
%TO.N,/PB9*%
X95800000Y-83720000D02*
X90080000Y-78000000D01*
X95800000Y-84380000D02*
X95800000Y-83720000D01*
%TO.N,/PB8*%
X92620000Y-78480000D02*
X92620000Y-78000000D01*
X93120000Y-78980000D02*
X92620000Y-78480000D01*
X93120000Y-78980000D02*
X92840000Y-78700000D01*
%TO.N,/PB7*%
X95160000Y-78660000D02*
X95160000Y-78000000D01*
X95500000Y-79000000D02*
X95160000Y-78660000D01*
X95500000Y-79000000D02*
X95200000Y-78700000D01*
%TO.N,/PB6*%
X97700000Y-78480000D02*
X97700000Y-78000000D01*
X98310000Y-79090000D02*
X97700000Y-78480000D01*
X98310000Y-79090000D02*
X97920000Y-78700000D01*
%TO.N,/PB5*%
X103000000Y-80760000D02*
X100240000Y-78000000D01*
X113000000Y-95500000D02*
X103000000Y-85500000D01*
X113000000Y-103501300D02*
X113000000Y-95500000D01*
X112400000Y-104101300D02*
X113000000Y-103501300D01*
X112400000Y-105587500D02*
X112400000Y-104101300D01*
X103000000Y-85500000D02*
X103000000Y-80760000D01*
%TO.N,/PB4*%
X102780000Y-78000000D02*
X102780000Y-78480000D01*
X102780000Y-78000000D02*
X102820000Y-78040000D01*
X113500000Y-89200000D02*
X102780000Y-78480000D01*
X113500000Y-103568400D02*
X113500000Y-89200000D01*
X112900000Y-104168400D02*
X113500000Y-103568400D01*
X112900000Y-105587500D02*
X112900000Y-104168400D01*
%TO.N,/SWCLK*%
X108400000Y-76000000D02*
X110440000Y-78040000D01*
X86300000Y-77300000D02*
X87600000Y-76000000D01*
X87600000Y-76000000D02*
X108400000Y-76000000D01*
X86300000Y-82900000D02*
X86300000Y-77300000D01*
X110440000Y-78040000D02*
X110440000Y-78700000D01*
X83700000Y-85500000D02*
X86300000Y-82900000D01*
X85800000Y-105780000D02*
X83700000Y-103680000D01*
X83700000Y-103680000D02*
X83700000Y-85500000D01*
%TO.N,/PB3(SWO)*%
X88800000Y-97700000D02*
X85800000Y-100700000D01*
X88800000Y-77200000D02*
X88800000Y-97700000D01*
X89384531Y-76615469D02*
X88800000Y-77200000D01*
X103935469Y-76615469D02*
X89384531Y-76615469D01*
X105320000Y-78000000D02*
X103935469Y-76615469D01*
X114100000Y-86780000D02*
X105320000Y-78000000D01*
X114100000Y-103535500D02*
X114100000Y-86780000D01*
X113400000Y-104235500D02*
X114100000Y-103535500D01*
X113400000Y-105587500D02*
X113400000Y-104235500D01*
%TO.N,/SWCLK*%
X110400000Y-78660000D02*
X110400000Y-78000000D01*
X115900000Y-84160000D02*
X110400000Y-78660000D01*
X115900000Y-103400000D02*
X115900000Y-84160000D01*
X114400000Y-104900000D02*
X115900000Y-103400000D01*
X114400000Y-105587500D02*
X114400000Y-104900000D01*
D36*
%TO.N,/SWDIO*%
X116600000Y-82300000D02*
X112940000Y-78640000D01*
X116600000Y-104870000D02*
X116600000Y-82300000D01*
X114200000Y-107270000D02*
X116600000Y-104870000D01*
X114200000Y-107800000D02*
X114200000Y-107270000D01*
X114400000Y-108000000D02*
X114200000Y-107800000D01*
X115812000Y-108000000D02*
X114400000Y-108000000D01*
X112940000Y-78640000D02*
X112940000Y-78000000D01*
X113160000Y-78220000D02*
X112940000Y-78000000D01*
D37*
%TO.N,/USB_D-*%
X118020000Y-78660000D02*
X118020000Y-78000000D01*
X120324000Y-107224000D02*
X118500000Y-105400000D01*
X121851000Y-107511936D02*
X121563064Y-107224000D01*
X118500000Y-105400000D02*
X118500000Y-79140000D01*
X118500000Y-79140000D02*
X118020000Y-78660000D01*
X121851000Y-108799000D02*
X121851000Y-107511936D01*
X121563064Y-107224000D02*
X120324000Y-107224000D01*
X121150000Y-109500000D02*
X121851000Y-108799000D01*
%TO.N,/USART1_RX*%
X119400000Y-105300000D02*
X119400000Y-79160000D01*
X119400000Y-79160000D02*
X120560000Y-78000000D01*
%TO.N,/PB13*%
X133300000Y-78040000D02*
X133260000Y-78000000D01*
X133300000Y-79300000D02*
X133300000Y-78040000D01*
X125800000Y-86800000D02*
X133300000Y-79300000D01*
X125800000Y-104900000D02*
X125800000Y-86800000D01*
X127500000Y-106600000D02*
X125800000Y-104900000D01*
%TO.N,/PB14*%
X130720000Y-78780000D02*
X130720000Y-78000000D01*
X124400000Y-85100000D02*
X130720000Y-78780000D01*
X130720000Y-78000000D02*
X130760000Y-78040000D01*
X130760000Y-78040000D02*
X130760000Y-78700000D01*
X124400000Y-106500000D02*
X124400000Y-85100000D01*
%TO.N,/PB15*%
X128220000Y-78780000D02*
X128220000Y-78700000D01*
X123400000Y-83600000D02*
X128220000Y-78780000D01*
X123400000Y-106700000D02*
X123400000Y-83600000D01*
%TO.N,/PA8*%
X121900000Y-83500000D02*
X121900000Y-105600000D01*
X125640000Y-79760000D02*
X121900000Y-83500000D01*
X125640000Y-78740000D02*
X125640000Y-79760000D01*
X125680000Y-78700000D02*
X125640000Y-78740000D01*
%TO.N,/USART1_TX*%
X136100000Y-77600000D02*
X136100000Y-84685000D01*
X134500000Y-76000000D02*
X136100000Y-77600000D01*
X120600000Y-80500000D02*
X125100000Y-76000000D01*
X125100000Y-76000000D02*
X134500000Y-76000000D01*
X136100000Y-84685000D02*
X133535000Y-87250000D01*
X120600000Y-106100000D02*
X120600000Y-80500000D01*
D36*
%TO.N,GND*%
X135580000Y-88520000D02*
X135600000Y-88500000D01*
X133535000Y-88520000D02*
X135580000Y-88520000D01*
X135650000Y-91650000D02*
X135055000Y-91055000D01*
X135055000Y-91055000D02*
X133535000Y-91055000D01*
X134970000Y-92330000D02*
X133535000Y-92330000D01*
X135650000Y-91650000D02*
X134970000Y-92330000D01*
D38*
%TO.N,+3V3*%
X81200000Y-133400000D02*
X82300000Y-134500000D01*
D36*
X117600000Y-106200000D02*
X117200000Y-105800000D01*
X117600000Y-106700000D02*
X117600000Y-106200000D01*
D37*
%TO.N,/NRST*%
X126600000Y-101800000D02*
X126600000Y-103700000D01*
X131700000Y-89300000D02*
X131700000Y-96700000D01*
X130920000Y-88520000D02*
X131700000Y-89300000D01*
X129465000Y-88520000D02*
X130920000Y-88520000D01*
X131700000Y-96700000D02*
X126600000Y-101800000D01*
D36*
%TO.N,+3V3*%
X108200000Y-101988000D02*
X108188000Y-102000000D01*
X108200000Y-100800000D02*
X108200000Y-101988000D01*
X107900000Y-100500000D02*
X108200000Y-100800000D01*
X107700000Y-100500000D02*
X107900000Y-100500000D01*
X104100000Y-103600000D02*
X105049000Y-104549000D01*
D37*
%TO.N,/PB9*%
X109900000Y-106358824D02*
X109900000Y-105587500D01*
X108526000Y-106626000D02*
X109632824Y-106626000D01*
X99500000Y-101800000D02*
X103700000Y-101800000D01*
X95800000Y-84380000D02*
X95800000Y-98100000D01*
X103700000Y-101800000D02*
X108526000Y-106626000D01*
X95800000Y-98100000D02*
X99500000Y-101800000D01*
X109632824Y-106626000D02*
X109900000Y-106358824D01*
D36*
%TO.N,+3V3*%
X105490001Y-107000000D02*
X105800000Y-107000000D01*
X105049000Y-106558999D02*
X105490001Y-107000000D01*
X105049000Y-104549000D02*
X105049000Y-106558999D01*
X93950000Y-100700000D02*
X95650000Y-102400000D01*
X95650000Y-102400000D02*
X102900000Y-102400000D01*
X102900000Y-102400000D02*
X104100000Y-103600000D01*
%TO.N,GND*%
X116900000Y-125100000D02*
X117700000Y-125900000D01*
X116900000Y-124000000D02*
X116900000Y-125100000D01*
D38*
%TO.N,+3V3*%
X97800000Y-117000000D02*
X98600000Y-117800000D01*
X97800000Y-114700000D02*
X97800000Y-117000000D01*
X99987500Y-117800000D02*
X101587500Y-116200000D01*
X98600000Y-117800000D02*
X99987500Y-117800000D01*
X90100000Y-81200000D02*
X90100000Y-96850000D01*
X90100000Y-96850000D02*
X93950000Y-100700000D01*
X90600000Y-104050000D02*
X90600000Y-112800000D01*
X93950000Y-100700000D02*
X90600000Y-104050000D01*
X85800000Y-111100000D02*
X85800000Y-110860000D01*
X81200000Y-133400000D02*
X81200000Y-115700000D01*
X130760000Y-133540000D02*
X129800000Y-134500000D01*
X129800000Y-134500000D02*
X82300000Y-134500000D01*
X130760000Y-132000000D02*
X130760000Y-133540000D01*
X81200000Y-115700000D02*
X85800000Y-111100000D01*
X122000000Y-121900000D02*
X124900000Y-124800000D01*
X124900000Y-124800000D02*
X128100000Y-124800000D01*
X117619900Y-116680100D02*
X116700000Y-117600000D01*
D36*
X114900000Y-115700000D02*
X114900000Y-117100000D01*
D37*
%TO.N,/NRST*%
X109100000Y-110000000D02*
X107487500Y-110000000D01*
X109250000Y-109850000D02*
X109100000Y-110000000D01*
X126600000Y-103700000D02*
X126500000Y-103800000D01*
%TO.N,/SWDIO*%
X127100000Y-93600000D02*
X126900000Y-93400000D01*
X129465000Y-93600000D02*
X127100000Y-93600000D01*
%TO.N,/PB3(SWO)*%
X126900000Y-89890000D02*
X126900000Y-88900000D01*
X128070000Y-91060000D02*
X126900000Y-89890000D01*
X129465000Y-91060000D02*
X128070000Y-91060000D01*
%TO.N,/USART1_RX*%
X129465000Y-85365000D02*
X129100000Y-85000000D01*
X129465000Y-87250000D02*
X129465000Y-85365000D01*
%TO.N,/PA8*%
X115861500Y-110549000D02*
X115812500Y-110500000D01*
X120100000Y-111100000D02*
X118500000Y-111100000D01*
X120601251Y-110598749D02*
X120100000Y-111100000D01*
X120899583Y-110598749D02*
X120601251Y-110598749D01*
X118500000Y-111100000D02*
X117949000Y-110549000D01*
X117949000Y-110549000D02*
X115861500Y-110549000D01*
%TO.N,/USART1_RX*%
X115861500Y-109549000D02*
X115812500Y-109500000D01*
X119391364Y-109800000D02*
X119290364Y-109699000D01*
X119521296Y-109781747D02*
X119503043Y-109800000D01*
X119503043Y-109800000D02*
X119391364Y-109800000D01*
X119049000Y-109549000D02*
X115861500Y-109549000D01*
X119290364Y-109699000D02*
X119199000Y-109699000D01*
X119199000Y-109699000D02*
X119049000Y-109549000D01*
%TO.N,/USART1_TX*%
X116517724Y-110001000D02*
X116516724Y-110000000D01*
X118401000Y-110001000D02*
X116517724Y-110001000D01*
X118800000Y-110400000D02*
X118401000Y-110001000D01*
X116516724Y-110000000D02*
X115812500Y-110000000D01*
%TO.N,/PB15*%
X117832900Y-111000000D02*
X115812500Y-111000000D01*
X118632900Y-111800000D02*
X117832900Y-111000000D01*
X120900000Y-111800000D02*
X118632900Y-111800000D01*
X121200000Y-111500000D02*
X120900000Y-111800000D01*
%TO.N,/PB14*%
X122000000Y-111800000D02*
X122500000Y-111800000D01*
X121600000Y-112200000D02*
X122000000Y-111800000D01*
X117765800Y-111500000D02*
X118465800Y-112200000D01*
X118465800Y-112200000D02*
X121600000Y-112200000D01*
X115812500Y-111500000D02*
X117765800Y-111500000D01*
%TO.N,/PB13*%
X117698700Y-112000000D02*
X115812500Y-112000000D01*
X122500000Y-113000000D02*
X118698700Y-113000000D01*
X124400000Y-111100000D02*
X122500000Y-113000000D01*
X124700000Y-111100000D02*
X124400000Y-111100000D01*
X118698700Y-113000000D02*
X117698700Y-112000000D01*
D36*
%TO.N,/USB_D+*%
X120650000Y-108500000D02*
X121150000Y-108000000D01*
%TO.N,/USB_D-*%
X120650000Y-109000000D02*
X121150000Y-109500000D01*
X115812500Y-109000000D02*
X120650000Y-109000000D01*
%TO.N,/D_R-*%
X123000000Y-109700000D02*
X122800000Y-109500000D01*
X124450000Y-109700000D02*
X123000000Y-109700000D01*
%TO.N,/D_R+*%
X124450000Y-107800000D02*
X123000000Y-107800000D01*
X123000000Y-107800000D02*
X122800000Y-108000000D01*
X122825000Y-108025000D02*
X122800000Y-108000000D01*
X122825000Y-108100000D02*
X122825000Y-108025000D01*
%TO.N,/USB_D-*%
X121150000Y-109700000D02*
X121150000Y-109500000D01*
D37*
%TO.N,GND*%
X133300000Y-132000000D02*
X133118000Y-132000000D01*
%TO.N,/PB7*%
X100100000Y-83600000D02*
X95500000Y-79000000D01*
X100100000Y-86200000D02*
X100100000Y-83600000D01*
X111901000Y-103466100D02*
X111901000Y-98001000D01*
X111400000Y-103967100D02*
X111901000Y-103466100D01*
X111901000Y-98001000D02*
X100100000Y-86200000D01*
X111400000Y-105587500D02*
X111400000Y-103967100D01*
%TO.N,/PB8*%
X92840000Y-78700000D02*
X92660000Y-78700000D01*
%TO.N,/PB6*%
X97920000Y-78700000D02*
X97740000Y-78700000D01*
X112500000Y-103434200D02*
X112500000Y-97002000D01*
X112500000Y-97002000D02*
X101500000Y-86002000D01*
X111900000Y-104034200D02*
X112500000Y-103434200D01*
X101500000Y-86002000D02*
X101500000Y-82280000D01*
X111900000Y-105587500D02*
X111900000Y-104034200D01*
X101500000Y-82280000D02*
X98310000Y-79090000D01*
%TO.N,/PB7*%
X95200000Y-78700000D02*
X95380000Y-78700000D01*
%TO.N,/BOOT0*%
X110000000Y-98200000D02*
X105325000Y-98200000D01*
X110900000Y-103900000D02*
X111500000Y-103300000D01*
X111500000Y-103300000D02*
X111500000Y-99700000D01*
X110900000Y-105587500D02*
X110900000Y-103900000D01*
X111500000Y-99700000D02*
X110000000Y-98200000D01*
D38*
%TO.N,GND*%
X110012500Y-100512500D02*
X110000000Y-100500000D01*
X110012500Y-102000000D02*
X110012500Y-100512500D01*
X110012500Y-103387500D02*
X109600000Y-103800000D01*
X110012500Y-102000000D02*
X110012500Y-103387500D01*
D36*
%TO.N,/NRST*%
X96150000Y-113650000D02*
X96150000Y-114700000D01*
X97100000Y-112700000D02*
X96150000Y-113650000D01*
D37*
%TO.N,GND*%
X101900000Y-106100000D02*
X101400000Y-106100000D01*
X102300000Y-106500000D02*
X101900000Y-106100000D01*
X102330000Y-106500000D02*
X102300000Y-106500000D01*
X102850000Y-107020000D02*
X102330000Y-106500000D01*
D36*
%TO.N,/HSE_IN*%
X103999000Y-108499000D02*
X103480000Y-107980000D01*
X104011075Y-108499000D02*
X103999000Y-108499000D01*
X104451000Y-108951000D02*
X104451000Y-108938925D01*
X104451000Y-108938925D02*
X104011075Y-108499000D01*
X104500000Y-109000000D02*
X104451000Y-108951000D01*
X103480000Y-107980000D02*
X102850000Y-107980000D01*
X107487500Y-109000000D02*
X104500000Y-109000000D01*
%TO.N,GND*%
X122000000Y-115000000D02*
X123000000Y-115000000D01*
D38*
%TO.N,+VCC*%
X126100918Y-110999082D02*
X124750000Y-112350000D01*
X126459082Y-110999082D02*
X126100918Y-110999082D01*
X126460000Y-111000000D02*
X126459082Y-110999082D01*
X127600000Y-111000000D02*
X126460000Y-111000000D01*
D36*
%TO.N,GND*%
X113940000Y-115700000D02*
X114040000Y-115700000D01*
X113900000Y-115660000D02*
X113940000Y-115700000D01*
X113900000Y-113912500D02*
X113900000Y-115660000D01*
%TO.N,+3V3*%
X114900000Y-115700000D02*
X115000000Y-115700000D01*
X114900000Y-115300000D02*
X114900000Y-115700000D01*
X114400000Y-114800000D02*
X114900000Y-115300000D01*
X114400000Y-113912500D02*
X114400000Y-114800000D01*
D37*
%TO.N,/PB2*%
X115250000Y-120550000D02*
X115250000Y-124000000D01*
X112400000Y-117700000D02*
X115250000Y-120550000D01*
X112400000Y-113912500D02*
X112400000Y-117700000D01*
%TO.N,/PB1*%
X111900000Y-113912500D02*
X111949000Y-113961500D01*
%TO.N,/PB0*%
X111400000Y-113912500D02*
X111449000Y-113961500D01*
D36*
%TO.N,+3V3A*%
X105500000Y-112600000D02*
X103700000Y-114400000D01*
X105500000Y-112100000D02*
X105500000Y-112600000D01*
%TO.N,+3V3*%
X101400000Y-116012500D02*
X101587500Y-116200000D01*
X101400000Y-114375000D02*
X101400000Y-116012500D01*
%TO.N,+3V3A*%
X103700000Y-115912500D02*
X103412500Y-116200000D01*
X103700000Y-114400000D02*
X103700000Y-115912500D01*
D37*
%TO.N,/NRST*%
X98620000Y-112300000D02*
X98600000Y-112280000D01*
X100100000Y-112300000D02*
X98620000Y-112300000D01*
X101195682Y-111204318D02*
X100100000Y-112300000D01*
X107487500Y-110000000D02*
X104908636Y-110000000D01*
X104908636Y-110000000D02*
X103704318Y-111204318D01*
X103704318Y-111204318D02*
X101195682Y-111204318D01*
D36*
%TO.N,+3V3A*%
X105500000Y-112100000D02*
X105487500Y-112100000D01*
%TO.N,/NRST*%
X98180000Y-112700000D02*
X98600000Y-112280000D01*
X97100000Y-112700000D02*
X98180000Y-112700000D01*
D38*
%TO.N,GND*%
X99670000Y-111320000D02*
X99700000Y-111350000D01*
X98600000Y-111320000D02*
X99670000Y-111320000D01*
D36*
%TO.N,/HSE_OUT*%
X103782075Y-110230000D02*
X104512075Y-109500000D01*
X104512075Y-109500000D02*
X107487500Y-109500000D01*
X102850000Y-110230000D02*
X103782075Y-110230000D01*
%TO.N,GND*%
X104760000Y-111140000D02*
X104400000Y-111500000D01*
X105500000Y-111140000D02*
X104760000Y-111140000D01*
X106501000Y-110500000D02*
X106500000Y-110499000D01*
X107487500Y-110500000D02*
X106501000Y-110500000D01*
X106500000Y-110499000D02*
X106644466Y-110499000D01*
X106141000Y-110499000D02*
X106500000Y-110499000D01*
X105500000Y-111140000D02*
X106141000Y-110499000D01*
%TO.N,+3V3A*%
X106161000Y-111748999D02*
X105809999Y-112100000D01*
X106161000Y-111439000D02*
X106161000Y-111748999D01*
X106600000Y-111000000D02*
X106161000Y-111439000D01*
X105809999Y-112100000D02*
X105500000Y-112100000D01*
%TO.N,GND*%
X93950000Y-94050000D02*
X94000000Y-94000000D01*
X93950000Y-95700000D02*
X93950000Y-94050000D01*
%TO.N,/OUT*%
X121165000Y-119000000D02*
X121725000Y-118440000D01*
X120250000Y-119000000D02*
X121165000Y-119000000D01*
D37*
%TO.N,/PB6*%
X111900000Y-105588000D02*
X111900000Y-105587500D01*
%TO.N,/PB15*%
X115812000Y-111000000D02*
X115812500Y-111000000D01*
D36*
%TO.N,/D-*%
X127700000Y-109700000D02*
X126725000Y-109700000D01*
X127900000Y-109500000D02*
X127700000Y-109700000D01*
X131500000Y-109500000D02*
X127900000Y-109500000D01*
%TO.N,/D+*%
X129025000Y-107800000D02*
X126725000Y-107800000D01*
X129925000Y-108700000D02*
X129025000Y-107800000D01*
X131500000Y-108700000D02*
X129925000Y-108700000D01*
D37*
%TO.N,/PB12*%
X115812000Y-112625100D02*
X115812000Y-112500000D01*
X115812000Y-112500500D02*
X115812500Y-112500000D01*
X115812000Y-112625100D02*
X115812000Y-112500500D01*
%TO.N,/PB5*%
X112400000Y-105588000D02*
X112400000Y-105587500D01*
%TO.N,/PB4*%
X112900000Y-105588000D02*
X112900000Y-105587500D01*
%TO.N,/PB10*%
X112900000Y-113912000D02*
X112900000Y-113912500D01*
%TO.N,/PB7*%
X111400000Y-105588000D02*
X111400000Y-105587500D01*
%TO.N,/PB0*%
X111400000Y-113912000D02*
X111400000Y-113912500D01*
%TO.N,/PB2*%
X120050000Y-132000000D02*
X120560000Y-132000000D01*
X112400000Y-113912000D02*
X112400000Y-113912500D01*
D36*
%TO.N,/USB_D-*%
X115812500Y-109000000D02*
X115812000Y-109000000D01*
D37*
%TO.N,/PA6*%
X110400000Y-113912000D02*
X110400000Y-113912500D01*
%TO.N,/PB1*%
X111900500Y-113913000D02*
X111900000Y-113912500D01*
X111901000Y-113913000D02*
X111900500Y-113913000D01*
X111902000Y-113914000D02*
X111901000Y-113913000D01*
X111901000Y-113913000D02*
X111900000Y-113912000D01*
D36*
%TO.N,/USB_D+*%
X115812500Y-108500000D02*
X115812000Y-108500000D01*
D37*
%TO.N,/SW_BOOT0*%
X103675000Y-98200000D02*
X100450000Y-98200000D01*
%TO.N,/BOOT0*%
X110900000Y-105588000D02*
X110900000Y-105587500D01*
%TO.N,/SWDIO*%
X115812500Y-108000000D02*
X115812000Y-108000000D01*
D36*
%TO.N,/SWCLK*%
X114400000Y-105588000D02*
X114400000Y-105587500D01*
%TO.N,/PWR_LED_K*%
X127440000Y-121900000D02*
X128287500Y-121052500D01*
X124800000Y-121900000D02*
X127440000Y-121900000D01*
X128287500Y-121052500D02*
X128288000Y-121052000D01*
%TO.N,/BP*%
X121725000Y-116025000D02*
X121725000Y-116540000D01*
X120928000Y-115228000D02*
X121725000Y-116025000D01*
X120157000Y-115228000D02*
X120928000Y-115228000D01*
D37*
X120156600Y-115227600D02*
X120157000Y-115228000D01*
D36*
%TO.N,/IN*%
X123338000Y-116540000D02*
X124000000Y-116540000D01*
X122888000Y-116990000D02*
X123338000Y-116540000D01*
X122888000Y-117990000D02*
X122888000Y-116990000D01*
X123338000Y-118440000D02*
X122888000Y-117990000D01*
X124000000Y-118440000D02*
X123338000Y-118440000D01*
X126012000Y-116540000D02*
X124000000Y-116540000D01*
X126112000Y-116640000D02*
X126012000Y-116540000D01*
D37*
X127862000Y-115890000D02*
X127790000Y-115890000D01*
D38*
X127862000Y-115890000D02*
X127790000Y-115890000D01*
X127862000Y-115115000D02*
X127862000Y-115890000D01*
X127288000Y-114540000D02*
X127862000Y-115115000D01*
X126575000Y-114540000D02*
X127288000Y-114540000D01*
X126862000Y-115890000D02*
X126112000Y-116640000D01*
X127790000Y-115890000D02*
X126862000Y-115890000D01*
D36*
X126112000Y-116640000D02*
X126588000Y-116640000D01*
D37*
X126112500Y-116640000D02*
X126112000Y-116640000D01*
X127862500Y-115890000D02*
X127862000Y-115890000D01*
D38*
%TO.N,+VCC*%
X124750000Y-112350000D02*
X124750000Y-114540000D01*
X125960000Y-110500000D02*
X126418000Y-110957000D01*
X125017000Y-108750000D02*
X124450000Y-108750000D01*
X125564000Y-109297000D02*
X125017000Y-108750000D01*
X125564000Y-110103000D02*
X125564000Y-109297000D01*
X125960000Y-110500000D02*
X125564000Y-110103000D01*
X128300000Y-110300000D02*
X127600000Y-111000000D01*
X131500000Y-110300000D02*
X128300000Y-110300000D01*
X126460000Y-111000000D02*
X125960000Y-110500000D01*
D37*
X123500000Y-114540000D02*
X124750000Y-114540000D01*
X123000000Y-114040000D02*
X123500000Y-114540000D01*
D36*
%TO.N,/HSE_OUT*%
X102100000Y-109700000D02*
X101400000Y-109700000D01*
X102630000Y-110230000D02*
X102100000Y-109700000D01*
X102850000Y-110230000D02*
X102630000Y-110230000D01*
X107488000Y-109500000D02*
X107487500Y-109500000D01*
%TO.N,/HSE_IN*%
X100800000Y-108600000D02*
X99700000Y-107500000D01*
X102230000Y-108600000D02*
X100800000Y-108600000D01*
X102850000Y-107980000D02*
X102230000Y-108600000D01*
X107488000Y-109000000D02*
X107487500Y-109000000D01*
%TO.N,+3V3A*%
X107488000Y-111000000D02*
X107487500Y-111000000D01*
X107487500Y-111000000D02*
X106600000Y-111000000D01*
%TO.N,+3V3*%
X118157000Y-118993000D02*
X118150000Y-119000000D01*
X118157000Y-117260000D02*
X118157000Y-118993000D01*
X118157000Y-116680000D02*
X118157000Y-117260000D01*
X119900000Y-121900000D02*
X122000000Y-121900000D01*
X118150000Y-120150000D02*
X119900000Y-121900000D01*
X118150000Y-119000000D02*
X118150000Y-120150000D01*
D37*
X118157000Y-117260000D02*
X118157000Y-116680000D01*
X118156600Y-116680000D02*
X118157000Y-116680000D01*
X118156600Y-116680100D02*
X118156600Y-116680000D01*
D36*
X108900000Y-105588000D02*
X108900000Y-105587500D01*
D37*
X108187500Y-102000000D02*
X108188000Y-102000000D01*
D36*
X107488000Y-107000000D02*
X107487500Y-107000000D01*
X115812000Y-107000000D02*
X115812500Y-107000000D01*
X107487500Y-107000000D02*
X105800000Y-107000000D01*
X116800000Y-106700000D02*
X117600000Y-106700000D01*
X116500000Y-107000000D02*
X116800000Y-106700000D01*
X115812500Y-107000000D02*
X116500000Y-107000000D01*
D37*
X117864000Y-106700000D02*
X117600000Y-106700000D01*
D38*
X108188000Y-102000000D02*
X108188000Y-103348000D01*
X108308800Y-103468800D02*
X108318000Y-103478000D01*
X108513800Y-103673800D02*
X108640000Y-103800000D01*
X108308800Y-103468700D02*
X108308800Y-103468800D01*
X108318000Y-103478000D02*
X108346300Y-103506300D01*
X108188000Y-103348000D02*
X108308700Y-103468700D01*
X108308700Y-103468700D02*
X108308800Y-103468700D01*
X108501700Y-103661700D02*
X108513800Y-103673800D01*
X108346300Y-103506300D02*
X108429700Y-103589700D01*
X108429700Y-103589700D02*
X108501700Y-103661700D01*
D36*
X114400000Y-113912000D02*
X114400000Y-113912200D01*
X114400000Y-113912200D02*
X114400000Y-113912500D01*
X108640000Y-104120000D02*
X108640000Y-103920000D01*
X108640000Y-103920000D02*
X108640000Y-103800000D01*
X108640000Y-104440000D02*
X108640000Y-104120000D01*
X108900000Y-104700000D02*
X108640000Y-104440000D01*
X108900000Y-105587500D02*
X108900000Y-104700000D01*
D37*
X130600000Y-131880000D02*
X130660000Y-131940000D01*
X130660000Y-131940000D02*
X130690000Y-131970000D01*
X130690000Y-131970000D02*
X130720000Y-132000000D01*
D36*
%TO.N,GND*%
X128175000Y-108750000D02*
X126725000Y-108750000D01*
X118560000Y-107660000D02*
X118600000Y-107700000D01*
X117600000Y-107660000D02*
X118560000Y-107660000D01*
D38*
X99700000Y-109700000D02*
X99700000Y-111350000D01*
D36*
X103680000Y-109270000D02*
X102850000Y-109270000D01*
X103700000Y-109250000D02*
X103680000Y-109270000D01*
X130000000Y-107100000D02*
X129400000Y-106500000D01*
X131500000Y-107100000D02*
X130000000Y-107100000D01*
D37*
X101400000Y-106930000D02*
X101490000Y-107020000D01*
D38*
X101400000Y-107500000D02*
X101400000Y-106930000D01*
D36*
X105800000Y-106040000D02*
X105800000Y-105000000D01*
D37*
X105620000Y-106220000D02*
X105800000Y-106040000D01*
D38*
X101400000Y-106220000D02*
X101400000Y-106100000D01*
D36*
X107488000Y-110500000D02*
X107487500Y-110500000D01*
X115812000Y-107500000D02*
X115812500Y-107500000D01*
X116860000Y-107660000D02*
X117600000Y-107660000D01*
X116700000Y-107500000D02*
X116860000Y-107660000D01*
X115812500Y-107500000D02*
X116700000Y-107500000D01*
X109400000Y-105588000D02*
X109400000Y-105587500D01*
X109600000Y-104500000D02*
X109600000Y-103800000D01*
X109400000Y-104700000D02*
X109600000Y-104500000D01*
X109400000Y-105587500D02*
X109400000Y-104700000D01*
D38*
X101400000Y-106930000D02*
X101400000Y-106304800D01*
X101400000Y-106304800D02*
X101400000Y-106220000D01*
D36*
X113900000Y-112500000D02*
X113900000Y-112625100D01*
X113900000Y-112625100D02*
X113900000Y-113159800D01*
X113900000Y-113159800D02*
X113900000Y-113912500D01*
D37*
%TO.N,/SWCLK*%
X129465000Y-92330000D02*
X127830000Y-92330000D01*
X127830000Y-92330000D02*
X126800000Y-91300000D01*
%TD*%
%TA.AperFunction,Conductor*%
%TO.N,GND*%
G36*
X118415547Y-113287248D02*
G01*
X118436189Y-113303882D01*
X118452787Y-113320480D01*
X118544113Y-113373207D01*
X118645973Y-113400501D01*
X118645975Y-113400501D01*
X118759023Y-113400501D01*
X118759039Y-113400500D01*
X120017339Y-113400500D01*
X120084378Y-113420185D01*
X120085336Y-113420806D01*
X120641864Y-113786190D01*
X120687101Y-113839438D01*
X120696826Y-113874269D01*
X120745777Y-114261004D01*
X120747583Y-114275271D01*
X120736472Y-114344252D01*
X120718273Y-114372050D01*
X120514156Y-114607588D01*
X120455375Y-114645359D01*
X120408871Y-114649838D01*
X120379671Y-114647100D01*
X120379666Y-114647100D01*
X120148528Y-114647100D01*
X120124288Y-114644708D01*
X119900000Y-114600000D01*
X119841154Y-114658811D01*
X119794461Y-114688142D01*
X119778444Y-114693747D01*
X119778439Y-114693750D01*
X119671601Y-114772601D01*
X119592750Y-114879439D01*
X119592748Y-114879443D01*
X119587231Y-114895207D01*
X119557848Y-114941951D01*
X119124134Y-115375415D01*
X119062801Y-115408882D01*
X119036934Y-115411707D01*
X117501620Y-115417351D01*
X117434508Y-115397913D01*
X117406738Y-115373725D01*
X117129166Y-115047620D01*
X117100703Y-114983810D01*
X117111257Y-114914742D01*
X117112482Y-114912196D01*
X117194052Y-114747563D01*
X117107195Y-114330649D01*
X117112793Y-114261004D01*
X117138124Y-114220552D01*
X117994810Y-113306753D01*
X118055022Y-113271310D01*
X118085273Y-113267563D01*
X118348508Y-113267563D01*
X118415547Y-113287248D01*
G37*
%TD.AperFunction*%
%TD*%
%TA.AperFunction,Conductor*%
%TO.N,GND*%
G36*
X127551807Y-116447458D02*
G01*
X127609681Y-116467710D01*
X127624557Y-116469105D01*
X127639430Y-116470500D01*
X127639434Y-116470500D01*
X128085570Y-116470500D01*
X128097467Y-116469384D01*
X128115319Y-116467710D01*
X128115328Y-116467706D01*
X128122688Y-116466100D01*
X128123050Y-116467758D01*
X128140413Y-116466869D01*
X128166551Y-116461824D01*
X128179182Y-116464884D01*
X128183605Y-116464658D01*
X128200848Y-116470134D01*
X128356117Y-116532241D01*
X128411051Y-116575415D01*
X128433874Y-116640494D01*
X128478291Y-117439999D01*
X128478292Y-117440000D01*
X128678922Y-117440000D01*
X128745961Y-117459685D01*
X128760577Y-117470681D01*
X129094544Y-117762903D01*
X129132034Y-117821863D01*
X129134136Y-117830240D01*
X129272761Y-118477152D01*
X129275514Y-118503134D01*
X129275514Y-119821273D01*
X129255829Y-119888312D01*
X129217234Y-119926425D01*
X129050713Y-120030501D01*
X128905671Y-120121152D01*
X128839951Y-120140000D01*
X128283230Y-120140000D01*
X128267850Y-120139042D01*
X127496591Y-120042634D01*
X127456517Y-120030501D01*
X127275514Y-119940000D01*
X127275515Y-119940000D01*
X126825514Y-119890000D01*
X125510339Y-119890000D01*
X125443300Y-119870315D01*
X125397545Y-119817511D01*
X125394770Y-119810943D01*
X125083945Y-119011679D01*
X125075514Y-118966736D01*
X125075514Y-118290001D01*
X125075514Y-118290000D01*
X124945826Y-118138697D01*
X124922935Y-118098959D01*
X124915293Y-118077118D01*
X124834650Y-117967850D01*
X124725382Y-117887207D01*
X124725380Y-117887206D01*
X124597200Y-117842353D01*
X124566770Y-117839500D01*
X124566766Y-117839500D01*
X123462500Y-117839500D01*
X123395461Y-117819815D01*
X123349706Y-117767011D01*
X123338500Y-117715500D01*
X123338500Y-117264500D01*
X123358185Y-117197461D01*
X123410989Y-117151706D01*
X123462500Y-117140500D01*
X124566770Y-117140500D01*
X124597199Y-117137646D01*
X124597201Y-117137646D01*
X124682654Y-117107744D01*
X124725382Y-117092793D01*
X124736461Y-117084615D01*
X124802090Y-117060644D01*
X124852291Y-117067784D01*
X124975470Y-117112362D01*
X125155029Y-117177343D01*
X125211369Y-117218666D01*
X125211636Y-117219017D01*
X125269576Y-117295421D01*
X125390156Y-117386860D01*
X125390157Y-117386860D01*
X125390158Y-117386861D01*
X125500887Y-117430527D01*
X125543738Y-117458867D01*
X125737502Y-117655594D01*
X125768686Y-117677052D01*
X125787500Y-117690000D01*
X125787502Y-117690001D01*
X125887500Y-117740000D01*
X125887499Y-117740000D01*
X125892421Y-117740311D01*
X125970280Y-117745234D01*
X126725514Y-117740000D01*
X126925514Y-117590000D01*
X127125514Y-117260000D01*
X127275514Y-116880000D01*
X127353465Y-116537015D01*
X127368149Y-116510705D01*
X127380667Y-116483297D01*
X127385003Y-116480509D01*
X127387516Y-116476009D01*
X127414093Y-116461815D01*
X127439445Y-116445523D01*
X127446500Y-116444508D01*
X127449147Y-116443095D01*
X127474380Y-116440500D01*
X127510852Y-116440500D01*
X127551807Y-116447458D01*
G37*
%TD.AperFunction*%
%TD*%
M02*
