%TF.GenerationSoftware,KiCad,Pcbnew,9.0.5*%
%TF.CreationDate,2025-11-25T11:18:22+01:00*%
%TF.ProjectId,PTP,5054502e-6b69-4636-9164-5f7063625858,rev?*%
%TF.SameCoordinates,Original*%
%TF.FileFunction,Soldermask,Top*%
%TF.FilePolarity,Negative*%
%FSLAX46Y46*%
G04 Gerber Fmt 4.6, Leading zero omitted, Abs format (unit mm)*
G04 Created by KiCad (PCBNEW 9.0.5) date 2025-11-25 11:18:22*
%MOMM*%
%LPD*%
G01*
G04 APERTURE LIST*
G04 Aperture macros list*
%AMRoundRect*
0 Rectangle with rounded corners*
0 $1 Rounding radius*
0 $2 $3 $4 $5 $6 $7 $8 $9 X,Y pos of 4 corners*
0 Add a 4 corners polygon primitive as box body*
4,1,4,$2,$3,$4,$5,$6,$7,$8,$9,$2,$3,0*
0 Add four circle primitives for the rounded corners*
1,1,$1+$1,$2,$3*
1,1,$1+$1,$4,$5*
1,1,$1+$1,$6,$7*
1,1,$1+$1,$8,$9*
0 Add four rect primitives between the rounded corners*
20,1,$1+$1,$2,$3,$4,$5,0*
20,1,$1+$1,$4,$5,$6,$7,0*
20,1,$1+$1,$6,$7,$8,$9,0*
20,1,$1+$1,$8,$9,$2,$3,0*%
G04 Aperture macros list end*
%ADD10RoundRect,0.111000X1.284000X-0.259000X1.284000X0.259000X-1.284000X0.259000X-1.284000X-0.259000X0*%
%ADD11R,1.700000X1.700000*%
%ADD12C,1.700000*%
%ADD13RoundRect,0.140000X0.170000X-0.140000X0.170000X0.140000X-0.170000X0.140000X-0.170000X-0.140000X0*%
%ADD14RoundRect,0.200000X-0.200000X-0.275000X0.200000X-0.275000X0.200000X0.275000X-0.200000X0.275000X0*%
%ADD15RoundRect,0.250000X0.262500X0.450000X-0.262500X0.450000X-0.262500X-0.450000X0.262500X-0.450000X0*%
%ADD16RoundRect,0.140000X-0.170000X0.140000X-0.170000X-0.140000X0.170000X-0.140000X0.170000X0.140000X0*%
%ADD17RoundRect,0.150000X0.512500X0.150000X-0.512500X0.150000X-0.512500X-0.150000X0.512500X-0.150000X0*%
%ADD18RoundRect,0.250000X0.450000X-0.262500X0.450000X0.262500X-0.450000X0.262500X-0.450000X-0.262500X0*%
%ADD19C,1.000000*%
%ADD20R,2.300000X0.500000*%
%ADD21R,2.299996X0.500000*%
%ADD22R,2.500000X2.000000*%
%ADD23R,2.500000X1.999992*%
%ADD24RoundRect,0.225000X0.250000X-0.225000X0.250000X0.225000X-0.250000X0.225000X-0.250000X-0.225000X0*%
%ADD25RoundRect,0.140000X-0.140000X-0.170000X0.140000X-0.170000X0.140000X0.170000X-0.140000X0.170000X0*%
%ADD26RoundRect,0.140000X0.140000X0.170000X-0.140000X0.170000X-0.140000X-0.170000X0.140000X-0.170000X0*%
%ADD27RoundRect,0.250000X-0.350000X0.450000X-0.350000X-0.450000X0.350000X-0.450000X0.350000X0.450000X0*%
%ADD28RoundRect,0.250000X-0.262500X-0.450000X0.262500X-0.450000X0.262500X0.450000X-0.262500X0.450000X0*%
%ADD29RoundRect,0.250000X-0.450000X0.262500X-0.450000X-0.262500X0.450000X-0.262500X0.450000X0.262500X0*%
%ADD30RoundRect,0.250000X0.375000X0.625000X-0.375000X0.625000X-0.375000X-0.625000X0.375000X-0.625000X0*%
%ADD31RoundRect,0.112500X-0.187500X-0.112500X0.187500X-0.112500X0.187500X0.112500X-0.187500X0.112500X0*%
%ADD32RoundRect,0.200000X0.200000X0.275000X-0.200000X0.275000X-0.200000X-0.275000X0.200000X-0.275000X0*%
%ADD33RoundRect,0.050000X-0.800000X0.450000X-0.800000X-0.450000X0.800000X-0.450000X0.800000X0.450000X0*%
%ADD34RoundRect,0.075000X-0.662500X-0.075000X0.662500X-0.075000X0.662500X0.075000X-0.662500X0.075000X0*%
%ADD35RoundRect,0.075000X-0.075000X-0.662500X0.075000X-0.662500X0.075000X0.662500X-0.075000X0.662500X0*%
G04 APERTURE END LIST*
D10*
%TO.C,J2*%
X133535000Y-94870000D03*
X129465000Y-94870000D03*
X133535000Y-93600000D03*
X129465000Y-93600000D03*
X133535000Y-92330000D03*
X129465000Y-92330000D03*
X133535000Y-91055000D03*
X129465000Y-91060000D03*
X133535000Y-89790000D03*
X129465000Y-89790000D03*
X133535000Y-88520000D03*
X129465000Y-88520000D03*
X129465000Y-87250000D03*
X133535000Y-87250000D03*
%TD*%
D11*
%TO.C,J4*%
X85000000Y-132000000D03*
D12*
X87540000Y-132000000D03*
X90080000Y-132000000D03*
X92620000Y-132000000D03*
X95160000Y-132000000D03*
X97700000Y-132000000D03*
X100240000Y-132000000D03*
X102780000Y-132000000D03*
X105320000Y-132000000D03*
X107860000Y-132000000D03*
X110400000Y-132000000D03*
X112940000Y-132000000D03*
X115480000Y-132000000D03*
X118020000Y-132000000D03*
X120560000Y-132000000D03*
X123100000Y-132000000D03*
X125640000Y-132000000D03*
X128180000Y-132000000D03*
X130720000Y-132000000D03*
X133260000Y-132000000D03*
%TD*%
D11*
%TO.C,J5*%
X85000000Y-78000000D03*
D12*
X87540000Y-78000000D03*
X90080000Y-78000000D03*
X92620000Y-78000000D03*
X95160000Y-78000000D03*
X97700000Y-78000000D03*
X100240000Y-78000000D03*
X102780000Y-78000000D03*
X105320000Y-78000000D03*
X107860000Y-78000000D03*
X110400000Y-78000000D03*
X112940000Y-78000000D03*
X115480000Y-78000000D03*
X118020000Y-78000000D03*
X120560000Y-78000000D03*
X123100000Y-78000000D03*
X125640000Y-78000000D03*
X128180000Y-78000000D03*
X130720000Y-78000000D03*
X133260000Y-78000000D03*
%TD*%
D13*
%TO.C,C15*%
X120156600Y-114267600D03*
X120156600Y-115227600D03*
%TD*%
D14*
%TO.C,R3*%
X122800000Y-109500000D03*
X121150000Y-109500000D03*
%TD*%
D15*
%TO.C,FB1*%
X101587500Y-116200000D03*
X103412500Y-116200000D03*
%TD*%
D13*
%TO.C,C11*%
X102850000Y-110230000D03*
X102850000Y-109270000D03*
%TD*%
D14*
%TO.C,R2*%
X96150000Y-114700000D03*
X97800000Y-114700000D03*
%TD*%
D16*
%TO.C,C4*%
X117600000Y-106700000D03*
X117600000Y-107660000D03*
%TD*%
%TO.C,C9*%
X98600000Y-111320000D03*
X98600000Y-112280000D03*
%TD*%
D17*
%TO.C,U2*%
X126725000Y-109700000D03*
X126725000Y-108750000D03*
X126725000Y-107800000D03*
X124450000Y-107800000D03*
X124450000Y-108750000D03*
X124450000Y-109700000D03*
%TD*%
D18*
%TO.C,C16*%
X118156600Y-116680100D03*
X118156600Y-114855100D03*
%TD*%
D19*
%TO.C,J1*%
X134200000Y-110900000D03*
X134200000Y-106500000D03*
D20*
X131500000Y-110300000D03*
X131500000Y-109500000D03*
X131500000Y-108700000D03*
D21*
X131500002Y-107900000D03*
D20*
X131500000Y-107100000D03*
D22*
X131600000Y-113150000D03*
D23*
X137100000Y-113150000D03*
D22*
X131600000Y-104250000D03*
D23*
X137100000Y-104250000D03*
%TD*%
D18*
%TO.C,R7*%
X128287500Y-121052500D03*
X128287500Y-119227500D03*
%TD*%
D24*
%TO.C,C8*%
X101400000Y-114375000D03*
X101400000Y-112825000D03*
%TD*%
D13*
%TO.C,C10*%
X102850000Y-107980000D03*
X102850000Y-107020000D03*
%TD*%
D25*
%TO.C,C2*%
X108640000Y-103800000D03*
X109600000Y-103800000D03*
%TD*%
D14*
%TO.C,R4*%
X121150000Y-108000000D03*
X122800000Y-108000000D03*
%TD*%
D24*
%TO.C,C7*%
X103700000Y-114400000D03*
X103700000Y-112850000D03*
%TD*%
D26*
%TO.C,C5*%
X114900000Y-115700000D03*
X113940000Y-115700000D03*
%TD*%
D27*
%TO.C,Y1*%
X99700000Y-107500000D03*
X99700000Y-109700000D03*
X101400000Y-109700000D03*
X101400000Y-107500000D03*
%TD*%
D28*
%TO.C,C1*%
X108187500Y-102000000D03*
X110012500Y-102000000D03*
%TD*%
D14*
%TO.C,R1*%
X103675000Y-98200000D03*
X105325000Y-98200000D03*
%TD*%
D13*
%TO.C,C6*%
X105500000Y-111140000D03*
X105500000Y-112100000D03*
%TD*%
D29*
%TO.C,C14*%
X126112500Y-116640000D03*
X126112500Y-118465000D03*
%TD*%
D30*
%TO.C,D1*%
X124800000Y-121900000D03*
X122000000Y-121900000D03*
%TD*%
D12*
%TO.C,J3*%
X85800000Y-98160000D03*
X85800000Y-100700000D03*
X85800000Y-103240000D03*
X85800000Y-105780000D03*
X85800000Y-108320000D03*
D11*
X85800000Y-110860000D03*
%TD*%
D13*
%TO.C,C3*%
X105800000Y-107000000D03*
X105800000Y-106040000D03*
%TD*%
D17*
%TO.C,U3*%
X124000000Y-118440000D03*
X124000000Y-117490000D03*
X124000000Y-116540000D03*
X121725000Y-116540000D03*
X121725000Y-118440000D03*
%TD*%
D31*
%TO.C,D2*%
X118150000Y-119000000D03*
X120250000Y-119000000D03*
%TD*%
D32*
%TO.C,R5*%
X116900000Y-124000000D03*
X115250000Y-124000000D03*
%TD*%
D28*
%TO.C,R6*%
X124750000Y-114540000D03*
X126575000Y-114540000D03*
%TD*%
D16*
%TO.C,C13*%
X127862500Y-115890000D03*
X127862500Y-116850000D03*
%TD*%
%TO.C,C12*%
X123000000Y-114040000D03*
X123000000Y-115000000D03*
%TD*%
D33*
%TO.C,SW1*%
X93950000Y-95700000D03*
X100450000Y-98200000D03*
X93950000Y-100700000D03*
%TD*%
D34*
%TO.C,U1*%
X107487500Y-107000000D03*
X107487500Y-107500000D03*
X107487500Y-108000000D03*
X107487500Y-108500000D03*
X107487500Y-109000000D03*
X107487500Y-109500000D03*
X107487500Y-110000000D03*
X107487500Y-110500000D03*
X107487500Y-111000000D03*
X107487500Y-111500000D03*
X107487500Y-112000000D03*
X107487500Y-112500000D03*
D35*
X108900000Y-113912500D03*
X109400000Y-113912500D03*
X109900000Y-113912500D03*
X110400000Y-113912500D03*
X110900000Y-113912500D03*
X111400000Y-113912500D03*
X111900000Y-113912500D03*
X112400000Y-113912500D03*
X112900000Y-113912500D03*
X113400000Y-113912500D03*
X113900000Y-113912500D03*
X114400000Y-113912500D03*
D34*
X115812500Y-112500000D03*
X115812500Y-112000000D03*
X115812500Y-111500000D03*
X115812500Y-111000000D03*
X115812500Y-110500000D03*
X115812500Y-110000000D03*
X115812500Y-109500000D03*
X115812500Y-109000000D03*
X115812500Y-108500000D03*
X115812500Y-108000000D03*
X115812500Y-107500000D03*
X115812500Y-107000000D03*
D35*
X114400000Y-105587500D03*
X113900000Y-105587500D03*
X113400000Y-105587500D03*
X112900000Y-105587500D03*
X112400000Y-105587500D03*
X111900000Y-105587500D03*
X111400000Y-105587500D03*
X110900000Y-105587500D03*
X110400000Y-105587500D03*
X109900000Y-105587500D03*
X109400000Y-105587500D03*
X108900000Y-105587500D03*
%TD*%
M02*
